ISO-10303-21;
HEADER;
FILE_DESCRIPTION (( 'STEP AP203' ),
    '1' );
FILE_NAME ('三腿连接体.STEP',
    '2026-09-12T10:33:06',
    ( '' ),
    ( '' ),
    'SwSTEP 2.0',
    'SolidWorks 2016',
    '' );
FILE_SCHEMA (( 'CONFIG_CONTROL_DESIGN' ));
ENDSEC;

DATA;
#1 = CARTESIAN_POINT ( 'NONE',  ( -5.219763809935855600, 3.014031845607440600, 1.399999999999999900 ) ) ;
#2 = UNCERTAINTY_MEASURE_WITH_UNIT (LENGTH_MEASURE( 1.000000000000000100E-005 ), #184, 'distance_accuracy_value', 'NONE');
#3 = B_SPLINE_CURVE_WITH_KNOTS ( 'NONE', 1,
 ( #421, #413 ),
 .UNSPECIFIED., .F., .F.,
 ( 2, 2 ),
 ( 0.002000128539727358600, 0.005018565174711855200 ),
 .UNSPECIFIED. ) ;
#4 = CARTESIAN_POINT ( 'NONE',  ( 5.500000000000000000, 0.2809492259410330500, 0.8000000000000000400 ) ) ;
#5 = LOCAL_TIME ( 18, 33, 6.000000000000000000, #488 ) ;
#6 = SECURITY_CLASSIFICATION ( '', '', #426 ) ;
#7 = B_SPLINE_CURVE_WITH_KNOTS ( 'NONE', 1,
 ( #270, #157 ),
 .UNSPECIFIED., .F., .F.,
 ( 2, 2 ),
 ( 0.0000000000000000000, 0.0005999999999999999500 ),
 .UNSPECIFIED. ) ;
#8 = CARTESIAN_POINT ( 'NONE',  ( -3.221037879010404400, 4.458129089873929200, 0.8000000000000000400 ) ) ;
#9 = CARTESIAN_POINT ( 'NONE',  ( -2.250334105676050200, -2.000128539727361600, 0.8000000000000000400 ) ) ;
#10 = CARTESIAN_POINT ( 'NONE',  ( -5.471307561289364700, 0.5610646752183047200, 0.2000000000000000900 ) ) ;
#11 = CARTESIAN_POINT ( 'NONE',  ( 2.249757518739518200, -5.018823677603647200, 0.8000000000000000400 ) ) ;
#12 = CARTESIAN_POINT ( 'NONE',  ( -8.844674573221501400E-016, 5.500000000000000000, 0.0000000000000000000 ) ) ;
#13 = GEOMETRICALLY_BOUNDED_WIREFRAME_SHAPE_REPRESENTATION ( '三腿连接体', ( #469, #504 ), #248 ) ;
#14 = DIRECTION ( 'NONE',  ( 1.000000000000000000, 1.060087206458995200E-015, 0.0000000000000000000 ) ) ;
#15 = CARTESIAN_POINT ( 'NONE',  ( -2.250334105676046200, -5.018565174711858000, 0.8000000000000000400 ) ) ;
#16 = CARTESIAN_POINT ( 'NONE',  ( -5.500000000000000000, 6.735557395310442000E-016, 0.8000000000000000400 ) ) ;
#17 = CARTESIAN_POINT ( 'NONE',  ( 5.220110051079281300, 3.013432138355354600, 0.2000000000000000900 ) ) ;
#18 = B_SPLINE_CURVE_WITH_KNOTS ( 'NONE', 1,
 ( #417, #174 ),
 .UNSPECIFIED., .F., .F.,
 ( 2, 2 ),
 ( 0.0000000000000000000, 0.0005999999999999999500 ),
 .UNSPECIFIED. ) ;
#19 = CARTESIAN_POINT ( 'NONE',  ( -5.000000000000000000, 0.0000000000000000000, 1.600000000000000100 ) ) ;
#20 = APPROVAL_ROLE ( '' ) ;
#21 = CARTESIAN_POINT ( 'NONE',  ( -5.500000000000000000, 6.735557395310442000E-016, 0.8000000000000000400 ) ) ;
#22 = CARTESIAN_POINT ( 'NONE',  ( -2.250091624415563100, -5.018145184848600100, 0.8000000000000000400 ) ) ;
#23 = B_SPLINE_CURVE_WITH_KNOTS ( 'NONE', 1,
 ( #360, #361 ),
 .UNSPECIFIED., .F., .F.,
 ( 2, 2 ),
 ( 0.002000128539727359000, 0.005018823677603649800 ),
 .UNSPECIFIED. ) ;
#24 = DIRECTION ( 'NONE',  ( -0.4334103029091835900, -0.9011967095657693600, 0.0000000000000000000 ) ) ;
#25 = COORDINATED_UNIVERSAL_TIME_OFFSET ( 8, 0, .AHEAD. ) ;
#26 = CARTESIAN_POINT ( 'NONE',  ( -5.471307561289364700, 0.5610646752183040500, 0.8000000000000000400 ) ) ;
#27 = B_SPLINE_CURVE_WITH_KNOTS ( 'NONE', 1,
 ( #148, #478 ),
 .UNSPECIFIED., .F., .F.,
 ( 2, 2 ),
 ( 0.0000000000000000000, 0.0005999999999999999500 ),
 .UNSPECIFIED. ) ;
#28 = CARTESIAN_POINT ( 'NONE',  ( -0.6069950734001704500, 2.948910772381669900, 1.399999999999999900 ) ) ;
#29 = CC_DESIGN_APPROVAL ( #536, ( #397 ) ) ;
#30 = CARTESIAN_POINT ( 'NONE',  ( -8.040613248383183700E-016, 5.000000000000000000, 1.600000000000000100 ) ) ;
#31 = CARTESIAN_POINT ( 'NONE',  ( 3.221550042549819800, 4.457759002385306400, 1.399999999999999900 ) ) ;
#32 = CARTESIAN_POINT ( 'NONE',  ( 2.857329179076197900, -0.9487822326543009500, 1.399999999999999900 ) ) ;
#33 = PRODUCT_RELATED_PRODUCT_CATEGORY ( 'detail', '', ( #75 ) ) ;
#34 = CARTESIAN_POINT ( 'NONE',  ( -1.000000000000000000, 0.0000000000000000000, 1.600000000000000100 ) ) ;
#35 =( BOUNDED_CURVE ( )  B_SPLINE_CURVE ( 2, ( #140, #461, #63, #253, #510 ),
 .UNSPECIFIED., .F., .T. ) 
 B_SPLINE_CURVE_WITH_KNOTS ( ( 3, 2, 3 ),
 ( 3.141592653589793100, 4.712388980384689700, 6.283185307179586200 ),
 .UNSPECIFIED. ) 
 CURVE ( )  GEOMETRIC_REPRESENTATION_ITEM ( )  RATIONAL_B_SPLINE_CURVE ( ( 1.000000000000000000, 0.7071067811865475700, 1.000000000000000000, 0.7071067811865475700, 1.000000000000000000 ) ) 
 REPRESENTATION_ITEM ( '' )  );
#36 = B_SPLINE_CURVE_WITH_KNOTS ( 'NONE', 1,
 ( #176, #459 ),
 .UNSPECIFIED., .F., .F.,
 ( 2, 2 ),
 ( -0.0005999999999999999500, 0.0000000000000000000 ),
 .UNSPECIFIED. ) ;
#37 = APPROVAL_PERSON_ORGANIZATION ( #474, #499, #380 ) ;
#38 = B_SPLINE_CURVE_WITH_KNOTS ( 'NONE', 1,
 ( #497, #11 ),
 .UNSPECIFIED., .F., .F.,
 ( 2, 2 ),
 ( 0.002000128539727359000, 0.005018823677603649800 ),
 .UNSPECIFIED. ) ;
#39 = B_SPLINE_CURVE_WITH_KNOTS ( 'NONE', 1,
 ( #117, #322 ),
 .UNSPECIFIED., .F., .F.,
 ( 2, 2 ),
 ( 0.0000000000000000000, 0.001300000000000000400 ),
 .UNSPECIFIED. ) ;
#40 = CARTESIAN_POINT ( 'NONE',  ( -0.9999999999999998900, 1.000000000000000000, 1.599999999999999900 ) ) ;
#41 = CARTESIAN_POINT ( 'NONE',  ( -3.221037879010404400, 4.458129089873929200, 1.399999999999999900 ) ) ;
#42 = CARTESIAN_POINT ( 'NONE',  ( 0.6072833668683927900, 2.948411433447147200, 0.8000000000000000400 ) ) ;
#43 = CARTESIAN_POINT ( 'NONE',  ( -0.6069950734001704500, 2.948910772381669900, 0.8000000000000000400 ) ) ;
#44 = B_SPLINE_CURVE_WITH_KNOTS ( 'NONE', 1,
 ( #304, #107 ),
 .UNSPECIFIED., .F., .F.,
 ( 2, 2 ),
 ( 0.002000128539727359000, 0.005018823677603649800 ),
 .UNSPECIFIED. ) ;
#45 = DATE_AND_TIME ( #154, #432 ) ;
#46 = CARTESIAN_POINT ( 'NONE',  ( -5.471307561289364700, 0.5610646752183040500, 1.399999999999999900 ) ) ;
#47 = CARTESIAN_POINT ( 'NONE',  ( -0.6069950734001704500, 2.948910772381669900, 0.8000000000000000400 ) ) ;
#48 =( BOUNDED_CURVE ( )  B_SPLINE_CURVE ( 2, ( #326, #364, #408 ),
 .UNSPECIFIED., .F., .T. ) 
 B_SPLINE_CURVE_WITH_KNOTS ( ( 3, 3 ),
 ( 3.039403131574284400, 3.141592653589793100 ),
 .UNSPECIFIED. ) 
 CURVE ( )  GEOMETRIC_REPRESENTATION_ITEM ( )  RATIONAL_B_SPLINE_CURVE ( ( 1.000000000000000000, 0.9986949466583133800, 1.000000000000000000 ) ) 
 REPRESENTATION_ITEM ( '' )  );
#49 = CARTESIAN_POINT ( 'NONE',  ( -2.250334105676050200, -2.000128539727361600, 0.2000000000000000900 ) ) ;
#50 = CARTESIAN_POINT ( 'NONE',  ( 0.6072833668683927900, 2.948411433447147200, 0.8000000000000000400 ) ) ;
#51 = CARTESIAN_POINT ( 'NONE',  ( -2.250334105676050200, -2.000128539727361600, 0.2000000000000000900 ) ) ;
#52 = CARTESIAN_POINT ( 'NONE',  ( -0.9999999999999998900, 0.9999999999999998900, 0.7999999999999999300 ) ) ;
#53 = CARTESIAN_POINT ( 'NONE',  ( 0.0003897936983143501200, 6.785639206585364600, 0.8000000000000000400 ) ) ;
#54 = CARTESIAN_POINT ( 'NONE',  ( -3.221037879010404400, 4.458129089873929200, 0.2000000000000000900 ) ) ;
#55 = CARTESIAN_POINT ( 'NONE',  ( 5.000000000000000000, 6.123233995736766300E-016, 2.100000000000000100 ) ) ;
#56 = CARTESIAN_POINT ( 'NONE',  ( -1.000000000000000200, -0.9999999999999998900, 0.7999999999999999300 ) ) ;
#57 = CARTESIAN_POINT ( 'NONE',  ( 3.221550042549819400, 4.457759002385308200, 0.8000000000000000400 ) ) ;
#58 = CARTESIAN_POINT ( 'NONE',  ( -2.250334105676050200, -2.000128539727361600, 0.8000000000000000400 ) ) ;
#59 = B_SPLINE_CURVE_WITH_KNOTS ( 'NONE', 1,
 ( #490, #453 ),
 .UNSPECIFIED., .F., .F.,
 ( 2, 2 ),
 ( 0.002000128539727359000, 0.005018823677603649800 ),
 .UNSPECIFIED. ) ;
#60 = CARTESIAN_POINT ( 'NONE',  ( -2.250334105676050200, -2.000128539727361600, 0.8000000000000000400 ) ) ;
#61 = CARTESIAN_POINT ( 'NONE',  ( 2.249757518739515100, -2.000128539727356700, 0.8000000000000000400 ) ) ;
#62 = CARTESIAN_POINT ( 'NONE',  ( 2.250000000000000400, -5.023680395267456700, 0.8000000000000000400 ) ) ;
#63 = CARTESIAN_POINT ( 'NONE',  ( -1.010333609296566400E-015, -5.500000000000000000, 0.0000000000000000000 ) ) ;
#64 = CARTESIAN_POINT ( 'NONE',  ( 0.0005403817207199260600, -0.3887843851495109100, 0.8000000000000000400 ) ) ;
#65 = CARTESIAN_POINT ( 'NONE',  ( 0.6072833668683923500, 2.948411433447146700, 0.2000000000000000900 ) ) ;
#66 = CARTESIAN_POINT ( 'NONE',  ( 2.250000000000000400, -5.023680395267456700, 0.8000000000000000400 ) ) ;
#67 = APPROVAL ( #471, '未指定' ) ;
#68 = CARTESIAN_POINT ( 'NONE',  ( 5.499999999999999100, -3.561857278769379900, 0.8000000000000000400 ) ) ;
#69 = B_SPLINE_CURVE_WITH_KNOTS ( 'NONE', 1,
 ( #50, #240 ),
 .UNSPECIFIED., .F., .F.,
 ( 2, 2 ),
 ( 0.002000128539727359900, 0.005018823677603649800 ),
 .UNSPECIFIED. ) ;
#70 = SHAPE_DEFINITION_REPRESENTATION ( #239, #13 ) ;
#71 = CARTESIAN_POINT ( 'NONE',  ( 5.471371984686380000, 0.5604360848379631400, 1.399999999999999900 ) ) ;
#72 = CARTESIAN_POINT ( 'NONE',  ( 0.9999999999999998900, -1.000000000000000200, 0.7999999999999999300 ) ) ;
#73 = PERSON_AND_ORGANIZATION ( #445, #368 ) ;
#74 =( BOUNDED_CURVE ( )  B_SPLINE_CURVE ( 2, ( #507, #97, #458, #291, #362 ),
 .UNSPECIFIED., .F., .F. ) 
 B_SPLINE_CURVE_WITH_KNOTS ( ( 3, 2, 3 ),
 ( 1.224646799147353200E-016, 1.570796326794896800, 3.141592653589793100 ),
 .UNSPECIFIED. ) 
 CURVE ( )  GEOMETRIC_REPRESENTATION_ITEM ( )  RATIONAL_B_SPLINE_CURVE ( ( 1.000000000000000000, 0.7071067811865475700, 1.000000000000000000, 0.7071067811865475700, 1.000000000000000000 ) ) 
 REPRESENTATION_ITEM ( '' )  );
#75 = PRODUCT ( '三腿连接体', '三腿连接体', '', ( #516 ) ) ;
#76 = CARTESIAN_POINT ( 'NONE',  ( 2.857329179076197900, -0.9487822326543009500, 0.8000000000000000400 ) ) ;
#77 = CARTESIAN_POINT ( 'NONE',  ( 1.000000000000000000, -1.224646799147353200E-016, 0.8000000000000000400 ) ) ;
#78 = CARTESIAN_POINT ( 'NONE',  ( 2.857329179076198300, -0.9487822326543007300, 0.8000000000000000400 ) ) ;
#79 = CARTESIAN_POINT ( 'NONE',  ( 5.471371984686380900, 0.5604360848379633700, 0.8000000000000000400 ) ) ;
#80 = B_SPLINE_CURVE_WITH_KNOTS ( 'NONE', 1,
 ( #318, #34 ),
 .UNSPECIFIED., .F., .F.,
 ( 2, 2 ),
 ( 0.0000000000000000000, 0.0008000000000000000400 ),
 .UNSPECIFIED. ) ;
#81 = TRIMMED_CURVE ( 'NONE', #111, ( PARAMETER_VALUE ( 0.0000000000000000000 ), #96 ), ( PARAMETER_VALUE ( 1.000000000000000000 ), #506 ), .T., .PARAMETER. ) ;
#82 = CARTESIAN_POINT ( 'NONE',  ( 0.6072833668683923500, 2.948411433447146700, 0.8000000000000000400 ) ) ;
#83 = CARTESIAN_POINT ( 'NONE',  ( 6.123233995736766000E-017, 1.000000000000000000, 1.600000000000000100 ) ) ;
#84 = LOCAL_TIME ( 18, 33, 6.000000000000000000, #197 ) ;
#85 = B_SPLINE_CURVE_WITH_KNOTS ( 'NONE', 1,
 ( #31, #153 ),
 .UNSPECIFIED., .F., .F.,
 ( 2, 2 ),
 ( -0.0005999999999999999500, 0.0000000000000000000 ),
 .UNSPECIFIED. ) ;
#86 = CARTESIAN_POINT ( 'NONE',  ( -5.000000000000000900, -4.999999999999999100, 2.100000000000000100 ) ) ;
#87 = CARTESIAN_POINT ( 'NONE',  ( 5.471371984686426200, 0.5604360848379679200, 0.8000000000000000400 ) ) ;
#88 = CARTESIAN_POINT ( 'NONE',  ( 2.857329179076198300, -0.9487822326543007300, 0.2000000000000000900 ) ) ;
#89 = CARTESIAN_POINT ( 'NONE',  ( -2.250334105676050200, -2.000128539727361600, 0.8000000000000000400 ) ) ;
#90 = PERSON_AND_ORGANIZATION ( #445, #368 ) ;
#91 = CARTESIAN_POINT ( 'NONE',  ( -5.499999999999999100, -3.561408848258640800, 0.8000000000000001600 ) ) ;
#92 = VECTOR ( 'NONE', #246, 3.018436634984496000 ) ;
#93 = CARTESIAN_POINT ( 'NONE',  ( -0.6069950734001704500, 2.948910772381669900, 1.399999999999999900 ) ) ;
#94 = B_SPLINE_CURVE_WITH_KNOTS ( 'NONE', 1,
 ( #47, #235 ),
 .UNSPECIFIED., .F., .F.,
 ( 2, 2 ),
 ( 0.002000128539727358600, 0.005018565174711855200 ),
 .UNSPECIFIED. ) ;
#95 = CARTESIAN_POINT ( 'NONE',  ( 1.000000000000000000, 1.224646799147353200E-016, 0.8000000000000000400 ) ) ;
#96 = CARTESIAN_POINT ( 'NONE',  ( -2.250091624415564900, -1.999708549864105000, 0.8000000000000000400 ) ) ;
#97 = CARTESIAN_POINT ( 'NONE',  ( 0.9999999999999998900, 1.000000000000000200, 0.0000000000000000000 ) ) ;
#98 = CARTESIAN_POINT ( 'NONE',  ( 2.249757518739515100, -2.000128539727356700, 0.2000000000000000900 ) ) ;
#99 = B_SPLINE_CURVE_WITH_KNOTS ( 'NONE', 1,
 ( #183, #188 ),
 .UNSPECIFIED., .F., .F.,
 ( 2, 2 ),
 ( -0.0000000000000000000, 0.0008000000000000000400 ),
 .UNSPECIFIED. ) ;
#100 = B_SPLINE_CURVE_WITH_KNOTS ( 'NONE', 1,
 ( #49, #329 ),
 .UNSPECIFIED., .F., .F.,
 ( 2, 2 ),
 ( 0.002000128539727358600, 0.005018565174711907300 ),
 .UNSPECIFIED. ) ;
#101 = DIRECTION ( 'NONE',  ( 1.000000000000000000, 1.927431284470900200E-016, 0.0000000000000000000 ) ) ;
#102 = CARTESIAN_POINT ( 'NONE',  ( 2.857329179076197900, -0.9487822326543009500, 0.8000000000000000400 ) ) ;
#103 = B_SPLINE_CURVE_WITH_KNOTS ( 'NONE', 1,
 ( #173, #290 ),
 .UNSPECIFIED., .F., .F.,
 ( 2, 2 ),
 ( 0.0000000000000000000, 0.0005999999999999999500 ),
 .UNSPECIFIED. ) ;
#104 = CARTESIAN_POINT ( 'NONE',  ( 5.500000000000000000, 6.735557395310442000E-016, 0.0000000000000000000 ) ) ;
#105 = CC_DESIGN_SECURITY_CLASSIFICATION ( #6, ( #397 ) ) ;
#106 = CARTESIAN_POINT ( 'NONE',  ( -5.499999999999999100, 5.500000000000000000, 2.100000000000000100 ) ) ;
#107 = CARTESIAN_POINT ( 'NONE',  ( 2.249757518739518200, -5.018823677603647200, 0.8000000000000000400 ) ) ;
#108 = DIRECTION ( 'NONE',  ( 0.9563047559630352100, 0.2923717047227372700, 0.0000000000000000000 ) ) ;
#109 = B_SPLINE_CURVE_WITH_KNOTS ( 'NONE', 1,
 ( #145, #65 ),
 .UNSPECIFIED., .F., .F.,
 ( 2, 2 ),
 ( -0.002250334105676052600, 0.002249757518739513800 ),
 .UNSPECIFIED. ) ;
#110 = B_SPLINE_CURVE_WITH_KNOTS ( 'NONE', 1,
 ( #379, #213 ),
 .UNSPECIFIED., .F., .F.,
 ( 2, 2 ),
 ( 0.002000128539727359900, 0.005018823677603650700 ),
 .UNSPECIFIED. ) ;
#111 = LINE ( 'NONE', #420, #320 ) ;
#112 = CARTESIAN_POINT ( 'NONE',  ( 5.500000000000000000, -1.347111479062088400E-015, 0.8000000000000000400 ) ) ;
#113 = CARTESIAN_POINT ( 'NONE',  ( -2.250334105676046200, -5.018565174711858000, 0.8000000000000000400 ) ) ;
#114 =( BOUNDED_CURVE ( )  B_SPLINE_CURVE ( 2, ( #375, #17, #370 ),
 .UNSPECIFIED., .F., .T. ) 
 B_SPLINE_CURVE_WITH_KNOTS ( ( 3, 3 ),
 ( 0.1020746341807689300, 0.9450080291810844000 ),
 .UNSPECIFIED. ) 
 CURVE ( )  GEOMETRIC_REPRESENTATION_ITEM ( )  RATIONAL_B_SPLINE_CURVE ( ( 1.000000000000000000, 0.9124898971705687200, 1.000000000000000000 ) ) 
 REPRESENTATION_ITEM ( '' )  );
#115 = B_SPLINE_CURVE_WITH_KNOTS ( 'NONE', 1,
 ( #258, #427 ),
 .UNSPECIFIED., .F., .F.,
 ( 2, 2 ),
 ( -0.002250334105676051800, 0.002249757518739512900 ),
 .UNSPECIFIED. ) ;
#116 = LOCAL_TIME ( 18, 33, 6.000000000000000000, #222 ) ;
#117 = CARTESIAN_POINT ( 'NONE',  ( 5.500000000000000000, -6.735557395310442000E-016, 0.8000000000000000400 ) ) ;
#118 = CARTESIAN_POINT ( 'NONE',  ( -5.000000000000000000, 6.123233995736766300E-016, 2.100000000000000100 ) ) ;
#119 = CARTESIAN_POINT ( 'NONE',  ( 4.999999999999999100, -5.000000000000000900, 2.100000000000000100 ) ) ;
#120 = CARTESIAN_POINT ( 'NONE',  ( 1.000000000000000000, 0.9999999999999998900, 0.7999999999999999300 ) ) ;
#121 = B_SPLINE_CURVE_WITH_KNOTS ( 'NONE', 1,
 ( #60, #336 ),
 .UNSPECIFIED., .F., .F.,
 ( 2, 2 ),
 ( 0.002000128539727358600, 0.005018565174711855200 ),
 .UNSPECIFIED. ) ;
#122 = COORDINATED_UNIVERSAL_TIME_OFFSET ( 8, 0, .AHEAD. ) ;
#123 = B_SPLINE_CURVE_WITH_KNOTS ( 'NONE', 1,
 ( #466, #293 ),
 .UNSPECIFIED., .F., .F.,
 ( 2, 2 ),
 ( -0.002250334105676052200, 0.002249757518739512900 ),
 .UNSPECIFIED. ) ;
#124 = CARTESIAN_POINT ( 'NONE',  ( -2.250334105676050200, -2.000128539727361600, 0.2000000000000000900 ) ) ;
#125 = CARTESIAN_POINT ( 'NONE',  ( -3.221037879010376900, 4.458129089873890100, 0.8000000000000000400 ) ) ;
#126 = CARTESIAN_POINT ( 'NONE',  ( -2.250334105676046200, -5.018565174711909500, 1.399999999999999900 ) ) ;
#127 = B_SPLINE_CURVE_WITH_KNOTS ( 'NONE', 1,
 ( #418, #102 ),
 .UNSPECIFIED., .F., .F.,
 ( 2, 2 ),
 ( 0.0000000000000000000, 0.0005999999999999999500 ),
 .UNSPECIFIED. ) ;
#128 =( BOUNDED_CURVE ( )  B_SPLINE_CURVE ( 2, ( #180, #505, #301, #343, #472 ),
 .UNSPECIFIED., .F., .T. ) 
 B_SPLINE_CURVE_WITH_KNOTS ( ( 3, 2, 3 ),
 ( 3.141592653589793100, 4.712388980384689700, 6.283185307179586200 ),
 .UNSPECIFIED. ) 
 CURVE ( )  GEOMETRIC_REPRESENTATION_ITEM ( )  RATIONAL_B_SPLINE_CURVE ( ( 1.000000000000000000, 0.7071067811865475700, 1.000000000000000000, 0.7071067811865475700, 1.000000000000000000 ) ) 
 REPRESENTATION_ITEM ( '' )  );
#129 = DIRECTION ( 'NONE',  ( 5.747092570607227700E-016, -1.000000000000000000, 0.0000000000000000000 ) ) ;
#130 = CARTESIAN_POINT ( 'NONE',  ( -0.6069950734001704500, 2.948910772381669900, 0.2000000000000000900 ) ) ;
#131 = CARTESIAN_POINT ( 'NONE',  ( 5.471371984686380000, 0.5604360848379631400, 0.8000000000000000400 ) ) ;
#132 =( BOUNDED_CURVE ( )  B_SPLINE_CURVE ( 2, ( #280, #120, #278, #448, #324 ),
 .UNSPECIFIED., .F., .F. ) 
 B_SPLINE_CURVE_WITH_KNOTS ( ( 3, 2, 3 ),
 ( 0.0000000000000000000, 1.570796326794896600, 3.141592653589793100 ),
 .UNSPECIFIED. ) 
 CURVE ( )  GEOMETRIC_REPRESENTATION_ITEM ( )  RATIONAL_B_SPLINE_CURVE ( ( 1.000000000000000000, 0.7071067811865475700, 1.000000000000000000, 0.7071067811865475700, 1.000000000000000000 ) ) 
 REPRESENTATION_ITEM ( '' )  );
#133 = DIRECTION ( 'NONE',  ( 1.003900247144823400E-015, -1.000000000000000000, 0.0000000000000000000 ) ) ;
#134 = CARTESIAN_POINT ( 'NONE',  ( -5.500000000000000000, 6.735557395310442000E-016, 0.0000000000000000000 ) ) ;
#135 = B_SPLINE_CURVE_WITH_KNOTS ( 'NONE', 1,
 ( #32, #76 ),
 .UNSPECIFIED., .F., .F.,
 ( 2, 2 ),
 ( 0.0000000000000000000, 0.0005999999999999999500 ),
 .UNSPECIFIED. ) ;
#136 = CARTESIAN_POINT ( 'NONE',  ( -1.000000000000000000, 0.0000000000000000000, 0.0000000000000000000 ) ) ;
#137 = DIRECTION ( 'NONE',  ( 0.0000000000000000000, 0.0000000000000000000, 1.000000000000000000 ) ) ;
#138 = AXIS2_PLACEMENT_3D ( 'NONE', #512, #262, #24 ) ;
#139 =( NAMED_UNIT ( * ) SI_UNIT ( $, .STERADIAN. ) SOLID_ANGLE_UNIT ( ) );
#140 = CARTESIAN_POINT ( 'NONE',  ( -5.500000000000000000, 6.735557395310442000E-016, 0.0000000000000000000 ) ) ;
#141 = CARTESIAN_POINT ( 'NONE',  ( -5.500000000000000000, 0.0000000000000000000, 2.100000000000000100 ) ) ;
#142 = CARTESIAN_POINT ( 'NONE',  ( 3.367778697655221000E-016, 5.500000000000000000, 2.100000000000000100 ) ) ;
#143 = DIRECTION ( 'NONE',  ( 0.0000000000000000000, 0.0000000000000000000, 1.000000000000000000 ) ) ;
#144 = CALENDAR_DATE ( 2026, 12, 9 ) ;
#145 = CARTESIAN_POINT ( 'NONE',  ( 2.857329179076197900, -0.9487822326543009500, 0.2000000000000000900 ) ) ;
#146 = PERSON_AND_ORGANIZATION_ROLE ( 'design_owner' ) ;
#147 = CARTESIAN_POINT ( 'NONE',  ( -4.999999999999999100, 4.999999999999999100, 1.599999999999999900 ) ) ;
#148 = CARTESIAN_POINT ( 'NONE',  ( -2.857040885607912400, -0.9482828937198133400, 1.399999999999999900 ) ) ;
#149 = CARTESIAN_POINT ( 'NONE',  ( -2.250334105676050200, -2.000128539727361600, 1.399999999999999900 ) ) ;
#150 = B_SPLINE_CURVE_WITH_KNOTS ( 'NONE', 1,
 ( #463, #215 ),
 .UNSPECIFIED., .F., .F.,
 ( 2, 2 ),
 ( 0.0000000000000000000, 0.0005999999999999999500 ),
 .UNSPECIFIED. ) ;
#151 = CARTESIAN_POINT ( 'NONE',  ( -0.0003462411434589778900, -6.027463983962815200, 1.399999999999999900 ) ) ;
#152 = B_SPLINE_CURVE_WITH_KNOTS ( 'NONE', 1,
 ( #288, #141 ),
 .UNSPECIFIED., .F., .F.,
 ( 2, 2 ),
 ( 0.0000000000000000000, 0.001300000000000000400 ),
 .UNSPECIFIED. ) ;
#153 = CARTESIAN_POINT ( 'NONE',  ( 3.221550042549819800, 4.457759002385306400, 0.8000000000000000400 ) ) ;
#154 = CALENDAR_DATE ( 2026, 12, 9 ) ;
#155 =( BOUNDED_CURVE ( )  B_SPLINE_CURVE ( 2, ( #261, #433, #377 ),
 .UNSPECIFIED., .F., .T. ) 
 B_SPLINE_CURVE_WITH_KNOTS ( ( 3, 3 ),
 ( 0.0000000000000000000, 0.1020746341807689300 ),
 .UNSPECIFIED. ) 
 CURVE ( )  GEOMETRIC_REPRESENTATION_ITEM ( )  RATIONAL_B_SPLINE_CURVE ( ( 1.000000000000000000, 0.9986978788168680000, 1.000000000000000000 ) ) 
 REPRESENTATION_ITEM ( '' )  );
#156 = B_SPLINE_CURVE_WITH_KNOTS ( 'NONE', 1,
 ( #535, #82 ),
 .UNSPECIFIED., .F., .F.,
 ( 2, 2 ),
 ( -0.002250334105676052600, 0.002249757518739513800 ),
 .UNSPECIFIED. ) ;
#157 = CARTESIAN_POINT ( 'NONE',  ( -0.6069950734001704500, 2.948910772381669900, 0.8000000000000000400 ) ) ;
#158 = LINE ( 'NONE', #285, #272 ) ;
#159 = TRIMMED_CURVE ( 'NONE', #399, ( PARAMETER_VALUE ( 0.0000000000000000000 ), #259 ), ( PARAMETER_VALUE ( 0.8942738232232053700 ), #66 ), .T., .PARAMETER. ) ;
#160 = CARTESIAN_POINT ( 'NONE',  ( -9.184850993605147900E-016, -5.000000000000000000, 2.100000000000000100 ) ) ;
#161 = PRODUCT_DEFINITION ( '未知', '', #397, #223 ) ;
#162 = CARTESIAN_POINT ( 'NONE',  ( 1.000000000000000000, 0.0000000000000000000, 1.600000000000000100 ) ) ;
#163 = B_SPLINE_CURVE_WITH_KNOTS ( 'NONE', 1,
 ( #335, #136 ),
 .UNSPECIFIED., .F., .F.,
 ( 2, 2 ),
 ( -0.0000000000000000000, 0.0008000000000000000400 ),
 .UNSPECIFIED. ) ;
#164 = LINE ( 'NONE', #254, #228 ) ;
#165 = CARTESIAN_POINT ( 'NONE',  ( -5.219763809935855600, 3.014031845607440600, 0.2000000000000000900 ) ) ;
#166 = CARTESIAN_POINT ( 'NONE',  ( 5.471371984686380900, 0.5604360848379633700, 0.2000000000000000900 ) ) ;
#167 = CARTESIAN_POINT ( 'NONE',  ( 5.000000000000000000, 6.123233995736766300E-016, 1.600000000000000100 ) ) ;
#168 = CARTESIAN_POINT ( 'NONE',  ( 5.500000000000000000, -1.347111479062088400E-015, 0.8000000000000000400 ) ) ;
#169 = LINE ( 'NONE', #500, #92 ) ;
#170 = CARTESIAN_POINT ( 'NONE',  ( -5.471307561289364700, 0.5610646752183047200, 0.8000000000000000400 ) ) ;
#171 = CARTESIAN_POINT ( 'NONE',  ( 2.250000000000001800, -1.999708549864104100, 0.8000000000000000400 ) ) ;
#172 = CARTESIAN_POINT ( 'NONE',  ( -5.499999999999999100, 5.499999999999999100, 0.0000000000000000000 ) ) ;
#173 = CARTESIAN_POINT ( 'NONE',  ( -3.221037879010376900, 4.458129089873890100, 1.399999999999999900 ) ) ;
#174 = CARTESIAN_POINT ( 'NONE',  ( -3.221037879010376900, 4.458129089873890100, 0.8000000000000000400 ) ) ;
#175 = DIRECTION ( 'NONE',  ( 0.0000000000000000000, 0.0000000000000000000, 1.000000000000000000 ) ) ;
#176 = CARTESIAN_POINT ( 'NONE',  ( 3.221550042549819800, 4.457759002385306400, 0.2000000000000000900 ) ) ;
#177 = DATE_TIME_ROLE ( 'creation_date' ) ;
#178 = TRIMMED_CURVE ( 'NONE', #169, ( PARAMETER_VALUE ( 0.0000000000000000000 ), #9 ), ( PARAMETER_VALUE ( 1.000000000000000200 ), #494 ), .T., .PARAMETER. ) ;
#179 =( BOUNDED_CURVE ( )  B_SPLINE_CURVE ( 2, ( #522, #391, #308 ),
 .UNSPECIFIED., .F., .F. ) 
 B_SPLINE_CURVE_WITH_KNOTS ( ( 3, 3 ),
 ( 0.1020746341807689300, 0.9450080291810844000 ),
 .UNSPECIFIED. ) 
 CURVE ( )  GEOMETRIC_REPRESENTATION_ITEM ( )  RATIONAL_B_SPLINE_CURVE ( ( 1.000000000000000000, 0.9124898971705687200, 1.000000000000000000 ) ) 
 REPRESENTATION_ITEM ( '' )  );
#180 = CARTESIAN_POINT ( 'NONE',  ( -1.000000000000000000, 1.224646799147353200E-016, 0.0000000000000000000 ) ) ;
#181 = CALENDAR_DATE ( 2026, 12, 9 ) ;
#182 = CARTESIAN_POINT ( 'NONE',  ( -2.250091624415564900, -1.999708549864105000, 0.8000000000000000400 ) ) ;
#183 = CARTESIAN_POINT ( 'NONE',  ( 1.000000000000000000, 1.224646799147353200E-016, 0.8000000000000000400 ) ) ;
#184 =( LENGTH_UNIT ( ) NAMED_UNIT ( * ) SI_UNIT ( .MILLI., .METRE. ) );
#185 = CARTESIAN_POINT ( 'NONE',  ( 0.9999999999999998900, -1.000000000000000200, 1.599999999999999900 ) ) ;
#186 = CARTESIAN_POINT ( 'NONE',  ( 2.249757518739518200, -5.018823677603647200, 0.2000000000000000900 ) ) ;
#187 = B_SPLINE_CURVE_WITH_KNOTS ( 'NONE', 1,
 ( #237, #277 ),
 .UNSPECIFIED., .F., .F.,
 ( 2, 2 ),
 ( 0.0000000000000000000, 0.0005999999999999999500 ),
 .UNSPECIFIED. ) ;
#188 = CARTESIAN_POINT ( 'NONE',  ( 1.000000000000000000, 1.224646799147353200E-016, 0.0000000000000000000 ) ) ;
#189 = B_SPLINE_CURVE_WITH_KNOTS ( 'NONE', 1,
 ( #265, #61 ),
 .UNSPECIFIED., .F., .F.,
 ( 2, 2 ),
 ( 0.0000000000000000000, 0.0005999999999999999500 ),
 .UNSPECIFIED. ) ;
#190 = B_SPLINE_CURVE_WITH_KNOTS ( 'NONE', 1,
 ( #124, #98 ),
 .UNSPECIFIED., .F., .F.,
 ( 2, 2 ),
 ( -0.002250334105676052200, 0.002249757518739512900 ),
 .UNSPECIFIED. ) ;
#191 = CARTESIAN_POINT ( 'NONE',  ( 1.000000000000000000, -2.449293598294706400E-016, 0.8000000000000000400 ) ) ;
#192 =( BOUNDED_CURVE ( )  B_SPLINE_CURVE ( 2, ( #525, #226, #350, #72, #191 ),
 .UNSPECIFIED., .F., .F. ) 
 B_SPLINE_CURVE_WITH_KNOTS ( ( 3, 2, 3 ),
 ( 3.141592653589793100, 4.712388980384689700, 6.283185307179586200 ),
 .UNSPECIFIED. ) 
 CURVE ( )  GEOMETRIC_REPRESENTATION_ITEM ( )  RATIONAL_B_SPLINE_CURVE ( ( 1.000000000000000000, 0.7071067811865475700, 1.000000000000000000, 0.7071067811865475700, 1.000000000000000000 ) ) 
 REPRESENTATION_ITEM ( '' )  );
#193 = B_SPLINE_CURVE_WITH_KNOTS ( 'NONE', 1,
 ( #233, #404 ),
 .UNSPECIFIED., .F., .F.,
 ( 2, 2 ),
 ( -0.0005999999999999999500, 0.0000000000000000000 ),
 .UNSPECIFIED. ) ;
#194 = AXIS2_PLACEMENT_3D ( 'NONE', #382, #175, #369 ) ;
#195 = CARTESIAN_POINT ( 'NONE',  ( -1.000000000000000000, 1.224646799147353200E-016, 1.600000000000000100 ) ) ;
#196 = CARTESIAN_POINT ( 'NONE',  ( 0.6072833668683923500, 2.948411433447146700, 1.399999999999999900 ) ) ;
#197 = COORDINATED_UNIVERSAL_TIME_OFFSET ( 8, 0, .AHEAD. ) ;
#198 = B_SPLINE_CURVE_WITH_KNOTS ( 'NONE', 1,
 ( #407, #493 ),
 .UNSPECIFIED., .F., .F.,
 ( 2, 2 ),
 ( 0.002000128539727359500, 0.005018565174711857000 ),
 .UNSPECIFIED. ) ;
#199 =( BOUNDED_CURVE ( )  B_SPLINE_CURVE ( 2, ( #195, #321, #298, #185, #221 ),
 .UNSPECIFIED., .F., .F. ) 
 B_SPLINE_CURVE_WITH_KNOTS ( ( 3, 2, 3 ),
 ( 3.141592653589793100, 4.712388980384689700, 6.283185307179586200 ),
 .UNSPECIFIED. ) 
 CURVE ( )  GEOMETRIC_REPRESENTATION_ITEM ( )  RATIONAL_B_SPLINE_CURVE ( ( 1.000000000000000000, 0.7071067811865475700, 1.000000000000000000, 0.7071067811865475700, 1.000000000000000000 ) ) 
 REPRESENTATION_ITEM ( '' )  );
#200 = CARTESIAN_POINT ( 'NONE',  ( 2.857329179076198300, -0.9487822326543007300, 1.399999999999999900 ) ) ;
#201 = CARTESIAN_POINT ( 'NONE',  ( 2.249757518739518200, -5.018823677603647200, 1.399999999999999900 ) ) ;
#202 = APPROVAL_DATE_TIME ( #314, #67 ) ;
#203 = CARTESIAN_POINT ( 'NONE',  ( 5.500000000000000000, 6.735557395310442000E-016, 0.8000000000000000400 ) ) ;
#204 = VECTOR ( 'NONE', #133, 3.023971845403351700 ) ;
#205 = B_SPLINE_CURVE_WITH_KNOTS ( 'NONE', 1,
 ( #263, #219 ),
 .UNSPECIFIED., .F., .F.,
 ( 2, 2 ),
 ( 0.002000128539727359900, 0.005018823677603649800 ),
 .UNSPECIFIED. ) ;
#206 = CARTESIAN_POINT ( 'NONE',  ( -5.500000000000000000, 6.735557395310442000E-016, 2.100000000000000100 ) ) ;
#207 = B_SPLINE_CURVE_WITH_KNOTS ( 'NONE', 1,
 ( #443, #316 ),
 .UNSPECIFIED., .F., .F.,
 ( 2, 2 ),
 ( 0.002000128539727359000, 0.005018823677603649800 ),
 .UNSPECIFIED. ) ;
#208 = CARTESIAN_POINT ( 'NONE',  ( 2.249757518739518200, -5.018823677603647200, 0.2000000000000000900 ) ) ;
#209 = CARTESIAN_POINT ( 'NONE',  ( 0.0000000000000000000, 0.0000000000000000000, 0.0000000000000000000 ) ) ;
#210 = CARTESIAN_POINT ( 'NONE',  ( 5.499999999999999100, 5.500000000000000900, 0.0000000000000000000 ) ) ;
#211 = CARTESIAN_POINT ( 'NONE',  ( -0.6069950734001704500, 2.948910772381669900, 0.8000000000000000400 ) ) ;
#212 = CARTESIAN_POINT ( 'NONE',  ( -5.471307561289364700, 0.5610646752183047200, 1.399999999999999900 ) ) ;
#213 = CARTESIAN_POINT ( 'NONE',  ( 3.221550042549820700, 4.457759002385307300, 0.2000000000000000900 ) ) ;
#214 = TRIMMED_CURVE ( 'NONE', #164, ( PARAMETER_VALUE ( 0.0000000000000000000 ), #182 ), ( PARAMETER_VALUE ( 1.000000000000000200 ), #462 ), .T., .PARAMETER. ) ;
#215 = CARTESIAN_POINT ( 'NONE',  ( 0.6072833668683927900, 2.948411433447147200, 0.8000000000000000400 ) ) ;
#216 = DIRECTION ( 'NONE',  ( 0.0000000000000000000, 0.0000000000000000000, 1.000000000000000000 ) ) ;
#217 = CARTESIAN_POINT ( 'NONE',  ( 0.6072833668683923500, 2.948411433447146700, 0.8000000000000000400 ) ) ;
#218 = CARTESIAN_POINT ( 'NONE',  ( 0.0000000000000000000, 0.0000000000000000000, 1.600000000000000100 ) ) ;
#219 = CARTESIAN_POINT ( 'NONE',  ( 3.221550042549819800, 4.457759002385307300, 0.8000000000000000400 ) ) ;
#220 = CARTESIAN_POINT ( 'NONE',  ( 2.249757518739515100, -2.000128539727356700, 0.8000000000000000400 ) ) ;
#221 = CARTESIAN_POINT ( 'NONE',  ( 1.000000000000000000, -2.449293598294706400E-016, 1.600000000000000100 ) ) ;
#222 = COORDINATED_UNIVERSAL_TIME_OFFSET ( 8, 0, .AHEAD. ) ;
#223 = DESIGN_CONTEXT ( 'detailed design', #513, 'design' ) ;
#224 = CARTESIAN_POINT ( 'NONE',  ( 2.249757518739515600, -5.018823677603649000, 1.399999999999999900 ) ) ;
#225 =( BOUNDED_CURVE ( )  B_SPLINE_CURVE ( 2, ( #203, #4, #87 ),
 .UNSPECIFIED., .F., .F. ) 
 B_SPLINE_CURVE_WITH_KNOTS ( ( 3, 3 ),
 ( 1.224646799147353200E-016, 0.1020746341807689300 ),
 .UNSPECIFIED. ) 
 CURVE ( )  GEOMETRIC_REPRESENTATION_ITEM ( )  RATIONAL_B_SPLINE_CURVE ( ( 1.000000000000000000, 0.9986978788168680000, 1.000000000000000000 ) ) 
 REPRESENTATION_ITEM ( '' )  );
#226 = CARTESIAN_POINT ( 'NONE',  ( -1.000000000000000200, -0.9999999999999998900, 0.7999999999999999300 ) ) ;
#227 = AXIS2_PLACEMENT_3D ( 'NONE', #218, #300, #108 ) ;
#228 = VECTOR ( 'NONE', #129, 3.018436634984494700 ) ;
#229 = CARTESIAN_POINT ( 'NONE',  ( 3.221550042549820700, 4.457759002385307300, 1.399999999999999900 ) ) ;
#230 = APPROVAL_DATE_TIME ( #495, #536 ) ;
#231 = CARTESIAN_POINT ( 'NONE',  ( -5.500000000000000900, -5.499999999999999100, 2.100000000000000100 ) ) ;
#232 = B_SPLINE_CURVE_WITH_KNOTS ( 'NONE', 1,
 ( #244, #131 ),
 .UNSPECIFIED., .F., .F.,
 ( 2, 2 ),
 ( 0.0000000000000000000, 0.0005999999999999999500 ),
 .UNSPECIFIED. ) ;
#233 = CARTESIAN_POINT ( 'NONE',  ( 2.249757518739518200, -5.018823677603647200, 1.399999999999999900 ) ) ;
#234 = B_SPLINE_CURVE_WITH_KNOTS ( 'NONE', 1,
 ( #55, #167 ),
 .UNSPECIFIED., .F., .F.,
 ( 2, 2 ),
 ( -0.0000000000000000000, 0.0005000000000000002300 ),
 .UNSPECIFIED. ) ;
#235 = CARTESIAN_POINT ( 'NONE',  ( -3.221037879010376900, 4.458129089873890100, 0.8000000000000000400 ) ) ;
#236 = CARTESIAN_POINT ( 'NONE',  ( -1.000000000000000000, 1.224646799147353200E-016, 1.600000000000000100 ) ) ;
#237 = CARTESIAN_POINT ( 'NONE',  ( 2.249757518739515100, -2.000128539727356700, 1.399999999999999900 ) ) ;
#238 = CARTESIAN_POINT ( 'NONE',  ( -5.500000000000000000, 0.0000000000000000000, 0.0000000000000000000 ) ) ;
#239 = PRODUCT_DEFINITION_SHAPE ( 'NONE', 'NONE',  #161 ) ;
#240 = CARTESIAN_POINT ( 'NONE',  ( 3.221550042549819800, 4.457759002385307300, 0.8000000000000000400 ) ) ;
#241 = CARTESIAN_POINT ( 'NONE',  ( -5.500000000000000000, 6.735557395310442000E-016, 0.8000000000000000400 ) ) ;
#242 = CARTESIAN_POINT ( 'NONE',  ( 3.221550042549819400, 4.457759002385308200, 0.8000000000000000400 ) ) ;
#243 =( BOUNDED_CURVE ( )  B_SPLINE_CURVE ( 2, ( #162, #487, #83, #40, #236 ),
 .UNSPECIFIED., .F., .T. ) 
 B_SPLINE_CURVE_WITH_KNOTS ( ( 3, 2, 3 ),
 ( 0.0000000000000000000, 1.570796326794896600, 3.141592653589793100 ),
 .UNSPECIFIED. ) 
 CURVE ( )  GEOMETRIC_REPRESENTATION_ITEM ( )  RATIONAL_B_SPLINE_CURVE ( ( 1.000000000000000000, 0.7071067811865475700, 1.000000000000000000, 0.7071067811865475700, 1.000000000000000000 ) ) 
 REPRESENTATION_ITEM ( '' )  );
#244 = CARTESIAN_POINT ( 'NONE',  ( 5.471371984686380000, 0.5604360848379631400, 0.2000000000000000900 ) ) ;
#245 = CARTESIAN_POINT ( 'NONE',  ( -1.836970198721029900E-016, -1.000000000000000000, 0.8000000000000000400 ) ) ;
#246 = DIRECTION ( 'NONE',  ( 1.293095828386625800E-015, -1.000000000000000000, 0.0000000000000000000 ) ) ;
#247 = CARTESIAN_POINT ( 'NONE',  ( -2.857040885607912400, -0.9482828937198131100, 0.8000000000000000400 ) ) ;
#248 =( GEOMETRIC_REPRESENTATION_CONTEXT ( 3 ) GLOBAL_UNCERTAINTY_ASSIGNED_CONTEXT ( ( #2 ) ) GLOBAL_UNIT_ASSIGNED_CONTEXT ( ( #184, #468, #139 ) ) REPRESENTATION_CONTEXT ( 'NONE', 'WORKASPACE' ) );
#249 = TRIMMED_CURVE ( 'NONE', #527, ( PARAMETER_VALUE ( 0.0000000000000000000 ), #22 ), ( PARAMETER_VALUE ( 0.9047833049910871700 ), #348 ), .T., .PARAMETER. ) ;
#250 = CARTESIAN_POINT ( 'NONE',  ( -2.857040885607912400, -0.9482828937198133400, 0.8000000000000000400 ) ) ;
#251 = CARTESIAN_POINT ( 'NONE',  ( -5.471307561289364700, 0.5610646752183047200, 0.8000000000000000400 ) ) ;
#252 = CARTESIAN_POINT ( 'NONE',  ( -1.000000000000000000, 1.224646799147353200E-016, 0.8000000000000000400 ) ) ;
#253 = CARTESIAN_POINT ( 'NONE',  ( 5.499999999999999100, -5.500000000000000900, 0.0000000000000000000 ) ) ;
#254 = CARTESIAN_POINT ( 'NONE',  ( -2.250091624415564900, -1.999708549864105000, 0.8000000000000000400 ) ) ;
#255 = CC_DESIGN_PERSON_AND_ORGANIZATION_ASSIGNMENT ( #73, #518, ( #161 ) ) ;
#256 = PERSON_AND_ORGANIZATION_ROLE ( 'classification_officer' ) ;
#257 =( BOUNDED_CURVE ( )  B_SPLINE_CURVE ( 2, ( #26, #381, #21 ),
 .UNSPECIFIED., .F., .F. ) 
 B_SPLINE_CURVE_WITH_KNOTS ( ( 3, 3 ),
 ( 3.039403131574284400, 3.141592653589793100 ),
 .UNSPECIFIED. ) 
 CURVE ( )  GEOMETRIC_REPRESENTATION_ITEM ( )  RATIONAL_B_SPLINE_CURVE ( ( 1.000000000000000000, 0.9986949466583133800, 1.000000000000000000 ) ) 
 REPRESENTATION_ITEM ( '' )  );
#258 = CARTESIAN_POINT ( 'NONE',  ( -0.6069950734001704500, 2.948910772381669900, 0.2000000000000000900 ) ) ;
#259 = CARTESIAN_POINT ( 'NONE',  ( -2.250334105676046200, -5.018565174711858000, 0.8000000000000000400 ) ) ;
#260 = PERSON_AND_ORGANIZATION_ROLE ( 'design_supplier' ) ;
#261 = CARTESIAN_POINT ( 'NONE',  ( 5.500000000000000000, 0.0000000000000000000, 0.8000000000000000400 ) ) ;
#262 = DIRECTION ( 'NONE',  ( 0.0000000000000000000, 0.0000000000000000000, 1.000000000000000000 ) ) ;
#263 = CARTESIAN_POINT ( 'NONE',  ( 0.6072833668683927900, 2.948411433447147200, 0.8000000000000000400 ) ) ;
#264 = APPROVAL_STATUS ( 'not_yet_approved' ) ;
#265 = CARTESIAN_POINT ( 'NONE',  ( 2.249757518739515100, -2.000128539727356700, 0.2000000000000000900 ) ) ;
#266 = CARTESIAN_POINT ( 'NONE',  ( -5.000000000000000000, 6.123233995736766300E-016, 1.600000000000000100 ) ) ;
#267 = CARTESIAN_POINT ( 'NONE',  ( 4.999999999999999100, -5.000000000000000900, 1.599999999999999900 ) ) ;
#268 = CARTESIAN_POINT ( 'NONE',  ( -4.999999999999999100, 4.999999999999999100, 2.100000000000000100 ) ) ;
#269 = AXIS2_PLACEMENT_3D ( 'NONE', #384, #143, #428 ) ;
#270 = CARTESIAN_POINT ( 'NONE',  ( -0.6069950734001704500, 2.948910772381669900, 1.399999999999999900 ) ) ;
#271 = B_SPLINE_CURVE_WITH_KNOTS ( 'NONE', 1,
 ( #450, #42 ),
 .UNSPECIFIED., .F., .F.,
 ( 2, 2 ),
 ( 0.0000000000000000000, 0.0005999999999999999500 ),
 .UNSPECIFIED. ) ;
#272 = VECTOR ( 'NONE', #297, 3.023971845403352600 ) ;
#273 =( BOUNDED_CURVE ( )  B_SPLINE_CURVE ( 2, ( #521, #313, #356, #268, #476 ),
 .UNSPECIFIED., .F., .F. ) 
 B_SPLINE_CURVE_WITH_KNOTS ( ( 3, 2, 3 ),
 ( 1.224646799147353200E-016, 1.570796326794896800, 3.141592653589793100 ),
 .UNSPECIFIED. ) 
 CURVE ( )  GEOMETRIC_REPRESENTATION_ITEM ( )  RATIONAL_B_SPLINE_CURVE ( ( 1.000000000000000000, 0.7071067811865475700, 1.000000000000000000, 0.7071067811865475700, 1.000000000000000000 ) ) 
 REPRESENTATION_ITEM ( '' )  );
#274 = B_SPLINE_CURVE_WITH_KNOTS ( 'NONE', 1,
 ( #363, #238 ),
 .UNSPECIFIED., .F., .F.,
 ( 2, 2 ),
 ( -0.0000000000000000000, 0.0008000000000000000400 ),
 .UNSPECIFIED. ) ;
#275 = CARTESIAN_POINT ( 'NONE',  ( 5.499999999999999100, -5.500000000000000900, 2.100000000000000100 ) ) ;
#276 = B_SPLINE_CURVE_WITH_KNOTS ( 'NONE', 1,
 ( #446, #125 ),
 .UNSPECIFIED., .F., .F.,
 ( 2, 2 ),
 ( 0.002000128539727358600, 0.005018565174711855200 ),
 .UNSPECIFIED. ) ;
#277 = CARTESIAN_POINT ( 'NONE',  ( 2.249757518739515100, -2.000128539727356700, 0.8000000000000000400 ) ) ;
#278 = CARTESIAN_POINT ( 'NONE',  ( 6.123233995736766000E-017, 1.000000000000000000, 0.8000000000000000400 ) ) ;
#279 = B_SPLINE_CURVE_WITH_KNOTS ( 'NONE', 1,
 ( #396, #311 ),
 .UNSPECIFIED., .F., .F.,
 ( 2, 2 ),
 ( 0.0000000000000000000, 0.0005999999999999999500 ),
 .UNSPECIFIED. ) ;
#280 = CARTESIAN_POINT ( 'NONE',  ( 1.000000000000000000, 0.0000000000000000000, 0.8000000000000000400 ) ) ;
#281 = CARTESIAN_POINT ( 'NONE',  ( 1.000000000000000000, -1.224646799147353200E-016, 1.600000000000000100 ) ) ;
#282 = CARTESIAN_POINT ( 'NONE',  ( -2.250334105676046200, -5.018565174711858000, 0.2000000000000000900 ) ) ;
#283 = B_SPLINE_CURVE_WITH_KNOTS ( 'NONE', 1,
 ( #43, #401 ),
 .UNSPECIFIED., .F., .F.,
 ( 2, 2 ),
 ( -0.002250334105676051800, 0.002249757518739512900 ),
 .UNSPECIFIED. ) ;
#284 = CARTESIAN_POINT ( 'NONE',  ( 0.9999999999999998900, 1.000000000000000200, 0.7999999999999999300 ) ) ;
#285 = CARTESIAN_POINT ( 'NONE',  ( 2.250000000000001800, -1.999708549864104100, 0.8000000000000000400 ) ) ;
#286 = PERSON_AND_ORGANIZATION ( #445, #368 ) ;
#287 = CARTESIAN_POINT ( 'NONE',  ( -2.857040885607912400, -0.9482828937198133400, 0.2000000000000000900 ) ) ;
#288 = CARTESIAN_POINT ( 'NONE',  ( -5.500000000000000000, 0.0000000000000000000, 0.8000000000000000400 ) ) ;
#289 = TRIMMED_CURVE ( 'NONE', #312, ( PARAMETER_VALUE ( 0.0000000000000000000 ), #58 ), ( PARAMETER_VALUE ( 1.000000000000000000 ), #333 ), .T., .PARAMETER. ) ;
#290 = CARTESIAN_POINT ( 'NONE',  ( -3.221037879010376900, 4.458129089873890100, 0.8000000000000000400 ) ) ;
#291 = CARTESIAN_POINT ( 'NONE',  ( -0.9999999999999998900, 0.9999999999999998900, 0.0000000000000000000 ) ) ;
#292 = CARTESIAN_POINT ( 'NONE',  ( -1.608122649676636600E-016, 1.000000000000000000, 0.8000000000000000400 ) ) ;
#293 = CARTESIAN_POINT ( 'NONE',  ( 2.249757518739515100, -2.000128539727356700, 0.8000000000000000400 ) ) ;
#294 = CARTESIAN_POINT ( 'NONE',  ( 0.9999999999999998900, -1.000000000000000200, 0.7999999999999999300 ) ) ;
#295 = B_SPLINE_CURVE_WITH_KNOTS ( 'NONE', 1,
 ( #130, #503 ),
 .UNSPECIFIED., .F., .F.,
 ( 2, 2 ),
 ( 0.0000000000000000000, 0.0005999999999999999500 ),
 .UNSPECIFIED. ) ;
#296 = CARTESIAN_POINT ( 'NONE',  ( 5.500000000000000000, 6.735557395310442000E-016, 0.8000000000000000400 ) ) ;
#297 = DIRECTION ( 'NONE',  ( -4.302429630620670200E-016, -1.000000000000000000, 0.0000000000000000000 ) ) ;
#298 = CARTESIAN_POINT ( 'NONE',  ( -1.836970198721029900E-016, -1.000000000000000000, 1.600000000000000100 ) ) ;
#299 = B_SPLINE_CURVE_WITH_KNOTS ( 'NONE', 1,
 ( #484, #229 ),
 .UNSPECIFIED., .F., .F.,
 ( 2, 2 ),
 ( 0.002000128539727359900, 0.005018823677603650700 ),
 .UNSPECIFIED. ) ;
#300 = DIRECTION ( 'NONE',  ( 0.0000000000000000000, 0.0000000000000000000, 1.000000000000000000 ) ) ;
#301 = CARTESIAN_POINT ( 'NONE',  ( -1.836970198721029900E-016, -1.000000000000000000, 0.0000000000000000000 ) ) ;
#302 = DIRECTION ( 'NONE',  ( 0.0000000000000000000, 0.0000000000000000000, 1.000000000000000000 ) ) ;
#303 = DATE_TIME_ROLE ( 'classification_date' ) ;
#304 = CARTESIAN_POINT ( 'NONE',  ( 2.249757518739515100, -2.000128539727356700, 0.8000000000000000400 ) ) ;
#305 = B_SPLINE_CURVE_WITH_KNOTS ( 'NONE', 1,
 ( #439, #113 ),
 .UNSPECIFIED., .F., .F.,
 ( 2, 2 ),
 ( 0.0000000000000000000, 0.0005999999999999999500 ),
 .UNSPECIFIED. ) ;
#306 = APPROVAL_ROLE ( '' ) ;
#307 = APPROVAL_PERSON_ORGANIZATION ( #328, #67, #20 ) ;
#308 = CARTESIAN_POINT ( 'NONE',  ( 3.221550042549819400, 4.457759002385307300, 1.399999999999999900 ) ) ;
#309 = CC_DESIGN_PERSON_AND_ORGANIZATION_ASSIGNMENT ( #286, #508, ( #397 ) ) ;
#310 = CARTESIAN_POINT ( 'NONE',  ( 5.000000000000000000, 6.123233995736766300E-016, 1.600000000000000100 ) ) ;
#311 = CARTESIAN_POINT ( 'NONE',  ( -2.250334105676050200, -2.000128539727361600, 0.8000000000000000400 ) ) ;
#312 = LINE ( 'NONE', #341, #437 ) ;
#313 = CARTESIAN_POINT ( 'NONE',  ( 4.999999999999999100, 5.000000000000000900, 2.100000000000000100 ) ) ;
#314 = DATE_AND_TIME ( #398, #116 ) ;
#315 = AXIS2_PLACEMENT_3D ( 'NONE', #209, #137, #332 ) ;
#316 = CARTESIAN_POINT ( 'NONE',  ( -5.471307561289364700, 0.5610646752183052800, 0.8000000000000000400 ) ) ;
#317 = B_SPLINE_CURVE_WITH_KNOTS ( 'NONE', 1,
 ( #10, #170 ),
 .UNSPECIFIED., .F., .F.,
 ( 2, 2 ),
 ( -0.0005999999999999999500, 0.0000000000000000000 ),
 .UNSPECIFIED. ) ;
#318 = CARTESIAN_POINT ( 'NONE',  ( -1.000000000000000000, 0.0000000000000000000, 0.8000000000000000400 ) ) ;
#319 = B_SPLINE_CURVE_WITH_KNOTS ( 'NONE', 1,
 ( #455, #126 ),
 .UNSPECIFIED., .F., .F.,
 ( 2, 2 ),
 ( 0.002000128539727358600, 0.005018565174711907300 ),
 .UNSPECIFIED. ) ;
#320 = VECTOR ( 'NONE', #101, 4.500091624415566600 ) ;
#321 = CARTESIAN_POINT ( 'NONE',  ( -1.000000000000000200, -0.9999999999999998900, 1.599999999999999900 ) ) ;
#322 = CARTESIAN_POINT ( 'NONE',  ( 5.500000000000000000, -6.735557395310442000E-016, 2.100000000000000100 ) ) ;
#323 = B_SPLINE_CURVE_WITH_KNOTS ( 'NONE', 1,
 ( #186, #387 ),
 .UNSPECIFIED., .F., .F.,
 ( 2, 2 ),
 ( -0.0005999999999999999500, 0.0000000000000000000 ),
 .UNSPECIFIED. ) ;
#324 = CARTESIAN_POINT ( 'NONE',  ( -1.000000000000000000, 1.224646799147353200E-016, 0.8000000000000000400 ) ) ;
#325 = CARTESIAN_POINT ( 'NONE',  ( 0.0003897936983143501200, 6.785639206585364600, 0.8000000000000000400 ) ) ;
#326 = CARTESIAN_POINT ( 'NONE',  ( -5.471307561289364700, 0.5610646752183040500, 0.8000000000000000400 ) ) ;
#327 = CARTESIAN_POINT ( 'NONE',  ( 2.249757518739515600, -5.018823677603649000, 0.8000000000000000400 ) ) ;
#328 = PERSON_AND_ORGANIZATION ( #445, #368 ) ;
#329 = CARTESIAN_POINT ( 'NONE',  ( -2.250334105676046200, -5.018565174711909500, 0.2000000000000000900 ) ) ;
#330 = CARTESIAN_POINT ( 'NONE',  ( -1.000000000000000000, 1.224646799147353200E-016, 0.8000000000000000400 ) ) ;
#331 =( BOUNDED_CURVE ( )  B_SPLINE_CURVE ( 2, ( #104, #210, #12, #172, #134 ),
 .UNSPECIFIED., .F., .T. ) 
 B_SPLINE_CURVE_WITH_KNOTS ( ( 3, 2, 3 ),
 ( 1.224646799147353200E-016, 1.570796326794896800, 3.141592653589793100 ),
 .UNSPECIFIED. ) 
 CURVE ( )  GEOMETRIC_REPRESENTATION_ITEM ( )  RATIONAL_B_SPLINE_CURVE ( ( 1.000000000000000000, 0.7071067811865475700, 1.000000000000000000, 0.7071067811865475700, 1.000000000000000000 ) ) 
 REPRESENTATION_ITEM ( '' )  );
#332 = DIRECTION ( 'NONE',  ( 0.9563047559630352100, 0.2923717047227372700, 0.0000000000000000000 ) ) ;
#333 = CARTESIAN_POINT ( 'NONE',  ( 2.249757518739515100, -2.000128539727356700, 0.8000000000000000400 ) ) ;
#334 = B_SPLINE_CURVE_WITH_KNOTS ( 'NONE', 1,
 ( #211, #250 ),
 .UNSPECIFIED., .F., .F.,
 ( 2, 2 ),
 ( -0.002250334105676051800, 0.002249757518739512900 ),
 .UNSPECIFIED. ) ;
#335 = CARTESIAN_POINT ( 'NONE',  ( -1.000000000000000000, 0.0000000000000000000, 0.8000000000000000400 ) ) ;
#336 = CARTESIAN_POINT ( 'NONE',  ( -2.250334105676046200, -5.018565174711858000, 0.8000000000000000400 ) ) ;
#337 = CARTESIAN_POINT ( 'NONE',  ( 1.000000000000000000, -2.449293598294706400E-016, 0.8000000000000000400 ) ) ;
#338 = APPLICATION_PROTOCOL_DEFINITION ( 'international standard', 'config_control_design', 1994, #513 ) ;
#339 = B_SPLINE_CURVE_WITH_KNOTS ( 'NONE', 1,
 ( #402, #201 ),
 .UNSPECIFIED., .F., .F.,
 ( 2, 2 ),
 ( 0.002000128539727359000, 0.005018823677603649800 ),
 .UNSPECIFIED. ) ;
#340 = CARTESIAN_POINT ( 'NONE',  ( -2.857040885607912400, -0.9482828937198133400, 1.399999999999999900 ) ) ;
#341 = CARTESIAN_POINT ( 'NONE',  ( -2.250334105676050200, -2.000128539727361600, 0.8000000000000000400 ) ) ;
#342 = CARTESIAN_POINT ( 'NONE',  ( 0.0000000000000000000, 0.0000000000000000000, 0.0000000000000000000 ) ) ;
#343 = CARTESIAN_POINT ( 'NONE',  ( 0.9999999999999998900, -1.000000000000000200, 0.0000000000000000000 ) ) ;
#344 = DIRECTION ( 'NONE',  ( -0.4372317213824448200, -0.8993488877054022200, 0.0000000000000000000 ) ) ;
#345 = APPLICATION_CONTEXT ( 'configuration controlled 3d designs of mechanical parts and assemblies' ) ;
#346 = CARTESIAN_POINT ( 'NONE',  ( 2.857329179076197900, -0.9487822326543009500, 0.8000000000000000400 ) ) ;
#347 = CALENDAR_DATE ( 2026, 12, 9 ) ;
#348 = CARTESIAN_POINT ( 'NONE',  ( 2.250000000000000400, -5.018714974971182100, 0.8000000000000000400 ) ) ;
#349 = B_SPLINE_CURVE_WITH_KNOTS ( 'NONE', 1,
 ( #28, #340 ),
 .UNSPECIFIED., .F., .F.,
 ( 2, 2 ),
 ( -0.002250334105676051800, 0.002249757518739512900 ),
 .UNSPECIFIED. ) ;
#350 = CARTESIAN_POINT ( 'NONE',  ( -1.836970198721029900E-016, -1.000000000000000000, 0.8000000000000000400 ) ) ;
#351 = CARTESIAN_POINT ( 'NONE',  ( 2.249757518739515100, -2.000128539727356700, 1.399999999999999900 ) ) ;
#352 = TRIMMED_CURVE ( 'NONE', #520, ( PARAMETER_VALUE ( 0.0000000000000000000 ), #220 ), ( PARAMETER_VALUE ( 1.000000000000000000 ), #515 ), .T., .PARAMETER. ) ;
#353 = CARTESIAN_POINT ( 'NONE',  ( -5.000000000000000000, 6.123233995736766300E-016, 1.600000000000000100 ) ) ;
#354 = CARTESIAN_POINT ( 'NONE',  ( 5.000000000000000000, -1.224646799147353300E-015, 1.600000000000000100 ) ) ;
#355 = B_SPLINE_CURVE_WITH_KNOTS ( 'NONE', 1,
 ( #501, #208 ),
 .UNSPECIFIED., .F., .F.,
 ( 2, 2 ),
 ( 0.002000128539727359000, 0.005018823677603649800 ),
 .UNSPECIFIED. ) ;
#356 = CARTESIAN_POINT ( 'NONE',  ( -8.040613248383183700E-016, 5.000000000000000000, 2.100000000000000100 ) ) ;
#357 =( BOUNDED_CURVE ( )  B_SPLINE_CURVE ( 2, ( #394, #151, #224 ),
 .UNSPECIFIED., .F., .T. ) 
 B_SPLINE_CURVE_WITH_KNOTS ( ( 3, 3 ),
 ( 4.290864838967158900, 5.133798233967469900 ),
 .UNSPECIFIED. ) 
 CURVE ( )  GEOMETRIC_REPRESENTATION_ITEM ( )  RATIONAL_B_SPLINE_CURVE ( ( 1.000000000000000000, 0.9124898971705696100, 1.000000000000000000 ) ) 
 REPRESENTATION_ITEM ( '' )  );
#358 = CC_DESIGN_DATE_AND_TIME_ASSIGNMENT ( #45, #303, ( #6 ) ) ;
#359 = TRIMMED_CURVE ( 'NONE', #158, ( PARAMETER_VALUE ( 0.0000000000000000000 ), #171 ), ( PARAMETER_VALUE ( 1.000000000000000000 ), #62 ), .T., .PARAMETER. ) ;
#360 = CARTESIAN_POINT ( 'NONE',  ( -2.857040885607912400, -0.9482828937198131100, 1.399999999999999900 ) ) ;
#361 = CARTESIAN_POINT ( 'NONE',  ( -5.471307561289364700, 0.5610646752183052800, 1.399999999999999900 ) ) ;
#362 = CARTESIAN_POINT ( 'NONE',  ( -1.000000000000000000, 1.224646799147353200E-016, 0.0000000000000000000 ) ) ;
#363 = CARTESIAN_POINT ( 'NONE',  ( -5.500000000000000000, 0.0000000000000000000, 0.8000000000000000400 ) ) ;
#364 = CARTESIAN_POINT ( 'NONE',  ( -5.500000000000000000, 0.2812659928146238300, 0.8000000000000000400 ) ) ;
#365 = CARTESIAN_POINT ( 'NONE',  ( 5.499999999999999100, -3.561857278769379900, 0.8000000000000000400 ) ) ;
#366 = CARTESIAN_POINT ( 'NONE',  ( -5.471307561289364700, 0.5610646752183040500, 0.2000000000000000900 ) ) ;
#367 = CARTESIAN_POINT ( 'NONE',  ( -3.221037879010376900, 4.458129089873890100, 1.399999999999999900 ) ) ;
#368 = ORGANIZATION ( '未指定', '未指定', '' ) ;
#369 = DIRECTION ( 'NONE',  ( 0.9563047559630354400, 0.2923717047227373200, 0.0000000000000000000 ) ) ;
#370 = CARTESIAN_POINT ( 'NONE',  ( 3.221550042549819400, 4.457759002385307300, 0.2000000000000000900 ) ) ;
#371 = B_SPLINE_CURVE_WITH_KNOTS ( 'NONE', 1,
 ( #296, #517 ),
 .UNSPECIFIED., .F., .F.,
 ( 2, 2 ),
 ( -0.0000000000000000000, 0.0008000000000000000400 ),
 .UNSPECIFIED. ) ;
#372 =( BOUNDED_CURVE ( )  B_SPLINE_CURVE ( 2, ( #95, #284, #292, #52, #330 ),
 .UNSPECIFIED., .F., .F. ) 
 B_SPLINE_CURVE_WITH_KNOTS ( ( 3, 2, 3 ),
 ( 1.224646799147353200E-016, 1.570796326794896800, 3.141592653589793100 ),
 .UNSPECIFIED. ) 
 CURVE ( )  GEOMETRIC_REPRESENTATION_ITEM ( )  RATIONAL_B_SPLINE_CURVE ( ( 1.000000000000000000, 0.7071067811865475700, 1.000000000000000000, 0.7071067811865475700, 1.000000000000000000 ) ) 
 REPRESENTATION_ITEM ( '' )  );
#373 = CARTESIAN_POINT ( 'NONE',  ( 2.249757518739515100, -2.000128539727356700, 0.8000000000000000400 ) ) ;
#374 = CARTESIAN_POINT ( 'NONE',  ( 2.249757518739515100, -2.000128539727356700, 0.8000000000000000400 ) ) ;
#375 = CARTESIAN_POINT ( 'NONE',  ( 5.471371984686426200, 0.5604360848379679200, 0.2000000000000000900 ) ) ;
#376 =( BOUNDED_CURVE ( )  B_SPLINE_CURVE ( 2, ( #118, #86, #160, #119, #491 ),
 .UNSPECIFIED., .F., .T. ) 
 B_SPLINE_CURVE_WITH_KNOTS ( ( 3, 2, 3 ),
 ( 3.141592653589793100, 4.712388980384689700, 6.283185307179586200 ),
 .UNSPECIFIED. ) 
 CURVE ( )  GEOMETRIC_REPRESENTATION_ITEM ( )  RATIONAL_B_SPLINE_CURVE ( ( 1.000000000000000000, 0.7071067811865475700, 1.000000000000000000, 0.7071067811865475700, 1.000000000000000000 ) ) 
 REPRESENTATION_ITEM ( '' )  );
#377 = CARTESIAN_POINT ( 'NONE',  ( 5.471371984686426200, 0.5604360848379679200, 0.8000000000000000400 ) ) ;
#378 = CARTESIAN_POINT ( 'NONE',  ( -5.499999999999999100, -3.561408848258640800, 0.8000000000000001600 ) ) ;
#379 = CARTESIAN_POINT ( 'NONE',  ( 0.6072833668683927900, 2.948411433447147200, 0.2000000000000000900 ) ) ;
#380 = APPROVAL_ROLE ( '' ) ;
#381 = CARTESIAN_POINT ( 'NONE',  ( -5.500000000000000000, 0.2812659928146238300, 0.8000000000000000400 ) ) ;
#382 = CARTESIAN_POINT ( 'NONE',  ( 0.0000000000000000000, 0.0000000000000000000, 0.0000000000000000000 ) ) ;
#383 = CARTESIAN_POINT ( 'NONE',  ( 5.500000000000000000, 5.499999999999999100, 2.100000000000000100 ) ) ;
#384 = CARTESIAN_POINT ( 'NONE',  ( 0.0000000000000000000, 0.0000000000000000000, 1.600000000000000100 ) ) ;
#385 = B_SPLINE_CURVE_WITH_KNOTS ( 'NONE', 1,
 ( #71, #435 ),
 .UNSPECIFIED., .F., .F.,
 ( 2, 2 ),
 ( 0.0000000000000000000, 0.0005999999999999999500 ),
 .UNSPECIFIED. ) ;
#386 =( BOUNDED_CURVE ( )  B_SPLINE_CURVE ( 2, ( #252, #56, #245, #294, #337 ),
 .UNSPECIFIED., .F., .F. ) 
 B_SPLINE_CURVE_WITH_KNOTS ( ( 3, 2, 3 ),
 ( 3.141592653589793100, 4.712388980384689700, 6.283185307179586200 ),
 .UNSPECIFIED. ) 
 CURVE ( )  GEOMETRIC_REPRESENTATION_ITEM ( )  RATIONAL_B_SPLINE_CURVE ( ( 1.000000000000000000, 0.7071067811865475700, 1.000000000000000000, 0.7071067811865475700, 1.000000000000000000 ) ) 
 REPRESENTATION_ITEM ( '' )  );
#387 = CARTESIAN_POINT ( 'NONE',  ( 2.249757518739518200, -5.018823677603647200, 0.8000000000000000400 ) ) ;
#388 = CARTESIAN_POINT ( 'NONE',  ( 5.500000000000000000, 0.0000000000000000000, 2.100000000000000100 ) ) ;
#389 = B_SPLINE_CURVE_WITH_KNOTS ( 'NONE', 1,
 ( #416, #19 ),
 .UNSPECIFIED., .F., .F.,
 ( 2, 2 ),
 ( -0.0000000000000000000, 0.0005000000000000002300 ),
 .UNSPECIFIED. ) ;
#390 = PERSON_AND_ORGANIZATION ( #445, #368 ) ;
#391 = CARTESIAN_POINT ( 'NONE',  ( 5.220110051079281300, 3.013432138355354600, 1.399999999999999900 ) ) ;
#392 = CARTESIAN_POINT ( 'NONE',  ( 2.249757518739515600, -5.018823677603649000, 0.8000000000000000400 ) ) ;
#393 =( BOUNDED_CURVE ( )  B_SPLINE_CURVE ( 2, ( #241, #91, #410 ),
 .UNSPECIFIED., .F., .T. ) 
 B_SPLINE_CURVE_WITH_KNOTS ( ( 3, 3 ),
 ( 3.141592653589793100, 4.290864838967155300 ),
 .UNSPECIFIED. ) 
 CURVE ( )  GEOMETRIC_REPRESENTATION_ITEM ( )  RATIONAL_B_SPLINE_CURVE ( ( 1.000000000000000000, 0.8393901523062640100, 1.000000000000000000 ) ) 
 REPRESENTATION_ITEM ( '' )  );
#394 = CARTESIAN_POINT ( 'NONE',  ( -2.250334105676047500, -5.018565174711909500, 1.399999999999999900 ) ) ;
#395 = APPROVAL_DATE_TIME ( #509, #499 ) ;
#396 = CARTESIAN_POINT ( 'NONE',  ( -2.250334105676050200, -2.000128539727361600, 1.399999999999999900 ) ) ;
#397 = PRODUCT_DEFINITION_FORMATION_WITH_SPECIFIED_SOURCE ( '任何', '', #75, .NOT_KNOWN. ) ;
#398 = CALENDAR_DATE ( 2026, 12, 9 ) ;
#399 = CIRCLE ( 'NONE', #138, 5.204077126543924500 ) ;
#400 =( BOUNDED_CURVE ( )  B_SPLINE_CURVE ( 2, ( #392, #68, #112 ),
 .UNSPECIFIED., .F., .T. ) 
 B_SPLINE_CURVE_WITH_KNOTS ( ( 3, 3 ),
 ( 5.133798233967469900, 6.283185307179586200 ),
 .UNSPECIFIED. ) 
 CURVE ( )  GEOMETRIC_REPRESENTATION_ITEM ( )  RATIONAL_B_SPLINE_CURVE ( ( 1.000000000000000000, 0.8393589284653505400, 1.000000000000000000 ) ) 
 REPRESENTATION_ITEM ( '' )  );
#401 = CARTESIAN_POINT ( 'NONE',  ( -2.857040885607912400, -0.9482828937198133400, 0.8000000000000000400 ) ) ;
#402 = CARTESIAN_POINT ( 'NONE',  ( 2.249757518739515100, -2.000128539727356700, 1.399999999999999900 ) ) ;
#403 = CIRCLE ( 'NONE', #315, 5.500000000000000000 ) ;
#404 = CARTESIAN_POINT ( 'NONE',  ( 2.249757518739518200, -5.018823677603647200, 0.8000000000000000400 ) ) ;
#405 = CARTESIAN_POINT ( 'NONE',  ( 2.857329179076197900, -0.9487822326543009500, 1.399999999999999900 ) ) ;
#406 = CARTESIAN_POINT ( 'NONE',  ( -2.250334105676046200, -5.018565174711858000, 0.8000000000000000400 ) ) ;
#407 = CARTESIAN_POINT ( 'NONE',  ( 2.857329179076198300, -0.9487822326543007300, 0.8000000000000000400 ) ) ;
#408 = CARTESIAN_POINT ( 'NONE',  ( -5.500000000000000000, 6.735557395310442000E-016, 0.8000000000000000400 ) ) ;
#409 = PERSON_AND_ORGANIZATION ( #445, #368 ) ;
#410 = CARTESIAN_POINT ( 'NONE',  ( -2.250334105676065300, -5.018565174711902400, 0.8000000000000000400 ) ) ;
#411 = CC_DESIGN_APPROVAL ( #499, ( #161 ) ) ;
#412 =( BOUNDED_CURVE ( )  B_SPLINE_CURVE ( 2, ( #57, #325, #8 ),
 .UNSPECIFIED., .F., .F. ) 
 B_SPLINE_CURVE_WITH_KNOTS ( ( 3, 3 ),
 ( 0.9450080291810845100, 2.196469736573968900 ),
 .UNSPECIFIED. ) 
 CURVE ( )  GEOMETRIC_REPRESENTATION_ITEM ( )  RATIONAL_B_SPLINE_CURVE ( ( 1.000000000000000000, 0.8105352824517798600, 1.000000000000000000 ) ) 
 REPRESENTATION_ITEM ( '' )  );
#413 = CARTESIAN_POINT ( 'NONE',  ( -3.221037879010376900, 4.458129089873890100, 0.2000000000000000900 ) ) ;
#414 = B_SPLINE_CURVE_WITH_KNOTS ( 'NONE', 1,
 ( #93, #367 ),
 .UNSPECIFIED., .F., .F.,
 ( 2, 2 ),
 ( 0.002000128539727358600, 0.005018565174711855200 ),
 .UNSPECIFIED. ) ;
#415 = CARTESIAN_POINT ( 'NONE',  ( -2.250334105676050200, -2.000128539727361600, 0.8000000000000000400 ) ) ;
#416 = CARTESIAN_POINT ( 'NONE',  ( -5.000000000000000000, 0.0000000000000000000, 2.100000000000000100 ) ) ;
#417 = CARTESIAN_POINT ( 'NONE',  ( -3.221037879010376900, 4.458129089873890100, 0.2000000000000000900 ) ) ;
#418 = CARTESIAN_POINT ( 'NONE',  ( 2.857329179076197900, -0.9487822326543009500, 0.2000000000000000900 ) ) ;
#419 = CIRCLE ( 'NONE', #194, 1.000000000000000000 ) ;
#420 = CARTESIAN_POINT ( 'NONE',  ( -2.250091624415564900, -1.999708549864105000, 0.8000000000000000400 ) ) ;
#421 = CARTESIAN_POINT ( 'NONE',  ( -0.6069950734001704500, 2.948910772381669900, 0.2000000000000000900 ) ) ;
#422 = APPROVAL_STATUS ( 'not_yet_approved' ) ;
#423 = CARTESIAN_POINT ( 'NONE',  ( 5.500000000000000000, -1.347111479062088400E-015, 2.100000000000000100 ) ) ;
#424 =( BOUNDED_CURVE ( )  B_SPLINE_CURVE ( 2, ( #310, #524, #30, #147, #353 ),
 .UNSPECIFIED., .F., .T. ) 
 B_SPLINE_CURVE_WITH_KNOTS ( ( 3, 2, 3 ),
 ( 1.224646799147353200E-016, 1.570796326794896800, 3.141592653589793100 ),
 .UNSPECIFIED. ) 
 CURVE ( )  GEOMETRIC_REPRESENTATION_ITEM ( )  RATIONAL_B_SPLINE_CURVE ( ( 1.000000000000000000, 0.7071067811865475700, 1.000000000000000000, 0.7071067811865475700, 1.000000000000000000 ) ) 
 REPRESENTATION_ITEM ( '' )  );
#425 = CC_DESIGN_PERSON_AND_ORGANIZATION_ASSIGNMENT ( #409, #256, ( #6 ) ) ;
#426 = SECURITY_CLASSIFICATION_LEVEL ( 'unclassified' ) ;
#427 = CARTESIAN_POINT ( 'NONE',  ( -2.857040885607912400, -0.9482828937198133400, 0.2000000000000000900 ) ) ;
#428 = DIRECTION ( 'NONE',  ( 0.9563047559630353200, 0.2923717047227373200, 0.0000000000000000000 ) ) ;
#429 = CARTESIAN_POINT ( 'NONE',  ( -2.250334105676047500, -5.018565174711909500, 0.2000000000000000900 ) ) ;
#430 = CC_DESIGN_DATE_AND_TIME_ASSIGNMENT ( #451, #177, ( #161 ) ) ;
#431 = APPLICATION_PROTOCOL_DEFINITION ( 'international standard', 'config_control_design', 1994, #345 ) ;
#432 = LOCAL_TIME ( 18, 33, 6.000000000000000000, #122 ) ;
#433 = CARTESIAN_POINT ( 'NONE',  ( 5.500000000000000000, 0.2809492259410326700, 0.8000000000000000400 ) ) ;
#434 =( BOUNDED_CURVE ( )  B_SPLINE_CURVE ( 2, ( #327, #365, #168 ),
 .UNSPECIFIED., .F., .F. ) 
 B_SPLINE_CURVE_WITH_KNOTS ( ( 3, 3 ),
 ( 5.133798233967469900, 6.283185307179586200 ),
 .UNSPECIFIED. ) 
 CURVE ( )  GEOMETRIC_REPRESENTATION_ITEM ( )  RATIONAL_B_SPLINE_CURVE ( ( 1.000000000000000000, 0.8393589284653505400, 1.000000000000000000 ) ) 
 REPRESENTATION_ITEM ( '' )  );
#435 = CARTESIAN_POINT ( 'NONE',  ( 5.471371984686380000, 0.5604360848379631400, 0.8000000000000000400 ) ) ;
#436 = B_SPLINE_CURVE_WITH_KNOTS ( 'NONE', 1,
 ( #287, #456 ),
 .UNSPECIFIED., .F., .F.,
 ( 2, 2 ),
 ( 0.0000000000000000000, 0.0005999999999999999500 ),
 .UNSPECIFIED. ) ;
#437 = VECTOR ( 'NONE', #14, 4.500091624415565800 ) ;
#438 =( BOUNDED_CURVE ( )  B_SPLINE_CURVE ( 2, ( #16, #378, #457 ),
 .UNSPECIFIED., .F., .F. ) 
 B_SPLINE_CURVE_WITH_KNOTS ( ( 3, 3 ),
 ( 3.141592653589793100, 4.290864838967155300 ),
 .UNSPECIFIED. ) 
 CURVE ( )  GEOMETRIC_REPRESENTATION_ITEM ( )  RATIONAL_B_SPLINE_CURVE ( ( 1.000000000000000000, 0.8393901523062640100, 1.000000000000000000 ) ) 
 REPRESENTATION_ITEM ( '' )  );
#439 = CARTESIAN_POINT ( 'NONE',  ( -2.250334105676046200, -5.018565174711858000, 1.399999999999999900 ) ) ;
#440 =( BOUNDED_CURVE ( )  B_SPLINE_CURVE ( 2, ( #429, #519, #470 ),
 .UNSPECIFIED., .F., .F. ) 
 B_SPLINE_CURVE_WITH_KNOTS ( ( 3, 3 ),
 ( 4.290864838967158900, 5.133798233967469900 ),
 .UNSPECIFIED. ) 
 CURVE ( )  GEOMETRIC_REPRESENTATION_ITEM ( )  RATIONAL_B_SPLINE_CURVE ( ( 1.000000000000000000, 0.9124898971705696100, 1.000000000000000000 ) ) 
 REPRESENTATION_ITEM ( '' )  );
#441 = B_SPLINE_CURVE_WITH_KNOTS ( 'NONE', 1,
 ( #247, #498 ),
 .UNSPECIFIED., .F., .F.,
 ( 2, 2 ),
 ( 0.002000128539727359000, 0.005018823677603649800 ),
 .UNSPECIFIED. ) ;
#442 = LOCAL_TIME ( 18, 33, 6.000000000000000000, #25 ) ;
#443 = CARTESIAN_POINT ( 'NONE',  ( -2.857040885607912400, -0.9482828937198131100, 0.8000000000000000400 ) ) ;
#444 = CC_DESIGN_APPROVAL ( #67, ( #6 ) ) ;
#445 = PERSON ( '未指定', '未指定', '未指定', ('未指定'), ('未指定'), ('未指定') ) ;
#446 = CARTESIAN_POINT ( 'NONE',  ( -0.6069950734001704500, 2.948910772381669900, 0.8000000000000000400 ) ) ;
#447 = B_SPLINE_CURVE_WITH_KNOTS ( 'NONE', 1,
 ( #282, #406 ),
 .UNSPECIFIED., .F., .F.,
 ( 2, 2 ),
 ( 0.0000000000000000000, 0.0005999999999999999500 ),
 .UNSPECIFIED. ) ;
#448 = CARTESIAN_POINT ( 'NONE',  ( -0.9999999999999998900, 1.000000000000000000, 0.7999999999999999300 ) ) ;
#449 =( BOUNDED_CURVE ( )  B_SPLINE_CURVE ( 2, ( #41, #1, #46 ),
 .UNSPECIFIED., .F., .F. ) 
 B_SPLINE_CURVE_WITH_KNOTS ( ( 3, 3 ),
 ( 2.196469736573968900, 3.039403131574284400 ),
 .UNSPECIFIED. ) 
 CURVE ( )  GEOMETRIC_REPRESENTATION_ITEM ( )  RATIONAL_B_SPLINE_CURVE ( ( 1.000000000000000000, 0.9124898971705687200, 1.000000000000000000 ) ) 
 REPRESENTATION_ITEM ( '' )  );
#450 = CARTESIAN_POINT ( 'NONE',  ( 0.6072833668683927900, 2.948411433447147200, 1.399999999999999900 ) ) ;
#451 = DATE_AND_TIME ( #347, #5 ) ;
#452 = CARTESIAN_POINT ( 'NONE',  ( -2.250334105676050200, -2.000128539727361600, 0.8000000000000000400 ) ) ;
#453 = CARTESIAN_POINT ( 'NONE',  ( -5.471307561289364700, 0.5610646752183052800, 0.2000000000000000900 ) ) ;
#454 = B_SPLINE_CURVE_WITH_KNOTS ( 'NONE', 1,
 ( #149, #351 ),
 .UNSPECIFIED., .F., .F.,
 ( 2, 2 ),
 ( -0.002250334105676052200, 0.002249757518739512900 ),
 .UNSPECIFIED. ) ;
#455 = CARTESIAN_POINT ( 'NONE',  ( -2.250334105676050200, -2.000128539727361600, 1.399999999999999900 ) ) ;
#456 = CARTESIAN_POINT ( 'NONE',  ( -2.857040885607912400, -0.9482828937198133400, 0.8000000000000000400 ) ) ;
#457 = CARTESIAN_POINT ( 'NONE',  ( -2.250334105676065300, -5.018565174711902400, 0.8000000000000000400 ) ) ;
#458 = CARTESIAN_POINT ( 'NONE',  ( -1.608122649676636600E-016, 1.000000000000000000, 0.0000000000000000000 ) ) ;
#459 = CARTESIAN_POINT ( 'NONE',  ( 3.221550042549819800, 4.457759002385306400, 0.8000000000000000400 ) ) ;
#460 = CC_DESIGN_PERSON_AND_ORGANIZATION_ASSIGNMENT ( #90, #260, ( #397 ) ) ;
#461 = CARTESIAN_POINT ( 'NONE',  ( -5.500000000000000900, -5.499999999999999100, 0.0000000000000000000 ) ) ;
#462 = CARTESIAN_POINT ( 'NONE',  ( -2.250091624415563100, -5.018145184848600100, 0.8000000000000000400 ) ) ;
#463 = CARTESIAN_POINT ( 'NONE',  ( 0.6072833668683927900, 2.948411433447147200, 0.2000000000000000900 ) ) ;
#464 =( BOUNDED_CURVE ( )  B_SPLINE_CURVE ( 2, ( #266, #482, #481, #267, #354 ),
 .UNSPECIFIED., .F., .T. ) 
 B_SPLINE_CURVE_WITH_KNOTS ( ( 3, 2, 3 ),
 ( 3.141592653589793100, 4.712388980384689700, 6.283185307179586200 ),
 .UNSPECIFIED. ) 
 CURVE ( )  GEOMETRIC_REPRESENTATION_ITEM ( )  RATIONAL_B_SPLINE_CURVE ( ( 1.000000000000000000, 0.7071067811865475700, 1.000000000000000000, 0.7071067811865475700, 1.000000000000000000 ) ) 
 REPRESENTATION_ITEM ( '' )  );
#465 = DIRECTION ( 'NONE',  ( 1.000000000000000000, 0.0000000000000000000, 0.0000000000000000000 ) ) ;
#466 = CARTESIAN_POINT ( 'NONE',  ( -2.250334105676050200, -2.000128539727361600, 0.8000000000000000400 ) ) ;
#467 = CARTESIAN_POINT ( 'NONE',  ( -5.500000000000000000, 6.735557395310442000E-016, 2.100000000000000100 ) ) ;
#468 =( NAMED_UNIT ( * ) PLANE_ANGLE_UNIT ( ) SI_UNIT ( $, .RADIAN. ) );
#469 = GEOMETRIC_CURVE_SET ( 'NONE', ( #473, #94, #434, #331, #386, #110, #114, #3, #441, #18, #36, #295, #150, #74, #475, #334, #232, #59, #447, #100, #355, #486, #511, #317, #529, #372, #412, #274, #225, #190, #198, #393, #436, #115, #257, #163, #128, #109, #492, #440, #323, #127, #35, #371, #189, #205, #99, #44, #349, #528, #155, #464, #27, #385, #357, #273, #424, #279, #454, #85, #305, #192, #179, #400, #80, #7, #299, #135, #207, #534, #523, #283, #199, #39, #243, #23, #480, #339, #376, #276, #48, #193, #156, #69, #271, #514, #132, #187, #449, #485, #121, #477, #389, #414, #319, #38, #103, #532, #438, #234, #123, #152, #403, #419, #81, #214, #359, #178, #289, #352, #159, #249, #496, #483 ) ) ;
#470 = CARTESIAN_POINT ( 'NONE',  ( 2.249757518739515600, -5.018823677603649000, 0.2000000000000000900 ) ) ;
#471 = APPROVAL_STATUS ( 'not_yet_approved' ) ;
#472 = CARTESIAN_POINT ( 'NONE',  ( 1.000000000000000000, -2.449293598294706400E-016, 0.0000000000000000000 ) ) ;
#473 = B_SPLINE_CURVE_WITH_KNOTS ( 'NONE', 1,
 ( #51, #89 ),
 .UNSPECIFIED., .F., .F.,
 ( 2, 2 ),
 ( 0.0000000000000000000, 0.0005999999999999999500 ),
 .UNSPECIFIED. ) ;
#474 = PERSON_AND_ORGANIZATION ( #445, #368 ) ;
#475 = B_SPLINE_CURVE_WITH_KNOTS ( 'NONE', 1,
 ( #415, #373 ),
 .UNSPECIFIED., .F., .F.,
 ( 2, 2 ),
 ( -0.002250334105676052200, 0.002249757518739512900 ),
 .UNSPECIFIED. ) ;
#476 = CARTESIAN_POINT ( 'NONE',  ( -5.000000000000000000, 6.123233995736766300E-016, 2.100000000000000100 ) ) ;
#477 =( BOUNDED_CURVE ( )  B_SPLINE_CURVE ( 2, ( #242, #53, #502 ),
 .UNSPECIFIED., .F., .T. ) 
 B_SPLINE_CURVE_WITH_KNOTS ( ( 3, 3 ),
 ( 0.9450080291810845100, 2.196469736573968900 ),
 .UNSPECIFIED. ) 
 CURVE ( )  GEOMETRIC_REPRESENTATION_ITEM ( )  RATIONAL_B_SPLINE_CURVE ( ( 1.000000000000000000, 0.8105352824517798600, 1.000000000000000000 ) ) 
 REPRESENTATION_ITEM ( '' )  );
#478 = CARTESIAN_POINT ( 'NONE',  ( -2.857040885607912400, -0.9482828937198133400, 0.8000000000000000400 ) ) ;
#479 = AXIS2_PLACEMENT_3D ( 'NONE', #64, #302, #344 ) ;
#480 = B_SPLINE_CURVE_WITH_KNOTS ( 'NONE', 1,
 ( #405, #196 ),
 .UNSPECIFIED., .F., .F.,
 ( 2, 2 ),
 ( -0.002250334105676052600, 0.002249757518739513800 ),
 .UNSPECIFIED. ) ;
#481 = CARTESIAN_POINT ( 'NONE',  ( -9.184850993605147900E-016, -5.000000000000000000, 1.600000000000000100 ) ) ;
#482 = CARTESIAN_POINT ( 'NONE',  ( -5.000000000000000900, -4.999999999999999100, 1.599999999999999900 ) ) ;
#483 = CIRCLE ( 'NONE', #269, 5.000000000000000000 ) ;
#484 = CARTESIAN_POINT ( 'NONE',  ( 0.6072833668683927900, 2.948411433447147200, 1.399999999999999900 ) ) ;
#485 =( BOUNDED_CURVE ( )  B_SPLINE_CURVE ( 2, ( #206, #231, #530, #275, #423 ),
 .UNSPECIFIED., .F., .T. ) 
 B_SPLINE_CURVE_WITH_KNOTS ( ( 3, 2, 3 ),
 ( 3.141592653589793100, 4.712388980384689700, 6.283185307179586200 ),
 .UNSPECIFIED. ) 
 CURVE ( )  GEOMETRIC_REPRESENTATION_ITEM ( )  RATIONAL_B_SPLINE_CURVE ( ( 1.000000000000000000, 0.7071067811865475700, 1.000000000000000000, 0.7071067811865475700, 1.000000000000000000 ) ) 
 REPRESENTATION_ITEM ( '' )  );
#486 = B_SPLINE_CURVE_WITH_KNOTS ( 'NONE', 1,
 ( #452, #15 ),
 .UNSPECIFIED., .F., .F.,
 ( 2, 2 ),
 ( 0.002000128539727358600, 0.005018565174711855200 ),
 .UNSPECIFIED. ) ;
#487 = CARTESIAN_POINT ( 'NONE',  ( 1.000000000000000000, 0.9999999999999998900, 1.599999999999999900 ) ) ;
#488 = COORDINATED_UNIVERSAL_TIME_OFFSET ( 8, 0, .AHEAD. ) ;
#489 = CARTESIAN_POINT ( 'NONE',  ( 5.471371984686380900, 0.5604360848379633700, 1.399999999999999900 ) ) ;
#490 = CARTESIAN_POINT ( 'NONE',  ( -2.857040885607912400, -0.9482828937198131100, 0.2000000000000000900 ) ) ;
#491 = CARTESIAN_POINT ( 'NONE',  ( 5.000000000000000000, -1.224646799147353300E-015, 2.100000000000000100 ) ) ;
#492 = B_SPLINE_CURVE_WITH_KNOTS ( 'NONE', 1,
 ( #346, #217 ),
 .UNSPECIFIED., .F., .F.,
 ( 2, 2 ),
 ( -0.002250334105676052600, 0.002249757518739513800 ),
 .UNSPECIFIED. ) ;
#493 = CARTESIAN_POINT ( 'NONE',  ( 5.471371984686380900, 0.5604360848379633700, 0.8000000000000000400 ) ) ;
#494 = CARTESIAN_POINT ( 'NONE',  ( -2.250334105676046200, -5.018565174711858000, 0.8000000000000000400 ) ) ;
#495 = DATE_AND_TIME ( #144, #442 ) ;
#496 = CIRCLE ( 'NONE', #227, 5.500000000000000000 ) ;
#497 = CARTESIAN_POINT ( 'NONE',  ( 2.249757518739515100, -2.000128539727356700, 0.8000000000000000400 ) ) ;
#498 = CARTESIAN_POINT ( 'NONE',  ( -5.471307561289364700, 0.5610646752183052800, 0.8000000000000000400 ) ) ;
#499 = APPROVAL ( #422, '未指定' ) ;
#500 = CARTESIAN_POINT ( 'NONE',  ( -2.250334105676050200, -2.000128539727361600, 0.8000000000000000400 ) ) ;
#501 = CARTESIAN_POINT ( 'NONE',  ( 2.249757518739515100, -2.000128539727356700, 0.2000000000000000900 ) ) ;
#502 = CARTESIAN_POINT ( 'NONE',  ( -3.221037879010404400, 4.458129089873929200, 0.8000000000000000400 ) ) ;
#503 = CARTESIAN_POINT ( 'NONE',  ( -0.6069950734001704500, 2.948910772381669900, 0.8000000000000000400 ) ) ;
#504 = AXIS2_PLACEMENT_3D ( 'NONE', #342, #216, #465 ) ;
#505 = CARTESIAN_POINT ( 'NONE',  ( -1.000000000000000200, -0.9999999999999998900, 0.0000000000000000000 ) ) ;
#506 = CARTESIAN_POINT ( 'NONE',  ( 2.250000000000001800, -1.999708549864104100, 0.8000000000000000400 ) ) ;
#507 = CARTESIAN_POINT ( 'NONE',  ( 1.000000000000000000, 1.224646799147353200E-016, 0.0000000000000000000 ) ) ;
#508 = PERSON_AND_ORGANIZATION_ROLE ( 'creator' ) ;
#509 = DATE_AND_TIME ( #181, #84 ) ;
#510 = CARTESIAN_POINT ( 'NONE',  ( 5.500000000000000000, -1.347111479062088400E-015, 0.0000000000000000000 ) ) ;
#511 =( BOUNDED_CURVE ( )  B_SPLINE_CURVE ( 2, ( #54, #165, #366 ),
 .UNSPECIFIED., .F., .F. ) 
 B_SPLINE_CURVE_WITH_KNOTS ( ( 3, 3 ),
 ( 2.196469736573968900, 3.039403131574284400 ),
 .UNSPECIFIED. ) 
 CURVE ( )  GEOMETRIC_REPRESENTATION_ITEM ( )  RATIONAL_B_SPLINE_CURVE ( ( 1.000000000000000000, 0.9124898971705687200, 1.000000000000000000 ) ) 
 REPRESENTATION_ITEM ( '' )  );
#512 = CARTESIAN_POINT ( 'NONE',  ( 0.005166538102109992400, -0.3286679919439891000, 0.8000000000000000400 ) ) ;
#513 = APPLICATION_CONTEXT ( 'configuration controlled 3d designs of mechanical parts and assemblies' ) ;
#514 = B_SPLINE_CURVE_WITH_KNOTS ( 'NONE', 1,
 ( #200, #489 ),
 .UNSPECIFIED., .F., .F.,
 ( 2, 2 ),
 ( 0.002000128539727359500, 0.005018565174711857000 ),
 .UNSPECIFIED. ) ;
#515 = CARTESIAN_POINT ( 'NONE',  ( 2.249757518739518200, -5.024100385130708400, 0.8000000000000000400 ) ) ;
#516 = MECHANICAL_CONTEXT ( 'NONE', #345, 'mechanical' ) ;
#517 = CARTESIAN_POINT ( 'NONE',  ( 5.500000000000000000, 6.735557395310442000E-016, 0.0000000000000000000 ) ) ;
#518 = PERSON_AND_ORGANIZATION_ROLE ( 'creator' ) ;
#519 = CARTESIAN_POINT ( 'NONE',  ( -0.0003462411434589778900, -6.027463983962815200, 0.2000000000000000900 ) ) ;
#520 = LINE ( 'NONE', #374, #204 ) ;
#521 = CARTESIAN_POINT ( 'NONE',  ( 5.000000000000000000, 6.123233995736766300E-016, 2.100000000000000100 ) ) ;
#522 = CARTESIAN_POINT ( 'NONE',  ( 5.471371984686426200, 0.5604360848379679200, 1.399999999999999900 ) ) ;
#523 = B_SPLINE_CURVE_WITH_KNOTS ( 'NONE', 1,
 ( #77, #281 ),
 .UNSPECIFIED., .F., .F.,
 ( 2, 2 ),
 ( 0.0000000000000000000, 0.0008000000000000000400 ),
 .UNSPECIFIED. ) ;
#524 = CARTESIAN_POINT ( 'NONE',  ( 4.999999999999999100, 5.000000000000000900, 1.599999999999999900 ) ) ;
#525 = CARTESIAN_POINT ( 'NONE',  ( -1.000000000000000000, 1.224646799147353200E-016, 0.8000000000000000400 ) ) ;
#526 = APPROVAL_PERSON_ORGANIZATION ( #390, #536, #306 ) ;
#527 = CIRCLE ( 'NONE', #479, 5.147458192237759400 ) ;
#528 =( BOUNDED_CURVE ( )  B_SPLINE_CURVE ( 2, ( #388, #383, #142, #106, #467 ),
 .UNSPECIFIED., .F., .F. ) 
 B_SPLINE_CURVE_WITH_KNOTS ( ( 3, 2, 3 ),
 ( 0.0000000000000000000, 1.570796326794896600, 3.141592653589793100 ),
 .UNSPECIFIED. ) 
 CURVE ( )  GEOMETRIC_REPRESENTATION_ITEM ( )  RATIONAL_B_SPLINE_CURVE ( ( 1.000000000000000000, 0.7071067811865475700, 1.000000000000000000, 0.7071067811865475700, 1.000000000000000000 ) ) 
 REPRESENTATION_ITEM ( '' )  );
#529 = B_SPLINE_CURVE_WITH_KNOTS ( 'NONE', 1,
 ( #88, #166 ),
 .UNSPECIFIED., .F., .F.,
 ( 2, 2 ),
 ( 0.002000128539727359500, 0.005018565174711857000 ),
 .UNSPECIFIED. ) ;
#530 = CARTESIAN_POINT ( 'NONE',  ( -1.010333609296566400E-015, -5.500000000000000000, 2.100000000000000100 ) ) ;
#531 = CC_DESIGN_PERSON_AND_ORGANIZATION_ASSIGNMENT ( #533, #146, ( #75 ) ) ;
#532 = B_SPLINE_CURVE_WITH_KNOTS ( 'NONE', 1,
 ( #212, #251 ),
 .UNSPECIFIED., .F., .F.,
 ( 2, 2 ),
 ( -0.0005999999999999999500, 0.0000000000000000000 ),
 .UNSPECIFIED. ) ;
#533 = PERSON_AND_ORGANIZATION ( #445, #368 ) ;
#534 = B_SPLINE_CURVE_WITH_KNOTS ( 'NONE', 1,
 ( #78, #79 ),
 .UNSPECIFIED., .F., .F.,
 ( 2, 2 ),
 ( 0.002000128539727359500, 0.005018565174711857000 ),
 .UNSPECIFIED. ) ;
#535 = CARTESIAN_POINT ( 'NONE',  ( 2.857329179076197900, -0.9487822326543009500, 0.8000000000000000400 ) ) ;
#536 = APPROVAL ( #264, '未指定' ) ;
ENDSEC;
END-ISO-10303-21;
