ISO-10303-21;
HEADER;
FILE_DESCRIPTION (( 'STEP AP203' ),
    '1' );
FILE_NAME ('单条腿V1.STEP',
    '2026-09-12T10:33:11',
    ( '' ),
    ( '' ),
    'SwSTEP 2.0',
    'SolidWorks 2016',
    '' );
FILE_SCHEMA (( 'CONFIG_CONTROL_DESIGN' ));
ENDSEC;

DATA;
#1 = CARTESIAN_POINT ( 'NONE',  ( 5.095083136394562100, 9.424942861022824300, 3.741409711877517800 ) ) ;
#2 = VECTOR ( 'NONE', #170, 1.000378170863102100 ) ;
#3 = CARTESIAN_POINT ( 'NONE',  ( 0.7885158724367333800, 11.36574955363496600, 0.0000000000000000000 ) ) ;
#4 = TRIMMED_CURVE ( 'NONE', #299, ( PARAMETER_VALUE ( 0.0000000000000000000 ), #321 ), ( PARAMETER_VALUE ( 1.000000000000000200 ), #99 ), .T., .PARAMETER. ) ;
#5 = LOCAL_TIME ( 18, 33, 11.00000000000000000, #386 ) ;
#6 = CARTESIAN_POINT ( 'NONE',  ( 4.052617487574508500, 9.019339392121231900, 0.0000000000000000000 ) ) ;
#7 = B_SPLINE_CURVE_WITH_KNOTS ( 'NONE', 1,
 ( #125, #124 ),
 .UNSPECIFIED., .F., .F.,
 ( 2, 2 ),
 ( 0.0000000000000000000, 0.004499999999999998800 ),
 .UNSPECIFIED. ) ;
#8 = CARTESIAN_POINT ( 'NONE',  ( 0.7885158724367333800, 11.36574955363496600, 4.500000000000000000 ) ) ;
#9 = DIRECTION ( 'NONE',  ( 0.4999999999999977800, 0.8660254037844399300, 0.0000000000000000000 ) ) ;
#10 = CARTESIAN_POINT ( 'NONE',  ( 4.252617487574490000, 9.365749553634977100, 0.0000000000000000000 ) ) ;
#11 = LINE ( 'NONE', #288, #173 ) ;
#12 = CARTESIAN_POINT ( 'NONE',  ( 6.524697460949623100, 13.42660781724169200, -0.001470274547651917500 ) ) ;
#13 = TRIMMED_CURVE ( 'NONE', #219, ( PARAMETER_VALUE ( 0.0000000000000000000 ), #211 ), ( PARAMETER_VALUE ( 1.000000000000000200 ), #246 ), .T., .PARAMETER. ) ;
#14 = CARTESIAN_POINT ( 'NONE',  ( 6.524697460949623100, 13.42660781724169200, -0.001470274547651917500 ) ) ;
#15 = CARTESIAN_POINT ( 'NONE',  ( 6.524697460949623100, 13.04085346853606700, 0.0000000000000000000 ) ) ;
#16 = CC_DESIGN_PERSON_AND_ORGANIZATION_ASSIGNMENT ( #259, #194, ( #506 ) ) ;
#17 = CARTESIAN_POINT ( 'NONE',  ( 6.524697460949623100, 12.22660781724169100, 4.498529725452346600 ) ) ;
#18 = DATE_AND_TIME ( #379, #454 ) ;
#19 = B_SPLINE_CURVE_WITH_KNOTS ( 'NONE', 1,
 ( #44, #461 ),
 .UNSPECIFIED., .F., .F.,
 ( 2, 2 ),
 ( -0.0000000000000000000, 0.01000000000000000200 ),
 .UNSPECIFIED. ) ;
#20 = LINE ( 'NONE', #302, #137 ) ;
#21 = CARTESIAN_POINT ( 'NONE',  ( 0.0000000000000000000, 0.0000000000000000000, 4.500000000000000000 ) ) ;
#22 = B_SPLINE_CURVE_WITH_KNOTS ( 'NONE', 1,
 ( #31, #385 ),
 .UNSPECIFIED., .F., .F.,
 ( 2, 2 ),
 ( 0.0000000000000000000, 0.001199999999999999700 ),
 .UNSPECIFIED. ) ;
#23 = CARTESIAN_POINT ( 'NONE',  ( 0.0000000000000000000, 0.0000000000000000000, 4.500000000000000000 ) ) ;
#24 = SECURITY_CLASSIFICATION_LEVEL ( 'unclassified' ) ;
#25 = B_SPLINE_CURVE_WITH_KNOTS ( 'NONE', 1,
 ( #199, #168 ),
 .UNSPECIFIED., .F., .F.,
 ( 2, 2 ),
 ( 0.0000000000000000000, 0.004499999999999998800 ),
 .UNSPECIFIED. ) ;
#26 = DIRECTION ( 'NONE',  ( 1.000000000000000000, 0.0000000000000000000, 0.0000000000000000000 ) ) ;
#27 = LINE ( 'NONE', #115, #421 ) ;
#28 = APPROVAL ( #416, '未指定' ) ;
#29 = CARTESIAN_POINT ( 'NONE',  ( 6.524697460949623100, 13.42660781724169200, -0.001470274547651917500 ) ) ;
#30 = APPROVAL_ROLE ( '' ) ;
#31 = CARTESIAN_POINT ( 'NONE',  ( 9.524697460949624900, 13.42660781724169200, 4.498529725452346600 ) ) ;
#32 = CARTESIAN_POINT ( 'NONE',  ( 0.2421057109229765300, 11.21933939212121900, 4.500000000000000000 ) ) ;
#33 = LOCAL_TIME ( 18, 33, 11.00000000000000000, #374 ) ;
#34 = VECTOR ( 'NONE', #105, 15.02877109729273100 ) ;
#35 = CARTESIAN_POINT ( 'NONE',  ( 5.604890757529891400, 9.707955562915042700, 0.0000000000000000000 ) ) ;
#36 = CARTESIAN_POINT ( 'NONE',  ( 4.052617487574507600, 9.019339392121231900, 4.500000000000000000 ) ) ;
#37 = B_SPLINE_CURVE_WITH_KNOTS ( 'NONE', 1,
 ( #165, #275 ),
 .UNSPECIFIED., .F., .F.,
 ( 2, 2 ),
 ( -0.0008867296472868113400, 0.0002349378343701429100 ),
 .UNSPECIFIED. ) ;
#38 = CARTESIAN_POINT ( 'NONE',  ( 4.052617487574508500, 9.019339392121231900, 4.500000000000000000 ) ) ;
#39 = TRIMMED_CURVE ( 'NONE', #56, ( PARAMETER_VALUE ( 0.0000000000000000000 ), #179 ), ( PARAMETER_VALUE ( 1.000000000000000000 ), #291 ), .T., .PARAMETER. ) ;
#40 = TRIMMED_CURVE ( 'NONE', #161, ( PARAMETER_VALUE ( 0.0000000000000000000 ), #169 ), ( PARAMETER_VALUE ( 0.9999999999999997800 ), #432 ), .T., .PARAMETER. ) ;
#41 = COORDINATED_UNIVERSAL_TIME_OFFSET ( 8, 0, .AHEAD. ) ;
#42 = VECTOR ( 'NONE', #141, 0.7259781388222331700 ) ;
#43 = CARTESIAN_POINT ( 'NONE',  ( -0.7355936306317365500, 0.7259144580217802300, 4.500000000000000000 ) ) ;
#44 = CARTESIAN_POINT ( 'NONE',  ( 5.095083136394562100, 9.424942861022824300, 3.741409711877517800 ) ) ;
#45 = B_SPLINE_CURVE_WITH_KNOTS ( 'NONE', 1,
 ( #126, #203 ),
 .UNSPECIFIED., .F., .F.,
 ( 2, 2 ),
 ( -0.0000000000000000000, 1.470274547652784800E-006 ),
 .UNSPECIFIED. ) ;
#46 = CARTESIAN_POINT ( 'NONE',  ( 5.354890757529894100, 9.274942861022825700, 0.7414097118775242500 ) ) ;
#47 = TRIMMED_CURVE ( 'NONE', #331, ( PARAMETER_VALUE ( 0.0000000000000000000 ), #476 ), ( PARAMETER_VALUE ( 1.000000000000000000 ), #96 ), .T., .PARAMETER. ) ;
#48 = PERSON_AND_ORGANIZATION ( #256, #393 ) ;
#49 = CC_DESIGN_SECURITY_CLASSIFICATION ( #494, ( #506 ) ) ;
#50 = CARTESIAN_POINT ( 'NONE',  ( 4.252617487574490000, 9.365749553634977100, 0.0000000000000000000 ) ) ;
#51 = B_SPLINE_CURVE_WITH_KNOTS ( 'NONE', 1,
 ( #278, #354 ),
 .UNSPECIFIED., .F., .F.,
 ( 2, 2 ),
 ( -0.009576422236412531300, -0.0000000000000000000 ),
 .UNSPECIFIED. ) ;
#52 = DIRECTION ( 'NONE',  ( -0.8660254037844401500, 0.4999999999999975600, 0.0000000000000000000 ) ) ;
#53 = CARTESIAN_POINT ( 'NONE',  ( 4.752617487574487300, 10.23177495741941600, 0.0000000000000000000 ) ) ;
#54 = LINE ( 'NONE', #70, #92 ) ;
#55 = CARTESIAN_POINT ( 'NONE',  ( 0.0000000000000000000, 0.0000000000000000000, 0.0000000000000000000 ) ) ;
#56 = LINE ( 'NONE', #406, #150 ) ;
#57 = CARTESIAN_POINT ( 'NONE',  ( 0.0000000000000000000, 0.0000000000000000000, 0.0000000000000000000 ) ) ;
#58 = B_SPLINE_CURVE_WITH_KNOTS ( 'NONE', 1,
 ( #160, #415 ),
 .UNSPECIFIED., .F., .F.,
 ( 2, 2 ),
 ( 1.470274547652784800E-006, 0.004499999999999999700 ),
 .UNSPECIFIED. ) ;
#59 = B_SPLINE_CURVE_WITH_KNOTS ( 'NONE', 1,
 ( #383, #200 ),
 .UNSPECIFIED., .F., .F.,
 ( 2, 2 ),
 ( 0.0000000000000000000, 0.005000000000000011400 ),
 .UNSPECIFIED. ) ;
#60 = CARTESIAN_POINT ( 'NONE',  ( 5.354890757529894100, 9.274942861022825700, 3.741409711877517800 ) ) ;
#61 = PRODUCT_DEFINITION ( '未知', '', #506, #462 ) ;
#62 = DIRECTION ( 'NONE',  ( 0.8660254037844399300, -0.4999999999999977800, 0.0000000000000000000 ) ) ;
#63 = CARTESIAN_POINT ( 'NONE',  ( 6.524697460949623100, 13.42660781724169200, -0.001470274547651917500 ) ) ;
#64 = CARTESIAN_POINT ( 'NONE',  ( 0.2421057109229765300, 11.21933939212121900, 0.0000000000000000000 ) ) ;
#65 = TRIMMED_CURVE ( 'NONE', #144, ( PARAMETER_VALUE ( 0.0000000000000000000 ), #14 ), ( PARAMETER_VALUE ( 1.000000000000001300 ), #334 ), .T., .PARAMETER. ) ;
#66 = CARTESIAN_POINT ( 'NONE',  ( 6.524697460949623100, 12.22660781724169100, 4.498529725452346600 ) ) ;
#67 = B_SPLINE_CURVE_WITH_KNOTS ( 'NONE', 1,
 ( #346, #119 ),
 .UNSPECIFIED., .F., .F.,
 ( 2, 2 ),
 ( -0.0000000000000000000, 0.003000000000000000900 ),
 .UNSPECIFIED. ) ;
#68 = APPROVAL_STATUS ( 'not_yet_approved' ) ;
#69 = CARTESIAN_POINT ( 'NONE',  ( 0.7885158724367333800, 11.36574955363496600, 4.500000000000000000 ) ) ;
#70 = CARTESIAN_POINT ( 'NONE',  ( 6.524697460949623100, 13.42660781724169200, 4.498529725452346600 ) ) ;
#71 = DATE_AND_TIME ( #180, #33 ) ;
#72 = CARTESIAN_POINT ( 'NONE',  ( 6.524697460949623100, 13.04085346853606700, 4.500000000000000000 ) ) ;
#73 = CARTESIAN_POINT ( 'NONE',  ( 9.524697460949624900, 12.22660781724169100, -0.001470274547651917500 ) ) ;
#74 = CARTESIAN_POINT ( 'NONE',  ( 5.095083136394562100, 9.424942861022824300, 0.7414097118775242500 ) ) ;
#75 = VECTOR ( 'NONE', #470, 0.7259781388222330500 ) ;
#76 = CARTESIAN_POINT ( 'NONE',  ( 5.354890757529894100, 9.274942861022825700, 3.741409711877517800 ) ) ;
#77 = LINE ( 'NONE', #23, #118 ) ;
#78 = B_SPLINE_CURVE_WITH_KNOTS ( 'NONE', 1,
 ( #435, #404 ),
 .UNSPECIFIED., .F., .F.,
 ( 2, 2 ),
 ( -0.0000000000000000000, 0.004499999999999999700 ),
 .UNSPECIFIED. ) ;
#79 = CARTESIAN_POINT ( 'NONE',  ( -0.7259781388222331700, 0.0000000000000000000, 0.0000000000000000000 ) ) ;
#80 = CARTESIAN_POINT ( 'NONE',  ( 0.0000000000000000000, 0.0000000000000000000, 4.500000000000000000 ) ) ;
#81 = B_SPLINE_CURVE_WITH_KNOTS ( 'NONE', 1,
 ( #395, #46 ),
 .UNSPECIFIED., .F., .F.,
 ( 2, 2 ),
 ( -0.01000000000000000200, 0.0000000000000000000 ),
 .UNSPECIFIED. ) ;
#82 = CARTESIAN_POINT ( 'NONE',  ( 4.752617487574487300, 10.23177495741941600, 4.500000000000000000 ) ) ;
#83 = B_SPLINE_CURVE_WITH_KNOTS ( 'NONE', 1,
 ( #286, #283 ),
 .UNSPECIFIED., .F., .F.,
 ( 2, 2 ),
 ( 0.0000000000000000000, 0.0004000000000000045200 ),
 .UNSPECIFIED. ) ;
#84 = VECTOR ( 'NONE', #287, 0.9999999999999995600 ) ;
#85 = CC_DESIGN_APPROVAL ( #202, ( #494 ) ) ;
#86 = PERSON_AND_ORGANIZATION ( #256, #393 ) ;
#87 = CARTESIAN_POINT ( 'NONE',  ( 5.095083136394562100, 9.424942861022824300, 0.7414097118775241400 ) ) ;
#88 = CARTESIAN_POINT ( 'NONE',  ( 0.09508313639458371200, 0.7646888231784241300, 0.7414097118775232500 ) ) ;
#89 = CARTESIAN_POINT ( 'NONE',  ( 4.252617487574490000, 9.365749553634977100, 0.0000000000000000000 ) ) ;
#90 = VECTOR ( 'NONE', #474, 9.576422236412533100 ) ;
#91 = CARTESIAN_POINT ( 'NONE',  ( 4.252617487574490000, 9.365749553634977100, 0.0000000000000000000 ) ) ;
#92 = VECTOR ( 'NONE', #26, 3.000000000000000900 ) ;
#93 = LINE ( 'NONE', #184, #270 ) ;
#94 = CARTESIAN_POINT ( 'NONE',  ( -0.7259781388222331700, 0.0000000000000000000, 0.0000000000000000000 ) ) ;
#95 = B_SPLINE_CURVE_WITH_KNOTS ( 'NONE', 1,
 ( #166, #207 ),
 .UNSPECIFIED., .F., .F.,
 ( 2, 2 ),
 ( 0.0000000000000000000, 0.002103303284701583000 ),
 .UNSPECIFIED. ) ;
#96 = CARTESIAN_POINT ( 'NONE',  ( 4.052617487574508500, 9.019339392121231900, 0.0000000000000000000 ) ) ;
#97 = TRIMMED_CURVE ( 'NONE', #438, ( PARAMETER_VALUE ( -0.0000000000000000000 ), #444 ), ( PARAMETER_VALUE ( 1.000000000000000200 ), #101 ), .T., .PARAMETER. ) ;
#98 = B_SPLINE_CURVE_WITH_KNOTS ( 'NONE', 1,
 ( #236, #265 ),
 .UNSPECIFIED., .F., .F.,
 ( 2, 2 ),
 ( 1.470274547652784800E-006, 0.004499999999999999700 ),
 .UNSPECIFIED. ) ;
#99 = CARTESIAN_POINT ( 'NONE',  ( 5.604890757529891400, 9.707955562915042700, 0.0000000000000000000 ) ) ;
#100 = CARTESIAN_POINT ( 'NONE',  ( 6.524697460949623100, 12.64085346853606300, 0.0000000000000000000 ) ) ;
#101 = CARTESIAN_POINT ( 'NONE',  ( 0.3548907575299157200, 0.6146888231784247700, 0.7414097118775230300 ) ) ;
#102 = B_SPLINE_CURVE_WITH_KNOTS ( 'NONE', 1,
 ( #324, #172 ),
 .UNSPECIFIED., .F., .F.,
 ( 2, 2 ),
 ( -0.0009999999999999998000, -0.0000000000000000000 ),
 .UNSPECIFIED. ) ;
#103 = CARTESIAN_POINT ( 'NONE',  ( 1.524697460949611600, 12.64085346853604400, 0.0000000000000000000 ) ) ;
#104 = CC_DESIGN_PERSON_AND_ORGANIZATION_ASSIGNMENT ( #410, #342, ( #61 ) ) ;
#105 = DIRECTION ( 'NONE',  ( 0.0000000000000000000, -1.000000000000000000, 0.0000000000000000000 ) ) ;
#106 = DIRECTION ( 'NONE',  ( 0.0000000000000000000, 0.0000000000000000000, -1.000000000000000000 ) ) ;
#107 = VECTOR ( 'NONE', #363, 3.999999999999995600 ) ;
#108 = B_SPLINE_CURVE_WITH_KNOTS ( 'NONE', 1,
 ( #271, #82 ),
 .UNSPECIFIED., .F., .F.,
 ( 2, 2 ),
 ( -0.001000378170863102000, 0.0000000000000000000 ),
 .UNSPECIFIED. ) ;
#109 = GEOMETRIC_CURVE_SET ( 'NONE', ( #327, #152, #273, #408, #58, #154, #487, #120, #59, #319, #189, #448, #480, #98, #323, #464, #22, #401, #262, #311, #490, #297, #307, #123, #282, #248, #350, #175, #67, #25, #473, #108, #81, #7, #389, #164, #234, #216, #436, #403, #372, #146, #51, #423, #337, #157, #188, #95, #501, #45, #345, #132, #178, #417, #360, #293, #37, #19, #269, #83, #330, #439, #193, #210, #102, #405, #314, #367, #433, #277, #469, #78, #503, #4, #486, #135, #47, #40, #13, #450, #364, #279, #272, #196, #245, #289, #326, #206, #159, #65, #384, #212, #428, #39, #97, #182, #457, #447, #134, #399, #479 ) ) ;
#110 = DIRECTION ( 'NONE',  ( 0.0000000000000000000, 0.0000000000000000000, 1.000000000000000000 ) ) ;
#111 = CARTESIAN_POINT ( 'NONE',  ( 6.524697460949623100, 13.42660781724169200, 4.498529725452346600 ) ) ;
#112 = VECTOR ( 'NONE', #62, 0.3999999999999993600 ) ;
#113 = CC_DESIGN_DATE_AND_TIME_ASSIGNMENT ( #18, #156, ( #61 ) ) ;
#114 = CARTESIAN_POINT ( 'NONE',  ( 6.524697460949623100, 12.22660781724169100, -0.001470274547651917500 ) ) ;
#115 = CARTESIAN_POINT ( 'NONE',  ( 7.844015098299181000, 13.42660781724169200, -0.001470274547651917500 ) ) ;
#116 = CARTESIAN_POINT ( 'NONE',  ( 1.293757353273763200, 13.04085346853604600, 0.0000000000000000000 ) ) ;
#117 = CARTESIAN_POINT ( 'NONE',  ( 0.3548907575299147200, 0.6146888231784233300, 3.741409711877516500 ) ) ;
#118 = VECTOR ( 'NONE', #484, 0.7259781388222331700 ) ;
#119 = CARTESIAN_POINT ( 'NONE',  ( 6.524697460949623100, 13.42660781724169200, -0.001470274547651917500 ) ) ;
#120 = B_SPLINE_CURVE_WITH_KNOTS ( 'NONE', 1,
 ( #231, #29 ),
 .UNSPECIFIED., .F., .F.,
 ( 2, 2 ),
 ( -0.001199999999999999700, 0.0000000000000000000 ),
 .UNSPECIFIED. ) ;
#121 = CARTESIAN_POINT ( 'NONE',  ( 9.524697460949624900, 13.42660781724169200, 4.498529725452346600 ) ) ;
#122 = CARTESIAN_POINT ( 'NONE',  ( -0.3629890694111165800, -0.9973042717158877600, 4.137010930588883400 ) ) ;
#123 = B_SPLINE_CURVE_WITH_KNOTS ( 'NONE', 1,
 ( #493, #303 ),
 .UNSPECIFIED., .F., .F.,
 ( 2, 2 ),
 ( -0.001121667481656953300, 0.0000000000000000000 ),
 .UNSPECIFIED. ) ;
#124 = CARTESIAN_POINT ( 'NONE',  ( 6.524697460949623100, 12.22660781724169100, -0.001470274547651917500 ) ) ;
#125 = CARTESIAN_POINT ( 'NONE',  ( 6.524697460949623100, 12.22660781724169100, 4.498529725452346600 ) ) ;
#126 = CARTESIAN_POINT ( 'NONE',  ( 6.524697460949623100, 12.64085346853606300, 4.500000000000000000 ) ) ;
#127 = CARTESIAN_POINT ( 'NONE',  ( 4.252617487574490000, 9.365749553634977100, 4.500000000000000000 ) ) ;
#128 = APPROVAL_DATE_TIME ( #333, #285 ) ;
#129 = CARTESIAN_POINT ( 'NONE',  ( -0.7259781388222331700, 0.0000000000000000000, 0.0000000000000000000 ) ) ;
#130 = LINE ( 'NONE', #251, #42 ) ;
#131 = CARTESIAN_POINT ( 'NONE',  ( 1.293757353273763200, 13.04085346853604600, 0.0000000000000000000 ) ) ;
#132 = B_SPLINE_CURVE_WITH_KNOTS ( 'NONE', 1,
 ( #308, #463 ),
 .UNSPECIFIED., .F., .F.,
 ( 2, 2 ),
 ( 0.0000000000000000000, 0.0003857543487056237100 ),
 .UNSPECIFIED. ) ;
#133 = CARTESIAN_POINT ( 'NONE',  ( -0.7355936306317365500, 0.7259144580217802300, 4.500000000000000000 ) ) ;
#134 = TRIMMED_CURVE ( 'NONE', #20, ( PARAMETER_VALUE ( 0.0000000000000000000 ), #376 ), ( PARAMETER_VALUE ( 1.000000000000000000 ), #375 ), .T., .PARAMETER. ) ;
#135 = TRIMMED_CURVE ( 'NONE', #198, ( PARAMETER_VALUE ( 0.0000000000000000000 ), #94 ), ( PARAMETER_VALUE ( 1.000000000000000000 ), #322 ), .T., .PARAMETER. ) ;
#136 = CARTESIAN_POINT ( 'NONE',  ( 0.7885158724367333800, 11.36574955363496600, 0.0000000000000000000 ) ) ;
#137 = VECTOR ( 'NONE', #110, 4.500000000000000000 ) ;
#138 = CARTESIAN_POINT ( 'NONE',  ( -0.3629890694111168000, -0.9973042717158870900, 4.137010930588883400 ) ) ;
#139 = CARTESIAN_POINT ( 'NONE',  ( 5.354890757529894100, 9.274942861022825700, 3.741409711877517800 ) ) ;
#140 = PRODUCT_RELATED_PRODUCT_CATEGORY ( 'detail', '', ( #382 ) ) ;
#141 = DIRECTION ( 'NONE',  ( -1.000000000000000000, 0.0000000000000000000, -0.0000000000000000000 ) ) ;
#142 = CARTESIAN_POINT ( 'NONE',  ( 6.524697460949623100, 13.42660781724169200, 4.498529725452346600 ) ) ;
#143 = PERSON_AND_ORGANIZATION ( #256, #393 ) ;
#144 = LINE ( 'NONE', #63, #491 ) ;
#145 = CARTESIAN_POINT ( 'NONE',  ( 0.3548907575299157200, 0.6146888231784247700, 3.741409711877516500 ) ) ;
#146 = B_SPLINE_CURVE_WITH_KNOTS ( 'NONE', 1,
 ( #43, #391 ),
 .UNSPECIFIED., .F., .F.,
 ( 2, 2 ),
 ( -0.0007259781388222330700, 0.0000000000000000000 ),
 .UNSPECIFIED. ) ;
#147 = CARTESIAN_POINT ( 'NONE',  ( 6.524697460949623100, 13.42660781724169200, 4.498529725452346600 ) ) ;
#148 = APPROVAL_ROLE ( '' ) ;
#149 = DATE_AND_TIME ( #276, #420 ) ;
#150 = VECTOR ( 'NONE', #224, 2.999999999999993300 ) ;
#151 = CC_DESIGN_APPROVAL ( #285, ( #61 ) ) ;
#152 = B_SPLINE_CURVE_WITH_KNOTS ( 'NONE', 1,
 ( #388, #121 ),
 .UNSPECIFIED., .F., .F.,
 ( 2, 2 ),
 ( -0.004499999999999998800, 0.0000000000000000000 ),
 .UNSPECIFIED. ) ;
#153 = CARTESIAN_POINT ( 'NONE',  ( 0.0000000000000000000, 0.0000000000000000000, 0.0000000000000000000 ) ) ;
#154 = B_SPLINE_CURVE_WITH_KNOTS ( 'NONE', 1,
 ( #499, #424 ),
 .UNSPECIFIED., .F., .F.,
 ( 2, 2 ),
 ( 0.0000000000000000000, 0.01120978151505983400 ),
 .UNSPECIFIED. ) ;
#155 = CARTESIAN_POINT ( 'NONE',  ( 7.844015098299181000, 13.42660781724169200, -0.001470274547651917500 ) ) ;
#156 = DATE_TIME_ROLE ( 'creation_date' ) ;
#157 = B_SPLINE_CURVE_WITH_KNOTS ( 'NONE', 1,
 ( #392, #351 ),
 .UNSPECIFIED., .F., .F.,
 ( 2, 2 ),
 ( 0.0000000000000000000, 0.0003000000000000001900 ),
 .UNSPECIFIED. ) ;
#158 = CARTESIAN_POINT ( 'NONE',  ( -0.7259781388222331700, 0.0000000000000000000, 0.0000000000000000000 ) ) ;
#159 = TRIMMED_CURVE ( 'NONE', #485, ( PARAMETER_VALUE ( 0.0000000000000000000 ), #66 ), ( PARAMETER_VALUE ( 0.9999999999999997800 ), #221 ), .T., .PARAMETER. ) ;
#160 = CARTESIAN_POINT ( 'NONE',  ( 6.524697460949623100, 12.64085346853606300, 4.498529725452346600 ) ) ;
#161 = LINE ( 'NONE', #280, #2 ) ;
#162 = CC_DESIGN_PERSON_AND_ORGANIZATION_ASSIGNMENT ( #318, #453, ( #494 ) ) ;
#163 = CARTESIAN_POINT ( 'NONE',  ( 6.524697460949623100, 13.42660781724169200, -0.001470274547651917500 ) ) ;
#164 = B_SPLINE_CURVE_WITH_KNOTS ( 'NONE', 1,
 ( #244, #425 ),
 .UNSPECIFIED., .F., .F.,
 ( 2, 2 ),
 ( 0.0000000000000000000, 0.0004000000000000045200 ),
 .UNSPECIFIED. ) ;
#165 = CARTESIAN_POINT ( 'NONE',  ( -0.3629890694111166400, -0.9973042717158877600, 0.3629890694111165800 ) ) ;
#166 = CARTESIAN_POINT ( 'NONE',  ( 1.293757353273763200, 13.04085346853604600, 4.500000000000000000 ) ) ;
#167 = CARTESIAN_POINT ( 'NONE',  ( 1.524697460949611600, 12.64085346853604400, 4.500000000000000000 ) ) ;
#168 = CARTESIAN_POINT ( 'NONE',  ( 9.524697460949624900, 12.22660781724169100, -0.001470274547651917500 ) ) ;
#169 = CARTESIAN_POINT ( 'NONE',  ( 4.752617487574487300, 10.23177495741941600, 0.0000000000000000000 ) ) ;
#170 = DIRECTION ( 'NONE',  ( 0.8519510868775588300, -0.5236213761566137500, 0.0000000000000000000 ) ) ;
#171 = COORDINATED_UNIVERSAL_TIME_OFFSET ( 8, 0, .AHEAD. ) ;
#172 = CARTESIAN_POINT ( 'NONE',  ( 4.252617487574490000, 9.365749553634977100, 0.0000000000000000000 ) ) ;
#173 = VECTOR ( 'NONE', #257, 0.4000000000000045200 ) ;
#174 = CARTESIAN_POINT ( 'NONE',  ( 6.524697460949623100, 12.64085346853606300, 4.498529725452346600 ) ) ;
#175 = B_SPLINE_CURVE_WITH_KNOTS ( 'NONE', 1,
 ( #343, #74 ),
 .UNSPECIFIED., .F., .F.,
 ( 2, 2 ),
 ( -0.01000000000000000200, 0.0000000000000000000 ),
 .UNSPECIFIED. ) ;
#176 = CC_DESIGN_APPROVAL ( #28, ( #506 ) ) ;
#177 = CARTESIAN_POINT ( 'NONE',  ( 0.0000000000000000000, 0.0000000000000000000, 0.0000000000000000000 ) ) ;
#178 = B_SPLINE_CURVE_WITH_KNOTS ( 'NONE', 1,
 ( #241, #390 ),
 .UNSPECIFIED., .F., .F.,
 ( 2, 2 ),
 ( -0.0007259781388222330700, 0.0000000000000000000 ),
 .UNSPECIFIED. ) ;
#179 = CARTESIAN_POINT ( 'NONE',  ( 0.3548907575299157200, 0.6146888231784247700, 3.741409711877516500 ) ) ;
#180 = CALENDAR_DATE ( 2026, 12, 9 ) ;
#181 = CARTESIAN_POINT ( 'NONE',  ( 0.0000000000000000000, 0.0000000000000000000, 0.0000000000000000000 ) ) ;
#182 = TRIMMED_CURVE ( 'NONE', #130, ( PARAMETER_VALUE ( 0.0000000000000000000 ), #181 ), ( PARAMETER_VALUE ( 1.000000000000000000 ), #253 ), .T., .PARAMETER. ) ;
#183 = CARTESIAN_POINT ( 'NONE',  ( 5.354890757529894100, 9.274942861022825700, 0.7414097118775242500 ) ) ;
#184 = CARTESIAN_POINT ( 'NONE',  ( 1.524697460949611600, 12.64085346853604400, 0.0000000000000000000 ) ) ;
#185 = DIRECTION ( 'NONE',  ( 0.0000000000000000000, 0.0000000000000000000, -1.000000000000000000 ) ) ;
#186 = APPROVAL_DATE_TIME ( #149, #28 ) ;
#187 = VECTOR ( 'NONE', #255, 4.500000000000000000 ) ;
#188 = B_SPLINE_CURVE_WITH_KNOTS ( 'NONE', 1,
 ( #38, #427 ),
 .UNSPECIFIED., .F., .F.,
 ( 2, 2 ),
 ( -0.0000000000000000000, 0.004499999999999999700 ),
 .UNSPECIFIED. ) ;
#189 = B_SPLINE_CURVE_WITH_KNOTS ( 'NONE', 1,
 ( #76, #117 ),
 .UNSPECIFIED., .F., .F.,
 ( 2, 2 ),
 ( -0.0000000000000000000, 0.01000000000000000200 ),
 .UNSPECIFIED. ) ;
#190 = APPROVAL_ROLE ( '' ) ;
#191 = DIRECTION ( 'NONE',  ( 0.0000000000000000000, 0.0000000000000000000, 1.000000000000000000 ) ) ;
#192 = CARTESIAN_POINT ( 'NONE',  ( 6.524697460949623100, 13.42660781724169200, 4.498529725452346600 ) ) ;
#193 = B_SPLINE_CURVE_WITH_KNOTS ( 'NONE', 1,
 ( #3, #400 ),
 .UNSPECIFIED., .F., .F.,
 ( 2, 2 ),
 ( 0.0000000000000000000, 0.001472363177025763800 ),
 .UNSPECIFIED. ) ;
#194 = PERSON_AND_ORGANIZATION_ROLE ( 'creator' ) ;
#195 = CARTESIAN_POINT ( 'NONE',  ( 9.524697460949624900, 12.22660781724169100, 4.498529725452346600 ) ) ;
#196 = TRIMMED_CURVE ( 'NONE', #93, ( PARAMETER_VALUE ( 0.0000000000000000000 ), #103 ), ( PARAMETER_VALUE ( 1.000000000000000000 ), #100 ), .T., .PARAMETER. ) ;
#197 = CARTESIAN_POINT ( 'NONE',  ( 4.752617487574487300, 10.23177495741941600, 0.0000000000000000000 ) ) ;
#198 = LINE ( 'NONE', #129, #75 ) ;
#199 = CARTESIAN_POINT ( 'NONE',  ( 9.524697460949624900, 12.22660781724169100, 4.498529725452346600 ) ) ;
#200 = CARTESIAN_POINT ( 'NONE',  ( 6.524697460949623100, 12.64085346853606300, 0.0000000000000000000 ) ) ;
#201 = CARTESIAN_POINT ( 'NONE',  ( 5.354890757529894100, 9.274942861022825700, 3.741409711877517800 ) ) ;
#202 = APPROVAL ( #414, '未指定' ) ;
#203 = CARTESIAN_POINT ( 'NONE',  ( 6.524697460949623100, 12.64085346853606300, 4.498529725452346600 ) ) ;
#204 = VECTOR ( 'NONE', #9, 11.20978151505983300 ) ;
#205 = LINE ( 'NONE', #142, #339 ) ;
#206 = TRIMMED_CURVE ( 'NONE', #362, ( PARAMETER_VALUE ( 0.0000000000000000000 ), #445 ), ( PARAMETER_VALUE ( 1.000000000000001300 ), #407 ), .T., .PARAMETER. ) ;
#207 = CARTESIAN_POINT ( 'NONE',  ( 0.2421057109229763600, 11.21933939212121900, 4.500000000000000000 ) ) ;
#208 = CARTESIAN_POINT ( 'NONE',  ( 1.524697460949611600, 12.64085346853604400, 4.500000000000000000 ) ) ;
#209 = CARTESIAN_POINT ( 'NONE',  ( 1.293757353273763200, 13.04085346853604600, 4.500000000000000000 ) ) ;
#210 = B_SPLINE_CURVE_WITH_KNOTS ( 'NONE', 1,
 ( #247, #50 ),
 .UNSPECIFIED., .F., .F.,
 ( 2, 2 ),
 ( -0.0000000000000000000, 0.004499999999999999700 ),
 .UNSPECIFIED. ) ;
#211 = CARTESIAN_POINT ( 'NONE',  ( 4.252617487574490000, 9.365749553634977100, 0.0000000000000000000 ) ) ;
#212 = TRIMMED_CURVE ( 'NONE', #349, ( PARAMETER_VALUE ( 0.0000000000000000000 ), #328 ), ( PARAMETER_VALUE ( 1.000000000000000000 ), #332 ), .T., .PARAMETER. ) ;
#213 = DIRECTION ( 'NONE',  ( 0.4999999999999975000, 0.8660254037844401500, 0.0000000000000000000 ) ) ;
#214 = CC_DESIGN_PERSON_AND_ORGANIZATION_ASSIGNMENT ( #290, #338, ( #382 ) ) ;
#215 = CARTESIAN_POINT ( 'NONE',  ( -0.7259781388222331700, 0.0000000000000000000, 0.0000000000000000000 ) ) ;
#216 = B_SPLINE_CURVE_WITH_KNOTS ( 'NONE', 1,
 ( #209, #347 ),
 .UNSPECIFIED., .F., .F.,
 ( 2, 2 ),
 ( -0.0000000000000000000, 0.004499999999999999700 ),
 .UNSPECIFIED. ) ;
#217 = CARTESIAN_POINT ( 'NONE',  ( 6.524697460949623100, 13.04085346853606700, 4.498529725452346600 ) ) ;
#218 = CARTESIAN_POINT ( 'NONE',  ( 0.0000000000000000000, 0.0000000000000000000, 0.0000000000000000000 ) ) ;
#219 = LINE ( 'NONE', #359, #107 ) ;
#220 = DIRECTION ( 'NONE',  ( -0.4999999999999978900, -0.8660254037844399300, -1.192622389734054900E-016 ) ) ;
#221 = CARTESIAN_POINT ( 'NONE',  ( 6.524697460949623100, 12.22660781724169100, -0.001470274547651917500 ) ) ;
#222 = CARTESIAN_POINT ( 'NONE',  ( 0.2421057109229765300, 11.21933939212121900, 0.0000000000000000000 ) ) ;
#223 = APPROVAL_PERSON_ORGANIZATION ( #143, #202, #148 ) ;
#224 = DIRECTION ( 'NONE',  ( 0.0000000000000000000, 0.0000000000000000000, -1.000000000000000000 ) ) ;
#225 = VECTOR ( 'NONE', #52, 3.999999999999995600 ) ;
#226 = DIRECTION ( 'NONE',  ( 0.0000000000000000000, 0.0000000000000000000, -1.000000000000000000 ) ) ;
#227 = LINE ( 'NONE', #177, #504 ) ;
#228 = CARTESIAN_POINT ( 'NONE',  ( -0.7259781388222331700, 0.0000000000000000000, 4.500000000000000000 ) ) ;
#229 = CARTESIAN_POINT ( 'NONE',  ( 7.844015098299181000, 13.42660781724169200, 4.498529725452346600 ) ) ;
#230 = CARTESIAN_POINT ( 'NONE',  ( 4.752617487574487300, 10.23177495741941600, 0.0000000000000000000 ) ) ;
#231 = CARTESIAN_POINT ( 'NONE',  ( 6.524697460949623100, 12.22660781724169100, -0.001470274547651917500 ) ) ;
#232 = VECTOR ( 'NONE', #366, 10.00000000000000000 ) ;
#233 = CARTESIAN_POINT ( 'NONE',  ( 9.524697460949624900, 13.42660781724169200, 4.498529725452346600 ) ) ;
#234 = B_SPLINE_CURVE_WITH_KNOTS ( 'NONE', 1,
 ( #430, #356 ),
 .UNSPECIFIED., .F., .F.,
 ( 2, 2 ),
 ( -0.009576422236412531300, -0.0000000000000000000 ),
 .UNSPECIFIED. ) ;
#235 = CARTESIAN_POINT ( 'NONE',  ( 0.09508313639458371200, 0.7646888231784241300, 3.741409711877516500 ) ) ;
#236 = CARTESIAN_POINT ( 'NONE',  ( 6.524697460949623100, 13.04085346853606700, 4.498529725452346600 ) ) ;
#237 = CARTESIAN_POINT ( 'NONE',  ( 4.052617487574508500, 9.019339392121231900, 0.0000000000000000000 ) ) ;
#238 = LINE ( 'NONE', #482, #187 ) ;
#239 = UNCERTAINTY_MEASURE_WITH_UNIT (LENGTH_MEASURE( 1.000000000000000100E-005 ), #296, 'distance_accuracy_value', 'NONE');
#240 = CARTESIAN_POINT ( 'NONE',  ( 4.752617487574487300, 10.23177495741941600, 4.500000000000000000 ) ) ;
#241 = CARTESIAN_POINT ( 'NONE',  ( -0.7259781388222330500, 0.0000000000000000000, 0.0000000000000000000 ) ) ;
#242 = CARTESIAN_POINT ( 'NONE',  ( -0.7355936306317365500, 0.7259144580217802300, 0.0000000000000000000 ) ) ;
#243 = APPROVAL_PERSON_ORGANIZATION ( #443, #28, #190 ) ;
#244 = CARTESIAN_POINT ( 'NONE',  ( 6.524697460949623100, 12.64085346853606300, 0.0000000000000000000 ) ) ;
#245 = TRIMMED_CURVE ( 'NONE', #11, ( PARAMETER_VALUE ( 0.0000000000000000000 ), #295 ), ( PARAMETER_VALUE ( 0.9999999999999984500 ), #15 ), .T., .PARAMETER. ) ;
#246 = CARTESIAN_POINT ( 'NONE',  ( 0.7885158724367333800, 11.36574955363496600, 0.0000000000000000000 ) ) ;
#247 = CARTESIAN_POINT ( 'NONE',  ( 4.252617487574490000, 9.365749553634977100, 4.500000000000000000 ) ) ;
#248 = B_SPLINE_CURVE_WITH_KNOTS ( 'NONE', 1,
 ( #381, #266 ),
 .UNSPECIFIED., .F., .F.,
 ( 2, 2 ),
 ( 0.0007857543487056282300, 0.001199999999999999700 ),
 .UNSPECIFIED. ) ;
#249 = CARTESIAN_POINT ( 'NONE',  ( -0.3629890694111165800, -0.9973042717158879800, 0.3629890694111165800 ) ) ;
#250 = CARTESIAN_POINT ( 'NONE',  ( 1.524697460949611600, 12.64085346853604400, 4.500000000000000000 ) ) ;
#251 = CARTESIAN_POINT ( 'NONE',  ( 0.0000000000000000000, 0.0000000000000000000, 0.0000000000000000000 ) ) ;
#252 = CARTESIAN_POINT ( 'NONE',  ( 6.524697460949623100, 13.04085346853606700, 0.0000000000000000000 ) ) ;
#253 = CARTESIAN_POINT ( 'NONE',  ( -0.7259781388222331700, 0.0000000000000000000, 0.0000000000000000000 ) ) ;
#254 = CALENDAR_DATE ( 2026, 12, 9 ) ;
#255 = DIRECTION ( 'NONE',  ( 0.0000000000000000000, 0.0000000000000000000, 1.000000000000000000 ) ) ;
#256 = PERSON ( '未指定', '未指定', '未指定', ('未指定'), ('未指定'), ('未指定') ) ;
#257 = DIRECTION ( 'NONE',  ( 0.0000000000000000000, 1.000000000000000000, 0.0000000000000000000 ) ) ;
#258 = APPLICATION_PROTOCOL_DEFINITION ( 'international standard', 'config_control_design', 1994, #264 ) ;
#259 = PERSON_AND_ORGANIZATION ( #256, #393 ) ;
#260 = CARTESIAN_POINT ( 'NONE',  ( 9.524697460949624900, 13.42660781724169200, 4.498529725452346600 ) ) ;
#261 = LINE ( 'NONE', #446, #34 ) ;
#262 = B_SPLINE_CURVE_WITH_KNOTS ( 'NONE', 1,
 ( #500, #458 ),
 .UNSPECIFIED., .F., .F.,
 ( 2, 2 ),
 ( 0.0000000000000000000, 0.003999999999999995700 ),
 .UNSPECIFIED. ) ;
#263 = APPLICATION_PROTOCOL_DEFINITION ( 'international standard', 'config_control_design', 1994, #413 ) ;
#264 = APPLICATION_CONTEXT ( 'configuration controlled 3d designs of mechanical parts and assemblies' ) ;
#265 = CARTESIAN_POINT ( 'NONE',  ( 6.524697460949623100, 13.04085346853606700, 0.0000000000000000000 ) ) ;
#266 = CARTESIAN_POINT ( 'NONE',  ( 6.524697460949623100, 12.22660781724169100, 4.498529725452346600 ) ) ;
#267 = CARTESIAN_POINT ( 'NONE',  ( 0.7885158724367333800, 11.36574955363496600, 0.0000000000000000000 ) ) ;
#268 = APPROVAL_DATE_TIME ( #71, #202 ) ;
#269 = B_SPLINE_CURVE_WITH_KNOTS ( 'NONE', 1,
 ( #467, #237 ),
 .UNSPECIFIED., .F., .F.,
 ( 2, 2 ),
 ( -0.004399999999999994200, 0.0000000000000000000 ),
 .UNSPECIFIED. ) ;
#270 = VECTOR ( 'NONE', #442, 5.000000000000011500 ) ;
#271 = CARTESIAN_POINT ( 'NONE',  ( 5.604890757529891400, 9.707955562915042700, 4.500000000000000000 ) ) ;
#272 = TRIMMED_CURVE ( 'NONE', #325, ( PARAMETER_VALUE ( 0.0000000000000000000 ), #409 ), ( PARAMETER_VALUE ( 0.9999999999999985600 ), #441 ), .T., .PARAMETER. ) ;
#273 = B_SPLINE_CURVE_WITH_KNOTS ( 'NONE', 1,
 ( #163, #192 ),
 .UNSPECIFIED., .F., .F.,
 ( 2, 2 ),
 ( -0.004499999999999998800, 0.0000000000000000000 ),
 .UNSPECIFIED. ) ;
#274 = CC_DESIGN_DATE_AND_TIME_ASSIGNMENT ( #497, #340, ( #494 ) ) ;
#275 = CARTESIAN_POINT ( 'NONE',  ( -0.7259781388222331700, -2.710505431213761100E-017, 1.355252715606880500E-017 ) ) ;
#276 = CALENDAR_DATE ( 2026, 12, 9 ) ;
#277 = B_SPLINE_CURVE_WITH_KNOTS ( 'NONE', 1,
 ( #365, #440 ),
 .UNSPECIFIED., .F., .F.,
 ( 2, 2 ),
 ( 0.0000000000000000000, 0.01120978151505983400 ),
 .UNSPECIFIED. ) ;
#278 = CARTESIAN_POINT ( 'NONE',  ( 4.052617487574508500, 9.019339392121231900, 0.0000000000000000000 ) ) ;
#279 = TRIMMED_CURVE ( 'NONE', #498, ( PARAMETER_VALUE ( 0.0000000000000000000 ), #329 ), ( PARAMETER_VALUE ( 0.9999999999999997800 ), #222 ), .T., .PARAMETER. ) ;
#280 = CARTESIAN_POINT ( 'NONE',  ( 4.752617487574487300, 10.23177495741941600, 0.0000000000000000000 ) ) ;
#281 = CARTESIAN_POINT ( 'NONE',  ( -0.7355936306317365500, 0.7259144580217802300, 0.0000000000000000000 ) ) ;
#282 = B_SPLINE_CURVE_WITH_KNOTS ( 'NONE', 1,
 ( #233, #496 ),
 .UNSPECIFIED., .F., .F.,
 ( 2, 2 ),
 ( -0.0000000000000000000, 0.003000000000000000900 ),
 .UNSPECIFIED. ) ;
#283 = CARTESIAN_POINT ( 'NONE',  ( 6.524697460949623100, 13.04085346853606700, 4.500000000000000000 ) ) ;
#284 = VECTOR ( 'NONE', #220, 10.00000000000000000 ) ;
#285 = APPROVAL ( #68, '未指定' ) ;
#286 = CARTESIAN_POINT ( 'NONE',  ( 6.524697460949623100, 12.64085346853606300, 4.500000000000000000 ) ) ;
#287 = DIRECTION ( 'NONE',  ( 0.4999999999999980600, 0.8660254037844397100, 0.0000000000000000000 ) ) ;
#288 = CARTESIAN_POINT ( 'NONE',  ( 6.524697460949623100, 12.64085346853606300, 0.0000000000000000000 ) ) ;
#289 = TRIMMED_CURVE ( 'NONE', #460, ( PARAMETER_VALUE ( 0.0000000000000000000 ), #369 ), ( PARAMETER_VALUE ( 0.9999999999999998900 ), #252 ), .T., .PARAMETER. ) ;
#290 = PERSON_AND_ORGANIZATION ( #256, #393 ) ;
#291 = CARTESIAN_POINT ( 'NONE',  ( 0.3548907575299157200, 0.6146888231784247700, 0.7414097118775230300 ) ) ;
#292 = AXIS2_PLACEMENT_3D ( 'NONE', #153, #488, #380 ) ;
#293 = B_SPLINE_CURVE_WITH_KNOTS ( 'NONE', 1,
 ( #429, #201 ),
 .UNSPECIFIED., .F., .F.,
 ( 2, 2 ),
 ( -0.002999999999999993600, 0.0000000000000000000 ),
 .UNSPECIFIED. ) ;
#294 = DIRECTION ( 'NONE',  ( 0.0000000000000000000, -1.000000000000000000, 0.0000000000000000000 ) ) ;
#295 = CARTESIAN_POINT ( 'NONE',  ( 6.524697460949623100, 12.64085346853606300, 0.0000000000000000000 ) ) ;
#296 =( LENGTH_UNIT ( ) NAMED_UNIT ( * ) SI_UNIT ( .MILLI., .METRE. ) );
#297 = B_SPLINE_CURVE_WITH_KNOTS ( 'NONE', 1,
 ( #456, #158 ),
 .UNSPECIFIED., .F., .F.,
 ( 2, 2 ),
 ( -0.0000000000000000000, 0.004499999999999999700 ),
 .UNSPECIFIED. ) ;
#298 =( NAMED_UNIT ( * ) PLANE_ANGLE_UNIT ( ) SI_UNIT ( $, .RADIAN. ) );
#299 = LINE ( 'NONE', #57, #204 ) ;
#300 = PERSON_AND_ORGANIZATION_ROLE ( 'design_supplier' ) ;
#301 = VECTOR ( 'NONE', #213, 1.472363177025763700 ) ;
#302 = CARTESIAN_POINT ( 'NONE',  ( -0.7259781388222331700, 0.0000000000000000000, 0.0000000000000000000 ) ) ;
#303 = CARTESIAN_POINT ( 'NONE',  ( 0.0000000000000000000, 0.0000000000000000000, 4.500000000000000000 ) ) ;
#304 = CARTESIAN_POINT ( 'NONE',  ( 0.09508313639458371200, 0.7646888231784241300, 0.7414097118775230300 ) ) ;
#305 = CARTESIAN_POINT ( 'NONE',  ( 1.293757353273763200, 13.04085346853604600, 4.500000000000000000 ) ) ;
#306 = CARTESIAN_POINT ( 'NONE',  ( 5.604890757529891400, 9.707955562915042700, 4.500000000000000000 ) ) ;
#307 = B_SPLINE_CURVE_WITH_KNOTS ( 'NONE', 1,
 ( #452, #230 ),
 .UNSPECIFIED., .F., .F.,
 ( 2, 2 ),
 ( -0.0000000000000000000, 0.004499999999999999700 ),
 .UNSPECIFIED. ) ;
#308 = CARTESIAN_POINT ( 'NONE',  ( 6.524697460949623100, 13.42660781724169200, 4.498529725452346600 ) ) ;
#309 = CARTESIAN_POINT ( 'NONE',  ( 6.524697460949623100, 12.64085346853606300, 4.500000000000000000 ) ) ;
#310 = LINE ( 'NONE', #91, #84 ) ;
#311 = B_SPLINE_CURVE_WITH_KNOTS ( 'NONE', 1,
 ( #73, #344 ),
 .UNSPECIFIED., .F., .F.,
 ( 2, 2 ),
 ( -0.001199999999999999700, 0.0000000000000000000 ),
 .UNSPECIFIED. ) ;
#312 = LINE ( 'NONE', #6, #225 ) ;
#313 = CARTESIAN_POINT ( 'NONE',  ( -0.3629890694111165800, -0.9973042717158877600, 0.3629890694111166400 ) ) ;
#314 = B_SPLINE_CURVE_WITH_KNOTS ( 'NONE', 1,
 ( #133, #281 ),
 .UNSPECIFIED., .F., .F.,
 ( 2, 2 ),
 ( -0.0000000000000000000, 0.004499999999999999700 ),
 .UNSPECIFIED. ) ;
#315 = CARTESIAN_POINT ( 'NONE',  ( 0.0000000000000000000, 0.0000000000000000000, 0.0000000000000000000 ) ) ;
#316 = CARTESIAN_POINT ( 'NONE',  ( 0.09508313639458371200, 0.7646888231784241300, 3.741409711877516500 ) ) ;
#317 = CARTESIAN_POINT ( 'NONE',  ( 0.7885158724367331600, 11.36574955363496600, 0.0000000000000000000 ) ) ;
#318 = PERSON_AND_ORGANIZATION ( #256, #393 ) ;
#319 = B_SPLINE_CURVE_WITH_KNOTS ( 'NONE', 1,
 ( #69, #267 ),
 .UNSPECIFIED., .F., .F.,
 ( 2, 2 ),
 ( -0.0000000000000000000, 0.004499999999999999700 ),
 .UNSPECIFIED. ) ;
#320 = CARTESIAN_POINT ( 'NONE',  ( 4.052617487574508500, 9.019339392121231900, 0.0000000000000000000 ) ) ;
#321 = CARTESIAN_POINT ( 'NONE',  ( 0.0000000000000000000, 0.0000000000000000000, 0.0000000000000000000 ) ) ;
#322 = CARTESIAN_POINT ( 'NONE',  ( -0.7355936306317365500, 0.7259144580217802300, 0.0000000000000000000 ) ) ;
#323 = B_SPLINE_CURVE_WITH_KNOTS ( 'NONE', 1,
 ( #35, #197 ),
 .UNSPECIFIED., .F., .F.,
 ( 2, 2 ),
 ( -0.001000378170863102000, 0.0000000000000000000 ),
 .UNSPECIFIED. ) ;
#324 = CARTESIAN_POINT ( 'NONE',  ( 4.752617487574487300, 10.23177495741941600, 0.0000000000000000000 ) ) ;
#325 = LINE ( 'NONE', #64, #112 ) ;
#326 = TRIMMED_CURVE ( 'NONE', #205, ( PARAMETER_VALUE ( 0.0000000000000000000 ), #147 ), ( PARAMETER_VALUE ( 0.9999999999999997800 ), #12 ), .T., .PARAMETER. ) ;
#327 = B_SPLINE_CURVE_WITH_KNOTS ( 'NONE', 1,
 ( #235, #418 ),
 .UNSPECIFIED., .F., .F.,
 ( 2, 2 ),
 ( 0.0000000000000000000, 0.0002999999999999999700 ),
 .UNSPECIFIED. ) ;
#328 = CARTESIAN_POINT ( 'NONE',  ( 5.354890757529894100, 9.274942861022825700, 3.741409711877517800 ) ) ;
#329 = CARTESIAN_POINT ( 'NONE',  ( 1.293757353273763200, 13.04085346853604600, 0.0000000000000000000 ) ) ;
#330 = B_SPLINE_CURVE_WITH_KNOTS ( 'NONE', 1,
 ( #138, #397 ),
 .UNSPECIFIED., .F., .F.,
 ( 2, 2 ),
 ( 0.0003346026153748792300, 0.001456270097031832600 ),
 .UNSPECIFIED. ) ;
#331 = LINE ( 'NONE', #396, #90 ) ;
#332 = CARTESIAN_POINT ( 'NONE',  ( 5.354890757529894100, 9.274942861022825700, 0.7414097118775242500 ) ) ;
#333 = DATE_AND_TIME ( #361, #5 ) ;
#334 = CARTESIAN_POINT ( 'NONE',  ( 6.524697460949623100, 12.22660781724169100, -0.001470274547651917500 ) ) ;
#335 = LINE ( 'NONE', #336, #232 ) ;
#336 = CARTESIAN_POINT ( 'NONE',  ( 5.354890757529894100, 9.274942861022825700, 3.741409711877517800 ) ) ;
#337 = B_SPLINE_CURVE_WITH_KNOTS ( 'NONE', 1,
 ( #316, #88 ),
 .UNSPECIFIED., .F., .F.,
 ( 2, 2 ),
 ( 0.0000000000000000000, 0.002999999999999993100 ),
 .UNSPECIFIED. ) ;
#338 = PERSON_AND_ORGANIZATION_ROLE ( 'design_owner' ) ;
#339 = VECTOR ( 'NONE', #106, 4.499999999999999100 ) ;
#340 = DATE_TIME_ROLE ( 'classification_date' ) ;
#341 = CARTESIAN_POINT ( 'NONE',  ( 9.524697460949624900, 12.22660781724169100, -0.001470274547651917500 ) ) ;
#342 = PERSON_AND_ORGANIZATION_ROLE ( 'creator' ) ;
#343 = CARTESIAN_POINT ( 'NONE',  ( 0.09508313639458240700, 0.7646888231784224600, 0.7414097118775230300 ) ) ;
#344 = CARTESIAN_POINT ( 'NONE',  ( 9.524697460949624900, 13.42660781724169200, -0.001470274547651917500 ) ) ;
#345 = B_SPLINE_CURVE_WITH_KNOTS ( 'NONE', 1,
 ( #122, #313 ),
 .UNSPECIFIED., .F., .F.,
 ( 2, 2 ),
 ( -0.004137010930588883700, -0.0003629890694111166400 ),
 .UNSPECIFIED. ) ;
#346 = CARTESIAN_POINT ( 'NONE',  ( 9.524697460949624900, 13.42660781724169200, -0.001470274547651917500 ) ) ;
#347 = CARTESIAN_POINT ( 'NONE',  ( 1.293757353273763200, 13.04085346853604600, 0.0000000000000000000 ) ) ;
#348 = COORDINATED_UNIVERSAL_TIME_OFFSET ( 8, 0, .AHEAD. ) ;
#349 = LINE ( 'NONE', #60, #431 ) ;
#350 = B_SPLINE_CURVE_WITH_KNOTS ( 'NONE', 1,
 ( #72, #305 ),
 .UNSPECIFIED., .F., .F.,
 ( 2, 2 ),
 ( -0.005230940107675860300, -0.0000000000000000000 ),
 .UNSPECIFIED. ) ;
#351 = CARTESIAN_POINT ( 'NONE',  ( 5.354890757529894100, 9.274942861022825700, 3.741409711877517800 ) ) ;
#352 = CARTESIAN_POINT ( 'NONE',  ( 1.524697460949611600, 12.64085346853604400, 0.0000000000000000000 ) ) ;
#353 = PRODUCT_DEFINITION_SHAPE ( 'NONE', 'NONE',  #61 ) ;
#354 = CARTESIAN_POINT ( 'NONE',  ( -0.7355936306317365500, 0.7259144580217802300, 0.0000000000000000000 ) ) ;
#355 = LOCAL_TIME ( 18, 33, 11.00000000000000000, #41 ) ;
#356 = CARTESIAN_POINT ( 'NONE',  ( -0.7355936306317365500, 0.7259144580217802300, 4.500000000000000000 ) ) ;
#357 = CARTESIAN_POINT ( 'NONE',  ( 5.095083136394562100, 9.424942861022824300, 0.7414097118775242500 ) ) ;
#358 = CARTESIAN_POINT ( 'NONE',  ( 0.5885158724367519600, 11.01933939212122100, 0.0000000000000000000 ) ) ;
#359 = CARTESIAN_POINT ( 'NONE',  ( 4.252617487574490000, 9.365749553634977100, 0.0000000000000000000 ) ) ;
#360 = B_SPLINE_CURVE_WITH_KNOTS ( 'NONE', 1,
 ( #240, #127 ),
 .UNSPECIFIED., .F., .F.,
 ( 2, 2 ),
 ( -0.0009999999999999998000, -0.0000000000000000000 ),
 .UNSPECIFIED. ) ;
#361 = CALENDAR_DATE ( 2026, 12, 9 ) ;
#362 = LINE ( 'NONE', #373, #398 ) ;
#363 = DIRECTION ( 'NONE',  ( -0.8660254037844401500, 0.4999999999999975600, 0.0000000000000000000 ) ) ;
#364 = TRIMMED_CURVE ( 'NONE', #472, ( PARAMETER_VALUE ( 0.0000000000000000000 ), #471 ), ( PARAMETER_VALUE ( 0.9999999999999993300 ), #402 ), .T., .PARAMETER. ) ;
#365 = CARTESIAN_POINT ( 'NONE',  ( 0.0000000000000000000, 0.0000000000000000000, 0.0000000000000000000 ) ) ;
#366 = DIRECTION ( 'NONE',  ( -0.4999999999999978900, -0.8660254037844399300, -1.301042606982605300E-016 ) ) ;
#367 = B_SPLINE_CURVE_WITH_KNOTS ( 'NONE', 1,
 ( #8, #250 ),
 .UNSPECIFIED., .F., .F.,
 ( 2, 2 ),
 ( 0.0000000000000000000, 0.001472363177025763800 ),
 .UNSPECIFIED. ) ;
#368 = DIRECTION ( 'NONE',  ( 0.0000000000000000000, -1.000000000000000000, 0.0000000000000000000 ) ) ;
#369 = CARTESIAN_POINT ( 'NONE',  ( 1.293757353273763200, 13.04085346853604600, 0.0000000000000000000 ) ) ;
#370 = CARTESIAN_POINT ( 'NONE',  ( 19.52469746094962500, -1.602163280051040100, 2.248529725452347500 ) ) ;
#371 = GEOMETRICALLY_BOUNDED_WIREFRAME_SHAPE_REPRESENTATION ( '单条腿V1', ( #109, #292 ), #489 ) ;
#372 = B_SPLINE_CURVE_WITH_KNOTS ( 'NONE', 1,
 ( #502, #80 ),
 .UNSPECIFIED., .F., .F.,
 ( 2, 2 ),
 ( -0.0007259781388222330700, 0.0000000000000000000 ),
 .UNSPECIFIED. ) ;
#373 = CARTESIAN_POINT ( 'NONE',  ( 6.524697460949623100, 13.42660781724169200, 4.498529725452346600 ) ) ;
#374 = COORDINATED_UNIVERSAL_TIME_OFFSET ( 8, 0, .AHEAD. ) ;
#375 = CARTESIAN_POINT ( 'NONE',  ( -0.7259781388222331700, 0.0000000000000000000, 4.500000000000000000 ) ) ;
#376 = CARTESIAN_POINT ( 'NONE',  ( -0.7259781388222331700, 0.0000000000000000000, 0.0000000000000000000 ) ) ;
#377 = CC_DESIGN_PERSON_AND_ORGANIZATION_ASSIGNMENT ( #48, #300, ( #506 ) ) ;
#378 = CARTESIAN_POINT ( 'NONE',  ( 6.524697460949623100, 13.04085346853606700, 4.500000000000000000 ) ) ;
#379 = CALENDAR_DATE ( 2026, 12, 9 ) ;
#380 = DIRECTION ( 'NONE',  ( 1.000000000000000000, 0.0000000000000000000, 0.0000000000000000000 ) ) ;
#381 = CARTESIAN_POINT ( 'NONE',  ( 6.524697460949623100, 12.64085346853606300, 4.498529725452346600 ) ) ;
#382 = PRODUCT ( '单条腿V1', '单条腿V1', '', ( #492 ) ) ;
#383 = CARTESIAN_POINT ( 'NONE',  ( 1.524697460949611600, 12.64085346853604400, 0.0000000000000000000 ) ) ;
#384 = TRIMMED_CURVE ( 'NONE', #261, ( PARAMETER_VALUE ( 0.0000000000000000000 ), #477 ), ( PARAMETER_VALUE ( 1.000000000000000200 ), #370 ), .T., .PARAMETER. ) ;
#385 = CARTESIAN_POINT ( 'NONE',  ( 9.524697460949624900, 12.22660781724169100, 4.498529725452346600 ) ) ;
#386 = COORDINATED_UNIVERSAL_TIME_OFFSET ( 8, 0, .AHEAD. ) ;
#387 = VECTOR ( 'NONE', #481, 5.230940107675860600 ) ;
#388 = CARTESIAN_POINT ( 'NONE',  ( 9.524697460949624900, 13.42660781724169200, -0.001470274547651917500 ) ) ;
#389 = B_SPLINE_CURVE_WITH_KNOTS ( 'NONE', 1,
 ( #242, #79 ),
 .UNSPECIFIED., .F., .F.,
 ( 2, 2 ),
 ( -0.0007259781388222330700, 0.0000000000000000000 ),
 .UNSPECIFIED. ) ;
#390 = CARTESIAN_POINT ( 'NONE',  ( 0.0000000000000000000, 0.0000000000000000000, 0.0000000000000000000 ) ) ;
#391 = CARTESIAN_POINT ( 'NONE',  ( -0.7259781388222331700, 0.0000000000000000000, 4.500000000000000000 ) ) ;
#392 = CARTESIAN_POINT ( 'NONE',  ( 5.095083136394562100, 9.424942861022824300, 3.741409711877517800 ) ) ;
#393 = ORGANIZATION ( '未指定', '未指定', '' ) ;
#394 = CARTESIAN_POINT ( 'NONE',  ( 0.2421057109229763600, 11.21933939212121900, 0.0000000000000000000 ) ) ;
#395 = CARTESIAN_POINT ( 'NONE',  ( 0.3548907575299147200, 0.6146888231784233300, 0.7414097118775230300 ) ) ;
#396 = CARTESIAN_POINT ( 'NONE',  ( -0.7355936306317365500, 0.7259144580217802300, 0.0000000000000000000 ) ) ;
#397 = CARTESIAN_POINT ( 'NONE',  ( -0.7259781388222330500, 0.0000000000000000000, 4.500000000000000900 ) ) ;
#398 = VECTOR ( 'NONE', #368, 1.199999999999999700 ) ;
#399 = TRIMMED_CURVE ( 'NONE', #27, ( PARAMETER_VALUE ( 0.0000000000000000000 ), #155 ), ( PARAMETER_VALUE ( 0.9999999999999997800 ), #229 ), .T., .PARAMETER. ) ;
#400 = CARTESIAN_POINT ( 'NONE',  ( 1.524697460949611600, 12.64085346853604400, 0.0000000000000000000 ) ) ;
#401 = B_SPLINE_CURVE_WITH_KNOTS ( 'NONE', 1,
 ( #455, #116 ),
 .UNSPECIFIED., .F., .F.,
 ( 2, 2 ),
 ( -0.005230940107675860300, -0.0000000000000000000 ),
 .UNSPECIFIED. ) ;
#402 = CARTESIAN_POINT ( 'NONE',  ( 1.524697460949611600, 12.64085346853604400, 0.0000000000000000000 ) ) ;
#403 = B_SPLINE_CURVE_WITH_KNOTS ( 'NONE', 1,
 ( #87, #1 ),
 .UNSPECIFIED., .F., .F.,
 ( 2, 2 ),
 ( -0.002999999999999993600, 0.0000000000000000000 ),
 .UNSPECIFIED. ) ;
#404 = CARTESIAN_POINT ( 'NONE',  ( 0.2421057109229765300, 11.21933939212121900, 0.0000000000000000000 ) ) ;
#405 = B_SPLINE_CURVE_WITH_KNOTS ( 'NONE', 1,
 ( #217, #174 ),
 .UNSPECIFIED., .F., .F.,
 ( 2, 2 ),
 ( 0.0003857543487056237100, 0.0007857543487056282300 ),
 .UNSPECIFIED. ) ;
#406 = CARTESIAN_POINT ( 'NONE',  ( 0.3548907575299157200, 0.6146888231784247700, 3.741409711877516500 ) ) ;
#407 = CARTESIAN_POINT ( 'NONE',  ( 6.524697460949623100, 12.22660781724169100, 4.498529725452346600 ) ) ;
#408 = B_SPLINE_CURVE_WITH_KNOTS ( 'NONE', 1,
 ( #32, #36 ),
 .UNSPECIFIED., .F., .F.,
 ( 2, 2 ),
 ( 0.0000000000000000000, 0.004399999999999995100 ),
 .UNSPECIFIED. ) ;
#409 = CARTESIAN_POINT ( 'NONE',  ( 0.2421057109229765300, 11.21933939212121900, 0.0000000000000000000 ) ) ;
#410 = PERSON_AND_ORGANIZATION ( #256, #393 ) ;
#411 = CARTESIAN_POINT ( 'NONE',  ( 1.293757353273763200, 13.04085346853604600, 0.0000000000000000000 ) ) ;
#412 =( NAMED_UNIT ( * ) SI_UNIT ( $, .STERADIAN. ) SOLID_ANGLE_UNIT ( ) );
#413 = APPLICATION_CONTEXT ( 'configuration controlled 3d designs of mechanical parts and assemblies' ) ;
#414 = APPROVAL_STATUS ( 'not_yet_approved' ) ;
#415 = CARTESIAN_POINT ( 'NONE',  ( 6.524697460949623100, 12.64085346853606300, 0.0000000000000000000 ) ) ;
#416 = APPROVAL_STATUS ( 'not_yet_approved' ) ;
#417 = B_SPLINE_CURVE_WITH_KNOTS ( 'NONE', 1,
 ( #507, #394 ),
 .UNSPECIFIED., .F., .F.,
 ( 2, 2 ),
 ( 0.0000000000000000000, 0.002103303284701583000 ),
 .UNSPECIFIED. ) ;
#418 = CARTESIAN_POINT ( 'NONE',  ( 0.3548907575299156700, 0.6146888231784247700, 3.741409711877516500 ) ) ;
#419 = CARTESIAN_POINT ( 'NONE',  ( 5.604890757529891400, 9.707955562915042700, 0.0000000000000000000 ) ) ;
#420 = LOCAL_TIME ( 18, 33, 11.00000000000000000, #348 ) ;
#421 = VECTOR ( 'NONE', #191, 4.499999999999999100 ) ;
#422 = CARTESIAN_POINT ( 'NONE',  ( 6.524697460949623100, 13.04085346853606700, 4.498529725452346600 ) ) ;
#423 = B_SPLINE_CURVE_WITH_KNOTS ( 'NONE', 1,
 ( #208, #352 ),
 .UNSPECIFIED., .F., .F.,
 ( 2, 2 ),
 ( -0.0000000000000000000, 0.004499999999999999700 ),
 .UNSPECIFIED. ) ;
#424 = CARTESIAN_POINT ( 'NONE',  ( 5.604890757529891400, 9.707955562915042700, 4.500000000000000000 ) ) ;
#425 = CARTESIAN_POINT ( 'NONE',  ( 6.524697460949623100, 13.04085346853606700, 0.0000000000000000000 ) ) ;
#426 = CARTESIAN_POINT ( 'NONE',  ( 0.3548907575299157200, 0.6146888231784247700, 0.7414097118775232500 ) ) ;
#427 = CARTESIAN_POINT ( 'NONE',  ( 4.052617487574508500, 9.019339392121231900, 0.0000000000000000000 ) ) ;
#428 = TRIMMED_CURVE ( 'NONE', #335, ( PARAMETER_VALUE ( -0.0000000000000000000 ), #139 ), ( PARAMETER_VALUE ( 1.000000000000000200 ), #145 ), .T., .PARAMETER. ) ;
#429 = CARTESIAN_POINT ( 'NONE',  ( 5.354890757529894100, 9.274942861022825700, 0.7414097118775241400 ) ) ;
#430 = CARTESIAN_POINT ( 'NONE',  ( 4.052617487574508500, 9.019339392121231900, 4.500000000000000000 ) ) ;
#431 = VECTOR ( 'NONE', #226, 2.999999999999993300 ) ;
#432 = CARTESIAN_POINT ( 'NONE',  ( 5.604890757529891400, 9.707955562915042700, 0.0000000000000000000 ) ) ;
#433 = B_SPLINE_CURVE_WITH_KNOTS ( 'NONE', 1,
 ( #10, #317 ),
 .UNSPECIFIED., .F., .F.,
 ( 2, 2 ),
 ( 0.0000000000000000000, 0.003999999999999995700 ),
 .UNSPECIFIED. ) ;
#434 = DIRECTION ( 'NONE',  ( -1.000000000000000000, 0.0000000000000000000, 0.0000000000000000000 ) ) ;
#435 = CARTESIAN_POINT ( 'NONE',  ( 0.2421057109229765300, 11.21933939212121900, 4.500000000000000000 ) ) ;
#436 = B_SPLINE_CURVE_WITH_KNOTS ( 'NONE', 1,
 ( #468, #426 ),
 .UNSPECIFIED., .F., .F.,
 ( 2, 2 ),
 ( 0.0000000000000000000, 0.002999999999999993100 ),
 .UNSPECIFIED. ) ;
#437 = DIRECTION ( 'NONE',  ( -0.4999999999999975600, -0.8660254037844399300, 0.0000000000000000000 ) ) ;
#438 = LINE ( 'NONE', #183, #284 ) ;
#439 = B_SPLINE_CURVE_WITH_KNOTS ( 'NONE', 1,
 ( #357, #475 ),
 .UNSPECIFIED., .F., .F.,
 ( 2, 2 ),
 ( 0.0000000000000000000, 0.0003000000000000001900 ),
 .UNSPECIFIED. ) ;
#440 = CARTESIAN_POINT ( 'NONE',  ( 5.604890757529891400, 9.707955562915042700, 0.0000000000000000000 ) ) ;
#441 = CARTESIAN_POINT ( 'NONE',  ( 0.5885158724367519600, 11.01933939212122100, 0.0000000000000000000 ) ) ;
#442 = DIRECTION ( 'NONE',  ( 1.000000000000000000, 3.816391647148966900E-015, 0.0000000000000000000 ) ) ;
#443 = PERSON_AND_ORGANIZATION ( #256, #393 ) ;
#444 = CARTESIAN_POINT ( 'NONE',  ( 5.354890757529894100, 9.274942861022825700, 0.7414097118775242500 ) ) ;
#445 = CARTESIAN_POINT ( 'NONE',  ( 6.524697460949623100, 13.42660781724169200, 4.498529725452346600 ) ) ;
#446 = CARTESIAN_POINT ( 'NONE',  ( 19.52469746094962500, 13.42660781724169200, 2.248529725452347500 ) ) ;
#447 = TRIMMED_CURVE ( 'NONE', #77, ( PARAMETER_VALUE ( 0.0000000000000000000 ), #451 ), ( PARAMETER_VALUE ( 1.000000000000000000 ), #228 ), .T., .PARAMETER. ) ;
#448 = B_SPLINE_CURVE_WITH_KNOTS ( 'NONE', 1,
 ( #304, #495 ),
 .UNSPECIFIED., .F., .F.,
 ( 2, 2 ),
 ( 0.0000000000000000000, 0.0002999999999999999700 ),
 .UNSPECIFIED. ) ;
#449 = VECTOR ( 'NONE', #437, 2.103303284701583100 ) ;
#450 = TRIMMED_CURVE ( 'NONE', #312, ( PARAMETER_VALUE ( 0.0000000000000000000 ), #320 ), ( PARAMETER_VALUE ( 1.000000000000000200 ), #358 ), .T., .PARAMETER. ) ;
#451 = CARTESIAN_POINT ( 'NONE',  ( 0.0000000000000000000, 0.0000000000000000000, 4.500000000000000000 ) ) ;
#452 = CARTESIAN_POINT ( 'NONE',  ( 4.752617487574487300, 10.23177495741941600, 4.500000000000000000 ) ) ;
#453 = PERSON_AND_ORGANIZATION_ROLE ( 'classification_officer' ) ;
#454 = LOCAL_TIME ( 18, 33, 11.00000000000000000, #171 ) ;
#455 = CARTESIAN_POINT ( 'NONE',  ( 6.524697460949623100, 13.04085346853606700, 0.0000000000000000000 ) ) ;
#456 = CARTESIAN_POINT ( 'NONE',  ( -0.7259781388222331700, 0.0000000000000000000, 4.500000000000000000 ) ) ;
#457 = TRIMMED_CURVE ( 'NONE', #238, ( PARAMETER_VALUE ( 0.0000000000000000000 ), #483 ), ( PARAMETER_VALUE ( 1.000000000000000000 ), #21 ), .T., .PARAMETER. ) ;
#458 = CARTESIAN_POINT ( 'NONE',  ( 0.7885158724367331600, 11.36574955363496600, 4.500000000000000000 ) ) ;
#459 = CARTESIAN_POINT ( 'NONE',  ( 6.524697460949623100, 12.22660781724169100, 4.498529725452346600 ) ) ;
#460 = LINE ( 'NONE', #411, #387 ) ;
#461 = CARTESIAN_POINT ( 'NONE',  ( 0.09508313639458240700, 0.7646888231784224600, 3.741409711877516500 ) ) ;
#462 = DESIGN_CONTEXT ( 'detailed design', #264, 'design' ) ;
#463 = CARTESIAN_POINT ( 'NONE',  ( 6.524697460949623100, 13.04085346853606700, 4.498529725452346600 ) ) ;
#464 = B_SPLINE_CURVE_WITH_KNOTS ( 'NONE', 1,
 ( #378, #422 ),
 .UNSPECIFIED., .F., .F.,
 ( 2, 2 ),
 ( -0.0000000000000000000, 1.470274547652784800E-006 ),
 .UNSPECIFIED. ) ;
#465 = CARTESIAN_POINT ( 'NONE',  ( 0.0000000000000000000, 0.0000000000000000000, 4.500000000000000000 ) ) ;
#466 = SHAPE_DEFINITION_REPRESENTATION ( #353, #371 ) ;
#467 = CARTESIAN_POINT ( 'NONE',  ( 0.2421057109229770000, 11.21933939212121900, 0.0000000000000000000 ) ) ;
#468 = CARTESIAN_POINT ( 'NONE',  ( 0.3548907575299157200, 0.6146888231784247700, 3.741409711877516500 ) ) ;
#469 = B_SPLINE_CURVE_WITH_KNOTS ( 'NONE', 1,
 ( #249, #55 ),
 .UNSPECIFIED., .F., .F.,
 ( 2, 2 ),
 ( -0.001121667481656954400, 0.0000000000000000000 ),
 .UNSPECIFIED. ) ;
#470 = DIRECTION ( 'NONE',  ( -0.01324487790376553500, 0.9999122827574998800, 0.0000000000000000000 ) ) ;
#471 = CARTESIAN_POINT ( 'NONE',  ( 0.7885158724367333800, 11.36574955363496600, 0.0000000000000000000 ) ) ;
#472 = LINE ( 'NONE', #136, #301 ) ;
#473 = B_SPLINE_CURVE_WITH_KNOTS ( 'NONE', 1,
 ( #167, #309 ),
 .UNSPECIFIED., .F., .F.,
 ( 2, 2 ),
 ( 0.0000000000000000000, 0.005000000000000011400 ),
 .UNSPECIFIED. ) ;
#474 = DIRECTION ( 'NONE',  ( 0.4999999999999977800, 0.8660254037844399300, 0.0000000000000000000 ) ) ;
#475 = CARTESIAN_POINT ( 'NONE',  ( 5.354890757529894100, 9.274942861022825700, 0.7414097118775242500 ) ) ;
#476 = CARTESIAN_POINT ( 'NONE',  ( -0.7355936306317365500, 0.7259144580217802300, 0.0000000000000000000 ) ) ;
#477 = CARTESIAN_POINT ( 'NONE',  ( 19.52469746094962500, 13.42660781724169200, 2.248529725452347500 ) ) ;
#478 = APPROVAL_PERSON_ORGANIZATION ( #86, #285, #30 ) ;
#479 = TRIMMED_CURVE ( 'NONE', #54, ( PARAMETER_VALUE ( 0.0000000000000000000 ), #111 ), ( PARAMETER_VALUE ( 1.000000000000000400 ), #260 ), .T., .PARAMETER. ) ;
#480 = B_SPLINE_CURVE_WITH_KNOTS ( 'NONE', 1,
 ( #195, #459 ),
 .UNSPECIFIED., .F., .F.,
 ( 2, 2 ),
 ( -0.0000000000000000000, 0.003000000000000000900 ),
 .UNSPECIFIED. ) ;
#481 = DIRECTION ( 'NONE',  ( 1.000000000000000000, 3.979529737145216000E-015, 0.0000000000000000000 ) ) ;
#482 = CARTESIAN_POINT ( 'NONE',  ( 0.0000000000000000000, 0.0000000000000000000, 0.0000000000000000000 ) ) ;
#483 = CARTESIAN_POINT ( 'NONE',  ( 0.0000000000000000000, 0.0000000000000000000, 0.0000000000000000000 ) ) ;
#484 = DIRECTION ( 'NONE',  ( -1.000000000000000000, 0.0000000000000000000, -0.0000000000000000000 ) ) ;
#485 = LINE ( 'NONE', #17, #505 ) ;
#486 = TRIMMED_CURVE ( 'NONE', #227, ( PARAMETER_VALUE ( 0.0000000000000000000 ), #218 ), ( PARAMETER_VALUE ( 1.000000000000000000 ), #215 ), .T., .PARAMETER. ) ;
#487 = B_SPLINE_CURVE_WITH_KNOTS ( 'NONE', 1,
 ( #306, #419 ),
 .UNSPECIFIED., .F., .F.,
 ( 2, 2 ),
 ( -0.0000000000000000000, 0.004499999999999999700 ),
 .UNSPECIFIED. ) ;
#488 = DIRECTION ( 'NONE',  ( 0.0000000000000000000, 0.0000000000000000000, 1.000000000000000000 ) ) ;
#489 =( GEOMETRIC_REPRESENTATION_CONTEXT ( 3 ) GLOBAL_UNCERTAINTY_ASSIGNED_CONTEXT ( ( #239 ) ) GLOBAL_UNIT_ASSIGNED_CONTEXT ( ( #296, #298, #412 ) ) REPRESENTATION_CONTEXT ( 'NONE', 'WORKASPACE' ) );
#490 = B_SPLINE_CURVE_WITH_KNOTS ( 'NONE', 1,
 ( #341, #114 ),
 .UNSPECIFIED., .F., .F.,
 ( 2, 2 ),
 ( -0.0000000000000000000, 0.003000000000000000900 ),
 .UNSPECIFIED. ) ;
#491 = VECTOR ( 'NONE', #294, 1.199999999999999700 ) ;
#492 = MECHANICAL_CONTEXT ( 'NONE', #413, 'mechanical' ) ;
#493 = CARTESIAN_POINT ( 'NONE',  ( -0.3629890694111162500, -0.9973042717158868700, 4.137010930588883400 ) ) ;
#494 = SECURITY_CLASSIFICATION ( '', '', #24 ) ;
#495 = CARTESIAN_POINT ( 'NONE',  ( 0.3548907575299156700, 0.6146888231784247700, 0.7414097118775230300 ) ) ;
#496 = CARTESIAN_POINT ( 'NONE',  ( 6.524697460949623100, 13.42660781724169200, 4.498529725452346600 ) ) ;
#497 = DATE_AND_TIME ( #254, #355 ) ;
#498 = LINE ( 'NONE', #131, #449 ) ;
#499 = CARTESIAN_POINT ( 'NONE',  ( 0.0000000000000000000, 0.0000000000000000000, 4.500000000000000000 ) ) ;
#500 = CARTESIAN_POINT ( 'NONE',  ( 4.252617487574490000, 9.365749553634977100, 4.500000000000000000 ) ) ;
#501 = B_SPLINE_CURVE_WITH_KNOTS ( 'NONE', 1,
 ( #465, #315 ),
 .UNSPECIFIED., .F., .F.,
 ( 2, 2 ),
 ( -0.0000000000000000000, 0.004499999999999999700 ),
 .UNSPECIFIED. ) ;
#502 = CARTESIAN_POINT ( 'NONE',  ( -0.7259781388222330500, 0.0000000000000000000, 4.500000000000000000 ) ) ;
#503 = TRIMMED_CURVE ( 'NONE', #310, ( PARAMETER_VALUE ( 0.0000000000000000000 ), #89 ), ( PARAMETER_VALUE ( 0.9999999999999995600 ), #53 ), .T., .PARAMETER. ) ;
#504 = VECTOR ( 'NONE', #434, 0.7259781388222331700 ) ;
#505 = VECTOR ( 'NONE', #185, 4.499999999999999100 ) ;
#506 = PRODUCT_DEFINITION_FORMATION_WITH_SPECIFIED_SOURCE ( '任何', '', #382, .NOT_KNOWN. ) ;
#507 = CARTESIAN_POINT ( 'NONE',  ( 1.293757353273763200, 13.04085346853604600, 0.0000000000000000000 ) ) ;
ENDSEC;
END-ISO-10303-21;
