ISO-10303-21;
HEADER;
FILE_DESCRIPTION (( 'STEP AP203' ),
    '1' );
FILE_NAME ('电池层下盖.STEP',
    '2026-09-12T10:33:23',
    ( '' ),
    ( '' ),
    'SwSTEP 2.0',
    'SolidWorks 2016',
    '' );
FILE_SCHEMA (( 'CONFIG_CONTROL_DESIGN' ));
ENDSEC;

DATA;
#1 = B_SPLINE_CURVE_WITH_KNOTS ( 'NONE', 1,
 ( #570, #523 ),
 .UNSPECIFIED., .F., .F.,
 ( 2, 2 ),
 ( -0.0000000000000000000, 0.001000000000000000000 ),
 .UNSPECIFIED. ) ;
#2 = CARTESIAN_POINT ( 'NONE',  ( 15.84632453476708700, -2.000000000000042600, 0.0000000000000000000 ) ) ;
#3 = CARTESIAN_POINT ( 'NONE',  ( -13.88209376666334400, -2.000000000000030200, 2.999999999999999600 ) ) ;
#4 = CALENDAR_DATE ( 2026, 12, 9 ) ;
#5 = VECTOR ( 'NONE', #22, 4.005012930814970700 ) ;
#6 = B_SPLINE_CURVE_WITH_KNOTS ( 'NONE', 1,
 ( #462, #456 ),
 .UNSPECIFIED., .F., .F.,
 ( 2, 2 ),
 ( 0.0000000000000000000, 0.0009999999999999995900 ),
 .UNSPECIFIED. ) ;
#7 = DIRECTION ( 'NONE',  ( 1.000000000000000000, -3.686287386450718200E-015, 0.0000000000000000000 ) ) ;
#8 = B_SPLINE_CURVE_WITH_KNOTS ( 'NONE', 1,
 ( #546, #67 ),
 .UNSPECIFIED., .F., .F.,
 ( 2, 2 ),
 ( 0.01387340975402964700, 0.01584632453476726000 ),
 .UNSPECIFIED. ) ;
#9 = CARTESIAN_POINT ( 'NONE',  ( 13.87340975402965500, 2.005012930814922700, 1.000000000000000000 ) ) ;
#10 = CARTESIAN_POINT ( 'NONE',  ( -2.005012930814970700, 13.87340975402964800, 0.0000000000000000000 ) ) ;
#11 = CARTESIAN_POINT ( 'NONE',  ( 13.88209376666333000, 2.000000000000127000, 2.999999999999999600 ) ) ;
#12 = CARTESIAN_POINT ( 'NONE',  ( 14.88209376666337000, -2.000000000000044900, 1.000000000000000000 ) ) ;
#13 = CARTESIAN_POINT ( 'NONE',  ( -1.999999999999981800, 15.84632453476725700, 1.000000000000000000 ) ) ;
#14 = CARTESIAN_POINT ( 'NONE',  ( -2.005012930814970700, 13.84632453476726300, 0.0000000000000000000 ) ) ;
#15 = CARTESIAN_POINT ( 'NONE',  ( -2.000000000000145200, -14.88209376666334900, 1.000000000000000000 ) ) ;
#16 = CIRCLE ( 'NONE', #93, 14.01754525785239600 ) ;
#17 = CC_DESIGN_PERSON_AND_ORGANIZATION_ASSIGNMENT ( #374, #404, ( #330 ) ) ;
#18 = CARTESIAN_POINT ( 'NONE',  ( 1.999999999999981800, -13.88209376666335100, 2.000000000000000000 ) ) ;
#19 = CARTESIAN_POINT ( 'NONE',  ( 2.000000000000018200, 15.84632453476723600, 3.000000000000000000 ) ) ;
#20 =( BOUNDED_CURVE ( )  B_SPLINE_CURVE ( 2, ( #100, #647, #529, #531, #700 ),
 .UNSPECIFIED., .F., .F. ) 
 B_SPLINE_CURVE_WITH_KNOTS ( ( 3, 2, 3 ),
 ( 0.0000000000000000000, 1.570796326794896600, 3.141592653589793100 ),
 .UNSPECIFIED. ) 
 CURVE ( )  GEOMETRIC_REPRESENTATION_ITEM ( )  RATIONAL_B_SPLINE_CURVE ( ( 1.000000000000000000, 0.7071067811865475700, 1.000000000000000000, 0.7071067811865475700, 1.000000000000000000 ) ) 
 REPRESENTATION_ITEM ( '' )  );
#21 = CARTESIAN_POINT ( 'NONE',  ( -5.500000000000000000, 0.0000000000000000000, 0.5000000000000000000 ) ) ;
#22 = DIRECTION ( 'NONE',  ( 1.000000000000000000, -6.930208739670909800E-015, 0.0000000000000000000 ) ) ;
#23 = B_SPLINE_CURVE_WITH_KNOTS ( 'NONE', 1,
 ( #26, #245 ),
 .UNSPECIFIED., .F., .F.,
 ( 2, 2 ),
 ( -0.0000000000000000000, 0.001000000000000000000 ),
 .UNSPECIFIED. ) ;
#24 = CARTESIAN_POINT ( 'NONE',  ( -12.37418934688463400, -12.37866125011697300, 0.0000000000000000000 ) ) ;
#25 = DIRECTION ( 'NONE',  ( -1.000000000000000000, 1.062518129035795300E-014, 0.0000000000000000000 ) ) ;
#26 = CARTESIAN_POINT ( 'NONE',  ( -13.87340975402966800, -2.005012930814825500, 1.000000000000000000 ) ) ;
#27 = LINE ( 'NONE', #285, #708 ) ;
#28 = CARTESIAN_POINT ( 'NONE',  ( 13.84632453476725500, -2.000000000000048000, 0.0000000000000000000 ) ) ;
#29 = CARTESIAN_POINT ( 'NONE',  ( -1.000000000000000000, 1.224646799147353200E-016, 1.000000000000000000 ) ) ;
#30 = CARTESIAN_POINT ( 'NONE',  ( 2.005012930814874700, -13.84632453476727500, 0.0000000000000000000 ) ) ;
#31 = B_SPLINE_CURVE_WITH_KNOTS ( 'NONE', 1,
 ( #640, #306 ),
 .UNSPECIFIED., .F., .F.,
 ( 2, 2 ),
 ( 0.0000000000000000000, 0.004000000000000000100 ),
 .UNSPECIFIED. ) ;
#32 = CARTESIAN_POINT ( 'NONE',  ( 5.000000000000000000, 6.123233995736766300E-016, 0.0000000000000000000 ) ) ;
#33 = SECURITY_CLASSIFICATION_LEVEL ( 'unclassified' ) ;
#34 = AXIS2_PLACEMENT_3D ( 'NONE', #469, #151, #524 ) ;
#35 = CARTESIAN_POINT ( 'NONE',  ( -2.000000000000018200, -13.88209376666335100, 2.000000000000000000 ) ) ;
#36 = B_SPLINE_CURVE_WITH_KNOTS ( 'NONE', 1,
 ( #129, #497 ),
 .UNSPECIFIED., .F., .F.,
 ( 2, 2 ),
 ( 0.0000000000000000000, 0.001000000000000000000 ),
 .UNSPECIFIED. ) ;
#37 = CARTESIAN_POINT ( 'NONE',  ( 2.000000000000018200, 14.88209376666334900, 1.000000000000000000 ) ) ;
#38 = CARTESIAN_POINT ( 'NONE',  ( -14.88209376666334400, -2.000000000000033800, 2.000000000000000000 ) ) ;
#39 = PERSON_AND_ORGANIZATION_ROLE ( 'creator' ) ;
#40 = CARTESIAN_POINT ( 'NONE',  ( 2.005012930814874700, -13.87340975402966100, 1.000000000000000000 ) ) ;
#41 =( NAMED_UNIT ( * ) PLANE_ANGLE_UNIT ( ) SI_UNIT ( $, .RADIAN. ) );
#42 = CARTESIAN_POINT ( 'NONE',  ( -15.84632453476728400, 2.000000000000144300, 0.0000000000000000000 ) ) ;
#43 = CARTESIAN_POINT ( 'NONE',  ( -15.84632453476728400, -2.000000000000037300, 1.000000000000000000 ) ) ;
#44 = B_SPLINE_CURVE_WITH_KNOTS ( 'NONE', 1,
 ( #162, #542 ),
 .UNSPECIFIED., .F., .F.,
 ( 2, 2 ),
 ( 0.0000000000000000000, 0.0009999999999999991500 ),
 .UNSPECIFIED. ) ;
#45 = PERSON_AND_ORGANIZATION ( #589, #651 ) ;
#46 = TRIMMED_CURVE ( 'NONE', #581, ( PARAMETER_VALUE ( 0.0000000000000000000 ), #131 ), ( PARAMETER_VALUE ( 1.000000000000000000 ), #453 ), .T., .PARAMETER. ) ;
#47 = CARTESIAN_POINT ( 'NONE',  ( -2.005012930814970700, 15.84632453476726100, 0.0000000000000000000 ) ) ;
#48 = CARTESIAN_POINT ( 'NONE',  ( -5.000000000000000000, 0.0000000000000000000, 0.5000000000000000000 ) ) ;
#49 = CARTESIAN_POINT ( 'NONE',  ( -1.999999999999981800, 14.88209376666334900, 1.000000000000000000 ) ) ;
#50 = B_SPLINE_CURVE_WITH_KNOTS ( 'NONE', 1,
 ( #110, #3 ),
 .UNSPECIFIED., .F., .F.,
 ( 2, 2 ),
 ( 0.0000000000000000000, 0.001964230768103885200 ),
 .UNSPECIFIED. ) ;
#51 = CARTESIAN_POINT ( 'NONE',  ( -13.87413330828054300, 2.000000000000144800, 0.0000000000000000000 ) ) ;
#52 = LINE ( 'NONE', #14, #484 ) ;
#53 = B_SPLINE_CURVE_WITH_KNOTS ( 'NONE', 1,
 ( #434, #439 ),
 .UNSPECIFIED., .F., .F.,
 ( 2, 2 ),
 ( 0.0000000000000000000, 0.001964230768103885200 ),
 .UNSPECIFIED. ) ;
#54 =( BOUNDED_CURVE ( )  B_SPLINE_CURVE ( 2, ( #340, #24, #193 ),
 .UNSPECIFIED., .F., .T. ) 
 B_SPLINE_CURVE_WITH_KNOTS ( ( 3, 3 ),
 ( 3.285120886999699100, 4.569222071272861300 ),
 .UNSPECIFIED. ) 
 CURVE ( )  GEOMETRIC_REPRESENTATION_ITEM ( )  RATIONAL_B_SPLINE_CURVE ( ( 1.000000000000000000, 0.8008694680895525100, 1.000000000000000000 ) ) 
 REPRESENTATION_ITEM ( '' )  );
#55 = APPROVAL_PERSON_ORGANIZATION ( #646, #558, #519 ) ;
#56 = CARTESIAN_POINT ( 'NONE',  ( -2.000000000000097300, -13.87413330828055000, 0.0000000000000000000 ) ) ;
#57 = CARTESIAN_POINT ( 'NONE',  ( 15.84632453476726800, 2.000000000000147900, 1.000000000000000000 ) ) ;
#58 =( BOUNDED_CURVE ( )  B_SPLINE_CURVE ( 2, ( #703, #641, #368, #315, #267 ),
 .UNSPECIFIED., .F., .F. ) 
 B_SPLINE_CURVE_WITH_KNOTS ( ( 3, 2, 3 ),
 ( 3.141592653589793100, 4.712388980384689700, 6.283185307179586200 ),
 .UNSPECIFIED. ) 
 CURVE ( )  GEOMETRIC_REPRESENTATION_ITEM ( )  RATIONAL_B_SPLINE_CURVE ( ( 1.000000000000000000, 0.7071067811865475700, 1.000000000000000000, 0.7071067811865475700, 1.000000000000000000 ) ) 
 REPRESENTATION_ITEM ( '' )  );
#59 = TRIMMED_CURVE ( 'NONE', #691, ( PARAMETER_VALUE ( 0.0000000000000000000 ), #670 ), ( PARAMETER_VALUE ( 1.284101184273148700 ), #455 ), .T., .PARAMETER. ) ;
#60 = CARTESIAN_POINT ( 'NONE',  ( -5.500000000000000000, 0.0000000000000000000, 0.5000000000000000000 ) ) ;
#61 = B_SPLINE_CURVE_WITH_KNOTS ( 'NONE', 1,
 ( #184, #32 ),
 .UNSPECIFIED., .F., .F.,
 ( 2, 2 ),
 ( -0.0000000000000000000, 0.0005000000000000000100 ),
 .UNSPECIFIED. ) ;
#62 = CARTESIAN_POINT ( 'NONE',  ( 12.37866125011701600, -12.37418934688458600, 1.000000000000000000 ) ) ;
#63 = CARTESIAN_POINT ( 'NONE',  ( -5.500000000000000000, 5.499999999999999100, 0.0000000000000000000 ) ) ;
#64 = B_SPLINE_CURVE_WITH_KNOTS ( 'NONE', 1,
 ( #175, #548 ),
 .UNSPECIFIED., .F., .F.,
 ( 2, 2 ),
 ( 0.0000000000000000000, 0.004000000000000126700 ),
 .UNSPECIFIED. ) ;
#65 = CARTESIAN_POINT ( 'NONE',  ( 2.000000000000018200, 14.88209376666334900, 1.000000000000000000 ) ) ;
#66 = CARTESIAN_POINT ( 'NONE',  ( 1.999999999999981800, -15.84632453476723600, 1.000000000000000000 ) ) ;
#67 = CARTESIAN_POINT ( 'NONE',  ( -15.84632453476728000, -2.005012930814804600, 0.0000000000000000000 ) ) ;
#68 = CARTESIAN_POINT ( 'NONE',  ( 6.123233995736766000E-017, 1.000000000000000000, 1.000000000000000000 ) ) ;
#69 = VECTOR ( 'NONE', #25, 1.999999999999998200 ) ;
#70 = CARTESIAN_POINT ( 'NONE',  ( 2.005012930814874700, -13.87340975402966100, 0.0000000000000000000 ) ) ;
#71 = CARTESIAN_POINT ( 'NONE',  ( -2.000000000000097300, -13.87413330828055000, 1.000000000000000000 ) ) ;
#72 = DIRECTION ( 'NONE',  ( 0.0000000000000000000, 0.0000000000000000000, 1.000000000000000000 ) ) ;
#73 = CARTESIAN_POINT ( 'NONE',  ( 13.87413330828055700, -2.000000000000048000, 0.0000000000000000000 ) ) ;
#74 = B_SPLINE_CURVE_WITH_KNOTS ( 'NONE', 1,
 ( #123, #663 ),
 .UNSPECIFIED., .F., .F.,
 ( 2, 2 ),
 ( 0.0000000000000000000, 0.001964230768103885200 ),
 .UNSPECIFIED. ) ;
#75 = TRIMMED_CURVE ( 'NONE', #269, ( PARAMETER_VALUE ( 0.0000000000000000000 ), #414 ), ( PARAMETER_VALUE ( 0.9999999999999991100 ), #358 ), .T., .PARAMETER. ) ;
#76 = CARTESIAN_POINT ( 'NONE',  ( -2.000000000000096400, -13.87413330828055000, 0.0000000000000000000 ) ) ;
#77 = CARTESIAN_POINT ( 'NONE',  ( 5.500000000000000000, 6.735557395310442000E-016, 0.0000000000000000000 ) ) ;
#78 = CARTESIAN_POINT ( 'NONE',  ( 0.0000000000000000000, 0.0000000000000000000, 0.0000000000000000000 ) ) ;
#79 = VECTOR ( 'NONE', #467, 0.9999999999999991100 ) ;
#80 = LINE ( 'NONE', #603, #323 ) ;
#81 = CARTESIAN_POINT ( 'NONE',  ( 15.84632453476726800, 2.005012930814915200, 1.000000000000000000 ) ) ;
#82 = CARTESIAN_POINT ( 'NONE',  ( -13.84632453476724100, 2.000000000000144800, 0.0000000000000000000 ) ) ;
#83 = CARTESIAN_POINT ( 'NONE',  ( -2.000000000000191800, -15.84632453476713100, 0.0000000000000000000 ) ) ;
#84 =( BOUNDED_CURVE ( )  B_SPLINE_CURVE ( 2, ( #567, #576, #574, #630, #257 ),
 .UNSPECIFIED., .F., .T. ) 
 B_SPLINE_CURVE_WITH_KNOTS ( ( 3, 2, 3 ),
 ( 3.141592653589793100, 4.712388980384689700, 6.283185307179586200 ),
 .UNSPECIFIED. ) 
 CURVE ( )  GEOMETRIC_REPRESENTATION_ITEM ( )  RATIONAL_B_SPLINE_CURVE ( ( 1.000000000000000000, 0.7071067811865475700, 1.000000000000000000, 0.7071067811865475700, 1.000000000000000000 ) ) 
 REPRESENTATION_ITEM ( '' )  );
#85 = CARTESIAN_POINT ( 'NONE',  ( 5.500000000000000000, 6.735557395310442000E-016, 0.5000000000000000000 ) ) ;
#86 = DATE_TIME_ROLE ( 'classification_date' ) ;
#87 = B_SPLINE_CURVE_WITH_KNOTS ( 'NONE', 1,
 ( #300, #454 ),
 .UNSPECIFIED., .F., .F.,
 ( 2, 2 ),
 ( 0.0000000000000000000, 0.0009999999999999995900 ),
 .UNSPECIFIED. ) ;
#88 = CARTESIAN_POINT ( 'NONE',  ( 2.000000000000000000, 13.87413330828056600, 1.000000000000000000 ) ) ;
#89 = TRIMMED_CURVE ( 'NONE', #27, ( PARAMETER_VALUE ( 0.0000000000000000000 ), #668 ), ( PARAMETER_VALUE ( 1.000000000000000200 ), #428 ), .T., .PARAMETER. ) ;
#90 = CARTESIAN_POINT ( 'NONE',  ( -2.000000000000018200, -15.84632453476723600, 3.000000000000000000 ) ) ;
#91 = APPROVAL_STATUS ( 'not_yet_approved' ) ;
#92 = CARTESIAN_POINT ( 'NONE',  ( 2.000000000000018200, 13.88209376666335100, 2.999999999999999600 ) ) ;
#93 = AXIS2_PLACEMENT_3D ( 'NONE', #78, #505, #349 ) ;
#94 = CARTESIAN_POINT ( 'NONE',  ( -5.499999999999999100, -5.500000000000000900, 0.5000000000000000000 ) ) ;
#95 = DATE_TIME_ROLE ( 'creation_date' ) ;
#96 = CARTESIAN_POINT ( 'NONE',  ( -2.000000000000018200, -14.88209376666334900, 2.000000000000000000 ) ) ;
#97 = LINE ( 'NONE', #600, #188 ) ;
#98 = B_SPLINE_CURVE_WITH_KNOTS ( 'NONE', 1,
 ( #537, #117 ),
 .UNSPECIFIED., .F., .F.,
 ( 2, 2 ),
 ( 0.0000000000000000000, 0.004000000000000000100 ),
 .UNSPECIFIED. ) ;
#99 = CARTESIAN_POINT ( 'NONE',  ( 1.999999999999981800, -14.88209376666334900, 2.000000000000000000 ) ) ;
#100 = CARTESIAN_POINT ( 'NONE',  ( -5.000000000000000000, 0.0000000000000000000, 0.5000000000000000000 ) ) ;
#101 = COORDINATED_UNIVERSAL_TIME_OFFSET ( 8, 0, .AHEAD. ) ;
#102 = B_SPLINE_CURVE_WITH_KNOTS ( 'NONE', 1,
 ( #466, #361 ),
 .UNSPECIFIED., .F., .F.,
 ( 2, 2 ),
 ( 0.0000000000000000000, 0.0009999999999999995900 ),
 .UNSPECIFIED. ) ;
#103 = CC_DESIGN_DATE_AND_TIME_ASSIGNMENT ( #564, #86, ( #330 ) ) ;
#104 = B_SPLINE_CURVE_WITH_KNOTS ( 'NONE', 1,
 ( #40, #199 ),
 .UNSPECIFIED., .F., .F.,
 ( 2, 2 ),
 ( -0.0000000000000000000, 0.001000000000000000000 ),
 .UNSPECIFIED. ) ;
#105 = CARTESIAN_POINT ( 'NONE',  ( -5.000000000000000000, 0.0000000000000000000, 0.0000000000000000000 ) ) ;
#106 = CARTESIAN_POINT ( 'NONE',  ( -2.000000000000191800, -15.84632453476713100, 0.0000000000000000000 ) ) ;
#107 = CARTESIAN_POINT ( 'NONE',  ( 13.87340975402965300, 2.005012930814922700, 0.0000000000000000000 ) ) ;
#108 = CARTESIAN_POINT ( 'NONE',  ( -3.061616997868383100E-016, 5.000000000000000000, 0.0000000000000000000 ) ) ;
#109 = CARTESIAN_POINT ( 'NONE',  ( -2.005012930814970700, 13.84632453476726300, 0.0000000000000000000 ) ) ;
#110 = CARTESIAN_POINT ( 'NONE',  ( -15.84632453476722900, -2.000000000000037300, 3.000000000000000000 ) ) ;
#111 =( BOUNDED_CURVE ( )  B_SPLINE_CURVE ( 2, ( #385, #552, #180 ),
 .UNSPECIFIED., .F., .T. ) 
 B_SPLINE_CURVE_WITH_KNOTS ( ( 3, 3 ),
 ( 3.285120886999699100, 4.569222071272861300 ),
 .UNSPECIFIED. ) 
 CURVE ( )  GEOMETRIC_REPRESENTATION_ITEM ( )  RATIONAL_B_SPLINE_CURVE ( ( 1.000000000000000000, 0.8008694680895525100, 1.000000000000000000 ) ) 
 REPRESENTATION_ITEM ( '' )  );
#112 = TRIMMED_CURVE ( 'NONE', #628, ( PARAMETER_VALUE ( 0.0000000000000000000 ), #293 ), ( PARAMETER_VALUE ( 0.9999999999999995600 ), #390 ), .T., .PARAMETER. ) ;
#113 = CARTESIAN_POINT ( 'NONE',  ( -2.005012930814970700, 13.84632453476726300, 0.0000000000000000000 ) ) ;
#114 = CARTESIAN_POINT ( 'NONE',  ( 2.000000000000018200, 14.88209376666334900, 2.000000000000000000 ) ) ;
#115 = CARTESIAN_POINT ( 'NONE',  ( -14.88209376666334400, -2.000000000000033800, 1.000000000000000000 ) ) ;
#116 = PERSON_AND_ORGANIZATION ( #589, #651 ) ;
#117 = CARTESIAN_POINT ( 'NONE',  ( -13.88209376666335800, 1.999999999999969600, 2.999999999999999600 ) ) ;
#118 = CARTESIAN_POINT ( 'NONE',  ( 1.000000000000000000, 0.0000000000000000000, 0.0000000000000000000 ) ) ;
#119 = CARTESIAN_POINT ( 'NONE',  ( 14.88209376666333000, 2.000000000000137700, 1.000000000000000000 ) ) ;
#120 = CARTESIAN_POINT ( 'NONE',  ( 15.84632453476721500, 2.000000000000147900, 3.000000000000000000 ) ) ;
#121 = GEOMETRIC_CURVE_SET ( 'NONE', ( #165, #364, #592, #53, #677, #179, #631, #643, #242, #515, #549, #422, #128, #706, #572, #320, #394, #54, #23, #379, #500, #707, #273, #61, #449, #632, #261, #6, #329, #370, #211, #87, #281, #436, #304, #345, #221, #258, #135, #578, #104, #649, #31, #486, #507, #376, #102, #301, #536, #250, #137, #341, #620, #1, #309, #470, #84, #427, #240, #389, #219, #150, #602, #58, #186, #580, #20, #545, #353, #259, #522, #176, #124, #209, #369, #227, #319, #326, #656, #44, #270, #530, #457, #98, #590, #362, #416, #673, #638, #292, #402, #278, #156, #476, #163, #420, #684, #50, #629, #495, #704, #568, #200, #446, #74, #585, #283, #313, #191, #36, #432, #158, #64, #559, #111, #8, #695, #333, #642, #232, #609, #479, #143, #356, #512, #380, #264, #461, #664, #213, #89, #532, #407, #303, #604, #46, #696, #126, #561, #421, #112, #591, #59, #639, #685, #471, #177, #658, #547, #75, #459, #391, #662, #215, #335 ) ) ;
#122 = CARTESIAN_POINT ( 'NONE',  ( -2.000000000000018200, -14.88209376666334900, 1.000000000000000000 ) ) ;
#123 = CARTESIAN_POINT ( 'NONE',  ( 1.999999999999981800, -15.84632453476723600, 3.000000000000000000 ) ) ;
#124 = B_SPLINE_CURVE_WITH_KNOTS ( 'NONE', 1,
 ( #480, #47 ),
 .UNSPECIFIED., .F., .F.,
 ( 2, 2 ),
 ( -0.0000000000000000000, 0.001000000000000000000 ),
 .UNSPECIFIED. ) ;
#125 = CARTESIAN_POINT ( 'NONE',  ( 15.84632453476726800, 2.005012930814915200, 0.0000000000000000000 ) ) ;
#126 = TRIMMED_CURVE ( 'NONE', #597, ( PARAMETER_VALUE ( 0.0000000000000000000 ), #458 ), ( PARAMETER_VALUE ( 1.000000000000000000 ), #511 ), .T., .PARAMETER. ) ;
#127 = CARTESIAN_POINT ( 'NONE',  ( 2.005012930814874700, -13.87340975402966100, 0.0000000000000000000 ) ) ;
#128 = B_SPLINE_CURVE_WITH_KNOTS ( 'NONE', 1,
 ( #291, #393 ),
 .UNSPECIFIED., .F., .F.,
 ( 2, 2 ),
 ( 0.0000000000000000000, 0.002000000000000000000 ),
 .UNSPECIFIED. ) ;
#129 = CARTESIAN_POINT ( 'NONE',  ( 14.88209376666337000, -1.999999999999862600, 2.000000000000000000 ) ) ;
#130 =( GEOMETRIC_REPRESENTATION_CONTEXT ( 3 ) GLOBAL_UNCERTAINTY_ASSIGNED_CONTEXT ( ( #343 ) ) GLOBAL_UNIT_ASSIGNED_CONTEXT ( ( #145, #41, #690 ) ) REPRESENTATION_CONTEXT ( 'NONE', 'WORKASPACE' ) );
#131 = CARTESIAN_POINT ( 'NONE',  ( 2.005012930814874700, -13.84632453476727500, 0.0000000000000000000 ) ) ;
#132 = CARTESIAN_POINT ( 'NONE',  ( -2.000000000000097300, -13.87413330828055000, 0.0000000000000000000 ) ) ;
#133 = DIRECTION ( 'NONE',  ( -8.662760924588682600E-016, 1.000000000000000000, 0.0000000000000000000 ) ) ;
#134 = CARTESIAN_POINT ( 'NONE',  ( 5.499999999999999100, 5.500000000000000000, 0.5000000000000000000 ) ) ;
#135 = B_SPLINE_CURVE_WITH_KNOTS ( 'NONE', 1,
 ( #692, #633 ),
 .UNSPECIFIED., .F., .F.,
 ( 2, 2 ),
 ( -0.01488209376666335700, -0.01387413330828054400 ),
 .UNSPECIFIED. ) ;
#136 = CARTESIAN_POINT ( 'NONE',  ( 2.000000000000000000, 13.87413330828056600, 0.0000000000000000000 ) ) ;
#137 = B_SPLINE_CURVE_WITH_KNOTS ( 'NONE', 1,
 ( #99, #96 ),
 .UNSPECIFIED., .F., .F.,
 ( 2, 2 ),
 ( 0.0000000000000000000, 0.004000000000000000100 ),
 .UNSPECIFIED. ) ;
#138 = GEOMETRICALLY_BOUNDED_WIREFRAME_SHAPE_REPRESENTATION ( '电池层下盖', ( #121, #34 ), #130 ) ;
#139 = CARTESIAN_POINT ( 'NONE',  ( 15.84632453476726800, 2.005012930814915200, 0.0000000000000000000 ) ) ;
#140 = CARTESIAN_POINT ( 'NONE',  ( -13.84632453476728200, -2.005012930814825900, 0.0000000000000000000 ) ) ;
#141 = APPROVAL_DATE_TIME ( #560, #543 ) ;
#142 = CARTESIAN_POINT ( 'NONE',  ( -1.999999999999981800, 13.88209376666335100, 2.000000000000000000 ) ) ;
#143 = B_SPLINE_CURVE_WITH_KNOTS ( 'NONE', 1,
 ( #442, #122 ),
 .UNSPECIFIED., .F., .F.,
 ( 2, 2 ),
 ( 0.0000000000000000000, 0.001000000000000000000 ),
 .UNSPECIFIED. ) ;
#144 = CARTESIAN_POINT ( 'NONE',  ( 0.0000000000000000000, 0.0000000000000000000, 1.000000000000000000 ) ) ;
#145 =( LENGTH_UNIT ( ) NAMED_UNIT ( * ) SI_UNIT ( .MILLI., .METRE. ) );
#146 = CARTESIAN_POINT ( 'NONE',  ( 2.005012930814876500, -13.87340975402965900, 0.0000000000000000000 ) ) ;
#147 = LINE ( 'NONE', #411, #689 ) ;
#148 = DIRECTION ( 'NONE',  ( 0.0000000000000000000, 0.0000000000000000000, -1.000000000000000000 ) ) ;
#149 = VECTOR ( 'NONE', #539, 4.005012930814970700 ) ;
#150 = B_SPLINE_CURVE_WITH_KNOTS ( 'NONE', 1,
 ( #157, #534 ),
 .UNSPECIFIED., .F., .F.,
 ( 2, 2 ),
 ( -0.0000000000000000000, 0.001000000000000000000 ),
 .UNSPECIFIED. ) ;
#151 = DIRECTION ( 'NONE',  ( 0.0000000000000000000, 0.0000000000000000000, 1.000000000000000000 ) ) ;
#152 = CARTESIAN_POINT ( 'NONE',  ( 15.84632453476708700, -2.000000000000042600, 0.0000000000000000000 ) ) ;
#153 = CARTESIAN_POINT ( 'NONE',  ( 5.500000000000000000, 6.735557395310442000E-016, 0.5000000000000000000 ) ) ;
#154 = COORDINATED_UNIVERSAL_TIME_OFFSET ( 8, 0, .AHEAD. ) ;
#155 = CARTESIAN_POINT ( 'NONE',  ( -13.88209376666334400, -2.000000000000030200, 2.000000000000000000 ) ) ;
#156 = B_SPLINE_CURVE_WITH_KNOTS ( 'NONE', 1,
 ( #371, #56 ),
 .UNSPECIFIED., .F., .F.,
 ( 2, 2 ),
 ( -0.01584632453476722900, -0.01387413330828064600 ),
 .UNSPECIFIED. ) ;
#157 = CARTESIAN_POINT ( 'NONE',  ( -13.87413330828054300, 2.000000000000144800, 1.000000000000000000 ) ) ;
#158 = B_SPLINE_CURVE_WITH_KNOTS ( 'NONE', 1,
 ( #70, #671 ),
 .UNSPECIFIED., .F., .F.,
 ( 2, 2 ),
 ( 0.01387340975402964700, 0.01584632453476726000 ),
 .UNSPECIFIED. ) ;
#159 = CARTESIAN_POINT ( 'NONE',  ( -13.88209376666335800, 1.999999999999969600, 2.000000000000000000 ) ) ;
#160 = VECTOR ( 'NONE', #133, 4.005012930814949400 ) ;
#161 = CARTESIAN_POINT ( 'NONE',  ( 13.88209376666337200, -1.999999999999873000, 2.999999999999999600 ) ) ;
#162 = CARTESIAN_POINT ( 'NONE',  ( 2.000000000000018200, 13.88209376666335100, 2.000000000000000000 ) ) ;
#163 = B_SPLINE_CURVE_WITH_KNOTS ( 'NONE', 1,
 ( #373, #57 ),
 .UNSPECIFIED., .F., .F.,
 ( 2, 2 ),
 ( -0.002005012930815629000, -0.002000000000000861800 ),
 .UNSPECIFIED. ) ;
#164 = CARTESIAN_POINT ( 'NONE',  ( -13.88209376666335800, 1.999999999999969600, 2.000000000000000000 ) ) ;
#165 = B_SPLINE_CURVE_WITH_KNOTS ( 'NONE', 1,
 ( #120, #224 ),
 .UNSPECIFIED., .F., .F.,
 ( 2, 2 ),
 ( -0.0000000000000000000, 0.001964230768103885200 ),
 .UNSPECIFIED. ) ;
#166 = CARTESIAN_POINT ( 'NONE',  ( -1.999999999999981800, 14.88209376666334900, 2.000000000000000000 ) ) ;
#167 = LOCAL_TIME ( 18, 33, 23.00000000000000000, #595 ) ;
#168 = LINE ( 'NONE', #624, #619 ) ;
#169 = CARTESIAN_POINT ( 'NONE',  ( 13.84632453476725500, -2.000000000000048000, 0.0000000000000000000 ) ) ;
#170 = CARTESIAN_POINT ( 'NONE',  ( -15.84632453476728400, 2.000000000000144300, 0.0000000000000000000 ) ) ;
#171 = CARTESIAN_POINT ( 'NONE',  ( -2.005012930814970700, 13.87340975402964600, 1.000000000000000000 ) ) ;
#172 = CARTESIAN_POINT ( 'NONE',  ( -2.005012930814970700, 15.84632453476726100, 0.0000000000000000000 ) ) ;
#173 = CARTESIAN_POINT ( 'NONE',  ( 1.000000000000000000, 0.9999999999999998900, 0.0000000000000000000 ) ) ;
#174 = CARTESIAN_POINT ( 'NONE',  ( -15.84632453476722900, -2.000000000000037300, 3.000000000000000000 ) ) ;
#175 = CARTESIAN_POINT ( 'NONE',  ( 1.999999999999981800, -14.88209376666334900, 1.000000000000000000 ) ) ;
#176 = B_SPLINE_CURVE_WITH_KNOTS ( 'NONE', 1,
 ( #694, #363 ),
 .UNSPECIFIED., .F., .F.,
 ( 2, 2 ),
 ( 0.0000000000000000000, 0.001000000000000000000 ),
 .UNSPECIFIED. ) ;
#177 = TRIMMED_CURVE ( 'NONE', #535, ( PARAMETER_VALUE ( 0.0000000000000000000 ), #181 ), ( PARAMETER_VALUE ( 1.000000000000000000 ), #19 ), .T., .PARAMETER. ) ;
#178 = DIRECTION ( 'NONE',  ( 1.000000000000000000, -6.063932647212049800E-015, 0.0000000000000000000 ) ) ;
#179 = B_SPLINE_CURVE_WITH_KNOTS ( 'NONE', 1,
 ( #125, #331 ),
 .UNSPECIFIED., .F., .F.,
 ( 2, 2 ),
 ( -0.002005012930815629000, 0.001999999999999328700 ),
 .UNSPECIFIED. ) ;
#180 = CARTESIAN_POINT ( 'NONE',  ( -2.000000000000104800, -13.87413330828054800, 1.000000000000000000 ) ) ;
#181 = CARTESIAN_POINT ( 'NONE',  ( 2.000000000000018200, 15.84632453476723600, 1.000000000000000000 ) ) ;
#182 = CARTESIAN_POINT ( 'NONE',  ( 14.88209376666337000, -1.999999999999862600, 2.000000000000000000 ) ) ;
#183 = DIRECTION ( 'NONE',  ( 0.0000000000000000000, -1.000000000000000000, -2.207891638989258800E-016 ) ) ;
#184 = CARTESIAN_POINT ( 'NONE',  ( 5.000000000000000000, 6.123233995736766300E-016, 0.5000000000000000000 ) ) ;
#185 = DIRECTION ( 'NONE',  ( 0.0000000000000000000, 0.0000000000000000000, 1.000000000000000000 ) ) ;
#186 =( BOUNDED_CURVE ( )  B_SPLINE_CURVE ( 2, ( #582, #705, #584, #587, #474 ),
 .UNSPECIFIED., .F., .F. ) 
 B_SPLINE_CURVE_WITH_KNOTS ( ( 3, 2, 3 ),
 ( 3.141592653589793100, 4.712388980384689700, 6.283185307179586200 ),
 .UNSPECIFIED. ) 
 CURVE ( )  GEOMETRIC_REPRESENTATION_ITEM ( )  RATIONAL_B_SPLINE_CURVE ( ( 1.000000000000000000, 0.7071067811865475700, 1.000000000000000000, 0.7071067811865475700, 1.000000000000000000 ) ) 
 REPRESENTATION_ITEM ( '' )  );
#187 = CARTESIAN_POINT ( 'NONE',  ( -1.999999999999981800, 14.88209376666334900, 2.000000000000000000 ) ) ;
#188 = VECTOR ( 'NONE', #7, 1.999999999999998200 ) ;
#189 = CARTESIAN_POINT ( 'NONE',  ( 2.005012930814861000, -15.84632453476727300, 0.0000000000000000000 ) ) ;
#190 = CARTESIAN_POINT ( 'NONE',  ( 14.88209376666337000, -1.999999999999862600, 2.000000000000000000 ) ) ;
#191 = B_SPLINE_CURVE_WITH_KNOTS ( 'NONE', 1,
 ( #615, #387 ),
 .UNSPECIFIED., .F., .F.,
 ( 2, 2 ),
 ( 0.0000000000000000000, 0.004000000000000000100 ),
 .UNSPECIFIED. ) ;
#192 = DIRECTION ( 'NONE',  ( 0.0000000000000000000, 0.0000000000000000000, 1.000000000000000000 ) ) ;
#193 = CARTESIAN_POINT ( 'NONE',  ( -2.000000000000104800, -13.87413330828054800, 0.0000000000000000000 ) ) ;
#194 = APPROVAL_STATUS ( 'not_yet_approved' ) ;
#195 = CARTESIAN_POINT ( 'NONE',  ( 2.000000000000018200, 15.84632453476723600, 1.000000000000000000 ) ) ;
#196 = CARTESIAN_POINT ( 'NONE',  ( 15.84632453476725700, -1.999999999999852100, 3.000000000000000000 ) ) ;
#197 = LINE ( 'NONE', #231, #287 ) ;
#198 = MECHANICAL_CONTEXT ( 'NONE', #302, 'mechanical' ) ;
#199 = CARTESIAN_POINT ( 'NONE',  ( 2.005012930814874700, -13.87340975402966100, 0.0000000000000000000 ) ) ;
#200 = B_SPLINE_CURVE_WITH_KNOTS ( 'NONE', 1,
 ( #441, #284 ),
 .UNSPECIFIED., .F., .F.,
 ( 2, 2 ),
 ( -0.01488209376666336500, -0.01387413330828055200 ),
 .UNSPECIFIED. ) ;
#201 = PERSON_AND_ORGANIZATION_ROLE ( 'design_supplier' ) ;
#202 = CC_DESIGN_PERSON_AND_ORGANIZATION_ASSIGNMENT ( #45, #355, ( #711 ) ) ;
#203 = CARTESIAN_POINT ( 'NONE',  ( 15.84632453476726800, 2.005012930814915200, 0.0000000000000000000 ) ) ;
#204 = APPLICATION_PROTOCOL_DEFINITION ( 'international standard', 'config_control_design', 1994, #302 ) ;
#205 = CARTESIAN_POINT ( 'NONE',  ( -14.88209376666335600, 1.999999999999966200, 2.000000000000000000 ) ) ;
#206 = APPROVAL_DATE_TIME ( #365, #405 ) ;
#207 = LINE ( 'NONE', #169, #149 ) ;
#208 = CARTESIAN_POINT ( 'NONE',  ( -1.999999999999981800, 13.88209376666335100, 2.999999999999999600 ) ) ;
#209 = B_SPLINE_CURVE_WITH_KNOTS ( 'NONE', 1,
 ( #161, #644 ),
 .UNSPECIFIED., .F., .F.,
 ( 2, 2 ),
 ( 0.0000000000000000000, 0.0009999999999999995900 ),
 .UNSPECIFIED. ) ;
#210 = CARTESIAN_POINT ( 'NONE',  ( 14.88209376666333000, 2.000000000000138100, 1.000000000000000000 ) ) ;
#211 = B_SPLINE_CURVE_WITH_KNOTS ( 'NONE', 1,
 ( #247, #190 ),
 .UNSPECIFIED., .F., .F.,
 ( 2, 2 ),
 ( 0.0000000000000000000, 0.004000000000000000100 ),
 .UNSPECIFIED. ) ;
#212 = CARTESIAN_POINT ( 'NONE',  ( -1.999999999999981800, 13.88209376666335100, 2.999999999999999600 ) ) ;
#213 = TRIMMED_CURVE ( 'NONE', #197, ( PARAMETER_VALUE ( 0.0000000000000000000 ), #611 ), ( PARAMETER_VALUE ( 0.9999999999999996700 ), #386 ), .T., .PARAMETER. ) ;
#214 = CARTESIAN_POINT ( 'NONE',  ( 1.999999999999981800, -14.88209376666334900, 2.000000000000000000 ) ) ;
#215 = CIRCLE ( 'NONE', #674, 5.500000000000000000 ) ;
#216 = LINE ( 'NONE', #654, #525 ) ;
#217 = CARTESIAN_POINT ( 'NONE',  ( 15.84632453476708700, -2.000000000000042600, 0.0000000000000000000 ) ) ;
#218 = CARTESIAN_POINT ( 'NONE',  ( 12.37418934688454000, 12.37866125011706800, 0.0000000000000000000 ) ) ;
#219 = B_SPLINE_CURVE_WITH_KNOTS ( 'NONE', 1,
 ( #316, #51 ),
 .UNSPECIFIED., .F., .F.,
 ( 2, 2 ),
 ( -0.01584632453476728400, -0.01387413330828054400 ),
 .UNSPECIFIED. ) ;
#220 = CARTESIAN_POINT ( 'NONE',  ( -14.88209376666335600, 2.000000000000144800, 1.000000000000000000 ) ) ;
#221 = B_SPLINE_CURVE_WITH_KNOTS ( 'NONE', 1,
 ( #208, #417 ),
 .UNSPECIFIED., .F., .F.,
 ( 2, 2 ),
 ( 0.0000000000000000000, 0.0009999999999999995900 ),
 .UNSPECIFIED. ) ;
#222 = CARTESIAN_POINT ( 'NONE',  ( -2.005012930814970700, 13.87340975402964800, 1.000000000000000000 ) ) ;
#223 = CARTESIAN_POINT ( 'NONE',  ( 1.999999999999997300, 15.84632453476723600, 0.0000000000000000000 ) ) ;
#224 = CARTESIAN_POINT ( 'NONE',  ( 13.88209376666333000, 2.000000000000127500, 2.999999999999999600 ) ) ;
#225 = CARTESIAN_POINT ( 'NONE',  ( -15.84632453476722900, -2.000000000000037300, 1.000000000000000000 ) ) ;
#226 = CARTESIAN_POINT ( 'NONE',  ( -2.005012930814970700, 13.87340975402964600, 0.0000000000000000000 ) ) ;
#227 = B_SPLINE_CURVE_WITH_KNOTS ( 'NONE', 1,
 ( #214, #586 ),
 .UNSPECIFIED., .F., .F.,
 ( 2, 2 ),
 ( 0.0000000000000000000, 0.001000000000000000000 ),
 .UNSPECIFIED. ) ;
#228 = DIRECTION ( 'NONE',  ( -1.000000000000000000, 0.0000000000000000000, 0.0000000000000000000 ) ) ;
#229 = CARTESIAN_POINT ( 'NONE',  ( -1.999999999999981800, 14.88209376666334900, 1.000000000000000000 ) ) ;
#230 = CARTESIAN_POINT ( 'NONE',  ( -13.88209376666334400, -2.000000000000030200, 2.000000000000000000 ) ) ;
#231 = CARTESIAN_POINT ( 'NONE',  ( 1.999999999999997300, 15.84632453476723600, 0.0000000000000000000 ) ) ;
#232 = B_SPLINE_CURVE_WITH_KNOTS ( 'NONE', 1,
 ( #115, #225 ),
 .UNSPECIFIED., .F., .F.,
 ( 2, 2 ),
 ( -0.0009642307681038858900, 0.0000000000000000000 ),
 .UNSPECIFIED. ) ;
#233 = CARTESIAN_POINT ( 'NONE',  ( 1.999999999999981800, -14.88209376666334900, 1.000000000000000000 ) ) ;
#234 = CARTESIAN_POINT ( 'NONE',  ( -2.000000000000095900, -13.84632453476724800, 0.0000000000000000000 ) ) ;
#235 = CC_DESIGN_APPROVAL ( #558, ( #330 ) ) ;
#236 = CARTESIAN_POINT ( 'NONE',  ( 2.000000000000018200, 15.84632453476723600, 3.000000000000000000 ) ) ;
#237 = CARTESIAN_POINT ( 'NONE',  ( -15.84632453476722900, -2.000000000000037300, 3.000000000000000000 ) ) ;
#238 = CARTESIAN_POINT ( 'NONE',  ( 2.000000000000018200, 15.84632453476723600, 3.000000000000000000 ) ) ;
#239 = CARTESIAN_POINT ( 'NONE',  ( -1.999999999999981800, 15.84632453476723600, 3.000000000000000000 ) ) ;
#240 = B_SPLINE_CURVE_WITH_KNOTS ( 'NONE', 1,
 ( #155, #159 ),
 .UNSPECIFIED., .F., .F.,
 ( 2, 2 ),
 ( 0.0000000000000000000, 0.004000000000000000100 ),
 .UNSPECIFIED. ) ;
#241 = CARTESIAN_POINT ( 'NONE',  ( 13.87413330828055700, -2.000000000000048000, 0.0000000000000000000 ) ) ;
#242 = B_SPLINE_CURVE_WITH_KNOTS ( 'NONE', 1,
 ( #230, #608 ),
 .UNSPECIFIED., .F., .F.,
 ( 2, 2 ),
 ( 0.0000000000000000000, 0.0009999999999999991500 ),
 .UNSPECIFIED. ) ;
#243 = CARTESIAN_POINT ( 'NONE',  ( 12.37418934688454000, 12.37866125011706800, 1.000000000000000000 ) ) ;
#244 = CARTESIAN_POINT ( 'NONE',  ( -15.84632453476728400, 2.000000000000144300, 0.0000000000000000000 ) ) ;
#245 = CARTESIAN_POINT ( 'NONE',  ( -13.87340975402966800, -2.005012930814825500, 0.0000000000000000000 ) ) ;
#246 = CARTESIAN_POINT ( 'NONE',  ( 2.000000000000018200, 13.88209376666335100, 2.000000000000000000 ) ) ;
#247 = CARTESIAN_POINT ( 'NONE',  ( 14.88209376666333000, 2.000000000000137700, 2.000000000000000000 ) ) ;
#248 = DIRECTION ( 'NONE',  ( 0.0000000000000000000, 0.0000000000000000000, 1.000000000000000000 ) ) ;
#249 = CARTESIAN_POINT ( 'NONE',  ( 13.87413330828055500, -2.000000000000056000, 0.0000000000000000000 ) ) ;
#250 = B_SPLINE_CURVE_WITH_KNOTS ( 'NONE', 1,
 ( #518, #473 ),
 .UNSPECIFIED., .F., .F.,
 ( 2, 2 ),
 ( 0.003000000000000000100, 0.004000000000000000100 ),
 .UNSPECIFIED. ) ;
#251 = CARTESIAN_POINT ( 'NONE',  ( 13.88209376666333000, 2.000000000000127000, 2.999999999999999600 ) ) ;
#252 = CARTESIAN_POINT ( 'NONE',  ( 0.0000000000000000000, 0.0000000000000000000, 0.0000000000000000000 ) ) ;
#253 = VECTOR ( 'NONE', #148, 1.000000000000000000 ) ;
#254 = CARTESIAN_POINT ( 'NONE',  ( -2.005012930814970700, 15.84632453476726100, 1.000000000000000000 ) ) ;
#255 = LINE ( 'NONE', #485, #354 ) ;
#256 = CARTESIAN_POINT ( 'NONE',  ( 0.0000000000000000000, 0.0000000000000000000, 0.0000000000000000000 ) ) ;
#257 = CARTESIAN_POINT ( 'NONE',  ( -5.500000000000000000, -1.347111479062088400E-015, 0.0000000000000000000 ) ) ;
#258 = B_SPLINE_CURVE_WITH_KNOTS ( 'NONE', 1,
 ( #635, #43 ),
 .UNSPECIFIED., .F., .F.,
 ( 2, 2 ),
 ( -0.002005012930814790700, -0.002000000000000023500 ),
 .UNSPECIFIED. ) ;
#259 = B_SPLINE_CURVE_WITH_KNOTS ( 'NONE', 1,
 ( #210, #424 ),
 .UNSPECIFIED., .F., .F.,
 ( 2, 2 ),
 ( -0.0009642307681038858900, 0.0000000000000000000 ),
 .UNSPECIFIED. ) ;
#260 = CARTESIAN_POINT ( 'NONE',  ( -5.500000000000000000, -1.347111479062088400E-015, 0.5000000000000000000 ) ) ;
#261 = B_SPLINE_CURVE_WITH_KNOTS ( 'NONE', 1,
 ( #504, #88 ),
 .UNSPECIFIED., .F., .F.,
 ( 2, 2 ),
 ( -0.01488209376666334600, -0.01387413330828056300 ),
 .UNSPECIFIED. ) ;
#262 = CARTESIAN_POINT ( 'NONE',  ( -1.000000000000000200, -0.9999999999999998900, 1.000000000000000000 ) ) ;
#263 = AXIS2_PLACEMENT_3D ( 'NONE', #351, #185, #563 ) ;
#264 = TRIMMED_CURVE ( 'NONE', #52, ( PARAMETER_VALUE ( 0.0000000000000000000 ), #109 ), ( PARAMETER_VALUE ( 1.000000000000000000 ), #327 ), .T., .PARAMETER. ) ;
#265 = COORDINATED_UNIVERSAL_TIME_OFFSET ( 8, 0, .AHEAD. ) ;
#266 = CARTESIAN_POINT ( 'NONE',  ( -13.88209376666334400, -2.000000000000030200, 2.999999999999999600 ) ) ;
#267 = CARTESIAN_POINT ( 'NONE',  ( -5.000000000000000000, -1.224646799147353300E-015, 0.0000000000000000000 ) ) ;
#268 = CARTESIAN_POINT ( 'NONE',  ( 2.000000000000018200, 13.88209376666335100, 2.999999999999999600 ) ) ;
#269 = LINE ( 'NONE', #573, #79 ) ;
#270 = B_SPLINE_CURVE_WITH_KNOTS ( 'NONE', 1,
 ( #321, #650 ),
 .UNSPECIFIED., .F., .F.,
 ( 2, 2 ),
 ( -0.01584632453476723200, -0.01387413330828056300 ),
 .UNSPECIFIED. ) ;
#271 = PRODUCT_RELATED_PRODUCT_CATEGORY ( 'detail', '', ( #544 ) ) ;
#272 = CARTESIAN_POINT ( 'NONE',  ( -5.500000000000000000, 0.0000000000000000000, 0.0000000000000000000 ) ) ;
#273 = B_SPLINE_CURVE_WITH_KNOTS ( 'NONE', 1,
 ( #85, #77 ),
 .UNSPECIFIED., .F., .F.,
 ( 2, 2 ),
 ( -0.0000000000000000000, 0.0005000000000000000100 ),
 .UNSPECIFIED. ) ;
#274 = CARTESIAN_POINT ( 'NONE',  ( -12.37866125011695600, 12.37418934688452400, 0.0000000000000000000 ) ) ;
#275 = CARTESIAN_POINT ( 'NONE',  ( 15.84632453476726800, 2.005012930814915200, 0.0000000000000000000 ) ) ;
#276 = APPROVAL_PERSON_ORGANIZATION ( #430, #543, #693 ) ;
#277 = CARTESIAN_POINT ( 'NONE',  ( -14.88209376666335600, 1.999999999999966200, 2.000000000000000000 ) ) ;
#278 = B_SPLINE_CURVE_WITH_KNOTS ( 'NONE', 1,
 ( #605, #487 ),
 .UNSPECIFIED., .F., .F.,
 ( 2, 2 ),
 ( 0.0000000000000000000, 0.001964230768103885200 ),
 .UNSPECIFIED. ) ;
#279 = CARTESIAN_POINT ( 'NONE',  ( -2.005012930814970700, 15.84632453476726100, 0.0000000000000000000 ) ) ;
#280 = CARTESIAN_POINT ( 'NONE',  ( 1.999999999999981800, -15.84632453476723600, 1.000000000000000000 ) ) ;
#281 = B_SPLINE_CURVE_WITH_KNOTS ( 'NONE', 1,
 ( #617, #675 ),
 .UNSPECIFIED., .F., .F.,
 ( 2, 2 ),
 ( -0.0000000000000000000, 0.001000000000000000000 ),
 .UNSPECIFIED. ) ;
#282 = CARTESIAN_POINT ( 'NONE',  ( -1.000000000000000000, 1.224646799147353200E-016, 0.0000000000000000000 ) ) ;
#283 =( BOUNDED_CURVE ( )  B_SPLINE_CURVE ( 2, ( #502, #666, #68, #334, #669 ),
 .UNSPECIFIED., .F., .T. ) 
 B_SPLINE_CURVE_WITH_KNOTS ( ( 3, 2, 3 ),
 ( 0.0000000000000000000, 1.570796326794896600, 3.141592653589793100 ),
 .UNSPECIFIED. ) 
 CURVE ( )  GEOMETRIC_REPRESENTATION_ITEM ( )  RATIONAL_B_SPLINE_CURVE ( ( 1.000000000000000000, 0.7071067811865475700, 1.000000000000000000, 0.7071067811865475700, 1.000000000000000000 ) ) 
 REPRESENTATION_ITEM ( '' )  );
#284 = CARTESIAN_POINT ( 'NONE',  ( 13.87413330828055700, -2.000000000000048000, 1.000000000000000000 ) ) ;
#285 = CARTESIAN_POINT ( 'NONE',  ( 15.84632453476726800, 2.005012930814915200, 0.0000000000000000000 ) ) ;
#286 = CARTESIAN_POINT ( 'NONE',  ( 15.84632453476726800, 2.005012930814915200, 1.000000000000000000 ) ) ;
#287 = VECTOR ( 'NONE', #488, 1.999999999999974000 ) ;
#288 = CARTESIAN_POINT ( 'NONE',  ( -15.84632453476728400, 2.000000000000144300, 0.0000000000000000000 ) ) ;
#289 = CARTESIAN_POINT ( 'NONE',  ( -1.999999999999981800, 14.88209376666334900, 1.000000000000000000 ) ) ;
#290 = CARTESIAN_POINT ( 'NONE',  ( 2.000000000000018200, 13.88209376666335100, 2.999999999999999600 ) ) ;
#291 = CARTESIAN_POINT ( 'NONE',  ( 15.84632453476721500, 2.000000000000147900, 1.000000000000000000 ) ) ;
#292 =( BOUNDED_CURVE ( )  B_SPLINE_CURVE ( 2, ( #272, #63, #659, #433, #328 ),
 .UNSPECIFIED., .F., .F. ) 
 B_SPLINE_CURVE_WITH_KNOTS ( ( 3, 2, 3 ),
 ( 0.0000000000000000000, 1.570796326794896600, 3.141592653589793100 ),
 .UNSPECIFIED. ) 
 CURVE ( )  GEOMETRIC_REPRESENTATION_ITEM ( )  RATIONAL_B_SPLINE_CURVE ( ( 1.000000000000000000, 0.7071067811865475700, 1.000000000000000000, 0.7071067811865475700, 1.000000000000000000 ) ) 
 REPRESENTATION_ITEM ( '' )  );
#293 = CARTESIAN_POINT ( 'NONE',  ( -15.84632453476728400, 2.000000000000144300, 0.0000000000000000000 ) ) ;
#294 = CARTESIAN_POINT ( 'NONE',  ( 13.87340975402965300, 2.005012930814922700, 1.000000000000000000 ) ) ;
#295 = DIRECTION ( 'NONE',  ( -1.039531310950636400E-014, -1.000000000000000000, 0.0000000000000000000 ) ) ;
#296 = VECTOR ( 'NONE', #676, 1.999999999999998200 ) ;
#297 = CARTESIAN_POINT ( 'NONE',  ( 1.999999999999998200, 13.87413330828056200, 1.000000000000000000 ) ) ;
#298 = CARTESIAN_POINT ( 'NONE',  ( 13.84632453476727000, 2.005012930814922700, 0.0000000000000000000 ) ) ;
#299 = CARTESIAN_POINT ( 'NONE',  ( -1.000000000000000000, 1.224646799147353200E-016, 0.0000000000000000000 ) ) ;
#300 = CARTESIAN_POINT ( 'NONE',  ( -2.000000000000018200, -13.88209376666335100, 2.999999999999999600 ) ) ;
#301 = B_SPLINE_CURVE_WITH_KNOTS ( 'NONE', 1,
 ( #152, #686 ),
 .UNSPECIFIED., .F., .F.,
 ( 2, 2 ),
 ( -0.01584632453476708000, -0.01387413330828055200 ),
 .UNSPECIFIED. ) ;
#302 = APPLICATION_CONTEXT ( 'configuration controlled 3d designs of mechanical parts and assemblies' ) ;
#303 = TRIMMED_CURVE ( 'NONE', #207, ( PARAMETER_VALUE ( 0.0000000000000000000 ), #28 ), ( PARAMETER_VALUE ( 1.000000000000000000 ), #298 ), .T., .PARAMETER. ) ;
#304 =( BOUNDED_CURVE ( )  B_SPLINE_CURVE ( 2, ( #294, #243, #297 ),
 .UNSPECIFIED., .F., .T. ) 
 B_SPLINE_CURVE_WITH_KNOTS ( ( 3, 3 ),
 ( 0.1435282334099130500, 1.427629417683075700 ),
 .UNSPECIFIED. ) 
 CURVE ( )  GEOMETRIC_REPRESENTATION_ITEM ( )  RATIONAL_B_SPLINE_CURVE ( ( 1.000000000000000000, 0.8008694680895523900, 1.000000000000000000 ) ) 
 REPRESENTATION_ITEM ( '' )  );
#305 = VECTOR ( 'NONE', #295, 4.005012930814970700 ) ;
#306 = CARTESIAN_POINT ( 'NONE',  ( 13.88209376666337200, -1.999999999999873000, 2.000000000000000000 ) ) ;
#307 = DIRECTION ( 'NONE',  ( 0.0000000000000000000, 0.0000000000000000000, -1.000000000000000000 ) ) ;
#308 = APPROVAL_STATUS ( 'not_yet_approved' ) ;
#309 = B_SPLINE_CURVE_WITH_KNOTS ( 'NONE', 1,
 ( #526, #203 ),
 .UNSPECIFIED., .F., .F.,
 ( 2, 2 ),
 ( 0.01387340975402964700, 0.01584632453476726000 ),
 .UNSPECIFIED. ) ;
#310 = CARTESIAN_POINT ( 'NONE',  ( -2.000000000000018200, -14.88209376666334900, 2.000000000000000000 ) ) ;
#311 = CARTESIAN_POINT ( 'NONE',  ( -2.000000000000191800, -15.84632453476713100, 3.000000000000000000 ) ) ;
#312 = PRODUCT_DEFINITION_SHAPE ( 'NONE', 'NONE',  #711 ) ;
#313 = B_SPLINE_CURVE_WITH_KNOTS ( 'NONE', 1,
 ( #10, #493 ),
 .UNSPECIFIED., .F., .F.,
 ( 2, 2 ),
 ( 0.01387340975402964700, 0.01584632453476726000 ),
 .UNSPECIFIED. ) ;
#314 = CARTESIAN_POINT ( 'NONE',  ( -1.836970198721029900E-016, -1.000000000000000000, 1.000000000000000000 ) ) ;
#315 = CARTESIAN_POINT ( 'NONE',  ( -4.999999999999999100, -5.000000000000000900, 0.0000000000000000000 ) ) ;
#316 = CARTESIAN_POINT ( 'NONE',  ( -15.84632453476728400, 2.000000000000144300, 0.0000000000000000000 ) ) ;
#317 = AXIS2_PLACEMENT_3D ( 'NONE', #557, #72, #509 ) ;
#318 = CARTESIAN_POINT ( 'NONE',  ( 1.999999999999981800, -13.88209376666335100, 2.999999999999999600 ) ) ;
#319 = B_SPLINE_CURVE_WITH_KNOTS ( 'NONE', 1,
 ( #266, #601 ),
 .UNSPECIFIED., .F., .F.,
 ( 2, 2 ),
 ( 0.0000000000000000000, 0.0009999999999999995900 ),
 .UNSPECIFIED. ) ;
#320 = B_SPLINE_CURVE_WITH_KNOTS ( 'NONE', 1,
 ( #350, #626 ),
 .UNSPECIFIED., .F., .F.,
 ( 2, 2 ),
 ( 0.0000000000000000000, 0.001964230768103885200 ),
 .UNSPECIFIED. ) ;
#321 = CARTESIAN_POINT ( 'NONE',  ( 1.999999999999997300, 15.84632453476723600, 0.0000000000000000000 ) ) ;
#322 = CARTESIAN_POINT ( 'NONE',  ( 5.000000000000000000, 6.123233995736766300E-016, 0.0000000000000000000 ) ) ;
#323 = VECTOR ( 'NONE', #178, 4.005012930814968000 ) ;
#324 = DIRECTION ( 'NONE',  ( -1.000000000000000000, -2.818925648462548600E-015, 0.0000000000000000000 ) ) ;
#325 = CARTESIAN_POINT ( 'NONE',  ( 2.005012930814861000, -15.84632453476727300, 0.0000000000000000000 ) ) ;
#326 = B_SPLINE_CURVE_WITH_KNOTS ( 'NONE', 1,
 ( #378, #170 ),
 .UNSPECIFIED., .F., .F.,
 ( 2, 2 ),
 ( -0.002005012930814790700, 0.002000000000000158300 ),
 .UNSPECIFIED. ) ;
#327 = CARTESIAN_POINT ( 'NONE',  ( -2.005012930814970700, 15.84632453476726100, 0.0000000000000000000 ) ) ;
#328 = CARTESIAN_POINT ( 'NONE',  ( 5.500000000000000000, 6.735557395310442000E-016, 0.0000000000000000000 ) ) ;
#329 = B_SPLINE_CURVE_WITH_KNOTS ( 'NONE', 1,
 ( #506, #555 ),
 .UNSPECIFIED., .F., .F.,
 ( 2, 2 ),
 ( -0.002000000000000000000, 0.001000000000000000000 ),
 .UNSPECIFIED. ) ;
#330 = SECURITY_CLASSIFICATION ( '', '', #33 ) ;
#331 = CARTESIAN_POINT ( 'NONE',  ( 15.84632453476708700, -2.000000000000042600, 0.0000000000000000000 ) ) ;
#332 = DIRECTION ( 'NONE',  ( -4.504635680786106300E-014, -1.000000000000000000, 0.0000000000000000000 ) ) ;
#333 =( BOUNDED_CURVE ( )  B_SPLINE_CURVE ( 2, ( #661, #62, #596 ),
 .UNSPECIFIED., .F., .T. ) 
 B_SPLINE_CURVE_WITH_KNOTS ( ( 3, 3 ),
 ( 4.855917213794599600, 6.140018398067761400 ),
 .UNSPECIFIED. ) 
 CURVE ( )  GEOMETRIC_REPRESENTATION_ITEM ( )  RATIONAL_B_SPLINE_CURVE ( ( 1.000000000000000000, 0.8008694680895526200, 1.000000000000000000 ) ) 
 REPRESENTATION_ITEM ( '' )  );
#334 = CARTESIAN_POINT ( 'NONE',  ( -0.9999999999999998900, 1.000000000000000000, 1.000000000000000000 ) ) ;
#335 = CIRCLE ( 'NONE', #423, 5.000000000000000000 ) ;
#336 = CARTESIAN_POINT ( 'NONE',  ( -2.000000000000018200, -13.88209376666335100, 2.000000000000000000 ) ) ;
#337 = CARTESIAN_POINT ( 'NONE',  ( -5.000000000000000000, -1.224646799147353300E-015, 0.5000000000000000000 ) ) ;
#338 = CARTESIAN_POINT ( 'NONE',  ( 13.87413330828055700, -2.000000000000048000, 1.000000000000000000 ) ) ;
#339 = DIRECTION ( 'NONE',  ( 4.792173602386207900E-014, 1.000000000000000000, 0.0000000000000000000 ) ) ;
#340 = CARTESIAN_POINT ( 'NONE',  ( -13.87340975402966800, -2.005012930814822300, 0.0000000000000000000 ) ) ;
#341 = B_SPLINE_CURVE_WITH_KNOTS ( 'NONE', 1,
 ( #408, #90 ),
 .UNSPECIFIED., .F., .F.,
 ( 2, 2 ),
 ( 0.0000000000000000000, 0.004000000000000000100 ),
 .UNSPECIFIED. ) ;
#342 = CARTESIAN_POINT ( 'NONE',  ( -2.000000000000095900, -13.84632453476724800, 0.0000000000000000000 ) ) ;
#343 = UNCERTAINTY_MEASURE_WITH_UNIT (LENGTH_MEASURE( 1.000000000000000100E-005 ), #145, 'distance_accuracy_value', 'NONE');
#344 = CARTESIAN_POINT ( 'NONE',  ( -1.999999999999981800, 15.84632453476723600, 1.000000000000000000 ) ) ;
#345 = B_SPLINE_CURVE_WITH_KNOTS ( 'NONE', 1,
 ( #251, #412 ),
 .UNSPECIFIED., .F., .F.,
 ( 2, 2 ),
 ( 0.0000000000000000000, 0.0009999999999999995900 ),
 .UNSPECIFIED. ) ;
#346 = CARTESIAN_POINT ( 'NONE',  ( -13.84632453476728200, -2.005012930814825900, 0.0000000000000000000 ) ) ;
#347 = CARTESIAN_POINT ( 'NONE',  ( -1.999999999999981800, 13.88209376666335100, 2.000000000000000000 ) ) ;
#348 = APPROVAL_DATE_TIME ( #613, #558 ) ;
#349 = DIRECTION ( 'NONE',  ( -0.9897174932435487400, -0.1430359520110449100, 0.0000000000000000000 ) ) ;
#350 = CARTESIAN_POINT ( 'NONE',  ( -1.999999999999981800, 15.84632453476723600, 3.000000000000000000 ) ) ;
#351 = CARTESIAN_POINT ( 'NONE',  ( 0.0000000000000000000, 0.0000000000000000000, 0.0000000000000000000 ) ) ;
#352 = CARTESIAN_POINT ( 'NONE',  ( 2.005012930814874700, -13.87340975402966100, 1.000000000000000000 ) ) ;
#353 = B_SPLINE_CURVE_WITH_KNOTS ( 'NONE', 1,
 ( #49, #477 ),
 .UNSPECIFIED., .F., .F.,
 ( 2, 2 ),
 ( 0.0000000000000000000, 0.004000000000000000100 ),
 .UNSPECIFIED. ) ;
#354 = VECTOR ( 'NONE', #228, 4.005012930814970700 ) ;
#355 = PERSON_AND_ORGANIZATION_ROLE ( 'creator' ) ;
#356 = B_SPLINE_CURVE_WITH_KNOTS ( 'NONE', 1,
 ( #490, #174 ),
 .UNSPECIFIED., .F., .F.,
 ( 2, 2 ),
 ( 0.0000000000000000000, 0.002000000000000000000 ),
 .UNSPECIFIED. ) ;
#357 = CARTESIAN_POINT ( 'NONE',  ( -2.000000000000191800, -15.84632453476713100, 0.0000000000000000000 ) ) ;
#358 = CARTESIAN_POINT ( 'NONE',  ( 2.000000000000018200, 14.88209376666334900, 2.000000000000000000 ) ) ;
#359 = CARTESIAN_POINT ( 'NONE',  ( -15.84632453476728400, 2.000000000000144300, 3.000000000000000000 ) ) ;
#360 = APPLICATION_PROTOCOL_DEFINITION ( 'international standard', 'config_control_design', 1994, #575 ) ;
#361 = CARTESIAN_POINT ( 'NONE',  ( -13.88209376666335800, 1.999999999999969600, 2.000000000000000000 ) ) ;
#362 =( BOUNDED_CURVE ( )  B_SPLINE_CURVE ( 2, ( #226, #274, #540 ),
 .UNSPECIFIED., .F., .F. ) 
 B_SPLINE_CURVE_WITH_KNOTS ( ( 3, 3 ),
 ( 1.714324560204813200, 2.998425744477961600 ),
 .UNSPECIFIED. ) 
 CURVE ( )  GEOMETRIC_REPRESENTATION_ITEM ( )  RATIONAL_B_SPLINE_CURVE ( ( 1.000000000000000000, 0.8008694680895566100, 1.000000000000000000 ) ) 
 REPRESENTATION_ITEM ( '' )  );
#363 = CARTESIAN_POINT ( 'NONE',  ( -14.88209376666335600, 1.999999999999966200, 1.000000000000000000 ) ) ;
#364 = B_SPLINE_CURVE_WITH_KNOTS ( 'NONE', 1,
 ( #18, #336 ),
 .UNSPECIFIED., .F., .F.,
 ( 2, 2 ),
 ( 0.0000000000000000000, 0.004000000000000000100 ),
 .UNSPECIFIED. ) ;
#365 = DATE_AND_TIME ( #367, #516 ) ;
#366 = CARTESIAN_POINT ( 'NONE',  ( -14.88209376666334400, -2.000000000000033800, 1.000000000000000000 ) ) ;
#367 = CALENDAR_DATE ( 2026, 12, 9 ) ;
#368 = CARTESIAN_POINT ( 'NONE',  ( 9.184850993605147900E-016, -5.000000000000000000, 0.0000000000000000000 ) ) ;
#369 =( BOUNDED_CURVE ( )  B_SPLINE_CURVE ( 2, ( #418, #262, #314, #698, #475 ),
 .UNSPECIFIED., .F., .T. ) 
 B_SPLINE_CURVE_WITH_KNOTS ( ( 3, 2, 3 ),
 ( 3.141592653589793100, 4.712388980384689700, 6.283185307179586200 ),
 .UNSPECIFIED. ) 
 CURVE ( )  GEOMETRIC_REPRESENTATION_ITEM ( )  RATIONAL_B_SPLINE_CURVE ( ( 1.000000000000000000, 0.7071067811865475700, 1.000000000000000000, 0.7071067811865475700, 1.000000000000000000 ) ) 
 REPRESENTATION_ITEM ( '' )  );
#370 = B_SPLINE_CURVE_WITH_KNOTS ( 'NONE', 1,
 ( #81, #139 ),
 .UNSPECIFIED., .F., .F.,
 ( 2, 2 ),
 ( -0.0000000000000000000, 0.001000000000000000000 ),
 .UNSPECIFIED. ) ;
#371 = CARTESIAN_POINT ( 'NONE',  ( -2.000000000000191800, -15.84632453476713100, 0.0000000000000000000 ) ) ;
#372 = LINE ( 'NONE', #238, #381 ) ;
#373 = CARTESIAN_POINT ( 'NONE',  ( 15.84632453476726800, 2.005012930814915200, 1.000000000000000000 ) ) ;
#374 = PERSON_AND_ORGANIZATION ( #589, #651 ) ;
#375 = CARTESIAN_POINT ( 'NONE',  ( 2.005012930814861000, -15.84632453476727300, 1.000000000000000000 ) ) ;
#376 = B_SPLINE_CURVE_WITH_KNOTS ( 'NONE', 1,
 ( #35, #310 ),
 .UNSPECIFIED., .F., .F.,
 ( 2, 2 ),
 ( 0.0000000000000000000, 0.0009999999999999991500 ),
 .UNSPECIFIED. ) ;
#377 = CARTESIAN_POINT ( 'NONE',  ( 13.84632453476725500, -2.000000000000048000, 0.0000000000000000000 ) ) ;
#378 = CARTESIAN_POINT ( 'NONE',  ( -15.84632453476728000, -2.005012930814804600, 0.0000000000000000000 ) ) ;
#379 = B_SPLINE_CURVE_WITH_KNOTS ( 'NONE', 1,
 ( #621, #625 ),
 .UNSPECIFIED., .F., .F.,
 ( 2, 2 ),
 ( -0.0000000000000000000, 0.001964230768103885200 ),
 .UNSPECIFIED. ) ;
#380 = B_SPLINE_CURVE_WITH_KNOTS ( 'NONE', 1,
 ( #9, #440 ),
 .UNSPECIFIED., .F., .F.,
 ( 2, 2 ),
 ( -0.0000000000000000000, 0.001000000000000000000 ),
 .UNSPECIFIED. ) ;
#381 = VECTOR ( 'NONE', #183, 1.964230768103885100 ) ;
#382 = CARTESIAN_POINT ( 'NONE',  ( 2.005012930814861000, -15.84632453476727300, 1.000000000000000000 ) ) ;
#383 = CARTESIAN_POINT ( 'NONE',  ( 1.999999999999981800, -14.88209376666334900, 2.000000000000000000 ) ) ;
#384 = CARTESIAN_POINT ( 'NONE',  ( 5.000000000000000000, 6.123233995736766300E-016, 0.5000000000000000000 ) ) ;
#385 = CARTESIAN_POINT ( 'NONE',  ( -13.87340975402966800, -2.005012930814822300, 1.000000000000000000 ) ) ;
#386 = CARTESIAN_POINT ( 'NONE',  ( 2.000000000000000000, 13.84632453476726300, 0.0000000000000000000 ) ) ;
#387 = CARTESIAN_POINT ( 'NONE',  ( 2.000000000000018200, 15.84632453476723600, 3.000000000000000000 ) ) ;
#388 = CARTESIAN_POINT ( 'NONE',  ( -15.84632453476728000, -2.005012930814804600, 1.000000000000000000 ) ) ;
#389 = B_SPLINE_CURVE_WITH_KNOTS ( 'NONE', 1,
 ( #645, #366 ),
 .UNSPECIFIED., .F., .F.,
 ( 2, 2 ),
 ( 0.0000000000000000000, 0.001000000000000000000 ),
 .UNSPECIFIED. ) ;
#390 = CARTESIAN_POINT ( 'NONE',  ( -13.84632453476724100, 2.000000000000144800, 0.0000000000000000000 ) ) ;
#391 = TRIMMED_CURVE ( 'NONE', #147, ( PARAMETER_VALUE ( 0.0000000000000000000 ), #195 ), ( PARAMETER_VALUE ( 1.000000000000000900 ), #521 ), .T., .PARAMETER. ) ;
#392 = VECTOR ( 'NONE', #501, 2.000000000000000000 ) ;
#393 = CARTESIAN_POINT ( 'NONE',  ( 15.84632453476721500, 2.000000000000147900, 3.000000000000000000 ) ) ;
#394 = B_SPLINE_CURVE_WITH_KNOTS ( 'NONE', 1,
 ( #347, #187 ),
 .UNSPECIFIED., .F., .F.,
 ( 2, 2 ),
 ( 0.0000000000000000000, 0.0009999999999999991500 ),
 .UNSPECIFIED. ) ;
#395 = CARTESIAN_POINT ( 'NONE',  ( -13.87340975402966800, -2.005012930814825500, 0.0000000000000000000 ) ) ;
#396 = SHAPE_DEFINITION_REPRESENTATION ( #312, #138 ) ;
#397 = CARTESIAN_POINT ( 'NONE',  ( 5.500000000000000000, 6.735557395310442000E-016, 0.5000000000000000000 ) ) ;
#398 = CARTESIAN_POINT ( 'NONE',  ( -15.84632453476728000, -2.005012930814804600, 0.0000000000000000000 ) ) ;
#399 = CARTESIAN_POINT ( 'NONE',  ( -15.84632453476728000, -2.005012930814804600, 0.0000000000000000000 ) ) ;
#400 = PERSON_AND_ORGANIZATION ( #589, #651 ) ;
#401 = CARTESIAN_POINT ( 'NONE',  ( 2.005012930814861000, -15.84632453476727300, 1.000000000000000000 ) ) ;
#402 = B_SPLINE_CURVE_WITH_KNOTS ( 'NONE', 1,
 ( #66, #437 ),
 .UNSPECIFIED., .F., .F.,
 ( 2, 2 ),
 ( 0.0000000000000000000, 0.002000000000000000000 ),
 .UNSPECIFIED. ) ;
#403 = VECTOR ( 'NONE', #618, 0.9999999999999995600 ) ;
#404 = PERSON_AND_ORGANIZATION_ROLE ( 'classification_officer' ) ;
#405 = APPROVAL ( #308, '未指定' ) ;
#406 = CARTESIAN_POINT ( 'NONE',  ( 14.88209376666333000, 2.000000000000137700, 2.000000000000000000 ) ) ;
#407 = TRIMMED_CURVE ( 'NONE', #216, ( PARAMETER_VALUE ( 0.0000000000000000000 ), #2 ), ( PARAMETER_VALUE ( 0.9999999999999997800 ), #377 ), .T., .PARAMETER. ) ;
#408 = CARTESIAN_POINT ( 'NONE',  ( 1.999999999999981800, -15.84632453476723600, 3.000000000000000000 ) ) ;
#409 = DIRECTION ( 'NONE',  ( -0.9563047559630352100, 0.2923717047227372700, 0.0000000000000000000 ) ) ;
#410 = CARTESIAN_POINT ( 'NONE',  ( 1.010333609296566400E-015, -5.500000000000000000, 0.5000000000000000000 ) ) ;
#411 = CARTESIAN_POINT ( 'NONE',  ( 2.000000000000018200, 15.84632453476723600, 1.000000000000000000 ) ) ;
#412 = CARTESIAN_POINT ( 'NONE',  ( 13.88209376666333000, 2.000000000000127000, 2.000000000000000000 ) ) ;
#413 = CIRCLE ( 'NONE', #317, 14.01754525785239600 ) ;
#414 = CARTESIAN_POINT ( 'NONE',  ( 2.000000000000018200, 13.88209376666335100, 2.000000000000000000 ) ) ;
#415 = CC_DESIGN_APPROVAL ( #543, ( #438 ) ) ;
#416 = B_SPLINE_CURVE_WITH_KNOTS ( 'NONE', 1,
 ( #222, #598 ),
 .UNSPECIFIED., .F., .F.,
 ( 2, 2 ),
 ( -0.0000000000000000000, 0.001000000000000000000 ),
 .UNSPECIFIED. ) ;
#417 = CARTESIAN_POINT ( 'NONE',  ( -1.999999999999981800, 13.88209376666335100, 2.000000000000000000 ) ) ;
#418 = CARTESIAN_POINT ( 'NONE',  ( -1.000000000000000000, 1.224646799147353200E-016, 1.000000000000000000 ) ) ;
#419 = LOCAL_TIME ( 18, 33, 23.00000000000000000, #508 ) ;
#420 = B_SPLINE_CURVE_WITH_KNOTS ( 'NONE', 1,
 ( #375, #325 ),
 .UNSPECIFIED., .F., .F.,
 ( 2, 2 ),
 ( -0.0000000000000000000, 0.001000000000000000000 ),
 .UNSPECIFIED. ) ;
#421 = TRIMMED_CURVE ( 'NONE', #588, ( PARAMETER_VALUE ( 0.0000000000000000000 ), #503 ), ( PARAMETER_VALUE ( 1.000000000000000000 ), #398 ), .T., .PARAMETER. ) ;
#422 = B_SPLINE_CURVE_WITH_KNOTS ( 'NONE', 1,
 ( #452, #678 ),
 .UNSPECIFIED., .F., .F.,
 ( 2, 2 ),
 ( 0.01387340975402964700, 0.01584632453476726000 ),
 .UNSPECIFIED. ) ;
#423 = AXIS2_PLACEMENT_3D ( 'NONE', #252, #307, #634 ) ;
#424 = CARTESIAN_POINT ( 'NONE',  ( 15.84632453476721500, 2.000000000000147900, 1.000000000000000000 ) ) ;
#425 = CARTESIAN_POINT ( 'NONE',  ( 4.999999999999999100, 5.000000000000000000, 0.0000000000000000000 ) ) ;
#426 = CARTESIAN_POINT ( 'NONE',  ( -5.000000000000000000, 0.0000000000000000000, 0.0000000000000000000 ) ) ;
#427 = B_SPLINE_CURVE_WITH_KNOTS ( 'NONE', 1,
 ( #318, #478 ),
 .UNSPECIFIED., .F., .F.,
 ( 2, 2 ),
 ( 0.0000000000000000000, 0.004000000000000000100 ),
 .UNSPECIFIED. ) ;
#428 = CARTESIAN_POINT ( 'NONE',  ( 15.84632453476708700, -2.000000000000042600, 0.0000000000000000000 ) ) ;
#429 = CARTESIAN_POINT ( 'NONE',  ( -5.500000000000000000, 0.0000000000000000000, 0.0000000000000000000 ) ) ;
#430 = PERSON_AND_ORGANIZATION ( #589, #651 ) ;
#431 = CARTESIAN_POINT ( 'NONE',  ( 9.184850993605147900E-016, -5.000000000000000000, 0.5000000000000000000 ) ) ;
#432 = B_SPLINE_CURVE_WITH_KNOTS ( 'NONE', 1,
 ( #443, #182 ),
 .UNSPECIFIED., .F., .F.,
 ( 2, 2 ),
 ( 0.0000000000000000000, 0.0009999999999999991500 ),
 .UNSPECIFIED. ) ;
#433 = CARTESIAN_POINT ( 'NONE',  ( 5.499999999999999100, 5.500000000000000000, 0.0000000000000000000 ) ) ;
#434 = CARTESIAN_POINT ( 'NONE',  ( -15.84632453476724300, 1.999999999999962700, 3.000000000000000000 ) ) ;
#435 = CARTESIAN_POINT ( 'NONE',  ( 5.000000000000000900, -4.999999999999999100, 0.5000000000000000000 ) ) ;
#436 = B_SPLINE_CURVE_WITH_KNOTS ( 'NONE', 1,
 ( #344, #239 ),
 .UNSPECIFIED., .F., .F.,
 ( 2, 2 ),
 ( 0.0000000000000000000, 0.002000000000000000000 ),
 .UNSPECIFIED. ) ;
#437 = CARTESIAN_POINT ( 'NONE',  ( 1.999999999999981800, -15.84632453476723600, 3.000000000000000000 ) ) ;
#438 = PRODUCT_DEFINITION_FORMATION_WITH_SPECIFIED_SOURCE ( '任何', '', #544, .NOT_KNOWN. ) ;
#439 = CARTESIAN_POINT ( 'NONE',  ( -13.88209376666335800, 1.999999999999969600, 2.999999999999999600 ) ) ;
#440 = CARTESIAN_POINT ( 'NONE',  ( 13.87340975402965500, 2.005012930814922700, 0.0000000000000000000 ) ) ;
#441 = CARTESIAN_POINT ( 'NONE',  ( 14.88209376666337000, -2.000000000000045300, 1.000000000000000000 ) ) ;
#442 = CARTESIAN_POINT ( 'NONE',  ( -2.000000000000018200, -14.88209376666334900, 2.000000000000000000 ) ) ;
#443 = CARTESIAN_POINT ( 'NONE',  ( 13.88209376666337200, -1.999999999999873000, 2.000000000000000000 ) ) ;
#444 = CARTESIAN_POINT ( 'NONE',  ( -13.87340975402966800, -2.005012930814825500, 1.000000000000000000 ) ) ;
#445 = LINE ( 'NONE', #82, #305 ) ;
#446 = B_SPLINE_CURVE_WITH_KNOTS ( 'NONE', 1,
 ( #338, #73 ),
 .UNSPECIFIED., .F., .F.,
 ( 2, 2 ),
 ( -0.0000000000000000000, 0.001000000000000000000 ),
 .UNSPECIFIED. ) ;
#447 = DIRECTION ( 'NONE',  ( -0.1430359520110552300, 0.9897174932435473000, 0.0000000000000000000 ) ) ;
#448 = CARTESIAN_POINT ( 'NONE',  ( 1.999999999999981800, -13.88209376666335100, 2.000000000000000000 ) ) ;
#449 = B_SPLINE_CURVE_WITH_KNOTS ( 'NONE', 1,
 ( #460, #406 ),
 .UNSPECIFIED., .F., .F.,
 ( 2, 2 ),
 ( 0.0000000000000000000, 0.0009999999999999991500 ),
 .UNSPECIFIED. ) ;
#450 = CARTESIAN_POINT ( 'NONE',  ( -2.000000000000191800, -15.84632453476713100, 0.0000000000000000000 ) ) ;
#451 = AXIS2_PLACEMENT_3D ( 'NONE', #679, #192, #447 ) ;
#452 = CARTESIAN_POINT ( 'NONE',  ( -2.005012930814970700, 13.87340975402964800, 1.000000000000000000 ) ) ;
#453 = CARTESIAN_POINT ( 'NONE',  ( 2.005012930814861000, -15.84632453476727300, 0.0000000000000000000 ) ) ;
#454 = CARTESIAN_POINT ( 'NONE',  ( -2.000000000000018200, -13.88209376666335100, 2.000000000000000000 ) ) ;
#455 = CARTESIAN_POINT ( 'NONE',  ( -13.87413330828054300, 2.000000000000145200, 0.0000000000000000000 ) ) ;
#456 = CARTESIAN_POINT ( 'NONE',  ( 2.000000000000018200, 13.88209376666335100, 2.000000000000000000 ) ) ;
#457 = B_SPLINE_CURVE_WITH_KNOTS ( 'NONE', 1,
 ( #489, #594 ),
 .UNSPECIFIED., .F., .F.,
 ( 2, 2 ),
 ( 0.0000000000000000000, 0.001000000000000000000 ),
 .UNSPECIFIED. ) ;
#458 = CARTESIAN_POINT ( 'NONE',  ( -2.000000000000095900, -13.84632453476724800, 0.0000000000000000000 ) ) ;
#459 = TRIMMED_CURVE ( 'NONE', #569, ( PARAMETER_VALUE ( 0.0000000000000000000 ), #627 ), ( PARAMETER_VALUE ( 1.000000000000000000 ), #37 ), .T., .PARAMETER. ) ;
#460 = CARTESIAN_POINT ( 'NONE',  ( 13.88209376666333000, 2.000000000000127000, 2.000000000000000000 ) ) ;
#461 = TRIMMED_CURVE ( 'NONE', #255, ( PARAMETER_VALUE ( 0.0000000000000000000 ), #607 ), ( PARAMETER_VALUE ( 1.000000000000000000 ), #113 ), .T., .PARAMETER. ) ;
#462 = CARTESIAN_POINT ( 'NONE',  ( 2.000000000000018200, 13.88209376666335100, 2.999999999999999600 ) ) ;
#463 = CARTESIAN_POINT ( 'NONE',  ( 2.005012930814861000, -15.84632453476727300, 0.0000000000000000000 ) ) ;
#464 = CARTESIAN_POINT ( 'NONE',  ( 2.000000000000018200, 14.88209376666334900, 2.000000000000000000 ) ) ;
#465 = VECTOR ( 'NONE', #681, 2.000000000000043500 ) ;
#466 = CARTESIAN_POINT ( 'NONE',  ( -13.88209376666335800, 1.999999999999969600, 2.999999999999999600 ) ) ;
#467 = DIRECTION ( 'NONE',  ( 0.0000000000000000000, 1.000000000000000000, 0.0000000000000000000 ) ) ;
#468 = CARTESIAN_POINT ( 'NONE',  ( 12.37866125011701600, -12.37418934688458600, 0.0000000000000000000 ) ) ;
#469 = CARTESIAN_POINT ( 'NONE',  ( 0.0000000000000000000, 0.0000000000000000000, 0.0000000000000000000 ) ) ;
#470 = B_SPLINE_CURVE_WITH_KNOTS ( 'NONE', 1,
 ( #520, #196 ),
 .UNSPECIFIED., .F., .F.,
 ( 2, 2 ),
 ( 0.0000000000000000000, 0.004000000000000000100 ),
 .UNSPECIFIED. ) ;
#471 = TRIMMED_CURVE ( 'NONE', #413, ( PARAMETER_VALUE ( 0.0000000000000000000 ), #127 ), ( PARAMETER_VALUE ( 1.284101184273162400 ), #241 ), .T., .PARAMETER. ) ;
#472 = CARTESIAN_POINT ( 'NONE',  ( -1.999999999999981800, 15.84632453476725700, 1.000000000000000000 ) ) ;
#473 = CARTESIAN_POINT ( 'NONE',  ( 1.000000000000000000, 0.0000000000000000000, 1.000000000000000000 ) ) ;
#474 = CARTESIAN_POINT ( 'NONE',  ( 1.000000000000000000, -2.449293598294706400E-016, 0.0000000000000000000 ) ) ;
#475 = CARTESIAN_POINT ( 'NONE',  ( 1.000000000000000000, -2.449293598294706400E-016, 1.000000000000000000 ) ) ;
#476 =( BOUNDED_CURVE ( )  B_SPLINE_CURVE ( 2, ( #107, #218, #652 ),
 .UNSPECIFIED., .F., .F. ) 
 B_SPLINE_CURVE_WITH_KNOTS ( ( 3, 3 ),
 ( 0.1435282334099130500, 1.427629417683075700 ),
 .UNSPECIFIED. ) 
 CURVE ( )  GEOMETRIC_REPRESENTATION_ITEM ( )  RATIONAL_B_SPLINE_CURVE ( ( 1.000000000000000000, 0.8008694680895523900, 1.000000000000000000 ) ) 
 REPRESENTATION_ITEM ( '' )  );
#477 = CARTESIAN_POINT ( 'NONE',  ( 2.000000000000018200, 14.88209376666334900, 1.000000000000000000 ) ) ;
#478 = CARTESIAN_POINT ( 'NONE',  ( -2.000000000000018200, -13.88209376666335100, 2.999999999999999600 ) ) ;
#479 = B_SPLINE_CURVE_WITH_KNOTS ( 'NONE', 1,
 ( #382, #492 ),
 .UNSPECIFIED., .F., .F.,
 ( 2, 2 ),
 ( -0.002005012930815423900, -0.002000000000000544700 ),
 .UNSPECIFIED. ) ;
#480 = CARTESIAN_POINT ( 'NONE',  ( -2.005012930814970700, 15.84632453476726100, 1.000000000000000000 ) ) ;
#481 = CARTESIAN_POINT ( 'NONE',  ( -1.999999999999981800, 14.88209376666334900, 2.000000000000000000 ) ) ;
#482 = CARTESIAN_POINT ( 'NONE',  ( 1.999999999999997300, 15.84632453476723600, 0.0000000000000000000 ) ) ;
#483 = LINE ( 'NONE', #672, #403 ) ;
#484 = VECTOR ( 'NONE', #496, 1.999999999999998200 ) ;
#485 = CARTESIAN_POINT ( 'NONE',  ( 2.000000000000000000, 13.84632453476726300, 0.0000000000000000000 ) ) ;
#486 = B_SPLINE_CURVE_WITH_KNOTS ( 'NONE', 1,
 ( #38, #205 ),
 .UNSPECIFIED., .F., .F.,
 ( 2, 2 ),
 ( 0.0000000000000000000, 0.004000000000000000100 ),
 .UNSPECIFIED. ) ;
#487 = CARTESIAN_POINT ( 'NONE',  ( -2.000000000000018200, -13.88209376666335100, 2.999999999999999600 ) ) ;
#488 = DIRECTION ( 'NONE',  ( 1.301042606982622300E-015, -1.000000000000000000, 0.0000000000000000000 ) ) ;
#489 = CARTESIAN_POINT ( 'NONE',  ( 14.88209376666333000, 2.000000000000137700, 2.000000000000000000 ) ) ;
#490 = CARTESIAN_POINT ( 'NONE',  ( -15.84632453476722900, -2.000000000000037300, 1.000000000000000000 ) ) ;
#491 = CARTESIAN_POINT ( 'NONE',  ( -14.88209376666334400, -2.000000000000033800, 1.000000000000000000 ) ) ;
#492 = CARTESIAN_POINT ( 'NONE',  ( 1.999999999999981800, -15.84632453476727100, 1.000000000000000000 ) ) ;
#493 = CARTESIAN_POINT ( 'NONE',  ( -2.005012930814970700, 15.84632453476726100, 0.0000000000000000000 ) ) ;
#494 = CARTESIAN_POINT ( 'NONE',  ( 13.88209376666337200, -1.999999999999873000, 2.999999999999999600 ) ) ;
#495 = B_SPLINE_CURVE_WITH_KNOTS ( 'NONE', 1,
 ( #233, #280 ),
 .UNSPECIFIED., .F., .F.,
 ( 2, 2 ),
 ( -0.0009642307681038858900, 0.0000000000000000000 ),
 .UNSPECIFIED. ) ;
#496 = DIRECTION ( 'NONE',  ( 0.0000000000000000000, 1.000000000000000000, 0.0000000000000000000 ) ) ;
#497 = CARTESIAN_POINT ( 'NONE',  ( 14.88209376666337000, -1.999999999999862600, 1.000000000000000000 ) ) ;
#498 = CC_DESIGN_APPROVAL ( #405, ( #711 ) ) ;
#499 = CARTESIAN_POINT ( 'NONE',  ( -12.37866125011695600, 12.37418934688452400, 1.000000000000000000 ) ) ;
#500 = B_SPLINE_CURVE_WITH_KNOTS ( 'NONE', 1,
 ( #352, #401 ),
 .UNSPECIFIED., .F., .F.,
 ( 2, 2 ),
 ( 0.01387340975402964700, 0.01584632453476726000 ),
 .UNSPECIFIED. ) ;
#501 = DIRECTION ( 'NONE',  ( 0.0000000000000000000, 0.0000000000000000000, 1.000000000000000000 ) ) ;
#502 = CARTESIAN_POINT ( 'NONE',  ( 1.000000000000000000, 0.0000000000000000000, 1.000000000000000000 ) ) ;
#503 = CARTESIAN_POINT ( 'NONE',  ( -13.84632453476728200, -2.005012930814825900, 0.0000000000000000000 ) ) ;
#504 = CARTESIAN_POINT ( 'NONE',  ( 1.999999999999998700, 14.88209376666334900, 1.000000000000000000 ) ) ;
#505 = DIRECTION ( 'NONE',  ( 0.0000000000000000000, 0.0000000000000000000, 1.000000000000000000 ) ) ;
#506 = CARTESIAN_POINT ( 'NONE',  ( 1.999999999999997300, 15.84632453476723600, 3.000000000000000000 ) ) ;
#507 = B_SPLINE_CURVE_WITH_KNOTS ( 'NONE', 1,
 ( #463, #357 ),
 .UNSPECIFIED., .F., .F.,
 ( 2, 2 ),
 ( -0.002005012930815423900, 0.001999999999999628800 ),
 .UNSPECIFIED. ) ;
#508 = COORDINATED_UNIVERSAL_TIME_OFFSET ( 8, 0, .AHEAD. ) ;
#509 = DIRECTION ( 'NONE',  ( 0.1430359520110484300, -0.9897174932435483000, 0.0000000000000000000 ) ) ;
#510 = CARTESIAN_POINT ( 'NONE',  ( -3.367778697655221000E-016, 5.500000000000000000, 0.5000000000000000000 ) ) ;
#511 = CARTESIAN_POINT ( 'NONE',  ( 2.005012930814874700, -13.84632453476727500, 0.0000000000000000000 ) ) ;
#512 = B_SPLINE_CURVE_WITH_KNOTS ( 'NONE', 1,
 ( #164, #277 ),
 .UNSPECIFIED., .F., .F.,
 ( 2, 2 ),
 ( 0.0000000000000000000, 0.0009999999999999991500 ),
 .UNSPECIFIED. ) ;
#513 = CARTESIAN_POINT ( 'NONE',  ( 1.999999999999981800, -13.88209376666335100, 2.000000000000000000 ) ) ;
#514 = DIRECTION ( 'NONE',  ( 0.0000000000000000000, 0.0000000000000000000, -1.000000000000000000 ) ) ;
#515 = B_SPLINE_CURVE_WITH_KNOTS ( 'NONE', 1,
 ( #71, #132 ),
 .UNSPECIFIED., .F., .F.,
 ( 2, 2 ),
 ( -0.0000000000000000000, 0.001000000000000000000 ),
 .UNSPECIFIED. ) ;
#516 = LOCAL_TIME ( 18, 33, 23.00000000000000000, #101 ) ;
#517 = CARTESIAN_POINT ( 'NONE',  ( -15.84632453476724300, 1.999999999999962700, 3.000000000000000000 ) ) ;
#518 = CARTESIAN_POINT ( 'NONE',  ( 1.000000000000000000, 0.0000000000000000000, 0.0000000000000000000 ) ) ;
#519 = APPROVAL_ROLE ( '' ) ;
#520 = CARTESIAN_POINT ( 'NONE',  ( 15.84632453476721500, 2.000000000000147900, 3.000000000000000000 ) ) ;
#521 = CARTESIAN_POINT ( 'NONE',  ( 2.000000000000018200, 14.88209376666334900, 1.000000000000000000 ) ) ;
#522 = B_SPLINE_CURVE_WITH_KNOTS ( 'NONE', 1,
 ( #311, #106 ),
 .UNSPECIFIED., .F., .F.,
 ( 2, 2 ),
 ( -0.002000000000000000000, 0.001000000000000000000 ),
 .UNSPECIFIED. ) ;
#523 = CARTESIAN_POINT ( 'NONE',  ( 2.000000000000000000, 13.87413330828056600, 0.0000000000000000000 ) ) ;
#524 = DIRECTION ( 'NONE',  ( 1.000000000000000000, 0.0000000000000000000, 0.0000000000000000000 ) ) ;
#525 = VECTOR ( 'NONE', #324, 1.999999999999831700 ) ;
#526 = CARTESIAN_POINT ( 'NONE',  ( 13.87340975402965500, 2.005012930814922700, 0.0000000000000000000 ) ) ;
#527 = DESIGN_CONTEXT ( 'detailed design', #575, 'design' ) ;
#528 = CC_DESIGN_PERSON_AND_ORGANIZATION_ASSIGNMENT ( #400, #201, ( #438 ) ) ;
#529 = CARTESIAN_POINT ( 'NONE',  ( -3.061616997868383100E-016, 5.000000000000000000, 0.5000000000000000000 ) ) ;
#530 =( BOUNDED_CURVE ( )  B_SPLINE_CURVE ( 2, ( #426, #710, #108, #425, #322 ),
 .UNSPECIFIED., .F., .T. ) 
 B_SPLINE_CURVE_WITH_KNOTS ( ( 3, 2, 3 ),
 ( 0.0000000000000000000, 1.570796326794896600, 3.141592653589793100 ),
 .UNSPECIFIED. ) 
 CURVE ( )  GEOMETRIC_REPRESENTATION_ITEM ( )  RATIONAL_B_SPLINE_CURVE ( ( 1.000000000000000000, 0.7071067811865475700, 1.000000000000000000, 0.7071067811865475700, 1.000000000000000000 ) ) 
 REPRESENTATION_ITEM ( '' )  );
#531 = CARTESIAN_POINT ( 'NONE',  ( 4.999999999999999100, 5.000000000000000000, 0.5000000000000000000 ) ) ;
#532 = TRIMMED_CURVE ( 'NONE', #97, ( PARAMETER_VALUE ( 0.0000000000000000000 ), #538 ), ( PARAMETER_VALUE ( 1.000000000000000000 ), #275 ), .T., .PARAMETER. ) ;
#533 = CARTESIAN_POINT ( 'NONE',  ( 15.84632453476708700, -2.000000000000042600, 3.000000000000000000 ) ) ;
#534 = CARTESIAN_POINT ( 'NONE',  ( -13.87413330828054300, 2.000000000000144800, 0.0000000000000000000 ) ) ;
#535 = LINE ( 'NONE', #622, #392 ) ;
#536 =( BOUNDED_CURVE ( )  B_SPLINE_CURVE ( 2, ( #146, #468, #249 ),
 .UNSPECIFIED., .F., .F. ) 
 B_SPLINE_CURVE_WITH_KNOTS ( ( 3, 3 ),
 ( 4.855917213794599600, 6.140018398067761400 ),
 .UNSPECIFIED. ) 
 CURVE ( )  GEOMETRIC_REPRESENTATION_ITEM ( )  RATIONAL_B_SPLINE_CURVE ( ( 1.000000000000000000, 0.8008694680895526200, 1.000000000000000000 ) ) 
 REPRESENTATION_ITEM ( '' )  );
#537 = CARTESIAN_POINT ( 'NONE',  ( -13.88209376666334400, -2.000000000000030200, 2.999999999999999600 ) ) ;
#538 = CARTESIAN_POINT ( 'NONE',  ( 13.84632453476727000, 2.005012930814922700, 0.0000000000000000000 ) ) ;
#539 = DIRECTION ( 'NONE',  ( 3.465104369835454900E-015, 1.000000000000000000, 0.0000000000000000000 ) ) ;
#540 = CARTESIAN_POINT ( 'NONE',  ( -13.87413330828054100, 2.000000000000146500, 0.0000000000000000000 ) ) ;
#541 = LOCAL_TIME ( 18, 33, 23.00000000000000000, #154 ) ;
#542 = CARTESIAN_POINT ( 'NONE',  ( 2.000000000000018200, 14.88209376666334900, 2.000000000000000000 ) ) ;
#543 = APPROVAL ( #91, '未指定' ) ;
#544 = PRODUCT ( '电池层下盖', '电池层下盖', '', ( #198 ) ) ;
#545 = B_SPLINE_CURVE_WITH_KNOTS ( 'NONE', 1,
 ( #212, #268 ),
 .UNSPECIFIED., .F., .F.,
 ( 2, 2 ),
 ( 0.0000000000000000000, 0.004000000000000000100 ),
 .UNSPECIFIED. ) ;
#546 = CARTESIAN_POINT ( 'NONE',  ( -13.87340975402966800, -2.005012930814825500, 0.0000000000000000000 ) ) ;
#547 = TRIMMED_CURVE ( 'NONE', #483, ( PARAMETER_VALUE ( 0.0000000000000000000 ), #92 ), ( PARAMETER_VALUE ( 1.000000000000000000 ), #246 ), .T., .PARAMETER. ) ;
#548 = CARTESIAN_POINT ( 'NONE',  ( -2.000000000000144800, -14.88209376666334900, 1.000000000000000000 ) ) ;
#549 = B_SPLINE_CURVE_WITH_KNOTS ( 'NONE', 1,
 ( #237, #517 ),
 .UNSPECIFIED., .F., .F.,
 ( 2, 2 ),
 ( 0.0000000000000000000, 0.004000000000000000100 ),
 .UNSPECIFIED. ) ;
#550 = CARTESIAN_POINT ( 'NONE',  ( 13.87340975402965500, 2.005012930814922700, 1.000000000000000000 ) ) ;
#551 = CARTESIAN_POINT ( 'NONE',  ( 2.005012930814861000, -15.84632453476727300, 0.0000000000000000000 ) ) ;
#552 = CARTESIAN_POINT ( 'NONE',  ( -12.37418934688463400, -12.37866125011697300, 1.000000000000000000 ) ) ;
#553 = CIRCLE ( 'NONE', #263, 14.01754525785239700 ) ;
#554 = DIRECTION ( 'NONE',  ( -1.000000000000000000, 3.551731979081268600E-014, 0.0000000000000000000 ) ) ;
#555 = CARTESIAN_POINT ( 'NONE',  ( 1.999999999999997300, 15.84632453476723600, 0.0000000000000000000 ) ) ;
#556 = CARTESIAN_POINT ( 'NONE',  ( 13.87340975402965500, 2.005012930814922700, 0.0000000000000000000 ) ) ;
#557 = CARTESIAN_POINT ( 'NONE',  ( 0.0000000000000000000, 0.0000000000000000000, 0.0000000000000000000 ) ) ;
#558 = APPROVAL ( #194, '未指定' ) ;
#559 = B_SPLINE_CURVE_WITH_KNOTS ( 'NONE', 1,
 ( #229, #13 ),
 .UNSPECIFIED., .F., .F.,
 ( 2, 2 ),
 ( -0.0009642307681038858900, 2.081668171172168200E-017 ),
 .UNSPECIFIED. ) ;
#560 = DATE_AND_TIME ( #4, #541 ) ;
#561 = TRIMMED_CURVE ( 'NONE', #562, ( PARAMETER_VALUE ( 0.0000000000000000000 ), #616 ), ( PARAMETER_VALUE ( 1.000000000000000000 ), #288 ), .T., .PARAMETER. ) ;
#562 = LINE ( 'NONE', #399, #160 ) ;
#563 = DIRECTION ( 'NONE',  ( 0.9897174932435477400, 0.1430359520110518200, 0.0000000000000000000 ) ) ;
#564 = DATE_AND_TIME ( #583, #653 ) ;
#565 = DIRECTION ( 'NONE',  ( 0.0000000000000000000, -1.000000000000000000, 0.0000000000000000000 ) ) ;
#566 = PERSON_AND_ORGANIZATION_ROLE ( 'design_owner' ) ;
#567 = CARTESIAN_POINT ( 'NONE',  ( 5.500000000000000000, 6.735557395310442000E-016, 0.0000000000000000000 ) ) ;
#568 = B_SPLINE_CURVE_WITH_KNOTS ( 'NONE', 1,
 ( #550, #286 ),
 .UNSPECIFIED., .F., .F.,
 ( 2, 2 ),
 ( 0.01387340975402964700, 0.01584632453476726000 ),
 .UNSPECIFIED. ) ;
#569 = LINE ( 'NONE', #464, #253 ) ;
#570 = CARTESIAN_POINT ( 'NONE',  ( 2.000000000000000000, 13.87413330828056600, 1.000000000000000000 ) ) ;
#571 = LINE ( 'NONE', #189, #610 ) ;
#572 = B_SPLINE_CURVE_WITH_KNOTS ( 'NONE', 1,
 ( #683, #513 ),
 .UNSPECIFIED., .F., .F.,
 ( 2, 2 ),
 ( 0.0000000000000000000, 0.0009999999999999995900 ),
 .UNSPECIFIED. ) ;
#573 = CARTESIAN_POINT ( 'NONE',  ( 2.000000000000018200, 13.88209376666335100, 2.000000000000000000 ) ) ;
#574 = CARTESIAN_POINT ( 'NONE',  ( 1.010333609296566400E-015, -5.500000000000000000, 0.0000000000000000000 ) ) ;
#575 = APPLICATION_CONTEXT ( 'configuration controlled 3d designs of mechanical parts and assemblies' ) ;
#576 = CARTESIAN_POINT ( 'NONE',  ( 5.500000000000000900, -5.499999999999999100, 0.0000000000000000000 ) ) ;
#577 = CARTESIAN_POINT ( 'NONE',  ( 5.500000000000000900, -5.499999999999999100, 0.5000000000000000000 ) ) ;
#578 = B_SPLINE_CURVE_WITH_KNOTS ( 'NONE', 1,
 ( #359, #42 ),
 .UNSPECIFIED., .F., .F.,
 ( 2, 2 ),
 ( -0.002000000000000000000, 0.001000000000000000000 ),
 .UNSPECIFIED. ) ;
#579 = DATE_AND_TIME ( #682, #167 ) ;
#580 = B_SPLINE_CURVE_WITH_KNOTS ( 'NONE', 1,
 ( #48, #105 ),
 .UNSPECIFIED., .F., .F.,
 ( 2, 2 ),
 ( -0.0000000000000000000, 0.0005000000000000000100 ),
 .UNSPECIFIED. ) ;
#581 = LINE ( 'NONE', #30, #296 ) ;
#582 = CARTESIAN_POINT ( 'NONE',  ( -1.000000000000000000, 1.224646799147353200E-016, 0.0000000000000000000 ) ) ;
#583 = CALENDAR_DATE ( 2026, 12, 9 ) ;
#584 = CARTESIAN_POINT ( 'NONE',  ( -1.836970198721029900E-016, -1.000000000000000000, 0.0000000000000000000 ) ) ;
#585 = B_SPLINE_CURVE_WITH_KNOTS ( 'NONE', 1,
 ( #448, #383 ),
 .UNSPECIFIED., .F., .F.,
 ( 2, 2 ),
 ( 0.0000000000000000000, 0.0009999999999999991500 ),
 .UNSPECIFIED. ) ;
#586 = CARTESIAN_POINT ( 'NONE',  ( 1.999999999999981800, -14.88209376666334900, 1.000000000000000000 ) ) ;
#587 = CARTESIAN_POINT ( 'NONE',  ( 0.9999999999999998900, -1.000000000000000200, 0.0000000000000000000 ) ) ;
#588 = LINE ( 'NONE', #140, #69 ) ;
#589 = PERSON ( '未指定', '未指定', '未指定', ('未指定'), ('未指定'), ('未指定') ) ;
#590 = B_SPLINE_CURVE_WITH_KNOTS ( 'NONE', 1,
 ( #491, #220 ),
 .UNSPECIFIED., .F., .F.,
 ( 2, 2 ),
 ( 0.0000000000000000000, 0.004000000000000178800 ),
 .UNSPECIFIED. ) ;
#591 = TRIMMED_CURVE ( 'NONE', #445, ( PARAMETER_VALUE ( 0.0000000000000000000 ), #614 ), ( PARAMETER_VALUE ( 1.000000000000000000 ), #346 ), .T., .PARAMETER. ) ;
#592 = B_SPLINE_CURVE_WITH_KNOTS ( 'NONE', 1,
 ( #444, #388 ),
 .UNSPECIFIED., .F., .F.,
 ( 2, 2 ),
 ( 0.01387340975402964700, 0.01584632453476726000 ),
 .UNSPECIFIED. ) ;
#593 = AXIS2_PLACEMENT_3D ( 'NONE', #144, #248, #636 ) ;
#594 = CARTESIAN_POINT ( 'NONE',  ( 14.88209376666333000, 2.000000000000137700, 1.000000000000000000 ) ) ;
#595 = COORDINATED_UNIVERSAL_TIME_OFFSET ( 8, 0, .AHEAD. ) ;
#596 = CARTESIAN_POINT ( 'NONE',  ( 13.87413330828055500, -2.000000000000056000, 1.000000000000000000 ) ) ;
#597 = LINE ( 'NONE', #234, #5 ) ;
#598 = CARTESIAN_POINT ( 'NONE',  ( -2.005012930814970700, 13.87340975402964800, 0.0000000000000000000 ) ) ;
#599 = CC_DESIGN_SECURITY_CLASSIFICATION ( #330, ( #438 ) ) ;
#600 = CARTESIAN_POINT ( 'NONE',  ( 13.84632453476727000, 2.005012930814922700, 0.0000000000000000000 ) ) ;
#601 = CARTESIAN_POINT ( 'NONE',  ( -13.88209376666334400, -2.000000000000030200, 2.000000000000000000 ) ) ;
#602 = B_SPLINE_CURVE_WITH_KNOTS ( 'NONE', 1,
 ( #533, #217 ),
 .UNSPECIFIED., .F., .F.,
 ( 2, 2 ),
 ( -0.002000000000000000000, 0.001000000000000000000 ),
 .UNSPECIFIED. ) ;
#603 = CARTESIAN_POINT ( 'NONE',  ( -2.005012930814970700, 15.84632453476726100, 0.0000000000000000000 ) ) ;
#604 = TRIMMED_CURVE ( 'NONE', #571, ( PARAMETER_VALUE ( 0.0000000000000000000 ), #551 ), ( PARAMETER_VALUE ( 1.000000000000000000 ), #450 ), .T., .PARAMETER. ) ;
#605 = CARTESIAN_POINT ( 'NONE',  ( -2.000000000000018200, -15.84632453476723600, 3.000000000000000000 ) ) ;
#606 = CARTESIAN_POINT ( 'NONE',  ( -0.9999999999999998900, 1.000000000000000000, 0.0000000000000000000 ) ) ;
#607 = CARTESIAN_POINT ( 'NONE',  ( 2.000000000000000000, 13.84632453476726300, 0.0000000000000000000 ) ) ;
#608 = CARTESIAN_POINT ( 'NONE',  ( -14.88209376666334400, -2.000000000000033800, 2.000000000000000000 ) ) ;
#609 = B_SPLINE_CURVE_WITH_KNOTS ( 'NONE', 1,
 ( #119, #12 ),
 .UNSPECIFIED., .F., .F.,
 ( 2, 2 ),
 ( 0.0000000000000000000, 0.004000000000000182200 ),
 .UNSPECIFIED. ) ;
#610 = VECTOR ( 'NONE', #554, 4.005012930815052400 ) ;
#611 = CARTESIAN_POINT ( 'NONE',  ( 1.999999999999997300, 15.84632453476723600, 0.0000000000000000000 ) ) ;
#612 = CARTESIAN_POINT ( 'NONE',  ( -2.000000000000097300, -13.87413330828055000, 1.000000000000000000 ) ) ;
#613 = DATE_AND_TIME ( #701, #419 ) ;
#614 = CARTESIAN_POINT ( 'NONE',  ( -13.84632453476724100, 2.000000000000144800, 0.0000000000000000000 ) ) ;
#615 = CARTESIAN_POINT ( 'NONE',  ( -1.999999999999981800, 15.84632453476723600, 3.000000000000000000 ) ) ;
#616 = CARTESIAN_POINT ( 'NONE',  ( -15.84632453476728000, -2.005012930814804600, 0.0000000000000000000 ) ) ;
#617 = CARTESIAN_POINT ( 'NONE',  ( -15.84632453476728000, -2.005012930814804600, 1.000000000000000000 ) ) ;
#618 = DIRECTION ( 'NONE',  ( 0.0000000000000000000, 0.0000000000000000000, -1.000000000000000000 ) ) ;
#619 = VECTOR ( 'NONE', #339, 1.999999999999883900 ) ;
#620 = B_SPLINE_CURVE_WITH_KNOTS ( 'NONE', 1,
 ( #254, #472 ),
 .UNSPECIFIED., .F., .F.,
 ( 2, 2 ),
 ( -0.002005012930815067000, -0.002000000000000078100 ),
 .UNSPECIFIED. ) ;
#621 = CARTESIAN_POINT ( 'NONE',  ( 15.84632453476725700, -1.999999999999852100, 3.000000000000000000 ) ) ;
#622 = CARTESIAN_POINT ( 'NONE',  ( 2.000000000000018200, 15.84632453476723600, 1.000000000000000000 ) ) ;
#623 = CARTESIAN_POINT ( 'NONE',  ( 2.000000000000018200, 13.88209376666335100, 2.000000000000000000 ) ) ;
#624 = CARTESIAN_POINT ( 'NONE',  ( -2.000000000000191800, -15.84632453476713100, 0.0000000000000000000 ) ) ;
#625 = CARTESIAN_POINT ( 'NONE',  ( 13.88209376666337200, -1.999999999999872500, 2.999999999999999600 ) ) ;
#626 = CARTESIAN_POINT ( 'NONE',  ( -1.999999999999981800, 13.88209376666335100, 2.999999999999999600 ) ) ;
#627 = CARTESIAN_POINT ( 'NONE',  ( 2.000000000000018200, 14.88209376666334900, 2.000000000000000000 ) ) ;
#628 = LINE ( 'NONE', #244, #465 ) ;
#629 = B_SPLINE_CURVE_WITH_KNOTS ( 'NONE', 1,
 ( #166, #289 ),
 .UNSPECIFIED., .F., .F.,
 ( 2, 2 ),
 ( 0.0000000000000000000, 0.001000000000000000000 ),
 .UNSPECIFIED. ) ;
#630 = CARTESIAN_POINT ( 'NONE',  ( -5.499999999999999100, -5.500000000000000900, 0.0000000000000000000 ) ) ;
#631 =( BOUNDED_CURVE ( )  B_SPLINE_CURVE ( 2, ( #118, #173, #667, #606, #282 ),
 .UNSPECIFIED., .F., .T. ) 
 B_SPLINE_CURVE_WITH_KNOTS ( ( 3, 2, 3 ),
 ( 0.0000000000000000000, 1.570796326794896600, 3.141592653589793100 ),
 .UNSPECIFIED. ) 
 CURVE ( )  GEOMETRIC_REPRESENTATION_ITEM ( )  RATIONAL_B_SPLINE_CURVE ( ( 1.000000000000000000, 0.7071067811865475700, 1.000000000000000000, 0.7071067811865475700, 1.000000000000000000 ) ) 
 REPRESENTATION_ITEM ( '' )  );
#632 = B_SPLINE_CURVE_WITH_KNOTS ( 'NONE', 1,
 ( #142, #623 ),
 .UNSPECIFIED., .F., .F.,
 ( 2, 2 ),
 ( 0.0000000000000000000, 0.004000000000000000100 ),
 .UNSPECIFIED. ) ;
#633 = CARTESIAN_POINT ( 'NONE',  ( -13.87413330828054300, 2.000000000000144800, 1.000000000000000000 ) ) ;
#634 = DIRECTION ( 'NONE',  ( -0.9563047559630353200, 0.2923717047227373200, 0.0000000000000000000 ) ) ;
#635 = CARTESIAN_POINT ( 'NONE',  ( -15.84632453476728000, -2.005012930814804600, 1.000000000000000000 ) ) ;
#636 = DIRECTION ( 'NONE',  ( 0.9563047559630354400, 0.2923717047227373200, 0.0000000000000000000 ) ) ;
#637 = PERSON_AND_ORGANIZATION ( #589, #651 ) ;
#638 = B_SPLINE_CURVE_WITH_KNOTS ( 'NONE', 1,
 ( #481, #114 ),
 .UNSPECIFIED., .F., .F.,
 ( 2, 2 ),
 ( 0.0000000000000000000, 0.004000000000000000100 ),
 .UNSPECIFIED. ) ;
#639 = TRIMMED_CURVE ( 'NONE', #16, ( PARAMETER_VALUE ( 0.0000000000000000000 ), #395 ), ( PARAMETER_VALUE ( 1.284101184273162700 ), #76 ), .T., .PARAMETER. ) ;
#640 = CARTESIAN_POINT ( 'NONE',  ( 13.88209376666333000, 2.000000000000127000, 2.000000000000000000 ) ) ;
#641 = CARTESIAN_POINT ( 'NONE',  ( 5.000000000000000900, -4.999999999999999100, 0.0000000000000000000 ) ) ;
#642 =( BOUNDED_CURVE ( )  B_SPLINE_CURVE ( 2, ( #384, #435, #431, #657, #337 ),
 .UNSPECIFIED., .F., .T. ) 
 B_SPLINE_CURVE_WITH_KNOTS ( ( 3, 2, 3 ),
 ( 3.141592653589793100, 4.712388980384689700, 6.283185307179586200 ),
 .UNSPECIFIED. ) 
 CURVE ( )  GEOMETRIC_REPRESENTATION_ITEM ( )  RATIONAL_B_SPLINE_CURVE ( ( 1.000000000000000000, 0.7071067811865475700, 1.000000000000000000, 0.7071067811865475700, 1.000000000000000000 ) ) 
 REPRESENTATION_ITEM ( '' )  );
#643 = B_SPLINE_CURVE_WITH_KNOTS ( 'NONE', 1,
 ( #11, #494 ),
 .UNSPECIFIED., .F., .F.,
 ( 2, 2 ),
 ( 0.0000000000000000000, 0.004000000000000000100 ),
 .UNSPECIFIED. ) ;
#644 = CARTESIAN_POINT ( 'NONE',  ( 13.88209376666337200, -1.999999999999873000, 2.000000000000000000 ) ) ;
#645 = CARTESIAN_POINT ( 'NONE',  ( -14.88209376666334400, -2.000000000000033800, 2.000000000000000000 ) ) ;
#646 = PERSON_AND_ORGANIZATION ( #589, #651 ) ;
#647 = CARTESIAN_POINT ( 'NONE',  ( -5.000000000000000000, 4.999999999999999100, 0.5000000000000000000 ) ) ;
#648 = CC_DESIGN_PERSON_AND_ORGANIZATION_ASSIGNMENT ( #116, #566, ( #544 ) ) ;
#649 =( BOUNDED_CURVE ( )  B_SPLINE_CURVE ( 2, ( #153, #577, #410, #94, #260 ),
 .UNSPECIFIED., .F., .T. ) 
 B_SPLINE_CURVE_WITH_KNOTS ( ( 3, 2, 3 ),
 ( 3.141592653589793100, 4.712388980384689700, 6.283185307179586200 ),
 .UNSPECIFIED. ) 
 CURVE ( )  GEOMETRIC_REPRESENTATION_ITEM ( )  RATIONAL_B_SPLINE_CURVE ( ( 1.000000000000000000, 0.7071067811865475700, 1.000000000000000000, 0.7071067811865475700, 1.000000000000000000 ) ) 
 REPRESENTATION_ITEM ( '' )  );
#650 = CARTESIAN_POINT ( 'NONE',  ( 2.000000000000000000, 13.87413330828056600, 0.0000000000000000000 ) ) ;
#651 = ORGANIZATION ( '未指定', '未指定', '' ) ;
#652 = CARTESIAN_POINT ( 'NONE',  ( 1.999999999999998200, 13.87413330828056200, 0.0000000000000000000 ) ) ;
#653 = LOCAL_TIME ( 18, 33, 23.00000000000000000, #265 ) ;
#654 = CARTESIAN_POINT ( 'NONE',  ( 15.84632453476708700, -2.000000000000042600, 0.0000000000000000000 ) ) ;
#655 = CARTESIAN_POINT ( 'NONE',  ( 2.000000000000018200, 15.84632453476723600, 3.000000000000000000 ) ) ;
#656 = B_SPLINE_CURVE_WITH_KNOTS ( 'NONE', 1,
 ( #172, #482 ),
 .UNSPECIFIED., .F., .F.,
 ( 2, 2 ),
 ( -0.002005012930815067000, 0.001999999999999901200 ),
 .UNSPECIFIED. ) ;
#657 = CARTESIAN_POINT ( 'NONE',  ( -4.999999999999999100, -5.000000000000000900, 0.5000000000000000000 ) ) ;
#658 = TRIMMED_CURVE ( 'NONE', #372, ( PARAMETER_VALUE ( 0.0000000000000000000 ), #236 ), ( PARAMETER_VALUE ( 1.000000000000000000 ), #290 ), .T., .PARAMETER. ) ;
#659 = CARTESIAN_POINT ( 'NONE',  ( -3.367778697655221000E-016, 5.500000000000000000, 0.0000000000000000000 ) ) ;
#660 = CARTESIAN_POINT ( 'NONE',  ( -13.87413330828054100, 2.000000000000146500, 1.000000000000000000 ) ) ;
#661 = CARTESIAN_POINT ( 'NONE',  ( 2.005012930814876500, -13.87340975402965900, 1.000000000000000000 ) ) ;
#662 = CIRCLE ( 'NONE', #593, 1.000000000000000000 ) ;
#663 = CARTESIAN_POINT ( 'NONE',  ( 1.999999999999981800, -13.88209376666335100, 2.999999999999999600 ) ) ;
#664 = TRIMMED_CURVE ( 'NONE', #80, ( PARAMETER_VALUE ( 0.0000000000000000000 ), #279 ), ( PARAMETER_VALUE ( 1.000000000000000000 ), #223 ), .T., .PARAMETER. ) ;
#665 = CARTESIAN_POINT ( 'NONE',  ( 2.000000000000018200, 14.88209376666334900, 2.000000000000000000 ) ) ;
#666 = CARTESIAN_POINT ( 'NONE',  ( 1.000000000000000000, 0.9999999999999998900, 1.000000000000000000 ) ) ;
#667 = CARTESIAN_POINT ( 'NONE',  ( 6.123233995736766000E-017, 1.000000000000000000, 0.0000000000000000000 ) ) ;
#668 = CARTESIAN_POINT ( 'NONE',  ( 15.84632453476726800, 2.005012930814915200, 0.0000000000000000000 ) ) ;
#669 = CARTESIAN_POINT ( 'NONE',  ( -1.000000000000000000, 1.224646799147353200E-016, 1.000000000000000000 ) ) ;
#670 = CARTESIAN_POINT ( 'NONE',  ( -2.005012930814970700, 13.87340975402965000, 0.0000000000000000000 ) ) ;
#671 = CARTESIAN_POINT ( 'NONE',  ( 2.005012930814861000, -15.84632453476727300, 0.0000000000000000000 ) ) ;
#672 = CARTESIAN_POINT ( 'NONE',  ( 2.000000000000018200, 13.88209376666335100, 2.999999999999999600 ) ) ;
#673 = B_SPLINE_CURVE_WITH_KNOTS ( 'NONE', 1,
 ( #655, #709 ),
 .UNSPECIFIED., .F., .F.,
 ( 2, 2 ),
 ( 0.0000000000000000000, 0.001964230768103885200 ),
 .UNSPECIFIED. ) ;
#674 = AXIS2_PLACEMENT_3D ( 'NONE', #256, #514, #409 ) ;
#675 = CARTESIAN_POINT ( 'NONE',  ( -15.84632453476728000, -2.005012930814804600, 0.0000000000000000000 ) ) ;
#676 = DIRECTION ( 'NONE',  ( -6.938893903907234700E-015, -1.000000000000000000, 0.0000000000000000000 ) ) ;
#677 =( BOUNDED_CURVE ( )  B_SPLINE_CURVE ( 2, ( #171, #499, #660 ),
 .UNSPECIFIED., .F., .T. ) 
 B_SPLINE_CURVE_WITH_KNOTS ( ( 3, 3 ),
 ( 1.714324560204813200, 2.998425744477961600 ),
 .UNSPECIFIED. ) 
 CURVE ( )  GEOMETRIC_REPRESENTATION_ITEM ( )  RATIONAL_B_SPLINE_CURVE ( ( 1.000000000000000000, 0.8008694680895566100, 1.000000000000000000 ) ) 
 REPRESENTATION_ITEM ( '' )  );
#678 = CARTESIAN_POINT ( 'NONE',  ( -2.005012930814970700, 15.84632453476726100, 1.000000000000000000 ) ) ;
#679 = CARTESIAN_POINT ( 'NONE',  ( 0.0000000000000000000, 0.0000000000000000000, 0.0000000000000000000 ) ) ;
#680 = CARTESIAN_POINT ( 'NONE',  ( -5.500000000000000000, 5.499999999999999100, 0.5000000000000000000 ) ) ;
#681 = DIRECTION ( 'NONE',  ( 1.000000000000000000, 2.168404344970961800E-016, 0.0000000000000000000 ) ) ;
#682 = CALENDAR_DATE ( 2026, 12, 9 ) ;
#683 = CARTESIAN_POINT ( 'NONE',  ( 1.999999999999981800, -13.88209376666335100, 2.999999999999999600 ) ) ;
#684 = B_SPLINE_CURVE_WITH_KNOTS ( 'NONE', 1,
 ( #60, #429 ),
 .UNSPECIFIED., .F., .F.,
 ( 2, 2 ),
 ( -0.0000000000000000000, 0.0005000000000000000100 ),
 .UNSPECIFIED. ) ;
#685 = TRIMMED_CURVE ( 'NONE', #553, ( PARAMETER_VALUE ( 0.0000000000000000000 ), #556 ), ( PARAMETER_VALUE ( 1.284101184273162700 ), #136 ), .T., .PARAMETER. ) ;
#686 = CARTESIAN_POINT ( 'NONE',  ( 13.87413330828055700, -2.000000000000048000, 0.0000000000000000000 ) ) ;
#687 = APPROVAL_ROLE ( '' ) ;
#688 = CC_DESIGN_DATE_AND_TIME_ASSIGNMENT ( #579, #95, ( #711 ) ) ;
#689 = VECTOR ( 'NONE', #565, 0.9642307681038859700 ) ;
#690 =( NAMED_UNIT ( * ) SI_UNIT ( $, .STERADIAN. ) SOLID_ANGLE_UNIT ( ) );
#691 = CIRCLE ( 'NONE', #451, 14.01754525785239900 ) ;
#692 = CARTESIAN_POINT ( 'NONE',  ( -14.88209376666335600, 2.000000000000144800, 1.000000000000000000 ) ) ;
#693 = APPROVAL_ROLE ( '' ) ;
#694 = CARTESIAN_POINT ( 'NONE',  ( -14.88209376666335600, 1.999999999999966200, 2.000000000000000000 ) ) ;
#695 = B_SPLINE_CURVE_WITH_KNOTS ( 'NONE', 1,
 ( #665, #65 ),
 .UNSPECIFIED., .F., .F.,
 ( 2, 2 ),
 ( 0.0000000000000000000, 0.001000000000000000000 ),
 .UNSPECIFIED. ) ;
#696 = TRIMMED_CURVE ( 'NONE', #168, ( PARAMETER_VALUE ( 0.0000000000000000000 ), #83 ), ( PARAMETER_VALUE ( 0.9999999999999994400 ), #342 ), .T., .PARAMETER. ) ;
#697 = PERSON_AND_ORGANIZATION ( #589, #651 ) ;
#698 = CARTESIAN_POINT ( 'NONE',  ( 0.9999999999999998900, -1.000000000000000200, 1.000000000000000000 ) ) ;
#699 = APPROVAL_PERSON_ORGANIZATION ( #637, #405, #687 ) ;
#700 = CARTESIAN_POINT ( 'NONE',  ( 5.000000000000000000, 6.123233995736766300E-016, 0.5000000000000000000 ) ) ;
#701 = CALENDAR_DATE ( 2026, 12, 9 ) ;
#702 = CC_DESIGN_PERSON_AND_ORGANIZATION_ASSIGNMENT ( #697, #39, ( #438 ) ) ;
#703 = CARTESIAN_POINT ( 'NONE',  ( 5.000000000000000000, 6.123233995736766300E-016, 0.0000000000000000000 ) ) ;
#704 = B_SPLINE_CURVE_WITH_KNOTS ( 'NONE', 1,
 ( #15, #612 ),
 .UNSPECIFIED., .F., .F.,
 ( 2, 2 ),
 ( -0.01488209376666344500, -0.01387413330828064600 ),
 .UNSPECIFIED. ) ;
#705 = CARTESIAN_POINT ( 'NONE',  ( -1.000000000000000200, -0.9999999999999998900, 0.0000000000000000000 ) ) ;
#706 =( BOUNDED_CURVE ( )  B_SPLINE_CURVE ( 2, ( #21, #680, #510, #134, #397 ),
 .UNSPECIFIED., .F., .F. ) 
 B_SPLINE_CURVE_WITH_KNOTS ( ( 3, 2, 3 ),
 ( 0.0000000000000000000, 1.570796326794896600, 3.141592653589793100 ),
 .UNSPECIFIED. ) 
 CURVE ( )  GEOMETRIC_REPRESENTATION_ITEM ( )  RATIONAL_B_SPLINE_CURVE ( ( 1.000000000000000000, 0.7071067811865475700, 1.000000000000000000, 0.7071067811865475700, 1.000000000000000000 ) ) 
 REPRESENTATION_ITEM ( '' )  );
#707 = B_SPLINE_CURVE_WITH_KNOTS ( 'NONE', 1,
 ( #299, #29 ),
 .UNSPECIFIED., .F., .F.,
 ( 2, 2 ),
 ( 0.003000000000000000100, 0.004000000000000000100 ),
 .UNSPECIFIED. ) ;
#708 = VECTOR ( 'NONE', #332, 4.005012930814957400 ) ;
#709 = CARTESIAN_POINT ( 'NONE',  ( 2.000000000000018200, 13.88209376666335100, 2.999999999999999600 ) ) ;
#710 = CARTESIAN_POINT ( 'NONE',  ( -5.000000000000000000, 4.999999999999999100, 0.0000000000000000000 ) ) ;
#711 = PRODUCT_DEFINITION ( '未知', '', #438, #527 ) ;
ENDSEC;
END-ISO-10303-21;
