ISO-10303-21;
HEADER;
FILE_DESCRIPTION (( 'STEP AP203' ),
    '1' );
FILE_NAME ('电池层上盖.STEP',
    '2026-09-12T10:33:18',
    ( '' ),
    ( '' ),
    'SwSTEP 2.0',
    'SolidWorks 2016',
    '' );
FILE_SCHEMA (( 'CONFIG_CONTROL_DESIGN' ));
ENDSEC;

DATA;
#1 = CARTESIAN_POINT ( 'NONE',  ( -2.571758278209441300E-015, -14.00000000000000000, 0.0000000000000000000 ) ) ;
#2 = CARTESIAN_POINT ( 'NONE',  ( 13.00000000000000200, 3.184081677783118600E-015, 1.000000000000000900 ) ) ;
#3 = CC_DESIGN_DATE_AND_TIME_ASSIGNMENT ( #325, #202, ( #210 ) ) ;
#4 =( BOUNDED_CURVE ( )  B_SPLINE_CURVE ( 2, ( #47, #107, #43 ),
 .UNSPECIFIED., .F., .T. ) 
 B_SPLINE_CURVE_WITH_KNOTS ( ( 3, 3 ),
 ( 4.569041411479327400, 4.855736549290058200 ),
 .UNSPECIFIED. ) 
 CURVE ( )  GEOMETRIC_REPRESENTATION_ITEM ( )  RATIONAL_B_SPLINE_CURVE ( ( 1.000000000000000000, 0.9897433186107870200, 1.000000000000000000 ) ) 
 REPRESENTATION_ITEM ( '' )  );
#5 = PERSON_AND_ORGANIZATION ( #45, #206 ) ;
#6 = DIRECTION ( 'NONE',  ( 0.0000000000000000000, 0.0000000000000000000, -1.000000000000000000 ) ) ;
#7 = CARTESIAN_POINT ( 'NONE',  ( -1.000000000000000000, 1.224646799147353200E-016, 0.0000000000000000000 ) ) ;
#8 = CARTESIAN_POINT ( 'NONE',  ( 13.99999999999999800, -14.00000000000000400, 9.500000000000001800 ) ) ;
#9 = CARTESIAN_POINT ( 'NONE',  ( 0.0000000000000000000, 2.000000000000000400, 7.500000000000000900 ) ) ;
#10 = CARTESIAN_POINT ( 'NONE',  ( 13.00000000000000200, 1.592040838891559300E-015, 9.500000000000001800 ) ) ;
#11 = CARTESIAN_POINT ( 'NONE',  ( 0.9999999999999998900, 1.000000000000000200, 1.000000000000000000 ) ) ;
#12 = DIRECTION ( 'NONE',  ( 0.9563047559630353200, 0.2923717047227373200, 0.0000000000000000000 ) ) ;
#13 = APPROVAL_STATUS ( 'not_yet_approved' ) ;
#14 = CARTESIAN_POINT ( 'NONE',  ( 0.0000000000000000000, -2.000000000000000400, 8.500000000000001800 ) ) ;
#15 = TRIMMED_CURVE ( 'NONE', #277, ( PARAMETER_VALUE ( 0.0000000000000000000 ), #197 ), ( PARAMETER_VALUE ( 0.9999999999999991100 ), #9 ), .T., .PARAMETER. ) ;
#16 =( BOUNDED_CURVE ( )  B_SPLINE_CURVE ( 2, ( #190, #67, #39, #292, #261 ),
 .UNSPECIFIED., .F., .F. ) 
 B_SPLINE_CURVE_WITH_KNOTS ( ( 3, 2, 3 ),
 ( 0.0000000000000000000, 1.570796326794896600, 3.141592653589793100 ),
 .UNSPECIFIED. ) 
 CURVE ( )  GEOMETRIC_REPRESENTATION_ITEM ( )  RATIONAL_B_SPLINE_CURVE ( ( 1.000000000000000000, 0.7071067811865475700, 1.000000000000000000, 0.7071067811865475700, 1.000000000000000000 ) ) 
 REPRESENTATION_ITEM ( '' )  );
#17 = CARTESIAN_POINT ( 'NONE',  ( -12.84523257866512900, 2.000000000000000400, 7.500000000000000900 ) ) ;
#18 = DIRECTION ( 'NONE',  ( 1.000000000000000000, 0.0000000000000000000, 0.0000000000000000000 ) ) ;
#19 = APPLICATION_CONTEXT ( 'configuration controlled 3d designs of mechanical parts and assemblies' ) ;
#20 = CIRCLE ( 'NONE', #376, 14.00000000000000000 ) ;
#21 = PERSON_AND_ORGANIZATION_ROLE ( 'design_owner' ) ;
#22 = B_SPLINE_CURVE_WITH_KNOTS ( 'NONE', 1,
 ( #328, #382 ),
 .UNSPECIFIED., .F., .F.,
 ( 2, 2 ),
 ( 0.002000000000000000900, 0.008500000000000000600 ),
 .UNSPECIFIED. ) ;
#23 = CARTESIAN_POINT ( 'NONE',  ( -12.84523257866512900, 2.000000000000002200, 8.500000000000001800 ) ) ;
#24 = CARTESIAN_POINT ( 'NONE',  ( 2.000000000000045700, -12.84523257866512400, 7.500000000000000900 ) ) ;
#25 =( BOUNDED_CURVE ( )  B_SPLINE_CURVE ( 2, ( #311, #386, #92 ),
 .UNSPECIFIED., .F., .T. ) 
 B_SPLINE_CURVE_WITH_KNOTS ( ( 3, 3 ),
 ( 3.141592653589793100, 3.284940222495158500 ),
 .UNSPECIFIED. ) 
 CURVE ( )  GEOMETRIC_REPRESENTATION_ITEM ( )  RATIONAL_B_SPLINE_CURVE ( ( 1.000000000000000000, 0.9974325337111245000, 1.000000000000000000 ) ) 
 REPRESENTATION_ITEM ( '' )  );
#26 = CARTESIAN_POINT ( 'NONE',  ( -1.836970198721029900E-016, -1.000000000000000000, 1.000000000000000000 ) ) ;
#27 = CARTESIAN_POINT ( 'NONE',  ( 1.999999999999855200, 13.85640646055104100, 7.500000000000000900 ) ) ;
#28 = CARTESIAN_POINT ( 'NONE',  ( 12.84523257866513100, 2.000000000000000400, 8.500000000000001800 ) ) ;
#29 = CARTESIAN_POINT ( 'NONE',  ( -13.00000000000000200, 1.592040838891559300E-015, 9.500000000000001800 ) ) ;
#30 = B_SPLINE_CURVE_WITH_KNOTS ( 'NONE', 1,
 ( #120, #422 ),
 .UNSPECIFIED., .F., .F.,
 ( 2, 2 ),
 ( 0.0001435935394490297400, 0.001154767421334919300 ),
 .UNSPECIFIED. ) ;
#31 = LOCAL_TIME ( 18, 33, 18.00000000000000000, #118 ) ;
#32 = TRIMMED_CURVE ( 'NONE', #321, ( PARAMETER_VALUE ( 0.0000000000000000000 ), #54 ), ( PARAMETER_VALUE ( 1.000000000000000000 ), #240 ), .T., .PARAMETER. ) ;
#33 =( BOUNDED_CURVE ( )  B_SPLINE_CURVE ( 2, ( #104, #335, #168, #258, #396 ),
 .UNSPECIFIED., .F., .T. ) 
 B_SPLINE_CURVE_WITH_KNOTS ( ( 3, 2, 3 ),
 ( 1.224646799147353200E-016, 1.570796326794896800, 3.141592653589793100 ),
 .UNSPECIFIED. ) 
 CURVE ( )  GEOMETRIC_REPRESENTATION_ITEM ( )  RATIONAL_B_SPLINE_CURVE ( ( 1.000000000000000000, 0.7071067811865475700, 1.000000000000000000, 0.7071067811865475700, 1.000000000000000000 ) ) 
 REPRESENTATION_ITEM ( '' )  );
#34 = CARTESIAN_POINT ( 'NONE',  ( 13.00000000000000200, -3.184081677783118600E-015, 9.500000000000001800 ) ) ;
#35 = CARTESIAN_POINT ( 'NONE',  ( 13.99999999999999800, 1.005154776142878700, 7.500000000000000900 ) ) ;
#36 =( BOUNDED_CURVE ( )  B_SPLINE_CURVE ( 2, ( #122, #388, #61, #358, #29 ),
 .UNSPECIFIED., .F., .F. ) 
 B_SPLINE_CURVE_WITH_KNOTS ( ( 3, 2, 3 ),
 ( 1.224646799147353200E-016, 1.570796326794896800, 3.141592653589793100 ),
 .UNSPECIFIED. ) 
 CURVE ( )  GEOMETRIC_REPRESENTATION_ITEM ( )  RATIONAL_B_SPLINE_CURVE ( ( 1.000000000000000000, 0.7071067811865475700, 1.000000000000000000, 0.7071067811865475700, 1.000000000000000000 ) ) 
 REPRESENTATION_ITEM ( '' )  );
#37 = CARTESIAN_POINT ( 'NONE',  ( 13.85640646055101900, 2.000000000000000400, 8.500000000000001800 ) ) ;
#38 =( BOUNDED_CURVE ( )  B_SPLINE_CURVE ( 2, ( #267, #234, #366, #8, #407 ),
 .UNSPECIFIED., .F., .F. ) 
 B_SPLINE_CURVE_WITH_KNOTS ( ( 3, 2, 3 ),
 ( 3.141592653589793100, 4.712388980384689700, 6.283185307179586200 ),
 .UNSPECIFIED. ) 
 CURVE ( )  GEOMETRIC_REPRESENTATION_ITEM ( )  RATIONAL_B_SPLINE_CURVE ( ( 1.000000000000000000, 0.7071067811865475700, 1.000000000000000000, 0.7071067811865475700, 1.000000000000000000 ) ) 
 REPRESENTATION_ITEM ( '' )  );
#39 = CARTESIAN_POINT ( 'NONE',  ( 7.960204194457796500E-016, -13.00000000000000200, 1.000000000000000900 ) ) ;
#40 = CARTESIAN_POINT ( 'NONE',  ( 0.0000000000000000000, 2.000000000000000400, 8.500000000000001800 ) ) ;
#41 = B_SPLINE_CURVE_WITH_KNOTS ( 'NONE', 1,
 ( #149, #117 ),
 .UNSPECIFIED., .F., .F.,
 ( 2, 2 ),
 ( -0.0000000000000000000, 0.0009999999999999991500 ),
 .UNSPECIFIED. ) ;
#42 = CARTESIAN_POINT ( 'NONE',  ( -1.836970198721029900E-016, -1.000000000000000000, 0.0000000000000000000 ) ) ;
#43 = CARTESIAN_POINT ( 'NONE',  ( 2.000000000000040900, -13.85640646055101200, 8.500000000000001800 ) ) ;
#44 = CARTESIAN_POINT ( 'NONE',  ( -13.00000000000000500, 13.00000000000000200, 1.000000000000000900 ) ) ;
#45 = PERSON ( '未指定', '未指定', '未指定', ('未指定'), ('未指定'), ('未指定') ) ;
#46 = CARTESIAN_POINT ( 'NONE',  ( -1.999999999999951800, -13.85640646055102800, 8.500000000000001800 ) ) ;
#47 = CARTESIAN_POINT ( 'NONE',  ( -1.999999999999959800, -13.85640646055102500, 8.500000000000001800 ) ) ;
#48 = CARTESIAN_POINT ( 'NONE',  ( -2.000000000000048400, 13.85640646055101200, 8.500000000000001800 ) ) ;
#49 = CARTESIAN_POINT ( 'NONE',  ( -14.00000000000000200, 0.0000000000000000000, 8.500000000000001800 ) ) ;
#50 = CARTESIAN_POINT ( 'NONE',  ( 12.84523257866512900, 2.000000000000000400, 8.500000000000001800 ) ) ;
#51 = PERSON_AND_ORGANIZATION_ROLE ( 'creator' ) ;
#52 = CARTESIAN_POINT ( 'NONE',  ( -1.000000000000000000, 1.224646799147353200E-016, 1.000000000000000000 ) ) ;
#53 = CARTESIAN_POINT ( 'NONE',  ( 0.0000000000000000000, -2.000000000000000400, 8.500000000000001800 ) ) ;
#54 = CARTESIAN_POINT ( 'NONE',  ( 0.0000000000000000000, 2.000000000000000400, 7.500000000000000900 ) ) ;
#55 = TRIMMED_CURVE ( 'NONE', #244, ( PARAMETER_VALUE ( 0.0000000000000000000 ), #73 ), ( PARAMETER_VALUE ( 1.000000000000000000 ), #53 ), .T., .PARAMETER. ) ;
#56 = CARTESIAN_POINT ( 'NONE',  ( -14.00000000000000000, -3.429011037612589300E-015, 7.500000000000000900 ) ) ;
#57 = PERSON_AND_ORGANIZATION ( #45, #206 ) ;
#58 = CARTESIAN_POINT ( 'NONE',  ( 1.000000000000000000, -2.449293598294706400E-016, 1.000000000000000000 ) ) ;
#59 = APPROVAL_PERSON_ORGANIZATION ( #141, #253, #208 ) ;
#60 = B_SPLINE_CURVE_WITH_KNOTS ( 'NONE', 1,
 ( #310, #109 ),
 .UNSPECIFIED., .F., .F.,
 ( 2, 2 ),
 ( -0.002000000000000000900, -0.0009999999999999991500 ),
 .UNSPECIFIED. ) ;
#61 = CARTESIAN_POINT ( 'NONE',  ( -2.090559444579627800E-015, 13.00000000000000200, 9.500000000000001800 ) ) ;
#62 = B_SPLINE_CURVE_WITH_KNOTS ( 'NONE', 1,
 ( #233, #298 ),
 .UNSPECIFIED., .F., .F.,
 ( 2, 2 ),
 ( 0.006500000000000000600, 0.007500000000000002300 ),
 .UNSPECIFIED. ) ;
#63 = CARTESIAN_POINT ( 'NONE',  ( 2.000000000000048800, -13.85640646055101400, 7.500000000000000900 ) ) ;
#64 = B_SPLINE_CURVE_WITH_KNOTS ( 'NONE', 1,
 ( #200, #241 ),
 .UNSPECIFIED., .F., .F.,
 ( 2, 2 ),
 ( -0.006500000000000000600, 0.001000000000000000000 ),
 .UNSPECIFIED. ) ;
#65 = CARTESIAN_POINT ( 'NONE',  ( -13.99999999999999800, 1.005154776142866500, 7.500000000000000900 ) ) ;
#66 = B_SPLINE_CURVE_WITH_KNOTS ( 'NONE', 1,
 ( #400, #103 ),
 .UNSPECIFIED., .F., .F.,
 ( 2, 2 ),
 ( -0.006500000000000000600, 0.001000000000000000000 ),
 .UNSPECIFIED. ) ;
#67 = CARTESIAN_POINT ( 'NONE',  ( 13.00000000000000400, -13.00000000000000200, 1.000000000000000900 ) ) ;
#68 = CARTESIAN_POINT ( 'NONE',  ( -2.000000000000045300, 12.84523257866512400, 7.500000000000000900 ) ) ;
#69 = CARTESIAN_POINT ( 'NONE',  ( -1.608122649676636600E-016, 1.000000000000000000, 0.0000000000000000000 ) ) ;
#70 = CARTESIAN_POINT ( 'NONE',  ( -13.99999999999999800, 1.005154776142878700, 8.500000000000001800 ) ) ;
#71 = B_SPLINE_CURVE_WITH_KNOTS ( 'NONE', 1,
 ( #297, #46 ),
 .UNSPECIFIED., .F., .F.,
 ( 2, 2 ),
 ( 0.006500000000000000600, 0.007500000000000002300 ),
 .UNSPECIFIED. ) ;
#72 = DATE_AND_TIME ( #421, #392 ) ;
#73 = CARTESIAN_POINT ( 'NONE',  ( 0.0000000000000000000, 2.000000000000000400, 8.500000000000001800 ) ) ;
#74 = CARTESIAN_POINT ( 'NONE',  ( -12.84523257866513100, 2.000000000000000400, 7.500000000000000900 ) ) ;
#75 = CARTESIAN_POINT ( 'NONE',  ( 1.000000000000000000, 1.224646799147353200E-016, 0.0000000000000000000 ) ) ;
#76 =( BOUNDED_CURVE ( )  B_SPLINE_CURVE ( 2, ( #130, #425, #360 ),
 .UNSPECIFIED., .F., .T. ) 
 B_SPLINE_CURVE_WITH_KNOTS ( ( 3, 3 ),
 ( 1.416336728310722900, 1.725255925279084200 ),
 .UNSPECIFIED. ) 
 CURVE ( )  GEOMETRIC_REPRESENTATION_ITEM ( )  RATIONAL_B_SPLINE_CURVE ( ( 1.000000000000000000, 0.9880948137434719700, 1.000000000000000000 ) ) 
 REPRESENTATION_ITEM ( '' )  );
#77 = CARTESIAN_POINT ( 'NONE',  ( -12.84523257866513100, -2.000000000000000400, 7.500000000000000900 ) ) ;
#78 = CARTESIAN_POINT ( 'NONE',  ( 13.00000000000000200, -1.005988238676661000, 8.500000000000001800 ) ) ;
#79 = DIRECTION ( 'NONE',  ( 0.0000000000000000000, 0.0000000000000000000, 1.000000000000000000 ) ) ;
#80 = PRODUCT_RELATED_PRODUCT_CATEGORY ( 'detail', '', ( #393 ) ) ;
#81 = COORDINATED_UNIVERSAL_TIME_OFFSET ( 8, 0, .AHEAD. ) ;
#82 = CARTESIAN_POINT ( 'NONE',  ( 1.999999999999866100, 12.84523257866515200, 7.500000000000001800 ) ) ;
#83 = CARTESIAN_POINT ( 'NONE',  ( 14.00000000000000200, 1.714505518806294800E-015, 8.500000000000001800 ) ) ;
#84 = APPROVAL_STATUS ( 'not_yet_approved' ) ;
#85 = CARTESIAN_POINT ( 'NONE',  ( -13.00000000000000200, 1.592040838891559300E-015, 8.500000000000001800 ) ) ;
#86 = CARTESIAN_POINT ( 'NONE',  ( 0.0000000000000000000, -2.000000000000000400, 8.500000000000001800 ) ) ;
#87 =( BOUNDED_CURVE ( )  B_SPLINE_CURVE ( 2, ( #293, #70, #160 ),
 .UNSPECIFIED., .F., .T. ) 
 B_SPLINE_CURVE_WITH_KNOTS ( ( 3, 3 ),
 ( 2.998245084684427700, 3.141592653589793100 ),
 .UNSPECIFIED. ) 
 CURVE ( )  GEOMETRIC_REPRESENTATION_ITEM ( )  RATIONAL_B_SPLINE_CURVE ( ( 1.000000000000000000, 0.9974325337111245000, 1.000000000000000000 ) ) 
 REPRESENTATION_ITEM ( '' )  );
#88 = CARTESIAN_POINT ( 'NONE',  ( 13.99999999999999800, -1.005154776142877800, 8.500000000000001800 ) ) ;
#89 = CARTESIAN_POINT ( 'NONE',  ( -2.000000000000048400, 13.85640646055101200, 8.500000000000001800 ) ) ;
#90 = APPROVAL_ROLE ( '' ) ;
#91 = CARTESIAN_POINT ( 'NONE',  ( -2.251371709547291100E-015, 14.00000000000000000, 9.500000000000001800 ) ) ;
#92 = CARTESIAN_POINT ( 'NONE',  ( -13.85640646055101900, -1.999999999999998700, 8.500000000000001800 ) ) ;
#93 = CARTESIAN_POINT ( 'NONE',  ( 1.999999999999855200, 13.85640646055104200, 8.500000000000001800 ) ) ;
#94 = CARTESIAN_POINT ( 'NONE',  ( 2.000000000000048800, -13.85640646055101400, 7.500000000000000900 ) ) ;
#95 =( BOUNDED_CURVE ( )  B_SPLINE_CURVE ( 2, ( #274, #88, #146 ),
 .UNSPECIFIED., .F., .T. ) 
 B_SPLINE_CURVE_WITH_KNOTS ( ( 3, 3 ),
 ( 6.139837738274220400, 6.283185307179586200 ),
 .UNSPECIFIED. ) 
 CURVE ( )  GEOMETRIC_REPRESENTATION_ITEM ( )  RATIONAL_B_SPLINE_CURVE ( ( 1.000000000000000000, 0.9974325337111245000, 1.000000000000000000 ) ) 
 REPRESENTATION_ITEM ( '' )  );
#96 = CARTESIAN_POINT ( 'NONE',  ( 13.99999999999999800, -14.00000000000000400, 0.0000000000000000000 ) ) ;
#97 = CARTESIAN_POINT ( 'NONE',  ( -2.000000000000048800, 13.85640646055101400, 8.500000000000001800 ) ) ;
#98 = CARTESIAN_POINT ( 'NONE',  ( -13.00000000000000200, 0.0000000000000000000, 7.500000000000000900 ) ) ;
#99 = VECTOR ( 'NONE', #178, 1.000000000000001800 ) ;
#100 = CARTESIAN_POINT ( 'NONE',  ( -2.000000000000048400, 13.85640646055101200, 7.500000000000000900 ) ) ;
#101 = CARTESIAN_POINT ( 'NONE',  ( 2.000000000000058200, -13.85640646055101000, 7.500000000000000900 ) ) ;
#102 = CARTESIAN_POINT ( 'NONE',  ( 12.84523257866513100, 2.000000000000000400, 8.500000000000001800 ) ) ;
#103 = CARTESIAN_POINT ( 'NONE',  ( -14.00000000000000200, 0.0000000000000000000, 0.0000000000000000000 ) ) ;
#104 = CARTESIAN_POINT ( 'NONE',  ( 14.00000000000000000, 1.714505518806294600E-015, 0.0000000000000000000 ) ) ;
#105 =( BOUNDED_CURVE ( )  B_SPLINE_CURVE ( 2, ( #183, #249, #56 ),
 .UNSPECIFIED., .F., .T. ) 
 B_SPLINE_CURVE_WITH_KNOTS ( ( 3, 3 ),
 ( 6.139837738274220400, 6.283185307179586200 ),
 .UNSPECIFIED. ) 
 CURVE ( )  GEOMETRIC_REPRESENTATION_ITEM ( )  RATIONAL_B_SPLINE_CURVE ( ( 1.000000000000000000, 0.9974325337111245000, 1.000000000000000000 ) ) 
 REPRESENTATION_ITEM ( '' )  );
#106 = CARTESIAN_POINT ( 'NONE',  ( -0.9999999999999998900, 0.9999999999999998900, 0.0000000000000000000 ) ) ;
#107 = CARTESIAN_POINT ( 'NONE',  ( 3.652633751016765000E-014, -14.14508159514583200, 8.500000000000001800 ) ) ;
#108 = B_SPLINE_CURVE_WITH_KNOTS ( 'NONE', 1,
 ( #111, #77 ),
 .UNSPECIFIED., .F., .F.,
 ( 2, 2 ),
 ( 0.0009999999999999991500, 0.002000000000000000900 ),
 .UNSPECIFIED. ) ;
#109 = CARTESIAN_POINT ( 'NONE',  ( -1.999999999999955800, -12.84523257866513800, 8.500000000000001800 ) ) ;
#110 = CARTESIAN_POINT ( 'NONE',  ( -12.84523257866513100, -1.999999999999998700, 8.500000000000001800 ) ) ;
#111 = CARTESIAN_POINT ( 'NONE',  ( -12.84523257866513100, -2.000000000000000400, 8.500000000000001800 ) ) ;
#112 = PERSON_AND_ORGANIZATION_ROLE ( 'design_supplier' ) ;
#113 = CARTESIAN_POINT ( 'NONE',  ( -13.00000000000000200, 1.592040838891559300E-015, 8.500000000000001800 ) ) ;
#114 = VECTOR ( 'NONE', #6, 1.000000000000001800 ) ;
#115 = CARTESIAN_POINT ( 'NONE',  ( 1.999999999999866100, 12.84523257866515200, 8.500000000000001800 ) ) ;
#116 = B_SPLINE_CURVE_WITH_KNOTS ( 'NONE', 1,
 ( #176, #89 ),
 .UNSPECIFIED., .F., .F.,
 ( 2, 2 ),
 ( 0.02684523257866518200, 0.02785640646055107000 ),
 .UNSPECIFIED. ) ;
#117 = CARTESIAN_POINT ( 'NONE',  ( -13.00000000000000200, 0.0000000000000000000, 8.500000000000001800 ) ) ;
#118 = COORDINATED_UNIVERSAL_TIME_OFFSET ( 8, 0, .AHEAD. ) ;
#119 = CARTESIAN_POINT ( 'NONE',  ( 1.999999999999865700, 12.84523257866515100, 7.500000000000000900 ) ) ;
#120 = CARTESIAN_POINT ( 'NONE',  ( -1.999999999999951800, -13.85640646055102800, 7.500000000000000900 ) ) ;
#121 = LOCAL_TIME ( 18, 33, 18.00000000000000000, #133 ) ;
#122 = CARTESIAN_POINT ( 'NONE',  ( 13.00000000000000200, 1.592040838891559300E-015, 9.500000000000001800 ) ) ;
#123 = B_SPLINE_CURVE_WITH_KNOTS ( 'NONE', 1,
 ( #356, #215 ),
 .UNSPECIFIED., .F., .F.,
 ( 2, 2 ),
 ( 0.0001435935394490297400, 0.001154767421334919300 ),
 .UNSPECIFIED. ) ;
#124 =( BOUNDED_CURVE ( )  B_SPLINE_CURVE ( 2, ( #264, #402, #50 ),
 .UNSPECIFIED., .F., .T. ) 
 B_SPLINE_CURVE_WITH_KNOTS ( ( 3, 3 ),
 ( 1.224646799147353200E-016, 0.1544595984841841100 ),
 .UNSPECIFIED. ) 
 CURVE ( )  GEOMETRIC_REPRESENTATION_ITEM ( )  RATIONAL_B_SPLINE_CURVE ( ( 1.000000000000000000, 0.9970192610334746000, 1.000000000000000000 ) ) 
 REPRESENTATION_ITEM ( '' )  );
#125 =( BOUNDED_CURVE ( )  B_SPLINE_CURVE ( 2, ( #419, #355, #119 ),
 .UNSPECIFIED., .F., .T. ) 
 B_SPLINE_CURVE_WITH_KNOTS ( ( 3, 3 ),
 ( 1.416336728310709100, 1.725255925279070200 ),
 .UNSPECIFIED. ) 
 CURVE ( )  GEOMETRIC_REPRESENTATION_ITEM ( )  RATIONAL_B_SPLINE_CURVE ( ( 1.000000000000000000, 0.9880948137434719700, 1.000000000000000000 ) ) 
 REPRESENTATION_ITEM ( '' )  );
#126 = CARTESIAN_POINT ( 'NONE',  ( -13.00000000000000500, -13.00000000000000200, 9.500000000000001800 ) ) ;
#127 = CARTESIAN_POINT ( 'NONE',  ( 2.000000000000048800, -13.85640646055101400, 8.500000000000001800 ) ) ;
#128 = CARTESIAN_POINT ( 'NONE',  ( -13.00000000000000200, 0.0000000000000000000, 1.000000000000000900 ) ) ;
#129 = CARTESIAN_POINT ( 'NONE',  ( -1.000000000000000200, -0.9999999999999998900, 0.0000000000000000000 ) ) ;
#130 = CARTESIAN_POINT ( 'NONE',  ( 1.999999999999867400, 12.84523257866515100, 8.500000000000001800 ) ) ;
#131 = CARTESIAN_POINT ( 'NONE',  ( 13.00000000000000200, 13.00000000000000500, 1.000000000000000900 ) ) ;
#132 = CARTESIAN_POINT ( 'NONE',  ( 13.85640646055102100, 2.000000000000000400, 7.500000000000000900 ) ) ;
#133 = COORDINATED_UNIVERSAL_TIME_OFFSET ( 8, 0, .AHEAD. ) ;
#134 = CARTESIAN_POINT ( 'NONE',  ( 13.85640646055101900, -1.999999999999998700, 7.500000000000000900 ) ) ;
#135 = CARTESIAN_POINT ( 'NONE',  ( 0.0000000000000000000, 0.0000000000000000000, 1.000000000000000000 ) ) ;
#136 = B_SPLINE_CURVE_WITH_KNOTS ( 'NONE', 1,
 ( #281, #381 ),
 .UNSPECIFIED., .F., .F.,
 ( 2, 2 ),
 ( 0.0009999999999999991500, 0.002000000000000000900 ),
 .UNSPECIFIED. ) ;
#137 = DIRECTION ( 'NONE',  ( 0.0000000000000000000, 0.0000000000000000000, 1.000000000000000000 ) ) ;
#138 = CC_DESIGN_PERSON_AND_ORGANIZATION_ASSIGNMENT ( #338, #273, ( #346 ) ) ;
#139 =( BOUNDED_CURVE ( )  B_SPLINE_CURVE ( 2, ( #391, #65, #326 ),
 .UNSPECIFIED., .F., .F. ) 
 B_SPLINE_CURVE_WITH_KNOTS ( ( 3, 3 ),
 ( 0.0000000000000000000, 0.1433475689053653700 ),
 .UNSPECIFIED. ) 
 CURVE ( )  GEOMETRIC_REPRESENTATION_ITEM ( )  RATIONAL_B_SPLINE_CURVE ( ( 1.000000000000000000, 0.9974325337111245000, 1.000000000000000000 ) ) 
 REPRESENTATION_ITEM ( '' )  );
#140 = CARTESIAN_POINT ( 'NONE',  ( -13.00000000000000200, -1.005988238676660800, 8.500000000000001800 ) ) ;
#141 = PERSON_AND_ORGANIZATION ( #45, #206 ) ;
#142 = CARTESIAN_POINT ( 'NONE',  ( 14.00000000000000200, 1.714505518806294800E-015, 9.500000000000001800 ) ) ;
#143 = CARTESIAN_POINT ( 'NONE',  ( 1.999999999999866100, 12.84523257866515200, 7.500000000000000900 ) ) ;
#144 = APPLICATION_CONTEXT ( 'configuration controlled 3d designs of mechanical parts and assemblies' ) ;
#145 = AXIS2_PLACEMENT_3D ( 'NONE', #171, #304, #231 ) ;
#146 = CARTESIAN_POINT ( 'NONE',  ( 14.00000000000000000, -3.429011037612589300E-015, 8.500000000000001800 ) ) ;
#147 = CARTESIAN_POINT ( 'NONE',  ( -13.99999999999999800, 13.99999999999999800, 9.500000000000001800 ) ) ;
#148 = DESIGN_CONTEXT ( 'detailed design', #19, 'design' ) ;
#149 = CARTESIAN_POINT ( 'NONE',  ( -13.00000000000000200, 0.0000000000000000000, 9.500000000000001800 ) ) ;
#150 = PRODUCT_DEFINITION_FORMATION_WITH_SPECIFIED_SOURCE ( '任何', '', #393, .NOT_KNOWN. ) ;
#151 = B_SPLINE_CURVE_WITH_KNOTS ( 'NONE', 1,
 ( #97, #186 ),
 .UNSPECIFIED., .F., .F.,
 ( 2, 2 ),
 ( -0.007500000000000002300, -0.006500000000000000600 ),
 .UNSPECIFIED. ) ;
#152 = CARTESIAN_POINT ( 'NONE',  ( 13.00000000000000200, 1.005988238676658500, 7.500000000000000900 ) ) ;
#153 = B_SPLINE_CURVE_WITH_KNOTS ( 'NONE', 1,
 ( #102, #401 ),
 .UNSPECIFIED., .F., .F.,
 ( 2, 2 ),
 ( 0.0009999999999999991500, 0.002000000000000000900 ),
 .UNSPECIFIED. ) ;
#154 = CARTESIAN_POINT ( 'NONE',  ( -13.85640646055102100, 2.000000000000000400, 7.500000000000000900 ) ) ;
#155 = CARTESIAN_POINT ( 'NONE',  ( -1.999999999999951800, -13.85640646055102800, 8.500000000000001800 ) ) ;
#156 = CARTESIAN_POINT ( 'NONE',  ( 13.85640646055102100, 2.000000000000000400, 8.500000000000001800 ) ) ;
#157 =( BOUNDED_CURVE ( )  B_SPLINE_CURVE ( 2, ( #429, #35, #395 ),
 .UNSPECIFIED., .F., .T. ) 
 B_SPLINE_CURVE_WITH_KNOTS ( ( 3, 3 ),
 ( 2.998245084684427700, 3.141592653589793100 ),
 .UNSPECIFIED. ) 
 CURVE ( )  GEOMETRIC_REPRESENTATION_ITEM ( )  RATIONAL_B_SPLINE_CURVE ( ( 1.000000000000000000, 0.9974325337111245000, 1.000000000000000000 ) ) 
 REPRESENTATION_ITEM ( '' )  );
#158 = APPROVAL ( #13, '未指定' ) ;
#159 = CARTESIAN_POINT ( 'NONE',  ( -14.00000000000000400, -13.99999999999999800, 0.0000000000000000000 ) ) ;
#160 = CARTESIAN_POINT ( 'NONE',  ( -14.00000000000000000, 1.714505518806294600E-015, 8.500000000000001800 ) ) ;
#161 = B_SPLINE_CURVE_WITH_KNOTS ( 'NONE', 1,
 ( #194, #232 ),
 .UNSPECIFIED., .F., .F.,
 ( 2, 2 ),
 ( -0.007500000000000002300, -0.006500000000000000600 ),
 .UNSPECIFIED. ) ;
#162 = CARTESIAN_POINT ( 'NONE',  ( -13.85640646055102100, -2.000000000000000400, 7.500000000000000900 ) ) ;
#163 =( GEOMETRIC_REPRESENTATION_CONTEXT ( 3 ) GLOBAL_UNCERTAINTY_ASSIGNED_CONTEXT ( ( #220 ) ) GLOBAL_UNIT_ASSIGNED_CONTEXT ( ( #238, #409, #203 ) ) REPRESENTATION_CONTEXT ( 'NONE', 'WORKASPACE' ) );
#164 = CARTESIAN_POINT ( 'NONE',  ( -2.000000000000045300, 12.84523257866512400, 7.500000000000000900 ) ) ;
#165 = CARTESIAN_POINT ( 'NONE',  ( 14.00000000000000000, 1.714505518806294600E-015, 8.500000000000001800 ) ) ;
#166 =( BOUNDED_CURVE ( )  B_SPLINE_CURVE ( 2, ( #101, #324, #362 ),
 .UNSPECIFIED., .F., .T. ) 
 B_SPLINE_CURVE_WITH_KNOTS ( ( 3, 3 ),
 ( 4.569041411479320300, 4.855736549290051900 ),
 .UNSPECIFIED. ) 
 CURVE ( )  GEOMETRIC_REPRESENTATION_ITEM ( )  RATIONAL_B_SPLINE_CURVE ( ( 1.000000000000000000, 0.9897433186107869000, 1.000000000000000000 ) ) 
 REPRESENTATION_ITEM ( '' )  );
#167 = APPROVAL_PERSON_ORGANIZATION ( #5, #349, #379 ) ;
#168 = CARTESIAN_POINT ( 'NONE',  ( -2.251371709547291100E-015, 14.00000000000000000, 0.0000000000000000000 ) ) ;
#169 = CARTESIAN_POINT ( 'NONE',  ( 13.00000000000000200, 1.592040838891559300E-015, 8.500000000000001800 ) ) ;
#170 = B_SPLINE_CURVE_WITH_KNOTS ( 'NONE', 1,
 ( #10, #169 ),
 .UNSPECIFIED., .F., .F.,
 ( 2, 2 ),
 ( -0.0000000000000000000, 0.0009999999999999991500 ),
 .UNSPECIFIED. ) ;
#171 = CARTESIAN_POINT ( 'NONE',  ( 0.0000000000000000000, 0.0000000000000000000, 0.0000000000000000000 ) ) ;
#172 = B_SPLINE_CURVE_WITH_KNOTS ( 'NONE', 1,
 ( #93, #246 ),
 .UNSPECIFIED., .F., .F.,
 ( 2, 2 ),
 ( 0.0001435935394491286200, 0.001154767421335018200 ),
 .UNSPECIFIED. ) ;
#173 = PERSON_AND_ORGANIZATION ( #45, #206 ) ;
#174 = COORDINATED_UNIVERSAL_TIME_OFFSET ( 8, 0, .AHEAD. ) ;
#175 = DIRECTION ( 'NONE',  ( 0.0000000000000000000, 0.0000000000000000000, 1.000000000000000000 ) ) ;
#176 = CARTESIAN_POINT ( 'NONE',  ( -2.000000000000045300, 12.84523257866512400, 8.500000000000001800 ) ) ;
#177 = CARTESIAN_POINT ( 'NONE',  ( 0.0000000000000000000, 2.000000000000000400, 7.500000000000000900 ) ) ;
#178 = DIRECTION ( 'NONE',  ( 0.0000000000000000000, 0.0000000000000000000, -1.000000000000000000 ) ) ;
#179 = CARTESIAN_POINT ( 'NONE',  ( -1.000000000000000000, 1.224646799147353200E-016, 1.000000000000000000 ) ) ;
#180 = CC_DESIGN_APPROVAL ( #253, ( #346 ) ) ;
#181 = APPLICATION_PROTOCOL_DEFINITION ( 'international standard', 'config_control_design', 1994, #19 ) ;
#182 = CARTESIAN_POINT ( 'NONE',  ( 13.85640646055102100, 2.000000000000000400, 7.500000000000000900 ) ) ;
#183 = CARTESIAN_POINT ( 'NONE',  ( -13.85640646055101800, -2.000000000000009800, 7.500000000000000900 ) ) ;
#184 = B_SPLINE_CURVE_WITH_KNOTS ( 'NONE', 1,
 ( #154, #279 ),
 .UNSPECIFIED., .F., .F.,
 ( 2, 2 ),
 ( 0.0001435935394489811600, 0.001154767421334870800 ),
 .UNSPECIFIED. ) ;
#185 = CARTESIAN_POINT ( 'NONE',  ( 13.00000000000000200, -13.00000000000000500, 9.500000000000001800 ) ) ;
#186 = CARTESIAN_POINT ( 'NONE',  ( -2.000000000000048800, 13.85640646055101400, 7.500000000000000900 ) ) ;
#187 = CARTESIAN_POINT ( 'NONE',  ( -12.84523257866513100, -2.000000000000000400, 7.500000000000000900 ) ) ;
#188 = CIRCLE ( 'NONE', #265, 13.00000000000000000 ) ;
#189 = CARTESIAN_POINT ( 'NONE',  ( 13.00000000000000200, -1.005988238676660800, 7.500000000000000900 ) ) ;
#190 = CARTESIAN_POINT ( 'NONE',  ( 13.00000000000000200, 0.0000000000000000000, 1.000000000000000900 ) ) ;
#191 = CARTESIAN_POINT ( 'NONE',  ( -13.00000000000000200, -1.005988238676661000, 7.500000000000000900 ) ) ;
#192 = B_SPLINE_CURVE_WITH_KNOTS ( 'NONE', 1,
 ( #132, #370 ),
 .UNSPECIFIED., .F., .F.,
 ( 2, 2 ),
 ( 0.0001435935394489811600, 0.001154767421334870800 ),
 .UNSPECIFIED. ) ;
#193 = CARTESIAN_POINT ( 'NONE',  ( -13.00000000000000200, -3.184081677783118600E-015, 7.500000000000000900 ) ) ;
#194 = CARTESIAN_POINT ( 'NONE',  ( -13.85640646055102100, -2.000000000000000400, 8.500000000000001800 ) ) ;
#195 = CARTESIAN_POINT ( 'NONE',  ( 1.000000000000000000, 1.224646799147353200E-016, 1.000000000000000000 ) ) ;
#196 = B_SPLINE_CURVE_WITH_KNOTS ( 'NONE', 1,
 ( #374, #408 ),
 .UNSPECIFIED., .F., .F.,
 ( 2, 2 ),
 ( 0.0001435935394489811600, 0.001154767421334870800 ),
 .UNSPECIFIED. ) ;
#197 = CARTESIAN_POINT ( 'NONE',  ( 0.0000000000000000000, 2.000000000000000400, 8.500000000000001800 ) ) ;
#198 = APPROVAL_PERSON_ORGANIZATION ( #351, #158, #90 ) ;
#199 = CARTESIAN_POINT ( 'NONE',  ( -1.000000000000000000, 0.0000000000000000000, 0.0000000000000000000 ) ) ;
#200 = CARTESIAN_POINT ( 'NONE',  ( 14.00000000000000200, 1.714505518806294800E-015, 7.500000000000000900 ) ) ;
#201 = CARTESIAN_POINT ( 'NONE',  ( -13.85640646055102100, 2.000000000000000400, 8.500000000000001800 ) ) ;
#202 = DATE_TIME_ROLE ( 'creation_date' ) ;
#203 =( NAMED_UNIT ( * ) SI_UNIT ( $, .STERADIAN. ) SOLID_ANGLE_UNIT ( ) );
#204 = B_SPLINE_CURVE_WITH_KNOTS ( 'NONE', 1,
 ( #98, #128 ),
 .UNSPECIFIED., .F., .F.,
 ( 2, 2 ),
 ( 0.002000000000000000900, 0.008500000000000000600 ),
 .UNSPECIFIED. ) ;
#205 = CARTESIAN_POINT ( 'NONE',  ( -9.656164756677299000E-014, 14.14508159514582400, 8.500000000000001800 ) ) ;
#206 = ORGANIZATION ( '未指定', '未指定', '' ) ;
#207 = DIRECTION ( 'NONE',  ( 0.0000000000000000000, -1.000000000000000000, 0.0000000000000000000 ) ) ;
#208 = APPROVAL_ROLE ( '' ) ;
#209 = CARTESIAN_POINT ( 'NONE',  ( 12.84523257866512900, -2.000000000000003600, 8.500000000000001800 ) ) ;
#210 = PRODUCT_DEFINITION ( '未知', '', #150, #148 ) ;
#211 = CARTESIAN_POINT ( 'NONE',  ( -1.999999999999955400, -12.84523257866513800, 8.500000000000001800 ) ) ;
#212 = CARTESIAN_POINT ( 'NONE',  ( 13.85640646055102100, 2.000000000000000400, 8.500000000000001800 ) ) ;
#213 =( BOUNDED_CURVE ( )  B_SPLINE_CURVE ( 2, ( #209, #78, #303 ),
 .UNSPECIFIED., .F., .T. ) 
 B_SPLINE_CURVE_WITH_KNOTS ( ( 3, 3 ),
 ( 6.128725708695402100, 6.283185307179586200 ),
 .UNSPECIFIED. ) 
 CURVE ( )  GEOMETRIC_REPRESENTATION_ITEM ( )  RATIONAL_B_SPLINE_CURVE ( ( 1.000000000000000000, 0.9970192610334746000, 1.000000000000000000 ) ) 
 REPRESENTATION_ITEM ( '' )  );
#214 = CARTESIAN_POINT ( 'NONE',  ( 2.000000000000043500, -12.84523257866512400, 8.500000000000001800 ) ) ;
#215 = CARTESIAN_POINT ( 'NONE',  ( 2.000000000000045700, -12.84523257866512400, 8.500000000000001800 ) ) ;
#216 = DATE_AND_TIME ( #250, #288 ) ;
#217 = LINE ( 'NONE', #86, #99 ) ;
#218 = B_SPLINE_CURVE_WITH_KNOTS ( 'NONE', 1,
 ( #94, #24 ),
 .UNSPECIFIED., .F., .F.,
 ( 2, 2 ),
 ( 0.0001435935394490297400, 0.001154767421334919300 ),
 .UNSPECIFIED. ) ;
#219 =( BOUNDED_CURVE ( )  B_SPLINE_CURVE ( 2, ( #239, #11, #341, #269, #52 ),
 .UNSPECIFIED., .F., .T. ) 
 B_SPLINE_CURVE_WITH_KNOTS ( ( 3, 2, 3 ),
 ( 1.224646799147353200E-016, 1.570796326794896800, 3.141592653589793100 ),
 .UNSPECIFIED. ) 
 CURVE ( )  GEOMETRIC_REPRESENTATION_ITEM ( )  RATIONAL_B_SPLINE_CURVE ( ( 1.000000000000000000, 0.7071067811865475700, 1.000000000000000000, 0.7071067811865475700, 1.000000000000000000 ) ) 
 REPRESENTATION_ITEM ( '' )  );
#220 = UNCERTAINTY_MEASURE_WITH_UNIT (LENGTH_MEASURE( 1.000000000000000100E-005 ), #238, 'distance_accuracy_value', 'NONE');
#221 = B_SPLINE_CURVE_WITH_KNOTS ( 'NONE', 1,
 ( #164, #100 ),
 .UNSPECIFIED., .F., .F.,
 ( 2, 2 ),
 ( 0.02684523257866518200, 0.02785640646055107000 ),
 .UNSPECIFIED. ) ;
#222 = COORDINATED_UNIVERSAL_TIME_OFFSET ( 8, 0, .AHEAD. ) ;
#223 = B_SPLINE_CURVE_WITH_KNOTS ( 'NONE', 1,
 ( #127, #63 ),
 .UNSPECIFIED., .F., .F.,
 ( 2, 2 ),
 ( -0.007500000000000002300, -0.006500000000000000600 ),
 .UNSPECIFIED. ) ;
#224 = CARTESIAN_POINT ( 'NONE',  ( 14.00000000000000000, -3.429011037612589300E-015, 0.0000000000000000000 ) ) ;
#225 = CARTESIAN_POINT ( 'NONE',  ( -2.388061258337338900E-015, 13.00000000000000200, 1.000000000000000900 ) ) ;
#226 = DIRECTION ( 'NONE',  ( 0.9563047559630353200, 0.2923717047227373200, 0.0000000000000000000 ) ) ;
#227 = CC_DESIGN_APPROVAL ( #349, ( #210 ) ) ;
#228 = CALENDAR_DATE ( 2026, 12, 9 ) ;
#229 = SHAPE_DEFINITION_REPRESENTATION ( #389, #427 ) ;
#230 =( BOUNDED_CURVE ( )  B_SPLINE_CURVE ( 2, ( #350, #251, #214 ),
 .UNSPECIFIED., .F., .F. ) 
 B_SPLINE_CURVE_WITH_KNOTS ( ( 3, 3 ),
 ( 4.557929381900509100, 4.866848578868877300 ),
 .UNSPECIFIED. ) 
 CURVE ( )  GEOMETRIC_REPRESENTATION_ITEM ( )  RATIONAL_B_SPLINE_CURVE ( ( 1.000000000000000000, 0.9880948137434714100, 1.000000000000000000 ) ) 
 REPRESENTATION_ITEM ( '' )  );
#231 = DIRECTION ( 'NONE',  ( 0.9563047559630354400, 0.2923717047227373200, 0.0000000000000000000 ) ) ;
#232 = CARTESIAN_POINT ( 'NONE',  ( -13.85640646055102100, -2.000000000000000400, 7.500000000000000900 ) ) ;
#233 = CARTESIAN_POINT ( 'NONE',  ( 13.85640646055102100, -2.000000000000000400, 7.500000000000000900 ) ) ;
#234 = CARTESIAN_POINT ( 'NONE',  ( -14.00000000000000400, -13.99999999999999800, 9.500000000000001800 ) ) ;
#235 = CARTESIAN_POINT ( 'NONE',  ( -13.85640646055102100, 2.000000000000000400, 7.500000000000000900 ) ) ;
#236 = APPROVAL_STATUS ( 'not_yet_approved' ) ;
#237 =( BOUNDED_CURVE ( )  B_SPLINE_CURVE ( 2, ( #375, #191, #193 ),
 .UNSPECIFIED., .F., .T. ) 
 B_SPLINE_CURVE_WITH_KNOTS ( ( 3, 3 ),
 ( 6.128725708695402100, 6.283185307179586200 ),
 .UNSPECIFIED. ) 
 CURVE ( )  GEOMETRIC_REPRESENTATION_ITEM ( )  RATIONAL_B_SPLINE_CURVE ( ( 1.000000000000000000, 0.9970192610334746000, 1.000000000000000000 ) ) 
 REPRESENTATION_ITEM ( '' )  );
#238 =( LENGTH_UNIT ( ) NAMED_UNIT ( * ) SI_UNIT ( .MILLI., .METRE. ) );
#239 = CARTESIAN_POINT ( 'NONE',  ( 1.000000000000000000, 1.224646799147353200E-016, 1.000000000000000000 ) ) ;
#240 = CARTESIAN_POINT ( 'NONE',  ( 0.0000000000000000000, -2.000000000000000400, 7.500000000000000900 ) ) ;
#241 = CARTESIAN_POINT ( 'NONE',  ( 14.00000000000000200, 1.714505518806294800E-015, 0.0000000000000000000 ) ) ;
#242 =( BOUNDED_CURVE ( )  B_SPLINE_CURVE ( 2, ( #165, #286, #37 ),
 .UNSPECIFIED., .F., .F. ) 
 B_SPLINE_CURVE_WITH_KNOTS ( ( 3, 3 ),
 ( 1.224646799147353200E-016, 0.1433475689053653700 ),
 .UNSPECIFIED. ) 
 CURVE ( )  GEOMETRIC_REPRESENTATION_ITEM ( )  RATIONAL_B_SPLINE_CURVE ( ( 1.000000000000000000, 0.9974325337111245000, 1.000000000000000000 ) ) 
 REPRESENTATION_ITEM ( '' )  );
#243 = CARTESIAN_POINT ( 'NONE',  ( 13.00000000000000200, 1.592040838891559300E-015, 7.500000000000000900 ) ) ;
#244 = LINE ( 'NONE', #40, #289 ) ;
#245 = CARTESIAN_POINT ( 'NONE',  ( -12.84523257866513100, -2.000000000000000400, 8.500000000000001800 ) ) ;
#246 = CARTESIAN_POINT ( 'NONE',  ( 1.999999999999866100, 12.84523257866515200, 8.500000000000001800 ) ) ;
#247 = AXIS2_PLACEMENT_3D ( 'NONE', #334, #79, #226 ) ;
#248 = B_SPLINE_CURVE_WITH_KNOTS ( 'NONE', 1,
 ( #380, #385 ),
 .UNSPECIFIED., .F., .F.,
 ( 2, 2 ),
 ( 0.0001435935394489811600, 0.001154767421334870800 ),
 .UNSPECIFIED. ) ;
#249 = CARTESIAN_POINT ( 'NONE',  ( -13.99999999999999800, -1.005154776142877800, 7.500000000000000900 ) ) ;
#250 = CALENDAR_DATE ( 2026, 12, 9 ) ;
#251 = CARTESIAN_POINT ( 'NONE',  ( 4.726774527341604000E-014, -13.15663215632973900, 8.500000000000001800 ) ) ;
#252 = CC_DESIGN_PERSON_AND_ORGANIZATION_ASSIGNMENT ( #57, #21, ( #393 ) ) ;
#253 = APPROVAL ( #84, '未指定' ) ;
#254 = PERSON_AND_ORGANIZATION ( #45, #206 ) ;
#255 =( BOUNDED_CURVE ( )  B_SPLINE_CURVE ( 2, ( #179, #406, #26, #313, #58 ),
 .UNSPECIFIED., .F., .F. ) 
 B_SPLINE_CURVE_WITH_KNOTS ( ( 3, 2, 3 ),
 ( 3.141592653589793100, 4.712388980384689700, 6.283185307179586200 ),
 .UNSPECIFIED. ) 
 CURVE ( )  GEOMETRIC_REPRESENTATION_ITEM ( )  RATIONAL_B_SPLINE_CURVE ( ( 1.000000000000000000, 0.7071067811865475700, 1.000000000000000000, 0.7071067811865475700, 1.000000000000000000 ) ) 
 REPRESENTATION_ITEM ( '' )  );
#256 =( BOUNDED_CURVE ( )  B_SPLINE_CURVE ( 2, ( #348, #152, #243 ),
 .UNSPECIFIED., .F., .F. ) 
 B_SPLINE_CURVE_WITH_KNOTS ( ( 3, 3 ),
 ( 2.987133055105609000, 3.141592653589793100 ),
 .UNSPECIFIED. ) 
 CURVE ( )  GEOMETRIC_REPRESENTATION_ITEM ( )  RATIONAL_B_SPLINE_CURVE ( ( 1.000000000000000000, 0.9970192610334746000, 1.000000000000000000 ) ) 
 REPRESENTATION_ITEM ( '' )  );
#257 = CARTESIAN_POINT ( 'NONE',  ( 1.999999999999855200, 13.85640646055104200, 8.500000000000001800 ) ) ;
#258 = CARTESIAN_POINT ( 'NONE',  ( -13.99999999999999800, 13.99999999999999800, 0.0000000000000000000 ) ) ;
#259 = CARTESIAN_POINT ( 'NONE',  ( 0.9999999999999998900, 1.000000000000000200, 0.0000000000000000000 ) ) ;
#260 = CARTESIAN_POINT ( 'NONE',  ( 1.999999999999855200, 13.85640646055104200, 7.500000000000000900 ) ) ;
#261 = CARTESIAN_POINT ( 'NONE',  ( -13.00000000000000200, -1.592040838891559300E-015, 1.000000000000000900 ) ) ;
#262 = DIRECTION ( 'NONE',  ( 0.0000000000000000000, -1.000000000000000000, 0.0000000000000000000 ) ) ;
#263 = CARTESIAN_POINT ( 'NONE',  ( 1.000000000000000000, 1.224646799147353200E-016, 0.0000000000000000000 ) ) ;
#264 = CARTESIAN_POINT ( 'NONE',  ( 13.00000000000000200, 1.592040838891559300E-015, 8.500000000000001800 ) ) ;
#265 = AXIS2_PLACEMENT_3D ( 'NONE', #339, #137, #372 ) ;
#266 = PERSON_AND_ORGANIZATION ( #45, #206 ) ;
#267 = CARTESIAN_POINT ( 'NONE',  ( -14.00000000000000000, 1.714505518806294600E-015, 9.500000000000001800 ) ) ;
#268 =( BOUNDED_CURVE ( )  B_SPLINE_CURVE ( 2, ( #75, #259, #69, #106, #399 ),
 .UNSPECIFIED., .F., .T. ) 
 B_SPLINE_CURVE_WITH_KNOTS ( ( 3, 2, 3 ),
 ( 1.224646799147353200E-016, 1.570796326794896800, 3.141592653589793100 ),
 .UNSPECIFIED. ) 
 CURVE ( )  GEOMETRIC_REPRESENTATION_ITEM ( )  RATIONAL_B_SPLINE_CURVE ( ( 1.000000000000000000, 0.7071067811865475700, 1.000000000000000000, 0.7071067811865475700, 1.000000000000000000 ) ) 
 REPRESENTATION_ITEM ( '' )  );
#269 = CARTESIAN_POINT ( 'NONE',  ( -0.9999999999999998900, 0.9999999999999998900, 1.000000000000000000 ) ) ;
#270 = SECURITY_CLASSIFICATION_LEVEL ( 'unclassified' ) ;
#271 = CARTESIAN_POINT ( 'NONE',  ( -13.00000000000000200, 1.005988238676658500, 8.500000000000001800 ) ) ;
#272 = CARTESIAN_POINT ( 'NONE',  ( 0.0000000000000000000, -2.000000000000000400, 7.500000000000000900 ) ) ;
#273 = PERSON_AND_ORGANIZATION_ROLE ( 'classification_officer' ) ;
#274 = CARTESIAN_POINT ( 'NONE',  ( 13.85640646055101800, -2.000000000000009800, 8.500000000000001800 ) ) ;
#275 = CARTESIAN_POINT ( 'NONE',  ( 0.0000000000000000000, 0.0000000000000000000, 0.0000000000000000000 ) ) ;
#276 =( BOUNDED_CURVE ( )  B_SPLINE_CURVE ( 2, ( #354, #126, #397, #185, #34 ),
 .UNSPECIFIED., .F., .F. ) 
 B_SPLINE_CURVE_WITH_KNOTS ( ( 3, 2, 3 ),
 ( 3.141592653589793100, 4.712388980384689700, 6.283185307179586200 ),
 .UNSPECIFIED. ) 
 CURVE ( )  GEOMETRIC_REPRESENTATION_ITEM ( )  RATIONAL_B_SPLINE_CURVE ( ( 1.000000000000000000, 0.7071067811865475700, 1.000000000000000000, 0.7071067811865475700, 1.000000000000000000 ) ) 
 REPRESENTATION_ITEM ( '' )  );
#277 = LINE ( 'NONE', #342, #114 ) ;
#278 = CARTESIAN_POINT ( 'NONE',  ( -14.00000000000000200, 0.0000000000000000000, 9.500000000000001800 ) ) ;
#279 = CARTESIAN_POINT ( 'NONE',  ( -12.84523257866513100, 2.000000000000000400, 7.500000000000000900 ) ) ;
#280 =( BOUNDED_CURVE ( )  B_SPLINE_CURVE ( 2, ( #113, #140, #110 ),
 .UNSPECIFIED., .F., .F. ) 
 B_SPLINE_CURVE_WITH_KNOTS ( ( 3, 3 ),
 ( 3.141592653589793100, 3.296052252073977200 ),
 .UNSPECIFIED. ) 
 CURVE ( )  GEOMETRIC_REPRESENTATION_ITEM ( )  RATIONAL_B_SPLINE_CURVE ( ( 1.000000000000000000, 0.9970192610334746000, 1.000000000000000000 ) ) 
 REPRESENTATION_ITEM ( '' )  );
#281 = CARTESIAN_POINT ( 'NONE',  ( 2.000000000000045300, -12.84523257866512400, 8.500000000000001800 ) ) ;
#282 = CARTESIAN_POINT ( 'NONE',  ( -13.85640646055102100, -2.000000000000000400, 8.500000000000001800 ) ) ;
#283 = B_SPLINE_CURVE_WITH_KNOTS ( 'NONE', 1,
 ( #282, #245 ),
 .UNSPECIFIED., .F., .F.,
 ( 2, 2 ),
 ( 0.0001435935394489811600, 0.001154767421334870800 ),
 .UNSPECIFIED. ) ;
#284 = CARTESIAN_POINT ( 'NONE',  ( -14.00000000000000000, 1.714505518806294600E-015, 0.0000000000000000000 ) ) ;
#285 =( BOUNDED_CURVE ( )  B_SPLINE_CURVE ( 2, ( #315, #314, #27 ),
 .UNSPECIFIED., .F., .F. ) 
 B_SPLINE_CURVE_WITH_KNOTS ( ( 3, 3 ),
 ( 1.427448757889527900, 1.714143895700251500 ),
 .UNSPECIFIED. ) 
 CURVE ( )  GEOMETRIC_REPRESENTATION_ITEM ( )  RATIONAL_B_SPLINE_CURVE ( ( 1.000000000000000000, 0.9897433186107875700, 1.000000000000000000 ) ) 
 REPRESENTATION_ITEM ( '' )  );
#286 = CARTESIAN_POINT ( 'NONE',  ( 13.99999999999999800, 1.005154776142867400, 8.500000000000001800 ) ) ;
#287 = CARTESIAN_POINT ( 'NONE',  ( -13.85640646055102100, 2.000000000000000400, 8.500000000000001800 ) ) ;
#288 = LOCAL_TIME ( 18, 33, 18.00000000000000000, #222 ) ;
#289 = VECTOR ( 'NONE', #262, 4.000000000000000900 ) ;
#290 = CARTESIAN_POINT ( 'NONE',  ( -1.999999999999952300, -12.84523257866513800, 7.500000000000000900 ) ) ;
#291 = AXIS2_PLACEMENT_3D ( 'NONE', #275, #345, #18 ) ;
#292 = CARTESIAN_POINT ( 'NONE',  ( -13.00000000000000200, -13.00000000000000400, 1.000000000000000900 ) ) ;
#293 = CARTESIAN_POINT ( 'NONE',  ( -13.85640646055101900, 2.000000000000001800, 8.500000000000001800 ) ) ;
#294 = CARTESIAN_POINT ( 'NONE',  ( 1.000000000000000000, -2.449293598294706400E-016, 0.0000000000000000000 ) ) ;
#295 = CARTESIAN_POINT ( 'NONE',  ( 12.84523257866513100, -2.000000000000000400, 8.500000000000001800 ) ) ;
#296 = B_SPLINE_CURVE_WITH_KNOTS ( 'NONE', 1,
 ( #260, #257 ),
 .UNSPECIFIED., .F., .F.,
 ( 2, 2 ),
 ( 0.006500000000000000600, 0.007500000000000002300 ),
 .UNSPECIFIED. ) ;
#297 = CARTESIAN_POINT ( 'NONE',  ( -1.999999999999951800, -13.85640646055102800, 7.500000000000000900 ) ) ;
#298 = CARTESIAN_POINT ( 'NONE',  ( 13.85640646055102100, -2.000000000000000400, 8.500000000000001800 ) ) ;
#299 = CC_DESIGN_APPROVAL ( #158, ( #150 ) ) ;
#300 =( BOUNDED_CURVE ( )  B_SPLINE_CURVE ( 2, ( #23, #271, #85 ),
 .UNSPECIFIED., .F., .F. ) 
 B_SPLINE_CURVE_WITH_KNOTS ( ( 3, 3 ),
 ( 2.987133055105609000, 3.141592653589793100 ),
 .UNSPECIFIED. ) 
 CURVE ( )  GEOMETRIC_REPRESENTATION_ITEM ( )  RATIONAL_B_SPLINE_CURVE ( ( 1.000000000000000000, 0.9970192610334746000, 1.000000000000000000 ) ) 
 REPRESENTATION_ITEM ( '' )  );
#301 = B_SPLINE_CURVE_WITH_KNOTS ( 'NONE', 1,
 ( #142, #83 ),
 .UNSPECIFIED., .F., .F.,
 ( 2, 2 ),
 ( -0.008500000000000000600, -0.007500000000000002300 ),
 .UNSPECIFIED. ) ;
#302 =( BOUNDED_CURVE ( )  B_SPLINE_CURVE ( 2, ( #337, #44, #225, #131, #2 ),
 .UNSPECIFIED., .F., .T. ) 
 B_SPLINE_CURVE_WITH_KNOTS ( ( 3, 2, 3 ),
 ( 3.141592653589793100, 4.712388980384689700, 6.283185307179586200 ),
 .UNSPECIFIED. ) 
 CURVE ( )  GEOMETRIC_REPRESENTATION_ITEM ( )  RATIONAL_B_SPLINE_CURVE ( ( 1.000000000000000000, 0.7071067811865475700, 1.000000000000000000, 0.7071067811865475700, 1.000000000000000000 ) ) 
 REPRESENTATION_ITEM ( '' )  );
#303 = CARTESIAN_POINT ( 'NONE',  ( 13.00000000000000200, -3.184081677783118600E-015, 8.500000000000001800 ) ) ;
#304 = DIRECTION ( 'NONE',  ( 0.0000000000000000000, 0.0000000000000000000, 1.000000000000000000 ) ) ;
#305 = GEOMETRIC_CURVE_SET ( 'NONE', ( #161, #302, #33, #384, #16, #221, #153, #428, #361, #426, #353, #71, #268, #204, #347, #60, #300, #219, #312, #323, #359, #371, #322, #116, #95, #280, #213, #196, #64, #255, #417, #248, #184, #125, #404, #41, #172, #25, #285, #136, #230, #218, #283, #256, #105, #357, #30, #123, #343, #36, #22, #276, #87, #139, #242, #151, #308, #166, #157, #296, #398, #76, #223, #424, #365, #373, #66, #301, #237, #124, #62, #320, #416, #170, #192, #4, #38, #108, #307, #331, #188, #20, #15, #55, #383, #32 ) ) ;
#306 = CARTESIAN_POINT ( 'NONE',  ( 1.999999999999855200, 13.85640646055104200, 7.500000000000000900 ) ) ;
#307 = CIRCLE ( 'NONE', #247, 14.00000000000000200 ) ;
#308 = B_SPLINE_CURVE_WITH_KNOTS ( 'NONE', 1,
 ( #364, #68 ),
 .UNSPECIFIED., .F., .F.,
 ( 2, 2 ),
 ( 0.0009999999999999991500, 0.002000000000000000900 ),
 .UNSPECIFIED. ) ;
#309 = DATE_TIME_ROLE ( 'classification_date' ) ;
#310 = CARTESIAN_POINT ( 'NONE',  ( -1.999999999999955800, -12.84523257866513800, 7.500000000000000900 ) ) ;
#311 = CARTESIAN_POINT ( 'NONE',  ( -14.00000000000000000, 1.714505518806294600E-015, 8.500000000000001800 ) ) ;
#312 = B_SPLINE_CURVE_WITH_KNOTS ( 'NONE', 1,
 ( #306, #143 ),
 .UNSPECIFIED., .F., .F.,
 ( 2, 2 ),
 ( 0.0001435935394491286200, 0.001154767421335018200 ),
 .UNSPECIFIED. ) ;
#313 = CARTESIAN_POINT ( 'NONE',  ( 0.9999999999999998900, -1.000000000000000200, 1.000000000000000000 ) ) ;
#314 = CARTESIAN_POINT ( 'NONE',  ( -9.539591339091658800E-014, 14.14508159514582500, 7.500000000000000900 ) ) ;
#315 = CARTESIAN_POINT ( 'NONE',  ( -2.000000000000047500, 13.85640646055101200, 7.500000000000000900 ) ) ;
#316 = APPROVAL_DATE_TIME ( #369, #158 ) ;
#317 = CARTESIAN_POINT ( 'NONE',  ( 14.00000000000000000, 1.714505518806294600E-015, 9.500000000000001800 ) ) ;
#318 = CC_DESIGN_PERSON_AND_ORGANIZATION_ASSIGNMENT ( #266, #340, ( #150 ) ) ;
#319 = CARTESIAN_POINT ( 'NONE',  ( -14.00000000000000000, 1.714505518806294600E-015, 9.500000000000001800 ) ) ;
#320 = B_SPLINE_CURVE_WITH_KNOTS ( 'NONE', 1,
 ( #336, #199 ),
 .UNSPECIFIED., .F., .F.,
 ( 2, 2 ),
 ( -0.0000000000000000000, 0.001000000000000000000 ),
 .UNSPECIFIED. ) ;
#321 = LINE ( 'NONE', #177, #430 ) ;
#322 =( BOUNDED_CURVE ( )  B_SPLINE_CURVE ( 2, ( #410, #205, #48 ),
 .UNSPECIFIED., .F., .F. ) 
 B_SPLINE_CURVE_WITH_KNOTS ( ( 3, 3 ),
 ( 1.427448757889541800, 1.714143895700265500 ),
 .UNSPECIFIED. ) 
 CURVE ( )  GEOMETRIC_REPRESENTATION_ITEM ( )  RATIONAL_B_SPLINE_CURVE ( ( 1.000000000000000000, 0.9897433186107875700, 1.000000000000000000 ) ) 
 REPRESENTATION_ITEM ( '' )  );
#323 = B_SPLINE_CURVE_WITH_KNOTS ( 'NONE', 1,
 ( #82, #115 ),
 .UNSPECIFIED., .F., .F.,
 ( 2, 2 ),
 ( -0.002000000000000000000, -0.0009999999999999991500 ),
 .UNSPECIFIED. ) ;
#324 = CARTESIAN_POINT ( 'NONE',  ( 5.712097461696430400E-014, -14.14508159514583200, 7.500000000000000900 ) ) ;
#325 = DATE_AND_TIME ( #327, #418 ) ;
#326 = CARTESIAN_POINT ( 'NONE',  ( -13.85640646055101900, 2.000000000000000400, 7.500000000000000900 ) ) ;
#327 = CALENDAR_DATE ( 2026, 12, 9 ) ;
#328 = CARTESIAN_POINT ( 'NONE',  ( 13.00000000000000200, 1.592040838891559300E-015, 7.500000000000000900 ) ) ;
#329 = CARTESIAN_POINT ( 'NONE',  ( -12.84523257866513100, 2.000000000000000400, 8.500000000000001800 ) ) ;
#330 = CARTESIAN_POINT ( 'NONE',  ( -12.84523257866513100, 2.000000000000000400, 8.500000000000001800 ) ) ;
#331 = CIRCLE ( 'NONE', #145, 1.000000000000000000 ) ;
#332 = CARTESIAN_POINT ( 'NONE',  ( 14.00000000000000000, 1.714505518806294600E-015, 7.500000000000000900 ) ) ;
#333 = CARTESIAN_POINT ( 'NONE',  ( 2.000000000000048000, -12.84523257866512200, 7.500000000000000900 ) ) ;
#334 = CARTESIAN_POINT ( 'NONE',  ( 0.0000000000000000000, 0.0000000000000000000, 0.0000000000000000000 ) ) ;
#335 = CARTESIAN_POINT ( 'NONE',  ( 13.99999999999999800, 14.00000000000000400, 0.0000000000000000000 ) ) ;
#336 = CARTESIAN_POINT ( 'NONE',  ( -1.000000000000000000, 0.0000000000000000000, 1.000000000000000000 ) ) ;
#337 = CARTESIAN_POINT ( 'NONE',  ( -13.00000000000000200, -1.592040838891559300E-015, 1.000000000000000900 ) ) ;
#338 = PERSON_AND_ORGANIZATION ( #45, #206 ) ;
#339 = CARTESIAN_POINT ( 'NONE',  ( 0.0000000000000000000, 0.0000000000000000000, 1.000000000000000000 ) ) ;
#340 = PERSON_AND_ORGANIZATION_ROLE ( 'creator' ) ;
#341 = CARTESIAN_POINT ( 'NONE',  ( -1.608122649676636600E-016, 1.000000000000000000, 1.000000000000000000 ) ) ;
#342 = CARTESIAN_POINT ( 'NONE',  ( 0.0000000000000000000, 2.000000000000000400, 8.500000000000001800 ) ) ;
#343 = B_SPLINE_CURVE_WITH_KNOTS ( 'NONE', 1,
 ( #156, #28 ),
 .UNSPECIFIED., .F., .F.,
 ( 2, 2 ),
 ( 0.0001435935394489811600, 0.001154767421334870800 ),
 .UNSPECIFIED. ) ;
#344 = CC_DESIGN_SECURITY_CLASSIFICATION ( #346, ( #150 ) ) ;
#345 = DIRECTION ( 'NONE',  ( 0.0000000000000000000, 0.0000000000000000000, 1.000000000000000000 ) ) ;
#346 = SECURITY_CLASSIFICATION ( '', '', #270 ) ;
#347 =( BOUNDED_CURVE ( )  B_SPLINE_CURVE ( 2, ( #363, #189, #414 ),
 .UNSPECIFIED., .F., .T. ) 
 B_SPLINE_CURVE_WITH_KNOTS ( ( 3, 3 ),
 ( 3.141592653589793100, 3.296052252073977200 ),
 .UNSPECIFIED. ) 
 CURVE ( )  GEOMETRIC_REPRESENTATION_ITEM ( )  RATIONAL_B_SPLINE_CURVE ( ( 1.000000000000000000, 0.9970192610334746000, 1.000000000000000000 ) ) 
 REPRESENTATION_ITEM ( '' )  );
#348 = CARTESIAN_POINT ( 'NONE',  ( 12.84523257866512900, 2.000000000000002200, 7.500000000000000900 ) ) ;
#349 = APPROVAL ( #236, '未指定' ) ;
#350 = CARTESIAN_POINT ( 'NONE',  ( -1.999999999999957100, -12.84523257866513600, 8.500000000000001800 ) ) ;
#351 = PERSON_AND_ORGANIZATION ( #45, #206 ) ;
#352 = APPROVAL_DATE_TIME ( #394, #349 ) ;
#353 =( BOUNDED_CURVE ( )  B_SPLINE_CURVE ( 2, ( #333, #367, #290 ),
 .UNSPECIFIED., .F., .T. ) 
 B_SPLINE_CURVE_WITH_KNOTS ( ( 3, 3 ),
 ( 4.557929381900502000, 4.866848578868870200 ),
 .UNSPECIFIED. ) 
 CURVE ( )  GEOMETRIC_REPRESENTATION_ITEM ( )  RATIONAL_B_SPLINE_CURVE ( ( 1.000000000000000000, 0.9880948137434714100, 1.000000000000000000 ) ) 
 REPRESENTATION_ITEM ( '' )  );
#354 = CARTESIAN_POINT ( 'NONE',  ( -13.00000000000000200, 1.592040838891559300E-015, 9.500000000000001800 ) ) ;
#355 = CARTESIAN_POINT ( 'NONE',  ( -9.056644323379715700E-014, 13.15663215632973300, 7.500000000000000900 ) ) ;
#356 = CARTESIAN_POINT ( 'NONE',  ( 2.000000000000048800, -13.85640646055101400, 8.500000000000001800 ) ) ;
#357 =( BOUNDED_CURVE ( )  B_SPLINE_CURVE ( 2, ( #317, #415, #91, #147, #319 ),
 .UNSPECIFIED., .F., .T. ) 
 B_SPLINE_CURVE_WITH_KNOTS ( ( 3, 2, 3 ),
 ( 1.224646799147353200E-016, 1.570796326794896800, 3.141592653589793100 ),
 .UNSPECIFIED. ) 
 CURVE ( )  GEOMETRIC_REPRESENTATION_ITEM ( )  RATIONAL_B_SPLINE_CURVE ( ( 1.000000000000000000, 0.7071067811865475700, 1.000000000000000000, 0.7071067811865475700, 1.000000000000000000 ) ) 
 REPRESENTATION_ITEM ( '' )  );
#358 = CARTESIAN_POINT ( 'NONE',  ( -13.00000000000000200, 13.00000000000000200, 9.500000000000001800 ) ) ;
#359 =( BOUNDED_CURVE ( )  B_SPLINE_CURVE ( 2, ( #412, #377, #17 ),
 .UNSPECIFIED., .F., .F. ) 
 B_SPLINE_CURVE_WITH_KNOTS ( ( 3, 3 ),
 ( 0.0000000000000000000, 0.1544595984841841100 ),
 .UNSPECIFIED. ) 
 CURVE ( )  GEOMETRIC_REPRESENTATION_ITEM ( )  RATIONAL_B_SPLINE_CURVE ( ( 1.000000000000000000, 0.9970192610334746000, 1.000000000000000000 ) ) 
 REPRESENTATION_ITEM ( '' )  );
#360 = CARTESIAN_POINT ( 'NONE',  ( -2.000000000000045700, 12.84523257866512400, 8.500000000000001800 ) ) ;
#361 =( BOUNDED_CURVE ( )  B_SPLINE_CURVE ( 2, ( #332, #403, #134 ),
 .UNSPECIFIED., .F., .T. ) 
 B_SPLINE_CURVE_WITH_KNOTS ( ( 3, 3 ),
 ( 3.141592653589793100, 3.284940222495158500 ),
 .UNSPECIFIED. ) 
 CURVE ( )  GEOMETRIC_REPRESENTATION_ITEM ( )  RATIONAL_B_SPLINE_CURVE ( ( 1.000000000000000000, 0.9974325337111245000, 1.000000000000000000 ) ) 
 REPRESENTATION_ITEM ( '' )  );
#362 = CARTESIAN_POINT ( 'NONE',  ( -1.999999999999954500, -13.85640646055102500, 7.500000000000000900 ) ) ;
#363 = CARTESIAN_POINT ( 'NONE',  ( 13.00000000000000200, 1.592040838891559300E-015, 7.500000000000000900 ) ) ;
#364 = CARTESIAN_POINT ( 'NONE',  ( -2.000000000000045300, 12.84523257866512400, 8.500000000000001800 ) ) ;
#365 =( BOUNDED_CURVE ( )  B_SPLINE_CURVE ( 2, ( #284, #159, #1, #96, #224 ),
 .UNSPECIFIED., .F., .T. ) 
 B_SPLINE_CURVE_WITH_KNOTS ( ( 3, 2, 3 ),
 ( 3.141592653589793100, 4.712388980384689700, 6.283185307179586200 ),
 .UNSPECIFIED. ) 
 CURVE ( )  GEOMETRIC_REPRESENTATION_ITEM ( )  RATIONAL_B_SPLINE_CURVE ( ( 1.000000000000000000, 0.7071067811865475700, 1.000000000000000000, 0.7071067811865475700, 1.000000000000000000 ) ) 
 REPRESENTATION_ITEM ( '' )  );
#366 = CARTESIAN_POINT ( 'NONE',  ( -2.571758278209441300E-015, -14.00000000000000000, 9.500000000000001800 ) ) ;
#367 = CARTESIAN_POINT ( 'NONE',  ( 4.762856775641922200E-014, -13.15663215632973900, 7.500000000000000900 ) ) ;
#368 = CARTESIAN_POINT ( 'NONE',  ( 12.84523257866513100, -2.000000000000000400, 7.500000000000000900 ) ) ;
#369 = DATE_AND_TIME ( #228, #31 ) ;
#370 = CARTESIAN_POINT ( 'NONE',  ( 12.84523257866513100, 2.000000000000000400, 7.500000000000000900 ) ) ;
#371 = B_SPLINE_CURVE_WITH_KNOTS ( 'NONE', 1,
 ( #278, #49 ),
 .UNSPECIFIED., .F., .F.,
 ( 2, 2 ),
 ( -0.008500000000000000600, -0.007500000000000002300 ),
 .UNSPECIFIED. ) ;
#372 = DIRECTION ( 'NONE',  ( 0.9563047559630353200, 0.2923717047227373200, 0.0000000000000000000 ) ) ;
#373 = B_SPLINE_CURVE_WITH_KNOTS ( 'NONE', 1,
 ( #235, #201 ),
 .UNSPECIFIED., .F., .F.,
 ( 2, 2 ),
 ( 0.006500000000000000600, 0.007500000000000002300 ),
 .UNSPECIFIED. ) ;
#374 = CARTESIAN_POINT ( 'NONE',  ( 13.85640646055102100, -2.000000000000000400, 8.500000000000001800 ) ) ;
#375 = CARTESIAN_POINT ( 'NONE',  ( -12.84523257866512900, -2.000000000000003600, 7.500000000000000900 ) ) ;
#376 = AXIS2_PLACEMENT_3D ( 'NONE', #135, #175, #12 ) ;
#377 = CARTESIAN_POINT ( 'NONE',  ( -13.00000000000000200, 1.005988238676657200, 7.500000000000000900 ) ) ;
#378 = APPLICATION_PROTOCOL_DEFINITION ( 'international standard', 'config_control_design', 1994, #144 ) ;
#379 = APPROVAL_ROLE ( '' ) ;
#380 = CARTESIAN_POINT ( 'NONE',  ( 13.85640646055102100, -2.000000000000000400, 7.500000000000000900 ) ) ;
#381 = CARTESIAN_POINT ( 'NONE',  ( 2.000000000000045300, -12.84523257866512400, 7.500000000000000900 ) ) ;
#382 = CARTESIAN_POINT ( 'NONE',  ( 13.00000000000000200, 1.592040838891559300E-015, 1.000000000000000900 ) ) ;
#383 = TRIMMED_CURVE ( 'NONE', #217, ( PARAMETER_VALUE ( 0.0000000000000000000 ), #14 ), ( PARAMETER_VALUE ( 0.9999999999999991100 ), #272 ), .T., .PARAMETER. ) ;
#384 = B_SPLINE_CURVE_WITH_KNOTS ( 'NONE', 1,
 ( #195, #263 ),
 .UNSPECIFIED., .F., .F.,
 ( 2, 2 ),
 ( -0.0000000000000000000, 0.001000000000000000000 ),
 .UNSPECIFIED. ) ;
#385 = CARTESIAN_POINT ( 'NONE',  ( 12.84523257866513100, -2.000000000000000400, 7.500000000000000900 ) ) ;
#386 = CARTESIAN_POINT ( 'NONE',  ( -13.99999999999999800, -1.005154776142865200, 8.500000000000001800 ) ) ;
#387 = CC_DESIGN_DATE_AND_TIME_ASSIGNMENT ( #216, #309, ( #346 ) ) ;
#388 = CARTESIAN_POINT ( 'NONE',  ( 13.00000000000000200, 13.00000000000000500, 9.500000000000001800 ) ) ;
#389 = PRODUCT_DEFINITION_SHAPE ( 'NONE', 'NONE',  #210 ) ;
#390 = CALENDAR_DATE ( 2026, 12, 9 ) ;
#391 = CARTESIAN_POINT ( 'NONE',  ( -14.00000000000000000, 0.0000000000000000000, 7.500000000000000900 ) ) ;
#392 = LOCAL_TIME ( 18, 33, 18.00000000000000000, #81 ) ;
#393 = PRODUCT ( '电池层上盖', '电池层上盖', '', ( #411 ) ) ;
#394 = DATE_AND_TIME ( #390, #121 ) ;
#395 = CARTESIAN_POINT ( 'NONE',  ( 14.00000000000000000, 1.714505518806294600E-015, 7.500000000000000900 ) ) ;
#396 = CARTESIAN_POINT ( 'NONE',  ( -14.00000000000000000, 1.714505518806294600E-015, 0.0000000000000000000 ) ) ;
#397 = CARTESIAN_POINT ( 'NONE',  ( -2.388061258337338900E-015, -13.00000000000000200, 9.500000000000001800 ) ) ;
#398 = B_SPLINE_CURVE_WITH_KNOTS ( 'NONE', 1,
 ( #287, #330 ),
 .UNSPECIFIED., .F., .F.,
 ( 2, 2 ),
 ( 0.0001435935394489811600, 0.001154767421334870800 ),
 .UNSPECIFIED. ) ;
#399 = CARTESIAN_POINT ( 'NONE',  ( -1.000000000000000000, 1.224646799147353200E-016, 0.0000000000000000000 ) ) ;
#400 = CARTESIAN_POINT ( 'NONE',  ( -14.00000000000000200, 0.0000000000000000000, 7.500000000000000900 ) ) ;
#401 = CARTESIAN_POINT ( 'NONE',  ( 12.84523257866513100, 2.000000000000000400, 7.500000000000000900 ) ) ;
#402 = CARTESIAN_POINT ( 'NONE',  ( 13.00000000000000200, 1.005988238676657900, 8.500000000000001800 ) ) ;
#403 = CARTESIAN_POINT ( 'NONE',  ( 13.99999999999999800, -1.005154776142865200, 7.500000000000000900 ) ) ;
#404 = B_SPLINE_CURVE_WITH_KNOTS ( 'NONE', 1,
 ( #212, #182 ),
 .UNSPECIFIED., .F., .F.,
 ( 2, 2 ),
 ( -0.007500000000000002300, -0.006500000000000000600 ),
 .UNSPECIFIED. ) ;
#405 = CARTESIAN_POINT ( 'NONE',  ( 0.9999999999999998900, -1.000000000000000200, 0.0000000000000000000 ) ) ;
#406 = CARTESIAN_POINT ( 'NONE',  ( -1.000000000000000200, -0.9999999999999998900, 1.000000000000000000 ) ) ;
#407 = CARTESIAN_POINT ( 'NONE',  ( 14.00000000000000000, -3.429011037612589300E-015, 9.500000000000001800 ) ) ;
#408 = CARTESIAN_POINT ( 'NONE',  ( 12.84523257866513100, -2.000000000000000400, 8.500000000000001800 ) ) ;
#409 =( NAMED_UNIT ( * ) PLANE_ANGLE_UNIT ( ) SI_UNIT ( $, .RADIAN. ) );
#410 = CARTESIAN_POINT ( 'NONE',  ( 1.999999999999853500, 13.85640646055104100, 8.500000000000001800 ) ) ;
#411 = MECHANICAL_CONTEXT ( 'NONE', #144, 'mechanical' ) ;
#412 = CARTESIAN_POINT ( 'NONE',  ( -13.00000000000000200, 0.0000000000000000000, 7.500000000000000900 ) ) ;
#413 = CC_DESIGN_PERSON_AND_ORGANIZATION_ASSIGNMENT ( #173, #112, ( #150 ) ) ;
#414 = CARTESIAN_POINT ( 'NONE',  ( 12.84523257866513100, -1.999999999999998700, 7.500000000000000900 ) ) ;
#415 = CARTESIAN_POINT ( 'NONE',  ( 13.99999999999999800, 14.00000000000000400, 9.500000000000001800 ) ) ;
#416 = B_SPLINE_CURVE_WITH_KNOTS ( 'NONE', 1,
 ( #368, #295 ),
 .UNSPECIFIED., .F., .F.,
 ( 2, 2 ),
 ( -0.002000000000000000900, -0.0009999999999999991500 ),
 .UNSPECIFIED. ) ;
#417 = B_SPLINE_CURVE_WITH_KNOTS ( 'NONE', 1,
 ( #155, #211 ),
 .UNSPECIFIED., .F., .F.,
 ( 2, 2 ),
 ( 0.0001435935394490297400, 0.001154767421334919300 ),
 .UNSPECIFIED. ) ;
#418 = LOCAL_TIME ( 18, 33, 18.00000000000000000, #174 ) ;
#419 = CARTESIAN_POINT ( 'NONE',  ( -2.000000000000044000, 12.84523257866512400, 7.500000000000000900 ) ) ;
#420 = APPROVAL_DATE_TIME ( #72, #253 ) ;
#421 = CALENDAR_DATE ( 2026, 12, 9 ) ;
#422 = CARTESIAN_POINT ( 'NONE',  ( -1.999999999999955400, -12.84523257866513800, 7.500000000000000900 ) ) ;
#423 = CC_DESIGN_PERSON_AND_ORGANIZATION_ASSIGNMENT ( #254, #51, ( #210 ) ) ;
#424 = B_SPLINE_CURVE_WITH_KNOTS ( 'NONE', 1,
 ( #162, #187 ),
 .UNSPECIFIED., .F., .F.,
 ( 2, 2 ),
 ( 0.0001435935394489811600, 0.001154767421334870800 ),
 .UNSPECIFIED. ) ;
#425 = CARTESIAN_POINT ( 'NONE',  ( -9.507672427133685600E-014, 13.15663215632973300, 8.500000000000000000 ) ) ;
#426 =( BOUNDED_CURVE ( )  B_SPLINE_CURVE ( 2, ( #7, #129, #42, #405, #294 ),
 .UNSPECIFIED., .F., .T. ) 
 B_SPLINE_CURVE_WITH_KNOTS ( ( 3, 2, 3 ),
 ( 3.141592653589793100, 4.712388980384689700, 6.283185307179586200 ),
 .UNSPECIFIED. ) 
 CURVE ( )  GEOMETRIC_REPRESENTATION_ITEM ( )  RATIONAL_B_SPLINE_CURVE ( ( 1.000000000000000000, 0.7071067811865475700, 1.000000000000000000, 0.7071067811865475700, 1.000000000000000000 ) ) 
 REPRESENTATION_ITEM ( '' )  );
#427 = GEOMETRICALLY_BOUNDED_WIREFRAME_SHAPE_REPRESENTATION ( '电池层上盖', ( #305, #291 ), #163 ) ;
#428 = B_SPLINE_CURVE_WITH_KNOTS ( 'NONE', 1,
 ( #74, #329 ),
 .UNSPECIFIED., .F., .F.,
 ( 2, 2 ),
 ( -0.002000000000000000900, -0.0009999999999999991500 ),
 .UNSPECIFIED. ) ;
#429 = CARTESIAN_POINT ( 'NONE',  ( 13.85640646055101900, 2.000000000000001800, 7.500000000000000900 ) ) ;
#430 = VECTOR ( 'NONE', #207, 4.000000000000000900 ) ;
ENDSEC;
END-ISO-10303-21;
